<svg width="21" height="20" viewBox="0 0 21 20" fill="none" xmlns="http://www.w3.org/2000/svg">
<path d="M10.7732 0C5.2532 0 0.783203 4.48 0.783203 10C0.783203 15.52 5.2532 20 10.7732 20C16.3032 20 20.7832 15.52 20.7832 10C20.7832 4.48 16.3032 0 10.7732 0ZM17.7032 6H14.7532C14.4332 4.75 13.9732 3.55 13.3732 2.44C15.2132 3.07 16.7432 4.35 17.7032 6ZM10.7832 2.04C11.6132 3.24 12.2632 4.57 12.6932 6H8.8732C9.3032 4.57 9.9532 3.24 10.7832 2.04ZM3.0432 12C2.8832 11.36 2.7832 10.69 2.7832 10C2.7832 9.31 2.8832 8.64 3.0432 8H6.4232C6.3432 8.66 6.2832 9.32 6.2832 10C6.2832 10.68 6.3432 11.34 6.4232 12H3.0432ZM3.8632 14H6.8132C7.1332 15.25 7.5932 16.45 8.1932 17.56C6.3532 16.93 4.8232 15.66 3.8632 14ZM6.8132 6H3.8632C4.8232 4.34 6.3532 3.07 8.1932 2.44C7.5932 3.55 7.1332 4.75 6.8132 6ZM10.7832 17.96C9.9532 16.76 9.3032 15.43 8.8732 14H12.6932C12.2632 15.43 11.6132 16.76 10.7832 17.96ZM13.1232 12H8.4432C8.3532 11.34 8.2832 10.68 8.2832 10C8.2832 9.32 8.3532 8.65 8.4432 8H13.1232C13.2132 8.65 13.2832 9.32 13.2832 10C13.2832 10.68 13.2132 11.34 13.1232 12ZM13.3732 17.56C13.9732 16.45 14.4332 15.25 14.7532 14H17.7032C16.7432 15.65 15.2132 16.93 13.3732 17.56ZM15.1432 12C15.2232 11.34 15.2832 10.68 15.2832 10C15.2832 9.32 15.2232 8.66 15.1432 8H18.5232C18.6832 8.64 18.7832 9.31 18.7832 10C18.7832 10.69 18.6832 11.36 18.5232 12H15.1432Z" fill="#AAAAAA"/>
</svg>
