<svg width="27" height="27" viewBox="0 0 27 27" fill="none" xmlns="http://www.w3.org/2000/svg">
<path d="M21.8362 0H4.74724C2.12541 0 0 2.11391 0 4.72154V21.718C0 24.3256 2.12541 26.4395 4.74724 26.4395H21.8362C24.458 26.4395 26.5834 24.3256 26.5834 21.718V4.72154C26.5834 2.11391 24.458 0 21.8362 0Z" fill="#3E5C9A"/>
<path d="M10.6814 20.9702H13.9154V12.9098H16.1573L16.3983 10.2119H13.9154V8.679C13.9154 8.04354 14.0443 7.78712 14.6664 7.78712H16.4151V5H14.1732C11.7688 5 10.6814 6.05353 10.6814 8.07141V10.2231H9V12.9544H10.6814V20.9702Z" fill="white"/>
</svg>
