<svg width="28" height="28" viewBox="0 0 28 28" fill="none" xmlns="http://www.w3.org/2000/svg">
<path d="M22.4192 0.960449H5.33025C2.70842 0.960449 0.583008 3.07434 0.583008 5.68197V22.6783C0.583008 25.2859 2.70842 27.3998 5.33025 27.3998H22.4192C25.041 27.3998 27.1664 25.2859 27.1664 22.6783V5.68197C27.1664 3.07434 25.041 0.960449 22.4192 0.960449Z" fill="url(#paint0_radial_1024_637)"/>
<path d="M13.8777 8.23504C15.8226 8.23504 16.0524 8.23504 16.8202 8.27406C17.2817 8.27903 17.7388 8.36391 18.171 8.52491C18.4887 8.64753 18.7757 8.83779 19.0117 9.08235C19.2601 9.31502 19.4518 9.601 19.5722 9.91851C19.7341 10.3484 19.8194 10.803 19.8244 11.2619C19.858 12.0256 19.8692 12.2542 19.8692 14.1941C19.8692 16.134 19.8692 16.357 19.8244 17.1207C19.8194 17.5796 19.7341 18.0343 19.5722 18.4641C19.4518 18.7816 19.2601 19.0676 19.0117 19.3003C18.7757 19.5448 18.4887 19.7351 18.171 19.8577C17.7388 20.0187 17.2817 20.1036 16.8202 20.1086C16.0524 20.142 15.8226 20.1476 13.8777 20.1476C11.9329 20.1476 11.6975 20.1476 10.9296 20.1086C10.4682 20.1029 10.0113 20.018 9.57889 19.8577C9.2634 19.7385 8.9769 19.5542 8.73828 19.3169C8.49965 19.0795 8.31432 18.7946 8.19451 18.4808C8.03264 18.051 7.94729 17.5964 7.94229 17.1374C7.90866 16.3737 7.90306 16.1451 7.90306 14.2108C7.90306 12.2765 7.90306 12.0424 7.94229 11.2787C7.94729 10.8197 8.03264 10.3651 8.19451 9.93523C8.31432 9.62146 8.49965 9.33652 8.73828 9.09918C8.9769 8.86185 9.2634 8.67752 9.57889 8.55836C10.0113 8.39802 10.4682 8.31315 10.9296 8.3075C11.6975 8.27406 11.9273 8.26848 13.8777 8.26848V8.23504ZM13.8777 6.9585C11.8937 6.9585 11.6358 6.9585 10.868 7.00309C10.264 7.01306 9.6665 7.12814 9.10248 7.34313C8.619 7.5297 8.17992 7.81442 7.81322 8.17913C7.44652 8.54384 7.16025 8.98055 6.97267 9.46141C6.75651 10.0224 6.6408 10.6167 6.63078 11.2174C6.59715 11.9922 6.58594 12.2375 6.58594 14.2108C6.58594 16.1842 6.58594 16.4406 6.63078 17.1987C6.6408 17.7994 6.75651 18.3937 6.97267 18.9546C7.16025 19.4355 7.44652 19.8722 7.81322 20.2369C8.17992 20.6016 8.619 20.8864 9.10248 21.0729C9.6665 21.2879 10.264 21.403 10.868 21.413C11.647 21.4464 11.8937 21.4576 13.8777 21.4576C15.8618 21.4576 16.1196 21.4576 16.8819 21.413C17.4859 21.4036 18.0835 21.2885 18.6474 21.0729C19.1358 20.8928 19.5779 20.6072 19.9421 20.2368C20.3118 19.8745 20.5985 19.4372 20.7828 18.9546C20.994 18.3925 21.1077 17.7987 21.1191 17.1987C21.1527 16.4239 21.1639 16.1786 21.1639 14.2108C21.1639 12.243 21.1639 11.981 21.1191 11.2174C21.1077 10.6173 20.994 10.0236 20.7828 9.46141C20.5985 8.9789 20.3118 8.54159 19.9421 8.1793C19.5779 7.80887 19.1358 7.5233 18.6474 7.34313C18.0835 7.12758 17.4859 7.01248 16.8819 7.00309C16.1028 6.96965 15.8562 6.9585 13.8777 6.9585" fill="white"/>
<path d="M13.8775 10.4536C13.1368 10.4525 12.4124 10.67 11.796 11.0785C11.1795 11.487 10.6988 12.0682 10.4145 12.7485C10.1303 13.4288 10.0554 14.1777 10.1992 14.9004C10.343 15.6231 10.6992 16.2871 11.2225 16.8085C11.7459 17.3298 12.413 17.685 13.1394 17.8291C13.8659 17.9733 14.6189 17.8999 15.3034 17.6182C15.9878 17.3365 16.5729 16.8592 16.9845 16.2467C17.3962 15.6343 17.6159 14.9141 17.6159 14.1774C17.6159 13.1907 17.2222 12.2444 16.5213 11.5462C15.8204 10.8481 14.8695 10.4551 13.8775 10.4536V10.4536ZM13.8775 16.5855C13.396 16.5866 12.9249 16.4455 12.524 16.1801C12.1231 15.9147 11.8105 15.5369 11.6257 15.0946C11.4409 14.6523 11.3922 14.1654 11.4859 13.6956C11.5796 13.2258 11.8114 12.7942 12.1519 12.4555C12.4924 12.1168 12.9264 11.8863 13.3987 11.7931C13.8711 11.6999 14.3607 11.7483 14.8054 11.9321C15.2501 12.1159 15.6299 12.4269 15.8968 12.8256C16.1636 13.2243 16.3055 13.6928 16.3044 14.1718C16.3044 14.8119 16.0487 15.4259 15.5936 15.8786C15.1384 16.3312 14.5212 16.5855 13.8775 16.5855" fill="white"/>
<path d="M18.6413 10.3084C18.6413 10.4814 18.59 10.6504 18.4939 10.7942C18.3978 10.938 18.2613 11.05 18.1015 11.1162C17.9418 11.1824 17.766 11.1997 17.5963 11.166C17.4267 11.1322 17.2709 11.049 17.1487 10.9267C17.0264 10.8044 16.9431 10.6486 16.9094 10.479C16.8756 10.3094 16.893 10.1336 16.9591 9.97383C17.0253 9.81406 17.1374 9.67751 17.2812 9.58143C17.4249 9.48536 17.594 9.43408 17.7669 9.43408C17.9988 9.43408 18.2212 9.5262 18.3852 9.69017C18.5491 9.85414 18.6413 10.0765 18.6413 10.3084" fill="white"/>
<defs>
<radialGradient id="paint0_radial_1024_637" cx="0" cy="0" r="1" gradientUnits="userSpaceOnUse" gradientTransform="translate(-0.0839608 27.4834) scale(49.1482 48.8819)">
<stop stop-color="#F5EC53"/>
<stop offset="0.24" stop-color="#E48244"/>
<stop offset="0.4" stop-color="#D15767"/>
<stop offset="0.49" stop-color="#C84278"/>
<stop offset="1" stop-color="#192CFA"/>
</radialGradient>
</defs>
</svg>
