<svg width="23" height="18" viewBox="0 0 23 18" fill="none" xmlns="http://www.w3.org/2000/svg">
<path d="M3.7832 18V7.975L1.6832 9.575L0.783203 8.375L11.7832 0L22.7832 8.4L21.8832 9.575L19.7832 7.975V18H3.7832ZM5.2832 16.5H18.2832V6.825L11.7832 1.875L5.2832 6.825V16.5ZM5.2832 16.5H18.2832H11.7832H5.2832ZM7.7832 12C7.49987 12 7.26237 11.9042 7.0707 11.7125C6.87904 11.5208 6.7832 11.2833 6.7832 11C6.7832 10.7167 6.87904 10.4792 7.0707 10.2875C7.26237 10.0958 7.49987 10 7.7832 10C8.06654 10 8.30404 10.0958 8.4957 10.2875C8.68737 10.4792 8.7832 10.7167 8.7832 11C8.7832 11.2833 8.68737 11.5208 8.4957 11.7125C8.30404 11.9042 8.06654 12 7.7832 12ZM11.7832 12C11.4999 12 11.2624 11.9042 11.0707 11.7125C10.879 11.5208 10.7832 11.2833 10.7832 11C10.7832 10.7167 10.879 10.4792 11.0707 10.2875C11.2624 10.0958 11.4999 10 11.7832 10C12.0665 10 12.304 10.0958 12.4957 10.2875C12.6874 10.4792 12.7832 10.7167 12.7832 11C12.7832 11.2833 12.6874 11.5208 12.4957 11.7125C12.304 11.9042 12.0665 12 11.7832 12ZM15.7832 12C15.4999 12 15.2624 11.9042 15.0707 11.7125C14.879 11.5208 14.7832 11.2833 14.7832 11C14.7832 10.7167 14.879 10.4792 15.0707 10.2875C15.2624 10.0958 15.4999 10 15.7832 10C16.0665 10 16.304 10.0958 16.4957 10.2875C16.6874 10.4792 16.7832 10.7167 16.7832 11C16.7832 11.2833 16.6874 11.5208 16.4957 11.7125C16.304 11.9042 16.0665 12 15.7832 12Z" fill="#A29999"/>
</svg>
