<svg width="28" height="28" viewBox="0 0 28 28" fill="none" xmlns="http://www.w3.org/2000/svg">
<path d="M22.4192 0.933105H5.33025C2.70842 0.933105 0.583008 3.04701 0.583008 5.65464V22.6511C0.583008 25.2587 2.70842 27.3726 5.33025 27.3726H22.4192C25.041 27.3726 27.1664 25.2587 27.1664 22.6511V5.65464C27.1664 3.04701 25.041 0.933105 22.4192 0.933105Z" fill="#CD2129"/>
<path d="M9.62384 15.3876C9.66798 15.4103 9.7169 15.4222 9.76657 15.4224C9.81624 15.4226 9.86526 15.4111 9.90958 15.3888C9.9539 15.3665 9.99226 15.334 10.0215 15.2941C10.0508 15.2541 10.0701 15.2079 10.0778 15.1591C10.1171 15.003 10.2179 14.6016 10.2628 14.4344C10.2976 14.3475 10.3033 14.2518 10.2791 14.1614C10.2549 14.071 10.202 13.9908 10.1283 13.9327C9.71734 13.437 9.50568 12.8074 9.53417 12.1656C9.52672 11.5843 9.63869 11.0077 9.8632 10.471C10.0877 9.93424 10.4201 9.44877 10.8398 9.04429C11.2596 8.63981 11.7581 8.32485 12.3045 8.1187C12.851 7.91255 13.4341 7.81955 14.018 7.8454C16.4561 7.8454 17.79 9.32262 17.79 11.3016C17.79 13.8993 16.6354 16.0956 14.9147 16.0956C14.6958 16.1066 14.4773 16.0664 14.2768 15.9781C14.0763 15.8898 13.8994 15.756 13.7604 15.5874C13.6214 15.4187 13.5241 15.22 13.4763 15.0072C13.4286 14.7943 13.4318 14.5733 13.4855 14.3619C13.7602 13.2192 14.287 11.9816 14.287 11.1566C14.3079 10.9858 14.2917 10.8126 14.2395 10.6485C14.1874 10.4845 14.1005 10.3335 13.9847 10.2056C13.8689 10.0778 13.7269 9.97612 13.5683 9.90747C13.4097 9.83881 13.2381 9.80476 13.0652 9.80761C12.0955 9.80761 11.3165 10.8054 11.3165 12.1377C11.3101 12.6281 11.4074 13.1143 11.6023 13.5648L10.4365 18.4815C10.2325 19.6144 10.223 20.7736 10.4085 21.9097C10.4132 21.9328 10.4245 21.954 10.441 21.9708C10.4575 21.9876 10.4786 21.9994 10.5016 22.0047C10.5246 22.01 10.5487 22.0086 10.571 22.0006C10.5932 21.9927 10.6127 21.9786 10.6271 21.9599C11.3437 21.0789 11.8978 20.0786 12.2637 19.0055C12.3758 18.6097 12.9026 16.5304 12.9026 16.5304C13.1513 16.8894 13.4872 17.18 13.8793 17.3749C14.2713 17.5699 14.7066 17.6629 15.1445 17.6453C18.059 17.6453 20.0375 15.003 20.0375 11.4688C20.0375 8.79305 17.7564 6.30127 14.2982 6.30127C9.98816 6.30127 7.81351 9.37279 7.81351 11.937C7.76306 13.4867 8.35717 14.8636 9.62384 15.3876Z" fill="white"/>
</svg>
