<svg width="18" height="18" viewBox="0 0 18 18" fill="none" xmlns="http://www.w3.org/2000/svg">
<path d="M6.28353 13.4587H11.0752C11.2696 13.4587 11.4328 13.417 11.5648 13.3337C11.6967 13.2503 11.8113 13.1253 11.9085 12.9587L13.5335 9.16699C13.5613 9.09755 13.5856 8.99338 13.6064 8.85449C13.6273 8.7156 13.6377 8.61144 13.6377 8.54199V8.04199C13.6377 7.84755 13.5926 7.70519 13.5023 7.61491C13.412 7.52463 13.2696 7.47949 13.0752 7.47949H8.61686L9.2002 4.72949V4.54199C9.2002 4.41699 9.2002 4.31977 9.2002 4.25033C9.2002 4.18088 9.14464 4.09755 9.03353 4.00033L8.6377 3.58366L5.28353 7.20866C5.22797 7.31977 5.17242 7.43088 5.11686 7.54199C5.06131 7.6531 5.03353 7.77116 5.03353 7.89616V12.2087C5.03353 12.5281 5.15853 12.8163 5.40853 13.0732C5.65853 13.3302 5.9502 13.4587 6.28353 13.4587ZM8.78353 17.3337C7.60297 17.3337 6.50575 17.1219 5.49186 16.6982C4.47797 16.2746 3.59603 15.6878 2.84603 14.9378C2.09603 14.1878 1.50922 13.3059 1.08561 12.292C0.662001 11.2781 0.450195 10.1809 0.450195 9.00033C0.450195 7.83366 0.662001 6.74338 1.08561 5.72949C1.50922 4.7156 2.09603 3.83366 2.84603 3.08366C3.59603 2.33366 4.47797 1.74338 5.49186 1.31283C6.50575 0.88227 7.60297 0.666992 8.78353 0.666992C9.9502 0.666992 11.0405 0.88227 12.0544 1.31283C13.0683 1.74338 13.9502 2.33366 14.7002 3.08366C15.4502 3.83366 16.0405 4.7156 16.471 5.72949C16.9016 6.74338 17.1169 7.83366 17.1169 9.00033C17.1169 10.1809 16.9016 11.2781 16.471 12.292C16.0405 13.3059 15.4502 14.1878 14.7002 14.9378C13.9502 15.6878 13.0683 16.2746 12.0544 16.6982C11.0405 17.1219 9.9502 17.3337 8.78353 17.3337ZM8.78353 16.0837C10.7974 16.0837 12.4814 15.4066 13.8356 14.0524C15.1898 12.6982 15.8669 11.0142 15.8669 9.00033C15.8669 6.98644 15.1898 5.30241 13.8356 3.94824C12.4814 2.59408 10.7974 1.91699 8.78353 1.91699C6.76964 1.91699 5.08561 2.59408 3.73145 3.94824C2.37728 5.30241 1.7002 6.98644 1.7002 9.00033C1.7002 11.0142 2.37728 12.6982 3.73145 14.0524C5.08561 15.4066 6.76964 16.0837 8.78353 16.0837Z" fill="#A3A0A0"/>
</svg>
