<svg width="19" height="15" viewBox="0 0 19 15" fill="none" xmlns="http://www.w3.org/2000/svg">
<path d="M3.1875 15C3.02083 15 2.875 14.9375 2.75 14.8125C2.625 14.6875 2.5625 14.5417 2.5625 14.375V13.5H2.29167C1.65278 13.5 1.11111 13.2778 0.666667 12.8333C0.222222 12.3889 0 11.8472 0 11.2083V6.125C0 5.41667 0.215278 4.87847 0.645833 4.51042C1.07639 4.14236 1.58333 3.95833 2.16667 3.95833V2.16667C2.16667 1.52778 2.36806 1.00694 2.77083 0.604167C3.17361 0.201389 3.69444 0 4.33333 0H14.0208C14.6597 0 15.1771 0.201389 15.5729 0.604167C15.9688 1.00694 16.1667 1.52778 16.1667 2.16667V3.95833C16.75 3.95833 17.2569 4.14236 17.6875 4.51042C18.1181 4.87847 18.3333 5.41667 18.3333 6.125V11.2083C18.3333 11.8472 18.1111 12.3889 17.6667 12.8333C17.2222 13.2778 16.6806 13.5 16.0417 13.5H15.7708V14.375C15.7708 14.5417 15.7083 14.6875 15.5833 14.8125C15.4583 14.9375 15.3125 15 15.1458 15C14.9792 15 14.8333 14.9375 14.7083 14.8125C14.5833 14.6875 14.5208 14.5417 14.5208 14.375V13.5H3.8125V14.375C3.8125 14.5417 3.75 14.6875 3.625 14.8125C3.5 14.9375 3.35417 15 3.1875 15ZM2.29167 12.25H16.0417C16.3194 12.25 16.5625 12.1458 16.7708 11.9375C16.9792 11.7292 17.0833 11.4861 17.0833 11.2083V6.125C17.0833 5.84722 17 5.625 16.8333 5.45833C16.6667 5.29167 16.4444 5.20833 16.1667 5.20833C15.8889 5.20833 15.6667 5.29167 15.5 5.45833C15.3333 5.625 15.25 5.84722 15.25 6.125V9.79167H3.08333V6.125C3.08333 5.84722 3 5.625 2.83333 5.45833C2.66667 5.29167 2.44444 5.20833 2.16667 5.20833C1.88889 5.20833 1.66667 5.29167 1.5 5.45833C1.33333 5.625 1.25 5.84722 1.25 6.125V11.2083C1.25 11.4861 1.35417 11.7292 1.5625 11.9375C1.77083 12.1458 2.01389 12.25 2.29167 12.25ZM4.33333 8.54167H14V6.125C14 5.69444 14.0972 5.33681 14.2917 5.05208C14.4861 4.76736 14.6944 4.54167 14.9167 4.375V2.16667C14.9167 1.88889 14.8333 1.66667 14.6667 1.5C14.5 1.33333 14.2778 1.25 14 1.25H4.33333C4.05556 1.25 3.83333 1.33333 3.66667 1.5C3.5 1.66667 3.41667 1.88889 3.41667 2.16667V4.375C3.63889 4.54167 3.84722 4.76736 4.04167 5.05208C4.23611 5.33681 4.33333 5.69444 4.33333 6.125V8.54167Z" fill="black"/>
</svg>
