<svg width="27" height="28" viewBox="0 0 27 28" fill="none" xmlns="http://www.w3.org/2000/svg">
<path d="M21.8362 0.933105H4.74724C2.12541 0.933105 0 3.04701 0 5.65464V22.6511C0 25.2587 2.12541 27.3726 4.74724 27.3726H21.8362C24.458 27.3726 26.5834 25.2587 26.5834 22.6511V5.65464C26.5834 3.04701 24.458 0.933105 21.8362 0.933105Z" fill="#29A9E1"/>
<path d="M6.20996 18.5708C7.48552 19.3842 8.96141 19.833 10.4762 19.8682C11.991 19.9033 13.4864 19.5235 14.7987 18.7702C16.111 18.0169 17.1897 16.9191 17.9169 15.597C18.6441 14.2749 18.9916 12.7793 18.9216 11.2739C19.4927 10.8678 19.9846 10.3615 20.3732 9.77999C19.839 10.0144 19.2721 10.1667 18.6918 10.2315C19.2995 9.8735 19.7542 9.30627 19.9697 8.63724C19.3994 8.9722 18.7758 9.20786 18.1257 9.33404C17.6871 8.87232 17.108 8.56699 16.4776 8.46516C15.8472 8.36333 15.2006 8.47066 14.6377 8.77059C14.0747 9.07052 13.6266 9.54637 13.3626 10.1247C13.0986 10.7031 13.0332 11.3518 13.1767 11.9707C12.0213 11.9136 10.8909 11.6156 9.85873 11.0961C8.82657 10.5766 7.91571 9.84709 7.18519 8.95498C6.81423 9.59153 6.70105 10.3448 6.86869 11.0614C7.03632 11.778 7.47218 12.4041 8.08756 12.8125C7.62582 12.7974 7.17432 12.6732 6.77044 12.4501C6.76086 13.1233 6.98807 13.7786 7.41279 14.3028C7.8375 14.827 8.43303 15.1871 9.09642 15.3209C8.66868 15.436 8.22027 15.4532 7.7849 15.3711C7.97226 15.945 8.33468 16.4466 8.82183 16.8063C9.30898 17.1659 9.89666 17.3657 10.5032 17.3779C9.28757 18.3256 7.74344 18.7546 6.20996 18.5708Z" fill="white"/>
</svg>
