<svg width="503" height="418" viewBox="0 0 503 418" fill="none" xmlns="http://www.w3.org/2000/svg">
<g filter="url(#filter0_d_972_501)">
<rect x="30" y="5" width="451" height="357" rx="8" fill="white"/>
<rect x="30.2" y="5.2" width="450.6" height="356.6" rx="7.8" stroke="#E6E6E6" stroke-width="0.4"/>
</g>
<path d="M61.6461 54.0332H64.2661L58.7461 39.8532H55.9661L50.4461 54.0332H52.9861L54.3061 50.4732H60.3061L61.6461 54.0332ZM57.3061 42.4532L59.4661 48.2532H55.1461L57.3061 42.4532ZM70.0095 46.1332C71.4895 46.1332 72.1495 47.0932 72.3695 47.9532L74.4495 47.1932C74.0495 45.6332 72.6095 43.9932 69.9895 43.9932C67.1895 43.9932 65.0095 46.1532 65.0095 49.1532C65.0095 52.1132 67.1895 54.3332 70.0495 54.3332C72.6095 54.3332 74.0695 52.6732 74.5295 51.1532L72.4895 50.4132C72.2695 51.1532 71.5695 52.2132 70.0495 52.2132C68.5895 52.2132 67.3295 51.1132 67.3295 49.1532C67.3295 47.1932 68.5895 46.1332 70.0095 46.1332ZM79.5298 41.3132H77.4298V42.7732C77.4298 43.6332 76.9698 44.2932 75.9298 44.2932H75.4298V46.3532H77.2298V51.2532C77.2298 53.0732 78.3498 54.1532 80.1498 54.1532C80.9898 54.1532 81.4298 53.9932 81.5698 53.9332V52.0132C81.4698 52.0332 81.0898 52.0932 80.7698 52.0932C79.9098 52.0932 79.5298 51.7332 79.5298 50.8732V46.3532H81.5498V44.2932H79.5298V41.3132ZM86.2336 54.0332V44.2932H83.9336V54.0332H86.2336ZM83.5736 40.8732C83.5736 41.7132 84.2536 42.3732 85.0736 42.3732C85.9136 42.3732 86.5936 41.7132 86.5936 40.8732C86.5936 40.0332 85.9136 39.3532 85.0736 39.3532C84.2536 39.3532 83.5736 40.0332 83.5736 40.8732ZM98.0266 44.2932H95.5866L93.0666 51.2532L90.4866 44.2932H87.9266L91.8866 54.0332H94.2066L98.0266 44.2932ZM102.034 54.0332V44.2932H99.7344V54.0332H102.034ZM99.3744 40.8732C99.3744 41.7132 100.054 42.3732 100.874 42.3732C101.714 42.3732 102.394 41.7132 102.394 40.8732C102.394 40.0332 101.714 39.3532 100.874 39.3532C100.054 39.3532 99.3744 40.0332 99.3744 40.8732ZM107.967 41.3132H105.867V42.7732C105.867 43.6332 105.407 44.2932 104.367 44.2932H103.867V46.3532H105.667V51.2532C105.667 53.0732 106.787 54.1532 108.587 54.1532C109.427 54.1532 109.867 53.9932 110.007 53.9332V52.0132C109.907 52.0332 109.527 52.0932 109.207 52.0932C108.347 52.0932 107.967 51.7332 107.967 50.8732V46.3532H109.987V44.2932H107.967V41.3132ZM115.487 57.9732L121.687 44.2932H119.227L116.607 50.4532L113.807 44.2932H111.187L115.347 52.8732L113.007 57.9732H115.487ZM127.488 51.3932C127.608 52.4932 128.688 54.3332 131.508 54.3332C133.988 54.3332 135.188 52.6932 135.188 51.2132C135.188 49.7732 134.228 48.6532 132.388 48.2532L130.908 47.9532C130.308 47.8332 129.928 47.4532 129.928 46.9332C129.928 46.3332 130.508 45.8132 131.328 45.8132C132.628 45.8132 133.048 46.7132 133.128 47.2732L135.088 46.7132C134.928 45.7532 134.048 43.9932 131.328 43.9932C129.308 43.9932 127.748 45.4332 127.748 47.1332C127.748 48.4732 128.648 49.5932 130.368 49.9732L131.808 50.2932C132.588 50.4532 132.948 50.8532 132.948 51.3732C132.948 51.9732 132.448 52.4932 131.488 52.4932C130.248 52.4932 129.588 51.7132 129.508 50.8332L127.488 51.3932ZM140.428 41.3132H138.328V42.7732C138.328 43.6332 137.868 44.2932 136.828 44.2932H136.328V46.3532H138.128V51.2532C138.128 53.0732 139.248 54.1532 141.048 54.1532C141.888 54.1532 142.328 53.9932 142.468 53.9332V52.0132C142.368 52.0332 141.988 52.0932 141.668 52.0932C140.808 52.0932 140.428 51.7332 140.428 50.8732V46.3532H142.448V44.2932H140.428V41.3132ZM144.252 51.3932C144.252 52.9332 145.512 54.3332 147.552 54.3332C149.132 54.3332 150.092 53.5332 150.552 52.7932C150.552 53.5732 150.632 53.9732 150.652 54.0332H152.812C152.792 53.9332 152.692 53.3532 152.692 52.4732V47.6332C152.692 45.6932 151.552 43.9932 148.552 43.9932C146.152 43.9932 144.632 45.4932 144.452 47.1732L146.572 47.6532C146.672 46.6732 147.352 45.8932 148.572 45.8932C149.852 45.8932 150.412 46.5532 150.412 47.3732C150.412 47.7132 150.252 47.9932 149.692 48.0732L147.192 48.4532C145.532 48.6932 144.252 49.6532 144.252 51.3932ZM147.992 52.5132C147.072 52.5132 146.572 51.9132 146.572 51.2532C146.572 50.4532 147.152 50.0532 147.872 49.9332L150.412 49.5532V49.9932C150.412 51.8932 149.292 52.5132 147.992 52.5132ZM158.397 41.3132H156.297V42.7732C156.297 43.6332 155.837 44.2932 154.797 44.2932H154.297V46.3532H156.097V51.2532C156.097 53.0732 157.217 54.1532 159.017 54.1532C159.857 54.1532 160.297 53.9932 160.437 53.9332V52.0132C160.337 52.0332 159.957 52.0932 159.637 52.0932C158.777 52.0932 158.397 51.7332 158.397 50.8732V46.3532H160.417V44.2932H158.397V41.3132ZM165.101 54.0332V44.2932H162.801V54.0332H165.101ZM162.441 40.8732C162.441 41.7132 163.121 42.3732 163.941 42.3732C164.781 42.3732 165.461 41.7132 165.461 40.8732C165.461 40.0332 164.781 39.3532 163.941 39.3532C163.121 39.3532 162.441 40.0332 162.441 40.8732ZM167.234 51.3932C167.354 52.4932 168.434 54.3332 171.254 54.3332C173.734 54.3332 174.934 52.6932 174.934 51.2132C174.934 49.7732 173.974 48.6532 172.134 48.2532L170.654 47.9532C170.054 47.8332 169.674 47.4532 169.674 46.9332C169.674 46.3332 170.254 45.8132 171.074 45.8132C172.374 45.8132 172.794 46.7132 172.874 47.2732L174.834 46.7132C174.674 45.7532 173.794 43.9932 171.074 43.9932C169.054 43.9932 167.494 45.4332 167.494 47.1332C167.494 48.4732 168.394 49.5932 170.114 49.9732L171.554 50.2932C172.334 50.4532 172.694 50.8532 172.694 51.3732C172.694 51.9732 172.194 52.4932 171.234 52.4932C169.994 52.4932 169.334 51.7132 169.254 50.8332L167.234 51.3932ZM180.174 41.3132H178.074V42.7732C178.074 43.6332 177.614 44.2932 176.574 44.2932H176.074V46.3532H177.874V51.2532C177.874 53.0732 178.994 54.1532 180.794 54.1532C181.634 54.1532 182.074 53.9932 182.214 53.9332V52.0132C182.114 52.0332 181.734 52.0932 181.414 52.0932C180.554 52.0932 180.174 51.7332 180.174 50.8732V46.3532H182.194V44.2932H180.174V41.3132ZM186.878 54.0332V44.2932H184.578V54.0332H186.878ZM184.218 40.8732C184.218 41.7132 184.898 42.3732 185.718 42.3732C186.558 42.3732 187.238 41.7132 187.238 40.8732C187.238 40.0332 186.558 39.3532 185.718 39.3532C184.898 39.3532 184.218 40.0332 184.218 40.8732ZM194.111 46.1332C195.591 46.1332 196.251 47.0932 196.471 47.9532L198.551 47.1932C198.151 45.6332 196.711 43.9932 194.091 43.9932C191.291 43.9932 189.111 46.1532 189.111 49.1532C189.111 52.1132 191.291 54.3332 194.151 54.3332C196.711 54.3332 198.171 52.6732 198.631 51.1532L196.591 50.4132C196.371 51.1532 195.671 52.2132 194.151 52.2132C192.691 52.2132 191.431 51.1132 191.431 49.1532C191.431 47.1932 192.691 46.1332 194.111 46.1332Z" fill="#072C1F"/>
<path d="M54.1381 246.728V237.656H52.9341C52.7241 238.636 51.8561 239.336 50.5961 239.364V240.33H52.7941V246.728H54.1381ZM57.308 242.192C57.308 240.806 57.56 239.826 58.106 239.252C58.456 238.888 58.904 238.664 59.548 238.664C60.192 238.664 60.64 238.888 60.99 239.252C61.536 239.826 61.788 240.806 61.788 242.192C61.788 243.578 61.536 244.558 60.99 245.132C60.64 245.496 60.192 245.72 59.548 245.72C58.904 245.72 58.456 245.496 58.106 245.132C57.56 244.558 57.308 243.578 57.308 242.192ZM55.95 242.192C55.95 243.438 56.16 244.586 56.762 245.482C57.35 246.364 58.26 246.938 59.548 246.938C60.836 246.938 61.746 246.364 62.334 245.482C62.936 244.586 63.146 243.438 63.146 242.192C63.146 240.946 62.936 239.798 62.334 238.902C61.746 238.02 60.836 237.446 59.548 237.446C58.26 237.446 57.35 238.02 56.762 238.902C56.16 239.798 55.95 240.946 55.95 242.192ZM65.8392 242.192C65.8392 240.806 66.0913 239.826 66.6373 239.252C66.9873 238.888 67.4353 238.664 68.0793 238.664C68.7233 238.664 69.1713 238.888 69.5213 239.252C70.0673 239.826 70.3193 240.806 70.3193 242.192C70.3193 243.578 70.0673 244.558 69.5213 245.132C69.1713 245.496 68.7233 245.72 68.0793 245.72C67.4353 245.72 66.9873 245.496 66.6373 245.132C66.0913 244.558 65.8392 243.578 65.8392 242.192ZM64.4813 242.192C64.4813 243.438 64.6913 244.586 65.2933 245.482C65.8813 246.364 66.7913 246.938 68.0793 246.938C69.3673 246.938 70.2773 246.364 70.8653 245.482C71.4673 244.586 71.6773 243.438 71.6773 242.192C71.6773 240.946 71.4673 239.798 70.8653 238.902C70.2773 238.02 69.3673 237.446 68.0793 237.446C66.7913 237.446 65.8813 238.02 65.2933 238.902C64.6913 239.798 64.4813 240.946 64.4813 242.192ZM74.8169 242.766C74.8449 241.772 75.3769 240.988 76.3849 240.988C77.5609 240.988 77.9529 241.744 77.9529 242.682V246.728H79.2689V242.458C79.2689 240.96 78.4709 239.798 76.8609 239.798C76.0909 239.798 75.3069 240.064 74.8169 240.778V236.592H73.5009V246.728H74.8169V242.766Z" fill="black" fill-opacity="0.6"/>
<path d="M52.3041 298.192C52.3041 296.806 52.5561 295.826 53.1021 295.252C53.4521 294.888 53.9001 294.664 54.5441 294.664C55.1881 294.664 55.6361 294.888 55.9861 295.252C56.5321 295.826 56.7841 296.806 56.7841 298.192C56.7841 299.578 56.5321 300.558 55.9861 301.132C55.6361 301.496 55.1881 301.72 54.5441 301.72C53.9001 301.72 53.4521 301.496 53.1021 301.132C52.5561 300.558 52.3041 299.578 52.3041 298.192ZM50.9461 298.192C50.9461 299.438 51.1561 300.586 51.7581 301.482C52.3461 302.364 53.2561 302.938 54.5441 302.938C55.8321 302.938 56.7421 302.364 57.3301 301.482C57.9321 300.586 58.1421 299.438 58.1421 298.192C58.1421 296.946 57.9321 295.798 57.3301 294.902C56.7421 294.02 55.8321 293.446 54.5441 293.446C53.2561 293.446 52.3461 294.02 51.7581 294.902C51.1561 295.798 50.9461 296.946 50.9461 298.192ZM61.2817 298.766C61.3097 297.772 61.8417 296.988 62.8497 296.988C64.0257 296.988 64.4177 297.744 64.4177 298.682V302.728H65.7337V298.458C65.7337 296.96 64.9357 295.798 63.3257 295.798C62.5557 295.798 61.7717 296.064 61.2817 296.778V292.592H59.9657V302.728H61.2817V298.766Z" fill="black" fill-opacity="0.6"/>
<path d="M52.2201 184.918C52.2061 184.778 52.1921 184.638 52.1921 184.512C52.1921 183.476 52.7521 182.65 53.9421 182.65C55.0901 182.65 55.6501 183.42 55.6501 184.246C55.6501 184.946 55.2581 185.59 54.4041 186.136L52.8921 187.116C51.3521 188.11 50.7641 189.244 50.7361 190.728H57.0921V189.454H52.4301C52.5561 188.894 53.0181 188.516 53.5361 188.18L55.3281 187.032C56.3641 186.374 57.0361 185.422 57.0361 184.232C57.0361 182.72 55.9161 181.446 53.9701 181.446C51.9821 181.446 50.8341 182.832 50.8341 184.386C50.8341 184.498 50.8341 184.624 50.8481 184.75L52.2201 184.918ZM59.7142 186.192C59.7142 184.806 59.9663 183.826 60.5123 183.252C60.8623 182.888 61.3103 182.664 61.9543 182.664C62.5983 182.664 63.0463 182.888 63.3963 183.252C63.9423 183.826 64.1943 184.806 64.1943 186.192C64.1943 187.578 63.9423 188.558 63.3963 189.132C63.0463 189.496 62.5983 189.72 61.9543 189.72C61.3103 189.72 60.8623 189.496 60.5123 189.132C59.9663 188.558 59.7142 187.578 59.7142 186.192ZM58.3563 186.192C58.3563 187.438 58.5663 188.586 59.1683 189.482C59.7563 190.364 60.6663 190.938 61.9543 190.938C63.2423 190.938 64.1523 190.364 64.7403 189.482C65.3423 188.586 65.5523 187.438 65.5523 186.192C65.5523 184.946 65.3423 183.798 64.7403 182.902C64.1523 182.02 63.2423 181.446 61.9543 181.446C60.6663 181.446 59.7563 182.02 59.1683 182.902C58.5663 183.798 58.3563 184.946 58.3563 186.192ZM68.2455 186.192C68.2455 184.806 68.4975 183.826 69.0435 183.252C69.3935 182.888 69.8415 182.664 70.4855 182.664C71.1295 182.664 71.5775 182.888 71.9275 183.252C72.4735 183.826 72.7255 184.806 72.7255 186.192C72.7255 187.578 72.4735 188.558 71.9275 189.132C71.5775 189.496 71.1295 189.72 70.4855 189.72C69.8415 189.72 69.3935 189.496 69.0435 189.132C68.4975 188.558 68.2455 187.578 68.2455 186.192ZM66.8875 186.192C66.8875 187.438 67.0975 188.586 67.6995 189.482C68.2875 190.364 69.1975 190.938 70.4855 190.938C71.7735 190.938 72.6835 190.364 73.2715 189.482C73.8735 188.586 74.0835 187.438 74.0835 186.192C74.0835 184.946 73.8735 183.798 73.2715 182.902C72.6835 182.02 71.7735 181.446 70.4855 181.446C69.1975 181.446 68.2875 182.02 67.6995 182.902C67.0975 183.798 66.8875 184.946 66.8875 186.192ZM77.2231 186.766C77.2511 185.772 77.7831 184.988 78.7911 184.988C79.9671 184.988 80.3591 185.744 80.3591 186.682V190.728H81.6751V186.458C81.6751 184.96 80.8771 183.798 79.2671 183.798C78.4971 183.798 77.7131 184.064 77.2231 184.778V180.592H75.9071V190.728H77.2231V186.766Z" fill="black" fill-opacity="0.6"/>
<path d="M53.3961 130.514C53.6341 130.43 53.9141 130.374 54.1941 130.374C55.0901 130.374 56.0421 130.878 56.0421 132.068C56.0421 132.978 55.3701 133.748 54.1241 133.748C53.0321 133.748 52.1641 132.992 52.1081 131.788L50.7641 132.096C50.8481 133.58 52.0381 134.952 54.1381 134.952C56.2521 134.952 57.4281 133.566 57.4281 132.04C57.4281 130.178 55.9581 129.282 54.6281 129.282L57.2181 126.888V125.656H51.0581V126.916H55.3981L52.7241 129.38L53.3961 130.514ZM60.0424 130.192C60.0424 128.806 60.2944 127.826 60.8404 127.252C61.1904 126.888 61.6384 126.664 62.2824 126.664C62.9264 126.664 63.3744 126.888 63.7244 127.252C64.2704 127.826 64.5224 128.806 64.5224 130.192C64.5224 131.578 64.2704 132.558 63.7244 133.132C63.3744 133.496 62.9264 133.72 62.2824 133.72C61.6384 133.72 61.1904 133.496 60.8404 133.132C60.2944 132.558 60.0424 131.578 60.0424 130.192ZM58.6844 130.192C58.6844 131.438 58.8944 132.586 59.4964 133.482C60.0844 134.364 60.9944 134.938 62.2824 134.938C63.5704 134.938 64.4804 134.364 65.0684 133.482C65.6704 132.586 65.8804 131.438 65.8804 130.192C65.8804 128.946 65.6704 127.798 65.0684 126.902C64.4804 126.02 63.5704 125.446 62.2824 125.446C60.9944 125.446 60.0844 126.02 59.4964 126.902C58.8944 127.798 58.6844 128.946 58.6844 130.192ZM68.5736 130.192C68.5736 128.806 68.8256 127.826 69.3716 127.252C69.7216 126.888 70.1696 126.664 70.8136 126.664C71.4576 126.664 71.9056 126.888 72.2556 127.252C72.8016 127.826 73.0536 128.806 73.0536 130.192C73.0536 131.578 72.8016 132.558 72.2556 133.132C71.9056 133.496 71.4576 133.72 70.8136 133.72C70.1696 133.72 69.7216 133.496 69.3716 133.132C68.8256 132.558 68.5736 131.578 68.5736 130.192ZM67.2156 130.192C67.2156 131.438 67.4256 132.586 68.0276 133.482C68.6156 134.364 69.5256 134.938 70.8136 134.938C72.1016 134.938 73.0116 134.364 73.5996 133.482C74.2016 132.586 74.4116 131.438 74.4116 130.192C74.4116 128.946 74.2016 127.798 73.5996 126.902C73.0116 126.02 72.1016 125.446 70.8136 125.446C69.5256 125.446 68.6156 126.02 68.0276 126.902C67.4256 127.798 67.2156 128.946 67.2156 130.192ZM77.5512 130.766C77.5792 129.772 78.1112 128.988 79.1192 128.988C80.2952 128.988 80.6872 129.744 80.6872 130.682V134.728H82.0032V130.458C82.0032 128.96 81.2052 127.798 79.5952 127.798C78.8252 127.798 78.0412 128.064 77.5512 128.778V124.592H76.2352V134.728H77.5512V130.766Z" fill="black" fill-opacity="0.6"/>
<path d="M104.199 240.728H450.29" stroke="black" stroke-opacity="0.1" stroke-dasharray="3 3"/>
<path d="M104.199 296.728H450.29" stroke="black" stroke-opacity="0.1" stroke-dasharray="3 3"/>
<path d="M104.199 184.728H450.29" stroke="black" stroke-opacity="0.1" stroke-dasharray="3 3"/>
<path d="M109.98 318.538V317.488H103.512V326.728H104.632V322.57H108.804V321.52H104.632V318.538H109.98ZM112.407 318.384C112.911 318.384 113.247 318.048 113.247 317.544C113.247 317.04 112.911 316.704 112.407 316.704C111.903 316.704 111.567 317.04 111.567 317.544C111.567 318.048 111.903 318.384 112.407 318.384ZM112.967 319.728H111.847V326.728H112.967V319.728ZM118.968 319.588C118.002 319.588 117.106 319.938 116.616 320.82L116.546 319.728H115.566V326.728H116.686V323.004C116.686 321.212 117.834 320.568 118.856 320.568C119.822 320.568 120.578 321.086 120.578 322.64V326.728H121.698V322.248C121.698 320.442 120.466 319.588 118.968 319.588ZM129.974 325.916C129.582 325.916 129.442 325.748 129.442 325.412V321.968C129.442 320.344 128.28 319.588 126.684 319.588C125.326 319.588 124.22 320.26 123.856 321.296L124.682 321.898C125.06 321.016 125.76 320.568 126.684 320.568C127.734 320.568 128.322 321.184 128.322 322.108V322.5L126.46 322.808C124.654 323.116 123.73 323.942 123.73 324.992C123.73 326.252 124.794 326.868 126.11 326.868C127.006 326.868 127.916 326.49 128.364 325.832C128.49 326.616 128.938 326.868 129.624 326.868C129.974 326.868 130.268 326.798 130.464 326.728L130.534 325.846C130.366 325.888 130.156 325.916 129.974 325.916ZM126.166 325.888C125.368 325.888 124.892 325.58 124.892 324.992C124.892 324.334 125.522 323.928 126.754 323.704L128.322 323.41V324.376C128.322 325.3 127.286 325.888 126.166 325.888ZM135.565 319.588C134.599 319.588 133.703 319.938 133.213 320.82L133.143 319.728H132.163V326.728H133.283V323.004C133.283 321.212 134.431 320.568 135.453 320.568C136.419 320.568 137.175 321.086 137.175 322.64V326.728H138.295V322.248C138.295 320.442 137.063 319.588 135.565 319.588ZM143.785 319.588C141.671 319.588 140.397 320.96 140.397 323.228C140.397 325.496 141.671 326.868 143.785 326.868C145.269 326.868 146.277 326.098 146.753 324.81L145.717 324.446C145.507 325.37 144.849 325.888 143.757 325.888C142.357 325.888 141.517 324.894 141.517 323.228C141.517 321.562 142.357 320.568 143.757 320.568C144.723 320.568 145.325 321.058 145.619 321.954L146.683 321.45C146.165 320.302 145.227 319.588 143.785 319.588ZM154.74 322.864C154.74 321.058 153.634 319.588 151.604 319.588C149.49 319.588 148.3 320.96 148.3 323.228C148.3 325.496 149.574 326.868 151.688 326.868C153.2 326.868 154.068 326.294 154.6 325.342L153.662 324.852C153.41 325.524 152.71 325.888 151.688 325.888C150.4 325.888 149.546 325.062 149.406 323.648H154.684C154.712 323.452 154.74 323.186 154.74 322.864ZM151.604 320.568C152.794 320.568 153.508 321.366 153.662 322.654H149.42C149.588 321.338 150.358 320.568 151.604 320.568Z" fill="black" fill-opacity="0.6"/>
<path d="M116.042 242.728C116.042 238.013 116.042 235.656 117.507 234.192C118.971 232.728 121.328 232.728 126.042 232.728H132.361C137.075 232.728 139.432 232.728 140.897 234.192C142.361 235.656 142.361 238.013 142.361 242.728V296.728H116.042V242.728Z" fill="#F37A3F"/>
<path d="M181.686 326.728H182.876L179.292 317.488H177.962L174.364 326.728H175.54L176.52 324.166H180.706L181.686 326.728ZM176.926 323.116L178.186 319.798L178.592 318.552H178.62L179.054 319.84L180.3 323.116H176.926ZM189.363 319.728V323.536C189.363 325.188 188.313 325.888 187.123 325.888C186.115 325.888 185.471 325.454 185.471 324.012V319.728H184.351V324.306C184.351 326.154 185.541 326.868 186.927 326.868C188.047 326.868 188.943 326.504 189.433 325.664L189.503 326.728H190.483V319.728H189.363ZM196.981 325.3C196.659 325.622 196.295 325.818 195.791 325.818C195.175 325.818 194.741 325.482 194.741 324.796V320.694H197.331V319.728H194.741V317.74L193.621 318.048V319.728H192.221V320.694H193.621V324.992C193.635 326.35 194.531 326.868 195.567 326.868C196.337 326.868 196.939 326.63 197.373 326.238L196.981 325.3ZM201.908 319.588C199.794 319.588 198.52 320.96 198.52 323.228C198.52 325.496 199.794 326.868 201.908 326.868C204.022 326.868 205.296 325.496 205.296 323.228C205.296 320.96 204.022 319.588 201.908 319.588ZM201.908 320.554C203.322 320.554 204.176 321.562 204.176 323.228C204.176 324.894 203.322 325.902 201.908 325.902C200.494 325.902 199.64 324.894 199.64 323.228C199.64 321.562 200.494 320.554 201.908 320.554Z" fill="black" fill-opacity="0.6"/>
<path d="M176.576 209.728C176.576 205.013 176.576 202.656 178.04 201.192C179.505 199.728 181.862 199.728 186.576 199.728H192.894C197.608 199.728 199.965 199.728 201.43 201.192C202.894 202.656 202.894 205.013 202.894 209.728V296.728H176.576V209.728Z" fill="#389ED8"/>
<path d="M234.644 317.488V321.52H229.632V317.488H228.512V326.728H229.632V322.57H234.644V326.728H235.764V317.488H234.644ZM244.466 322.864C244.466 321.058 243.36 319.588 241.33 319.588C239.216 319.588 238.026 320.96 238.026 323.228C238.026 325.496 239.3 326.868 241.414 326.868C242.926 326.868 243.794 326.294 244.326 325.342L243.388 324.852C243.136 325.524 242.436 325.888 241.414 325.888C240.126 325.888 239.272 325.062 239.132 323.648H244.41C244.438 323.452 244.466 323.186 244.466 322.864ZM241.33 320.568C242.52 320.568 243.234 321.366 243.388 322.654H239.146C239.314 321.338 240.084 320.568 241.33 320.568ZM252.335 325.916C251.943 325.916 251.803 325.748 251.803 325.412V321.968C251.803 320.344 250.641 319.588 249.045 319.588C247.687 319.588 246.581 320.26 246.217 321.296L247.043 321.898C247.421 321.016 248.121 320.568 249.045 320.568C250.095 320.568 250.683 321.184 250.683 322.108V322.5L248.821 322.808C247.015 323.116 246.091 323.942 246.091 324.992C246.091 326.252 247.155 326.868 248.471 326.868C249.367 326.868 250.277 326.49 250.725 325.832C250.851 326.616 251.299 326.868 251.985 326.868C252.335 326.868 252.629 326.798 252.825 326.728L252.895 325.846C252.727 325.888 252.517 325.916 252.335 325.916ZM248.527 325.888C247.729 325.888 247.253 325.58 247.253 324.992C247.253 324.334 247.883 323.928 249.115 323.704L250.683 323.41V324.376C250.683 325.3 249.647 325.888 248.527 325.888ZM255.589 316.508H254.469V324.992C254.469 326.266 255.015 326.868 256.149 326.868C256.513 326.868 256.891 326.798 257.185 326.672L257.367 325.594C256.961 325.748 256.723 325.79 256.345 325.79C255.771 325.79 255.589 325.566 255.589 324.852V316.508ZM262.423 325.3C262.101 325.622 261.737 325.818 261.233 325.818C260.617 325.818 260.183 325.482 260.183 324.796V320.694H262.773V319.728H260.183V317.74L259.063 318.048V319.728H257.663V320.694H259.063V324.992C259.077 326.35 259.973 326.868 261.009 326.868C261.779 326.868 262.381 326.63 262.815 326.238L262.423 325.3ZM267.798 319.588C266.846 319.588 266.006 319.938 265.516 320.778V316.508H264.396V326.728H265.516V323.018C265.516 321.226 266.664 320.568 267.686 320.568C268.652 320.568 269.408 321.086 269.408 322.64V326.728H270.528V322.248C270.528 320.442 269.296 319.588 267.798 319.588Z" fill="black" fill-opacity="0.6"/>
<path d="M237.109 155.728C237.109 151.013 237.109 148.656 238.573 147.192C240.038 145.728 242.395 145.728 247.109 145.728H253.428C258.142 145.728 260.499 145.728 261.963 147.192C263.428 148.656 263.428 151.013 263.428 155.728V296.728H237.109V155.728Z" fill="#38D8A2"/>
<path d="M298.364 326.728H299.694L297.09 322.766C298.35 322.43 299.134 321.506 299.134 320.19C299.134 318.524 297.888 317.488 296.012 317.488H292.512V326.728H293.632V322.892H295.844L298.364 326.728ZM293.632 318.538H295.998C297.314 318.538 297.958 319.084 297.958 320.19C297.958 321.296 297.314 321.842 295.998 321.842H293.632V318.538ZM307.386 322.864C307.386 321.058 306.28 319.588 304.25 319.588C302.136 319.588 300.946 320.96 300.946 323.228C300.946 325.496 302.22 326.868 304.334 326.868C305.846 326.868 306.714 326.294 307.246 325.342L306.308 324.852C306.056 325.524 305.356 325.888 304.334 325.888C303.046 325.888 302.192 325.062 302.052 323.648H307.33C307.358 323.452 307.386 323.186 307.386 322.864ZM304.25 320.568C305.44 320.568 306.154 321.366 306.308 322.654H302.066C302.234 321.338 303.004 320.568 304.25 320.568ZM313.202 325.3C312.88 325.622 312.516 325.818 312.012 325.818C311.396 325.818 310.962 325.482 310.962 324.796V320.694H313.552V319.728H310.962V317.74L309.842 318.048V319.728H308.442V320.694H309.842V324.992C309.856 326.35 310.752 326.868 311.788 326.868C312.558 326.868 313.16 326.63 313.594 326.238L313.202 325.3ZM320.915 325.916C320.523 325.916 320.383 325.748 320.383 325.412V321.968C320.383 320.344 319.221 319.588 317.625 319.588C316.267 319.588 315.161 320.26 314.797 321.296L315.623 321.898C316.001 321.016 316.701 320.568 317.625 320.568C318.675 320.568 319.263 321.184 319.263 322.108V322.5L317.401 322.808C315.595 323.116 314.671 323.942 314.671 324.992C314.671 326.252 315.735 326.868 317.051 326.868C317.947 326.868 318.857 326.49 319.305 325.832C319.431 326.616 319.879 326.868 320.565 326.868C320.915 326.868 321.209 326.798 321.405 326.728L321.475 325.846C321.307 325.888 321.097 325.916 320.915 325.916ZM317.107 325.888C316.309 325.888 315.833 325.58 315.833 324.992C315.833 324.334 316.463 323.928 317.695 323.704L319.263 323.41V324.376C319.263 325.3 318.227 325.888 317.107 325.888ZM323.665 318.384C324.169 318.384 324.505 318.048 324.505 317.544C324.505 317.04 324.169 316.704 323.665 316.704C323.161 316.704 322.825 317.04 322.825 317.544C322.825 318.048 323.161 318.384 323.665 318.384ZM324.225 319.728H323.105V326.728H324.225V319.728ZM327.887 316.508H326.767V324.992C326.767 326.266 327.313 326.868 328.447 326.868C328.811 326.868 329.189 326.798 329.483 326.672L329.665 325.594C329.259 325.748 329.021 325.79 328.643 325.79C328.069 325.79 327.887 325.566 327.887 324.852V316.508Z" fill="black" fill-opacity="0.6"/>
<path d="M297.642 262.728C297.642 258.013 297.642 255.656 299.106 254.192C300.571 252.728 302.928 252.728 307.642 252.728H313.96C318.674 252.728 321.031 252.728 322.496 254.192C323.96 255.656 323.96 258.013 323.96 262.728V296.728H297.642V262.728Z" fill="#F3CB3F"/>
<path d="M362.764 317.76V327H361.644V317.76H362.764ZM356.632 317.76V327H355.512V317.76H356.632ZM362.162 321.792V322.842H356.1V321.792H362.162ZM368.372 319.86C369.035 319.86 369.618 320.005 370.122 320.294C370.635 320.583 371.037 321.003 371.326 321.554C371.615 322.095 371.76 322.744 371.76 323.5C371.76 324.256 371.615 324.909 371.326 325.46C371.037 326.001 370.635 326.417 370.122 326.706C369.618 326.995 369.035 327.14 368.372 327.14C367.719 327.14 367.135 326.995 366.622 326.706C366.109 326.417 365.707 326.001 365.418 325.46C365.129 324.909 364.984 324.256 364.984 323.5C364.984 322.744 365.129 322.095 365.418 321.554C365.707 321.003 366.109 320.583 366.622 320.294C367.135 320.005 367.719 319.86 368.372 319.86ZM368.372 320.826C367.896 320.826 367.49 320.933 367.154 321.148C366.818 321.363 366.557 321.671 366.37 322.072C366.193 322.464 366.104 322.94 366.104 323.5C366.104 324.051 366.193 324.527 366.37 324.928C366.557 325.329 366.818 325.637 367.154 325.852C367.49 326.067 367.896 326.174 368.372 326.174C368.848 326.174 369.254 326.067 369.59 325.852C369.926 325.637 370.183 325.329 370.36 324.928C370.547 324.527 370.64 324.051 370.64 323.5C370.64 322.94 370.547 322.464 370.36 322.072C370.183 321.671 369.926 321.363 369.59 321.148C369.254 320.933 368.848 320.826 368.372 320.826ZM373.868 327V320H374.848L374.918 321.092C375.17 320.663 375.497 320.35 375.898 320.154C376.309 319.958 376.729 319.86 377.158 319.86C377.653 319.86 378.12 319.972 378.558 320.196C378.997 320.42 379.333 320.765 379.566 321.232C379.716 320.915 379.926 320.658 380.196 320.462C380.467 320.257 380.761 320.107 381.078 320.014C381.405 319.911 381.713 319.86 382.002 319.86C382.45 319.86 382.875 319.953 383.276 320.14C383.687 320.327 384.023 320.616 384.284 321.008C384.546 321.4 384.676 321.904 384.676 322.52V327H383.556V322.632C383.556 321.997 383.398 321.54 383.08 321.26C382.763 320.98 382.371 320.84 381.904 320.84C381.54 320.84 381.2 320.929 380.882 321.106C380.565 321.283 380.308 321.545 380.112 321.89C379.926 322.235 379.832 322.66 379.832 323.164V327H378.712V322.632C378.712 321.997 378.554 321.54 378.236 321.26C377.919 320.98 377.527 320.84 377.06 320.84C376.752 320.84 376.435 320.924 376.108 321.092C375.791 321.251 375.525 321.507 375.31 321.862C375.096 322.217 374.988 322.683 374.988 323.262V327H373.868ZM390.138 327.14C389.475 327.14 388.883 326.995 388.36 326.706C387.847 326.417 387.445 326.001 387.156 325.46C386.867 324.909 386.722 324.256 386.722 323.5C386.722 322.744 386.867 322.095 387.156 321.554C387.445 321.003 387.842 320.583 388.346 320.294C388.85 320.005 389.424 319.86 390.068 319.86C390.721 319.86 391.277 320 391.734 320.28C392.201 320.56 392.555 320.943 392.798 321.428C393.041 321.904 393.162 322.441 393.162 323.038C393.162 323.197 393.157 323.341 393.148 323.472C393.139 323.603 393.125 323.719 393.106 323.822H387.45V322.828H392.616L392.042 322.94C392.042 322.268 391.855 321.75 391.482 321.386C391.118 321.022 390.637 320.84 390.04 320.84C389.583 320.84 389.186 320.947 388.85 321.162C388.523 321.367 388.267 321.671 388.08 322.072C387.903 322.464 387.814 322.94 387.814 323.5C387.814 324.051 387.907 324.527 388.094 324.928C388.281 325.329 388.542 325.637 388.878 325.852C389.223 326.057 389.634 326.16 390.11 326.16C390.623 326.16 391.039 326.062 391.356 325.866C391.683 325.67 391.944 325.404 392.14 325.068L393.022 325.586C392.845 325.903 392.616 326.179 392.336 326.412C392.065 326.645 391.743 326.827 391.37 326.958C391.006 327.079 390.595 327.14 390.138 327.14Z" fill="black" fill-opacity="0.6"/>
<path d="M359.491 199.728C359.491 195.013 359.491 192.656 360.955 191.192C362.42 189.728 364.777 189.728 369.491 189.728H375.809C380.523 189.728 382.88 189.728 384.345 191.192C385.809 192.656 385.809 195.013 385.809 199.728V296.728H359.491V199.728Z" fill="#B83EE2"/>
<path d="M420.727 317.348C421.605 317.348 422.361 317.544 422.995 317.936C423.639 318.318 424.134 318.864 424.479 319.574C424.834 320.283 425.011 321.128 425.011 322.108C425.011 323.088 424.834 323.932 424.479 324.642C424.134 325.351 423.639 325.902 422.995 326.294C422.361 326.676 421.605 326.868 420.727 326.868C419.85 326.868 419.089 326.676 418.445 326.294C417.811 325.902 417.316 325.351 416.961 324.642C416.616 323.932 416.443 323.088 416.443 322.108C416.443 321.128 416.616 320.283 416.961 319.574C417.316 318.864 417.811 318.318 418.445 317.936C419.089 317.544 419.85 317.348 420.727 317.348ZM420.727 318.398C420.093 318.398 419.542 318.547 419.075 318.846C418.609 319.135 418.249 319.56 417.997 320.12C417.745 320.67 417.619 321.333 417.619 322.108C417.619 322.882 417.745 323.55 417.997 324.11C418.249 324.66 418.609 325.085 419.075 325.384C419.542 325.673 420.093 325.818 420.727 325.818C421.371 325.818 421.922 325.673 422.379 325.384C422.846 325.085 423.205 324.66 423.457 324.11C423.709 323.55 423.835 322.882 423.835 322.108C423.835 321.333 423.709 320.67 423.457 320.12C423.205 319.56 422.846 319.135 422.379 318.846C421.922 318.547 421.371 318.398 420.727 318.398ZM428.918 317.74V324.796C428.918 325.141 429.016 325.398 429.212 325.566C429.408 325.734 429.66 325.818 429.968 325.818C430.239 325.818 430.472 325.771 430.668 325.678C430.864 325.584 431.041 325.458 431.2 325.3L431.592 326.238C431.377 326.434 431.121 326.588 430.822 326.7C430.533 326.812 430.197 326.868 429.814 326.868C429.459 326.868 429.128 326.807 428.82 326.686C428.512 326.555 428.265 326.354 428.078 326.084C427.901 325.804 427.807 325.44 427.798 324.992V318.048L428.918 317.74ZM431.466 319.728V320.694H426.398V319.728H431.466ZM433.131 326.728V316.508H434.251V320.778C434.494 320.358 434.816 320.054 435.217 319.868C435.618 319.681 436.057 319.588 436.533 319.588C437.037 319.588 437.494 319.686 437.905 319.882C438.316 320.068 438.642 320.358 438.885 320.75C439.137 321.142 439.263 321.641 439.263 322.248V326.728H438.143V322.64C438.143 321.865 437.975 321.328 437.639 321.03C437.312 320.722 436.906 320.568 436.421 320.568C436.085 320.568 435.749 320.647 435.413 320.806C435.077 320.964 434.797 321.226 434.573 321.59C434.358 321.944 434.251 322.42 434.251 323.018V326.728H433.131ZM444.725 326.868C444.062 326.868 443.47 326.723 442.947 326.434C442.434 326.144 442.032 325.729 441.743 325.188C441.454 324.637 441.309 323.984 441.309 323.228C441.309 322.472 441.454 321.823 441.743 321.282C442.032 320.731 442.429 320.311 442.933 320.022C443.437 319.732 444.011 319.588 444.655 319.588C445.308 319.588 445.864 319.728 446.321 320.008C446.788 320.288 447.142 320.67 447.385 321.156C447.628 321.632 447.749 322.168 447.749 322.766C447.749 322.924 447.744 323.069 447.735 323.2C447.726 323.33 447.712 323.447 447.693 323.55H442.037V322.556H447.203L446.629 322.668C446.629 321.996 446.442 321.478 446.069 321.114C445.705 320.75 445.224 320.568 444.627 320.568C444.17 320.568 443.773 320.675 443.437 320.89C443.11 321.095 442.854 321.398 442.667 321.8C442.49 322.192 442.401 322.668 442.401 323.228C442.401 323.778 442.494 324.254 442.681 324.656C442.868 325.057 443.129 325.365 443.465 325.58C443.81 325.785 444.221 325.888 444.697 325.888C445.21 325.888 445.626 325.79 445.943 325.594C446.27 325.398 446.531 325.132 446.727 324.796L447.609 325.314C447.432 325.631 447.203 325.906 446.923 326.14C446.652 326.373 446.33 326.555 445.957 326.686C445.593 326.807 445.182 326.868 444.725 326.868ZM449.879 326.728V319.728H450.789L450.943 320.876C451.139 320.446 451.424 320.124 451.797 319.91C452.18 319.695 452.642 319.588 453.183 319.588C453.304 319.588 453.435 319.597 453.575 319.616C453.724 319.634 453.85 319.672 453.953 319.728L453.757 320.75C453.654 320.712 453.542 320.684 453.421 320.666C453.3 320.647 453.127 320.638 452.903 320.638C452.614 320.638 452.32 320.722 452.021 320.89C451.732 321.058 451.489 321.314 451.293 321.66C451.097 321.996 450.999 322.425 450.999 322.948V326.728H449.879Z" fill="black" fill-opacity="0.6"/>
<path d="M421.339 223.728C421.339 219.013 421.339 216.656 422.804 215.192C424.268 213.728 426.625 213.728 431.339 213.728H437.658C442.372 213.728 444.729 213.728 446.194 215.192C447.658 216.656 447.658 219.013 447.658 223.728V296.728H421.339V223.728Z" fill="#F33FB6"/>
<rect x="360.627" y="26.0332" width="100" height="40" rx="7" fill="#38D8A2" fill-opacity="0.1"/>
<path d="M438.627 46.0332L442.627 50.0332L446.627 46.0332" stroke="#6CCCCB" stroke-width="1.2" stroke-linecap="round" stroke-linejoin="round"/>
<path d="M386.071 41.7932V51.0332H385.007V45.2232L385.133 42.7872H385.119L382.081 51.0332H381.129L378.091 42.7872H378.077L378.203 45.2232V51.0332H377.139V41.7932H378.861L380.891 47.4072L381.591 49.7172H381.619L382.333 47.4212L384.349 41.7932H386.071ZM391.667 43.8932C392.329 43.8932 392.913 44.0379 393.417 44.3272C393.93 44.6165 394.331 45.0365 394.621 45.5872C394.91 46.1285 395.055 46.7772 395.055 47.5332C395.055 48.2892 394.91 48.9425 394.621 49.4932C394.331 50.0345 393.93 50.4499 393.417 50.7392C392.913 51.0285 392.329 51.1732 391.667 51.1732C391.013 51.1732 390.43 51.0285 389.917 50.7392C389.403 50.4499 389.002 50.0345 388.713 49.4932C388.423 48.9425 388.279 48.2892 388.279 47.5332C388.279 46.7772 388.423 46.1285 388.713 45.5872C389.002 45.0365 389.403 44.6165 389.917 44.3272C390.43 44.0379 391.013 43.8932 391.667 43.8932ZM391.667 44.8592C390.957 44.8592 390.402 45.0972 390.001 45.5732C389.599 46.0492 389.399 46.7025 389.399 47.5332C389.399 48.3639 389.599 49.0172 390.001 49.4932C390.402 49.9692 390.957 50.2072 391.667 50.2072C392.376 50.2072 392.931 49.9692 393.333 49.4932C393.734 49.0172 393.935 48.3639 393.935 47.5332C393.935 46.7025 393.734 46.0492 393.333 45.5732C392.931 45.0972 392.376 44.8592 391.667 44.8592ZM397.163 51.0332V44.0332H398.143L398.213 45.1252C398.456 44.6865 398.787 44.3739 399.207 44.1872C399.627 43.9912 400.08 43.8932 400.565 43.8932C401.069 43.8932 401.527 43.9912 401.937 44.1872C402.348 44.3739 402.675 44.6632 402.917 45.0552C403.169 45.4472 403.295 45.9465 403.295 46.5532V51.0332H402.175V46.9452C402.175 46.1705 402.007 45.6339 401.671 45.3352C401.345 45.0272 400.939 44.8732 400.453 44.8732C400.117 44.8732 399.781 44.9525 399.445 45.1112C399.109 45.2699 398.829 45.5265 398.605 45.8812C398.391 46.2359 398.283 46.7119 398.283 47.3092V51.0332H397.163ZM409.936 44.0332V44.9992H407.388V49.1012C407.388 49.4465 407.486 49.7032 407.682 49.8712C407.878 50.0392 408.13 50.1232 408.438 50.1232C408.708 50.1232 408.942 50.0765 409.138 49.9832C409.334 49.8899 409.511 49.7639 409.67 49.6052L410.062 50.5432C409.847 50.7392 409.59 50.8932 409.292 51.0052C409.002 51.1172 408.666 51.1732 408.284 51.1732C407.929 51.1732 407.598 51.1125 407.29 50.9912C406.982 50.8605 406.734 50.6599 406.548 50.3892C406.37 50.1092 406.277 49.7452 406.268 49.2972V44.9992H404.868V44.0332H406.268V42.3532L407.388 42.0452V44.0332H409.936ZM411.601 51.0332V40.8132H412.721V45.0832C412.963 44.6632 413.285 44.3599 413.687 44.1732C414.088 43.9865 414.527 43.8932 415.003 43.8932C415.507 43.8932 415.964 43.9912 416.375 44.1872C416.785 44.3739 417.112 44.6632 417.355 45.0552C417.607 45.4472 417.733 45.9465 417.733 46.5532V51.0332H416.613V46.9452C416.613 46.1705 416.445 45.6339 416.109 45.3352C415.782 45.0272 415.376 44.8732 414.891 44.8732C414.555 44.8732 414.219 44.9525 413.883 45.1112C413.547 45.2699 413.267 45.5312 413.043 45.8952C412.828 46.2499 412.721 46.7259 412.721 47.3232V51.0332H411.601ZM421.333 40.8132V49.2552C421.333 49.6099 421.398 49.8572 421.529 49.9972C421.659 50.1279 421.869 50.1932 422.159 50.1932C422.345 50.1932 422.499 50.1792 422.621 50.1512C422.742 50.1232 422.905 50.0719 423.111 49.9972L422.929 50.9772C422.621 51.1079 422.275 51.1732 421.893 51.1732C420.773 51.1732 420.213 50.5479 420.213 49.2972V40.8132H421.333ZM429.947 44.0332L426.657 52.2092C426.386 52.8905 426.078 53.3665 425.733 53.6372C425.397 53.9079 424.981 54.0432 424.487 54.0432C424.169 54.0432 423.875 53.9965 423.605 53.9032C423.343 53.8192 423.11 53.7025 422.905 53.5532L423.213 52.5732C423.399 52.7412 423.595 52.8625 423.801 52.9372C424.015 53.0212 424.225 53.0632 424.431 53.0632C424.673 53.0632 424.902 52.9885 425.117 52.8392C425.331 52.6899 425.527 52.3865 425.705 51.9292L426.069 51.0192L425.369 49.3532L423.143 44.0332H424.417L426.167 48.5972L426.601 49.8432L427.105 48.4572L428.743 44.0332H429.947Z" fill="#38D8A2"/>
<path d="M104.199 131.306L450.29 131.306" stroke="black" stroke-opacity="0.1" stroke-dasharray="3 3"/>
<g filter="url(#filter1_d_972_501)">
<rect x="30" y="6" width="451" height="357" rx="8" fill="white"/>
<rect x="30.2" y="6.2" width="450.6" height="356.6" rx="7.8" stroke="#E6E6E6" stroke-width="0.4"/>
</g>
<path d="M60.0261 53.9332H53.9461L52.8261 57.0332H50.9061L55.9461 43.1732H58.0461L63.0661 57.0332H61.1461L60.0261 53.9332ZM59.5061 52.4532L56.9861 45.4132L54.4661 52.4532H59.5061ZM64.5827 51.5332C64.5827 50.3999 64.8093 49.4132 65.2627 48.5732C65.716 47.7199 66.3427 47.0599 67.1427 46.5932C67.956 46.1265 68.8827 45.8932 69.9227 45.8932C71.2693 45.8932 72.376 46.2199 73.2427 46.8732C74.1227 47.5265 74.7027 48.4332 74.9827 49.5932H73.0227C72.836 48.9265 72.4693 48.3999 71.9227 48.0132C71.3893 47.6265 70.7227 47.4332 69.9227 47.4332C68.8827 47.4332 68.0427 47.7932 67.4027 48.5132C66.7627 49.2199 66.4427 50.2265 66.4427 51.5332C66.4427 52.8532 66.7627 53.8732 67.4027 54.5932C68.0427 55.3132 68.8827 55.6732 69.9227 55.6732C70.7227 55.6732 71.3893 55.4865 71.9227 55.1132C72.456 54.7399 72.8227 54.2065 73.0227 53.5132H74.9827C74.6893 54.6332 74.1027 55.5332 73.2227 56.2132C72.3427 56.8799 71.2427 57.2132 69.9227 57.2132C68.8827 57.2132 67.956 56.9799 67.1427 56.5132C66.3427 56.0465 65.716 55.3865 65.2627 54.5332C64.8093 53.6799 64.5827 52.6799 64.5827 51.5332ZM79.6311 47.5732V54.0332C79.6311 54.5665 79.7444 54.9465 79.9711 55.1732C80.1978 55.3865 80.5911 55.4932 81.1511 55.4932H82.4911V57.0332H80.8511C79.8378 57.0332 79.0778 56.7999 78.5711 56.3332C78.0644 55.8665 77.8111 55.0999 77.8111 54.0332V47.5732H76.3911V46.0732H77.8111V43.3132H79.6311V46.0732H82.4911V47.5732H79.6311ZM85.6363 44.2932C85.2896 44.2932 84.9963 44.1732 84.7563 43.9332C84.5163 43.6932 84.3963 43.3999 84.3963 43.0532C84.3963 42.7065 84.5163 42.4132 84.7563 42.1732C84.9963 41.9332 85.2896 41.8132 85.6363 41.8132C85.9696 41.8132 86.2496 41.9332 86.4763 42.1732C86.7163 42.4132 86.8363 42.7065 86.8363 43.0532C86.8363 43.3999 86.7163 43.6932 86.4763 43.9332C86.2496 44.1732 85.9696 44.2932 85.6363 44.2932ZM86.5163 46.0732V57.0332H84.6963V46.0732H86.5163ZM93.6981 55.3532L97.0981 46.0732H99.0381L94.7381 57.0332H92.6181L88.3181 46.0732H90.2781L93.6981 55.3532ZM101.769 44.2932C101.422 44.2932 101.129 44.1732 100.889 43.9332C100.649 43.6932 100.529 43.3999 100.529 43.0532C100.529 42.7065 100.649 42.4132 100.889 42.1732C101.129 41.9332 101.422 41.8132 101.769 41.8132C102.102 41.8132 102.382 41.9332 102.609 42.1732C102.849 42.4132 102.969 42.7065 102.969 43.0532C102.969 43.3999 102.849 43.6932 102.609 43.9332C102.382 44.1732 102.102 44.2932 101.769 44.2932ZM102.649 46.0732V57.0332H100.829V46.0732H102.649ZM107.971 47.5732V54.0332C107.971 54.5665 108.084 54.9465 108.311 55.1732C108.538 55.3865 108.931 55.4932 109.491 55.4932H110.831V57.0332H109.191C108.178 57.0332 107.418 56.7999 106.911 56.3332C106.404 55.8665 106.151 55.0999 106.151 54.0332V47.5732H104.731V46.0732H106.151V43.3132H107.971V46.0732H110.831V47.5732H107.971ZM122.476 46.0732L115.876 62.1932H113.996L116.156 56.9132L111.736 46.0732H113.756L117.196 54.9532L120.596 46.0732H122.476ZM133.518 57.2132C132.678 57.2132 131.924 57.0732 131.258 56.7932C130.591 56.4999 130.064 56.0999 129.678 55.5932C129.291 55.0732 129.078 54.4799 129.038 53.8132H130.918C130.971 54.3599 131.224 54.8065 131.678 55.1532C132.144 55.4999 132.751 55.6732 133.498 55.6732C134.191 55.6732 134.738 55.5199 135.138 55.2132C135.538 54.9065 135.738 54.5199 135.738 54.0532C135.738 53.5732 135.524 53.2199 135.098 52.9932C134.671 52.7532 134.011 52.5199 133.118 52.2932C132.304 52.0799 131.638 51.8665 131.118 51.6532C130.611 51.4265 130.171 51.0999 129.798 50.6732C129.438 50.2332 129.258 49.6599 129.258 48.9532C129.258 48.3932 129.424 47.8799 129.758 47.4132C130.091 46.9465 130.564 46.5799 131.178 46.3132C131.791 46.0332 132.491 45.8932 133.278 45.8932C134.491 45.8932 135.471 46.1999 136.218 46.8132C136.964 47.4265 137.364 48.2665 137.418 49.3332H135.598C135.558 48.7599 135.324 48.2999 134.898 47.9532C134.484 47.6065 133.924 47.4332 133.218 47.4332C132.564 47.4332 132.044 47.5732 131.658 47.8532C131.271 48.1332 131.078 48.4999 131.078 48.9532C131.078 49.3132 131.191 49.6132 131.418 49.8532C131.658 50.0799 131.951 50.2665 132.298 50.4132C132.658 50.5465 133.151 50.6999 133.778 50.8732C134.564 51.0865 135.204 51.2999 135.698 51.5132C136.191 51.7132 136.611 52.0199 136.958 52.4332C137.318 52.8465 137.504 53.3865 137.518 54.0532C137.518 54.6532 137.351 55.1932 137.018 55.6732C136.684 56.1532 136.211 56.5332 135.598 56.8132C134.998 57.0799 134.304 57.2132 133.518 57.2132ZM142.307 47.5732V54.0332C142.307 54.5665 142.42 54.9465 142.647 55.1732C142.874 55.3865 143.267 55.4932 143.827 55.4932H145.167V57.0332H143.527C142.514 57.0332 141.754 56.7999 141.247 56.3332C140.74 55.8665 140.487 55.0999 140.487 54.0332V47.5732H139.067V46.0732H140.487V43.3132H142.307V46.0732H145.167V47.5732H142.307ZM146.692 51.5132C146.692 50.3932 146.919 49.4132 147.372 48.5732C147.825 47.7199 148.445 47.0599 149.232 46.5932C150.032 46.1265 150.919 45.8932 151.892 45.8932C152.852 45.8932 153.685 46.0999 154.392 46.5132C155.099 46.9265 155.625 47.4465 155.972 48.0732V46.0732H157.812V57.0332H155.972V54.9932C155.612 55.6332 155.072 56.1665 154.352 56.5932C153.645 57.0065 152.819 57.2132 151.872 57.2132C150.899 57.2132 150.019 56.9732 149.232 56.4932C148.445 56.0132 147.825 55.3399 147.372 54.4732C146.919 53.6065 146.692 52.6199 146.692 51.5132ZM155.972 51.5332C155.972 50.7065 155.805 49.9865 155.472 49.3732C155.139 48.7599 154.685 48.2932 154.112 47.9732C153.552 47.6399 152.932 47.4732 152.252 47.4732C151.572 47.4732 150.952 47.6332 150.392 47.9532C149.832 48.2732 149.385 48.7399 149.052 49.3532C148.719 49.9665 148.552 50.6865 148.552 51.5132C148.552 52.3532 148.719 53.0865 149.052 53.7132C149.385 54.3265 149.832 54.7999 150.392 55.1332C150.952 55.4532 151.572 55.6132 152.252 55.6132C152.932 55.6132 153.552 55.4532 154.112 55.1332C154.685 54.7999 155.139 54.3265 155.472 53.7132C155.805 53.0865 155.972 52.3599 155.972 51.5332ZM163.108 47.5732V54.0332C163.108 54.5665 163.221 54.9465 163.448 55.1732C163.674 55.3865 164.068 55.4932 164.628 55.4932H165.968V57.0332H164.328C163.314 57.0332 162.554 56.7999 162.048 56.3332C161.541 55.8665 161.288 55.0999 161.288 54.0332V47.5732H159.868V46.0732H161.288V43.3132H163.108V46.0732H165.968V47.5732H163.108ZM169.113 44.2932C168.766 44.2932 168.473 44.1732 168.233 43.9332C167.993 43.6932 167.873 43.3999 167.873 43.0532C167.873 42.7065 167.993 42.4132 168.233 42.1732C168.473 41.9332 168.766 41.8132 169.113 41.8132C169.446 41.8132 169.726 41.9332 169.953 42.1732C170.193 42.4132 170.313 42.7065 170.313 43.0532C170.313 43.3999 170.193 43.6932 169.953 43.9332C169.726 44.1732 169.446 44.2932 169.113 44.2932ZM169.993 46.0732V57.0332H168.173V46.0732H169.993ZM176.975 57.2132C176.135 57.2132 175.381 57.0732 174.715 56.7932C174.048 56.4999 173.521 56.0999 173.135 55.5932C172.748 55.0732 172.535 54.4799 172.495 53.8132H174.375C174.428 54.3599 174.681 54.8065 175.135 55.1532C175.601 55.4999 176.208 55.6732 176.955 55.6732C177.648 55.6732 178.195 55.5199 178.595 55.2132C178.995 54.9065 179.195 54.5199 179.195 54.0532C179.195 53.5732 178.981 53.2199 178.555 52.9932C178.128 52.7532 177.468 52.5199 176.575 52.2932C175.761 52.0799 175.095 51.8665 174.575 51.6532C174.068 51.4265 173.628 51.0999 173.255 50.6732C172.895 50.2332 172.715 49.6599 172.715 48.9532C172.715 48.3932 172.881 47.8799 173.215 47.4132C173.548 46.9465 174.021 46.5799 174.635 46.3132C175.248 46.0332 175.948 45.8932 176.735 45.8932C177.948 45.8932 178.928 46.1999 179.675 46.8132C180.421 47.4265 180.821 48.2665 180.875 49.3332H179.055C179.015 48.7599 178.781 48.2999 178.355 47.9532C177.941 47.6065 177.381 47.4332 176.675 47.4332C176.021 47.4332 175.501 47.5732 175.115 47.8532C174.728 48.1332 174.535 48.4999 174.535 48.9532C174.535 49.3132 174.648 49.6132 174.875 49.8532C175.115 50.0799 175.408 50.2665 175.755 50.4132C176.115 50.5465 176.608 50.6999 177.235 50.8732C178.021 51.0865 178.661 51.2999 179.155 51.5132C179.648 51.7132 180.068 52.0199 180.415 52.4332C180.775 52.8465 180.961 53.3865 180.975 54.0532C180.975 54.6532 180.808 55.1932 180.475 55.6732C180.141 56.1532 179.668 56.5332 179.055 56.8132C178.455 57.0799 177.761 57.2132 176.975 57.2132ZM185.764 47.5732V54.0332C185.764 54.5665 185.877 54.9465 186.104 55.1732C186.331 55.3865 186.724 55.4932 187.284 55.4932H188.624V57.0332H186.984C185.971 57.0332 185.211 56.7999 184.704 56.3332C184.197 55.8665 183.944 55.0999 183.944 54.0332V47.5732H182.524V46.0732H183.944V43.3132H185.764V46.0732H188.624V47.5732H185.764ZM191.769 44.2932C191.422 44.2932 191.129 44.1732 190.889 43.9332C190.649 43.6932 190.529 43.3999 190.529 43.0532C190.529 42.7065 190.649 42.4132 190.889 42.1732C191.129 41.9332 191.422 41.8132 191.769 41.8132C192.102 41.8132 192.382 41.9332 192.609 42.1732C192.849 42.4132 192.969 42.7065 192.969 43.0532C192.969 43.3999 192.849 43.6932 192.609 43.9332C192.382 44.1732 192.102 44.2932 191.769 44.2932ZM192.649 46.0732V57.0332H190.829V46.0732H192.649ZM195.071 51.5332C195.071 50.3999 195.298 49.4132 195.751 48.5732C196.204 47.7199 196.831 47.0599 197.631 46.5932C198.444 46.1265 199.371 45.8932 200.411 45.8932C201.758 45.8932 202.864 46.2199 203.731 46.8732C204.611 47.5265 205.191 48.4332 205.471 49.5932H203.511C203.324 48.9265 202.958 48.3999 202.411 48.0132C201.878 47.6265 201.211 47.4332 200.411 47.4332C199.371 47.4332 198.531 47.7932 197.891 48.5132C197.251 49.2199 196.931 50.2265 196.931 51.5332C196.931 52.8532 197.251 53.8732 197.891 54.5932C198.531 55.3132 199.371 55.6732 200.411 55.6732C201.211 55.6732 201.878 55.4865 202.411 55.1132C202.944 54.7399 203.311 54.2065 203.511 53.5132H205.471C205.178 54.6332 204.591 55.5332 203.711 56.2132C202.831 56.8799 201.731 57.2132 200.411 57.2132C199.371 57.2132 198.444 56.9799 197.631 56.5132C196.831 56.0465 196.204 55.3865 195.751 54.5332C195.298 53.6799 195.071 52.6799 195.071 51.5332Z" fill="#072C1F"/>
<path d="M50.7781 239.768V238.606H53.4101V248.728H52.1221V239.768H50.7781ZM55.5985 243.562C55.5985 241.956 55.8598 240.706 56.3825 239.81C56.9051 238.904 57.8198 238.452 59.1265 238.452C60.4238 238.452 61.3338 238.904 61.8565 239.81C62.3791 240.706 62.6405 241.956 62.6405 243.562C62.6405 245.195 62.3791 246.464 61.8565 247.37C61.3338 248.275 60.4238 248.728 59.1265 248.728C57.8198 248.728 56.9051 248.275 56.3825 247.37C55.8598 246.464 55.5985 245.195 55.5985 243.562ZM61.3805 243.562C61.3805 242.75 61.3245 242.064 61.2125 241.504C61.1098 240.934 60.8905 240.477 60.5545 240.132C60.2278 239.786 59.7518 239.614 59.1265 239.614C58.4918 239.614 58.0065 239.786 57.6705 240.132C57.3438 240.477 57.1245 240.934 57.0125 241.504C56.9098 242.064 56.8585 242.75 56.8585 243.562C56.8585 244.402 56.9098 245.106 57.0125 245.676C57.1245 246.245 57.3438 246.702 57.6705 247.048C58.0065 247.393 58.4918 247.566 59.1265 247.566C59.7518 247.566 60.2278 247.393 60.5545 247.048C60.8905 246.702 61.1098 246.245 61.2125 245.676C61.3245 245.106 61.3805 244.402 61.3805 243.562ZM64.3895 243.562C64.3895 241.956 64.6508 240.706 65.1735 239.81C65.6962 238.904 66.6108 238.452 67.9175 238.452C69.2148 238.452 70.1248 238.904 70.6475 239.81C71.1702 240.706 71.4315 241.956 71.4315 243.562C71.4315 245.195 71.1702 246.464 70.6475 247.37C70.1248 248.275 69.2148 248.728 67.9175 248.728C66.6108 248.728 65.6962 248.275 65.1735 247.37C64.6508 246.464 64.3895 245.195 64.3895 243.562ZM70.1715 243.562C70.1715 242.75 70.1155 242.064 70.0035 241.504C69.9008 240.934 69.6815 240.477 69.3455 240.132C69.0188 239.786 68.5428 239.614 67.9175 239.614C67.2828 239.614 66.7975 239.786 66.4615 240.132C66.1348 240.477 65.9155 240.934 65.8035 241.504C65.7008 242.064 65.6495 242.75 65.6495 243.562C65.6495 244.402 65.7008 245.106 65.8035 245.676C65.9155 246.245 66.1348 246.702 66.4615 247.048C66.7975 247.393 67.2828 247.566 67.9175 247.566C68.5428 247.566 69.0188 247.393 69.3455 247.048C69.6815 246.702 69.9008 246.245 70.0035 245.676C70.1155 245.106 70.1715 244.402 70.1715 243.562ZM77.1985 240.916C77.7772 240.916 78.2998 241.042 78.7665 241.294C79.2332 241.536 79.5972 241.905 79.8585 242.4C80.1292 242.894 80.2645 243.496 80.2645 244.206V248.728H79.0045V244.388C79.0045 243.622 78.8132 243.039 78.4305 242.638C78.0478 242.227 77.5252 242.022 76.8625 242.022C76.1905 242.022 75.6538 242.232 75.2525 242.652C74.8605 243.072 74.6645 243.683 74.6645 244.486V248.728H73.3905V238.368H74.6645V242.148C74.9165 241.756 75.2618 241.452 75.7005 241.238C76.1485 241.023 76.6478 240.916 77.1985 240.916Z" fill="black" fill-opacity="0.6"/>
<path d="M51.1141 299.562C51.1141 297.956 51.3754 296.706 51.8981 295.81C52.4208 294.904 53.3354 294.452 54.6421 294.452C55.9394 294.452 56.8494 294.904 57.3721 295.81C57.8948 296.706 58.1561 297.956 58.1561 299.562C58.1561 301.195 57.8948 302.464 57.3721 303.37C56.8494 304.275 55.9394 304.728 54.6421 304.728C53.3354 304.728 52.4208 304.275 51.8981 303.37C51.3754 302.464 51.1141 301.195 51.1141 299.562ZM56.8961 299.562C56.8961 298.75 56.8401 298.064 56.7281 297.504C56.6254 296.934 56.4061 296.477 56.0701 296.132C55.7434 295.786 55.2674 295.614 54.6421 295.614C54.0074 295.614 53.5221 295.786 53.1861 296.132C52.8594 296.477 52.6401 296.934 52.5281 297.504C52.4254 298.064 52.3741 298.75 52.3741 299.562C52.3741 300.402 52.4254 301.106 52.5281 301.676C52.6401 302.245 52.8594 302.702 53.1861 303.048C53.5221 303.393 54.0074 303.566 54.6421 303.566C55.2674 303.566 55.7434 303.393 56.0701 303.048C56.4061 302.702 56.6254 302.245 56.7281 301.676C56.8401 301.106 56.8961 300.402 56.8961 299.562ZM63.9231 296.916C64.5018 296.916 65.0244 297.042 65.4911 297.294C65.9578 297.536 66.3218 297.905 66.5831 298.4C66.8538 298.894 66.9891 299.496 66.9891 300.206V304.728H65.7291V300.388C65.7291 299.622 65.5378 299.039 65.1551 298.638C64.7724 298.227 64.2498 298.022 63.5871 298.022C62.9151 298.022 62.3784 298.232 61.9771 298.652C61.5851 299.072 61.3891 299.683 61.3891 300.486V304.728H60.1151V294.368H61.3891V298.148C61.6411 297.756 61.9864 297.452 62.4251 297.238C62.8731 297.023 63.3724 296.916 63.9231 296.916Z" fill="black" fill-opacity="0.6"/>
<path d="M50.9601 191.706C52.1454 190.754 53.0741 189.974 53.7461 189.368C54.4181 188.752 54.9828 188.112 55.4401 187.45C55.9068 186.778 56.1401 186.12 56.1401 185.476C56.1401 184.869 55.9908 184.393 55.6921 184.048C55.4028 183.693 54.9314 183.516 54.2781 183.516C53.6434 183.516 53.1488 183.716 52.7941 184.118C52.4488 184.51 52.2621 185.037 52.2341 185.7H51.0021C51.0394 184.654 51.3568 183.847 51.9541 183.278C52.5514 182.708 53.3214 182.424 54.2641 182.424C55.2254 182.424 55.9861 182.69 56.5461 183.222C57.1154 183.754 57.4001 184.486 57.4001 185.42C57.4001 186.194 57.1668 186.95 56.7001 187.688C56.2428 188.416 55.7201 189.06 55.1321 189.62C54.5441 190.17 53.7928 190.814 52.8781 191.552H57.6941V192.616H50.9601V191.706ZM59.1668 187.562C59.1668 185.956 59.4282 184.706 59.9508 183.81C60.4735 182.904 61.3882 182.452 62.6948 182.452C63.9922 182.452 64.9022 182.904 65.4248 183.81C65.9475 184.706 66.2088 185.956 66.2088 187.562C66.2088 189.195 65.9475 190.464 65.4248 191.37C64.9022 192.275 63.9922 192.728 62.6948 192.728C61.3882 192.728 60.4735 192.275 59.9508 191.37C59.4282 190.464 59.1668 189.195 59.1668 187.562ZM64.9488 187.562C64.9488 186.75 64.8928 186.064 64.7808 185.504C64.6782 184.934 64.4588 184.477 64.1228 184.132C63.7962 183.786 63.3202 183.614 62.6948 183.614C62.0602 183.614 61.5748 183.786 61.2388 184.132C60.9122 184.477 60.6928 184.934 60.5808 185.504C60.4782 186.064 60.4268 186.75 60.4268 187.562C60.4268 188.402 60.4782 189.106 60.5808 189.676C60.6928 190.245 60.9122 190.702 61.2388 191.048C61.5748 191.393 62.0602 191.566 62.6948 191.566C63.3202 191.566 63.7962 191.393 64.1228 191.048C64.4588 190.702 64.6782 190.245 64.7808 189.676C64.8928 189.106 64.9488 188.402 64.9488 187.562ZM67.9578 187.562C67.9578 185.956 68.2192 184.706 68.7418 183.81C69.2645 182.904 70.1792 182.452 71.4858 182.452C72.7832 182.452 73.6932 182.904 74.2158 183.81C74.7385 184.706 74.9998 185.956 74.9998 187.562C74.9998 189.195 74.7385 190.464 74.2158 191.37C73.6932 192.275 72.7832 192.728 71.4858 192.728C70.1792 192.728 69.2645 192.275 68.7418 191.37C68.2192 190.464 67.9578 189.195 67.9578 187.562ZM73.7398 187.562C73.7398 186.75 73.6838 186.064 73.5718 185.504C73.4692 184.934 73.2498 184.477 72.9138 184.132C72.5872 183.786 72.1112 183.614 71.4858 183.614C70.8512 183.614 70.3658 183.786 70.0298 184.132C69.7032 184.477 69.4838 184.934 69.3718 185.504C69.2692 186.064 69.2178 186.75 69.2178 187.562C69.2178 188.402 69.2692 189.106 69.3718 189.676C69.4838 190.245 69.7032 190.702 70.0298 191.048C70.3658 191.393 70.8512 191.566 71.4858 191.566C72.1112 191.566 72.5872 191.393 72.9138 191.048C73.2498 190.702 73.4692 190.245 73.5718 189.676C73.6838 189.106 73.7398 188.402 73.7398 187.562ZM80.7669 184.916C81.3455 184.916 81.8682 185.042 82.3349 185.294C82.8015 185.536 83.1655 185.905 83.4269 186.4C83.6975 186.894 83.8329 187.496 83.8329 188.206V192.728H82.5729V188.388C82.5729 187.622 82.3815 187.039 81.9989 186.638C81.6162 186.227 81.0935 186.022 80.4309 186.022C79.7589 186.022 79.2222 186.232 78.8209 186.652C78.4289 187.072 78.2329 187.683 78.2329 188.486V192.728H76.9589V182.368H78.2329V186.148C78.4849 185.756 78.8302 185.452 79.2689 185.238C79.7169 185.023 80.2162 184.916 80.7669 184.916Z" fill="black" fill-opacity="0.6"/>
<path d="M51.0861 129.154C51.1514 128.295 51.4828 127.623 52.0801 127.138C52.6774 126.652 53.4521 126.41 54.4041 126.41C55.0388 126.41 55.5848 126.526 56.0421 126.76C56.5088 126.984 56.8588 127.292 57.0921 127.684C57.3348 128.076 57.4561 128.519 57.4561 129.014C57.4561 129.592 57.2881 130.092 56.9521 130.512C56.6254 130.932 56.1961 131.202 55.6641 131.324V131.394C56.2708 131.543 56.7514 131.837 57.1061 132.276C57.4608 132.714 57.6381 133.288 57.6381 133.998C57.6381 134.53 57.5168 135.01 57.2741 135.44C57.0314 135.86 56.6674 136.191 56.1821 136.434C55.6968 136.676 55.1134 136.798 54.4321 136.798C53.4428 136.798 52.6308 136.541 51.9961 136.028C51.3614 135.505 51.0068 134.768 50.9321 133.816H52.1641C52.2294 134.376 52.4581 134.833 52.8501 135.188C53.2421 135.542 53.7648 135.72 54.4181 135.72C55.0714 135.72 55.5661 135.552 55.9021 135.216C56.2474 134.87 56.4201 134.427 56.4201 133.886C56.4201 133.186 56.1868 132.682 55.7201 132.374C55.2534 132.066 54.5488 131.912 53.6061 131.912H53.2841V130.848H53.6201C54.4788 130.838 55.1274 130.698 55.5661 130.428C56.0048 130.148 56.2241 129.718 56.2241 129.14C56.2241 128.645 56.0608 128.248 55.7341 127.95C55.4168 127.651 54.9594 127.502 54.3621 127.502C53.7834 127.502 53.3168 127.651 52.9621 127.95C52.6074 128.248 52.3974 128.65 52.3321 129.154H51.0861ZM59.3582 131.562C59.3582 129.956 59.6196 128.706 60.1422 127.81C60.6649 126.904 61.5796 126.452 62.8862 126.452C64.1836 126.452 65.0936 126.904 65.6162 127.81C66.1389 128.706 66.4002 129.956 66.4002 131.562C66.4002 133.195 66.1389 134.464 65.6162 135.37C65.0936 136.275 64.1836 136.728 62.8862 136.728C61.5796 136.728 60.6649 136.275 60.1422 135.37C59.6196 134.464 59.3582 133.195 59.3582 131.562ZM65.1402 131.562C65.1402 130.75 65.0842 130.064 64.9722 129.504C64.8696 128.934 64.6502 128.477 64.3142 128.132C63.9876 127.786 63.5116 127.614 62.8862 127.614C62.2516 127.614 61.7662 127.786 61.4302 128.132C61.1036 128.477 60.8842 128.934 60.7722 129.504C60.6696 130.064 60.6182 130.75 60.6182 131.562C60.6182 132.402 60.6696 133.106 60.7722 133.676C60.8842 134.245 61.1036 134.702 61.4302 135.048C61.7662 135.393 62.2516 135.566 62.8862 135.566C63.5116 135.566 63.9876 135.393 64.3142 135.048C64.6502 134.702 64.8696 134.245 64.9722 133.676C65.0842 133.106 65.1402 132.402 65.1402 131.562ZM68.1493 131.562C68.1493 129.956 68.4106 128.706 68.9333 127.81C69.4559 126.904 70.3706 126.452 71.6773 126.452C72.9746 126.452 73.8846 126.904 74.4073 127.81C74.9299 128.706 75.1912 129.956 75.1912 131.562C75.1912 133.195 74.9299 134.464 74.4073 135.37C73.8846 136.275 72.9746 136.728 71.6773 136.728C70.3706 136.728 69.4559 136.275 68.9333 135.37C68.4106 134.464 68.1493 133.195 68.1493 131.562ZM73.9313 131.562C73.9313 130.75 73.8753 130.064 73.7633 129.504C73.6606 128.934 73.4413 128.477 73.1053 128.132C72.7786 127.786 72.3026 127.614 71.6773 127.614C71.0426 127.614 70.5573 127.786 70.2213 128.132C69.8946 128.477 69.6753 128.934 69.5633 129.504C69.4606 130.064 69.4093 130.75 69.4093 131.562C69.4093 132.402 69.4606 133.106 69.5633 133.676C69.6753 134.245 69.8946 134.702 70.2213 135.048C70.5573 135.393 71.0426 135.566 71.6773 135.566C72.3026 135.566 72.7786 135.393 73.1053 135.048C73.4413 134.702 73.6606 134.245 73.7633 133.676C73.8753 133.106 73.9313 132.402 73.9313 131.562ZM80.9583 128.916C81.5369 128.916 82.0596 129.042 82.5263 129.294C82.9929 129.536 83.3569 129.905 83.6183 130.4C83.8889 130.894 84.0243 131.496 84.0243 132.206V136.728H82.7643V132.388C82.7643 131.622 82.5729 131.039 82.1903 130.638C81.8076 130.227 81.2849 130.022 80.6223 130.022C79.9503 130.022 79.4136 130.232 79.0123 130.652C78.6203 131.072 78.4243 131.683 78.4243 132.486V136.728H77.1503V126.368H78.4243V130.148C78.6763 129.756 79.0216 129.452 79.4603 129.238C79.9083 129.023 80.4076 128.916 80.9583 128.916Z" fill="black" fill-opacity="0.6"/>
<path d="M104.199 241.728H450.29" stroke="black" stroke-opacity="0.1" stroke-dasharray="3 3"/>
<path d="M104.199 297.728H450.29" stroke="black" stroke-opacity="0.1" stroke-dasharray="3 3"/>
<path d="M104.199 185.728H450.29" stroke="black" stroke-opacity="0.1" stroke-dasharray="3 3"/>
<path d="M109.98 319.538V318.488H103.512V327.728H104.632V323.57H108.804V322.52H104.632V319.538H109.98ZM112.407 319.384C112.911 319.384 113.247 319.048 113.247 318.544C113.247 318.04 112.911 317.704 112.407 317.704C111.903 317.704 111.567 318.04 111.567 318.544C111.567 319.048 111.903 319.384 112.407 319.384ZM112.967 320.728H111.847V327.728H112.967V320.728ZM118.968 320.588C118.002 320.588 117.106 320.938 116.616 321.82L116.546 320.728H115.566V327.728H116.686V324.004C116.686 322.212 117.834 321.568 118.856 321.568C119.822 321.568 120.578 322.086 120.578 323.64V327.728H121.698V323.248C121.698 321.442 120.466 320.588 118.968 320.588ZM129.974 326.916C129.582 326.916 129.442 326.748 129.442 326.412V322.968C129.442 321.344 128.28 320.588 126.684 320.588C125.326 320.588 124.22 321.26 123.856 322.296L124.682 322.898C125.06 322.016 125.76 321.568 126.684 321.568C127.734 321.568 128.322 322.184 128.322 323.108V323.5L126.46 323.808C124.654 324.116 123.73 324.942 123.73 325.992C123.73 327.252 124.794 327.868 126.11 327.868C127.006 327.868 127.916 327.49 128.364 326.832C128.49 327.616 128.938 327.868 129.624 327.868C129.974 327.868 130.268 327.798 130.464 327.728L130.534 326.846C130.366 326.888 130.156 326.916 129.974 326.916ZM126.166 326.888C125.368 326.888 124.892 326.58 124.892 325.992C124.892 325.334 125.522 324.928 126.754 324.704L128.322 324.41V325.376C128.322 326.3 127.286 326.888 126.166 326.888ZM135.565 320.588C134.599 320.588 133.703 320.938 133.213 321.82L133.143 320.728H132.163V327.728H133.283V324.004C133.283 322.212 134.431 321.568 135.453 321.568C136.419 321.568 137.175 322.086 137.175 323.64V327.728H138.295V323.248C138.295 321.442 137.063 320.588 135.565 320.588ZM143.785 320.588C141.671 320.588 140.397 321.96 140.397 324.228C140.397 326.496 141.671 327.868 143.785 327.868C145.269 327.868 146.277 327.098 146.753 325.81L145.717 325.446C145.507 326.37 144.849 326.888 143.757 326.888C142.357 326.888 141.517 325.894 141.517 324.228C141.517 322.562 142.357 321.568 143.757 321.568C144.723 321.568 145.325 322.058 145.619 322.954L146.683 322.45C146.165 321.302 145.227 320.588 143.785 320.588ZM154.74 323.864C154.74 322.058 153.634 320.588 151.604 320.588C149.49 320.588 148.3 321.96 148.3 324.228C148.3 326.496 149.574 327.868 151.688 327.868C153.2 327.868 154.068 327.294 154.6 326.342L153.662 325.852C153.41 326.524 152.71 326.888 151.688 326.888C150.4 326.888 149.546 326.062 149.406 324.648H154.684C154.712 324.452 154.74 324.186 154.74 323.864ZM151.604 321.568C152.794 321.568 153.508 322.366 153.662 323.654H149.42C149.588 322.338 150.358 321.568 151.604 321.568Z" fill="black" fill-opacity="0.6"/>
<path d="M116.042 243.728C116.042 239.013 116.042 236.656 117.507 235.192C118.971 233.728 121.328 233.728 126.042 233.728H132.361C137.075 233.728 139.432 233.728 140.897 235.192C142.361 236.656 142.361 239.013 142.361 243.728V297.728H116.042V243.728Z" fill="#F37A3F"/>
<path d="M181.686 327.728H182.876L179.292 318.488H177.962L174.364 327.728H175.54L176.52 325.166H180.706L181.686 327.728ZM176.926 324.116L178.186 320.798L178.592 319.552H178.62L179.054 320.84L180.3 324.116H176.926ZM189.363 320.728V324.536C189.363 326.188 188.313 326.888 187.123 326.888C186.115 326.888 185.471 326.454 185.471 325.012V320.728H184.351V325.306C184.351 327.154 185.541 327.868 186.927 327.868C188.047 327.868 188.943 327.504 189.433 326.664L189.503 327.728H190.483V320.728H189.363ZM196.981 326.3C196.659 326.622 196.295 326.818 195.791 326.818C195.175 326.818 194.741 326.482 194.741 325.796V321.694H197.331V320.728H194.741V318.74L193.621 319.048V320.728H192.221V321.694H193.621V325.992C193.635 327.35 194.531 327.868 195.567 327.868C196.337 327.868 196.939 327.63 197.373 327.238L196.981 326.3ZM201.908 320.588C199.794 320.588 198.52 321.96 198.52 324.228C198.52 326.496 199.794 327.868 201.908 327.868C204.022 327.868 205.296 326.496 205.296 324.228C205.296 321.96 204.022 320.588 201.908 320.588ZM201.908 321.554C203.322 321.554 204.176 322.562 204.176 324.228C204.176 325.894 203.322 326.902 201.908 326.902C200.494 326.902 199.64 325.894 199.64 324.228C199.64 322.562 200.494 321.554 201.908 321.554Z" fill="black" fill-opacity="0.6"/>
<path d="M176.576 210.728C176.576 206.013 176.576 203.656 178.04 202.192C179.505 200.728 181.862 200.728 186.576 200.728H192.894C197.608 200.728 199.965 200.728 201.43 202.192C202.894 203.656 202.894 206.013 202.894 210.728V297.728H176.576V210.728Z" fill="#389ED8"/>
<path d="M234.644 318.488V322.52H229.632V318.488H228.512V327.728H229.632V323.57H234.644V327.728H235.764V318.488H234.644ZM244.466 323.864C244.466 322.058 243.36 320.588 241.33 320.588C239.216 320.588 238.026 321.96 238.026 324.228C238.026 326.496 239.3 327.868 241.414 327.868C242.926 327.868 243.794 327.294 244.326 326.342L243.388 325.852C243.136 326.524 242.436 326.888 241.414 326.888C240.126 326.888 239.272 326.062 239.132 324.648H244.41C244.438 324.452 244.466 324.186 244.466 323.864ZM241.33 321.568C242.52 321.568 243.234 322.366 243.388 323.654H239.146C239.314 322.338 240.084 321.568 241.33 321.568ZM252.335 326.916C251.943 326.916 251.803 326.748 251.803 326.412V322.968C251.803 321.344 250.641 320.588 249.045 320.588C247.687 320.588 246.581 321.26 246.217 322.296L247.043 322.898C247.421 322.016 248.121 321.568 249.045 321.568C250.095 321.568 250.683 322.184 250.683 323.108V323.5L248.821 323.808C247.015 324.116 246.091 324.942 246.091 325.992C246.091 327.252 247.155 327.868 248.471 327.868C249.367 327.868 250.277 327.49 250.725 326.832C250.851 327.616 251.299 327.868 251.985 327.868C252.335 327.868 252.629 327.798 252.825 327.728L252.895 326.846C252.727 326.888 252.517 326.916 252.335 326.916ZM248.527 326.888C247.729 326.888 247.253 326.58 247.253 325.992C247.253 325.334 247.883 324.928 249.115 324.704L250.683 324.41V325.376C250.683 326.3 249.647 326.888 248.527 326.888ZM255.589 317.508H254.469V325.992C254.469 327.266 255.015 327.868 256.149 327.868C256.513 327.868 256.891 327.798 257.185 327.672L257.367 326.594C256.961 326.748 256.723 326.79 256.345 326.79C255.771 326.79 255.589 326.566 255.589 325.852V317.508ZM262.423 326.3C262.101 326.622 261.737 326.818 261.233 326.818C260.617 326.818 260.183 326.482 260.183 325.796V321.694H262.773V320.728H260.183V318.74L259.063 319.048V320.728H257.663V321.694H259.063V325.992C259.077 327.35 259.973 327.868 261.009 327.868C261.779 327.868 262.381 327.63 262.815 327.238L262.423 326.3ZM267.798 320.588C266.846 320.588 266.006 320.938 265.516 321.778V317.508H264.396V327.728H265.516V324.018C265.516 322.226 266.664 321.568 267.686 321.568C268.652 321.568 269.408 322.086 269.408 323.64V327.728H270.528V323.248C270.528 321.442 269.296 320.588 267.798 320.588Z" fill="black" fill-opacity="0.6"/>
<path d="M237.109 156.728C237.109 152.013 237.109 149.656 238.573 148.192C240.038 146.728 242.395 146.728 247.109 146.728H253.428C258.142 146.728 260.499 146.728 261.963 148.192C263.428 149.656 263.428 152.013 263.428 156.728V297.728H237.109V156.728Z" fill="#38D8A2"/>
<path d="M298.364 327.728H299.694L297.09 323.766C298.35 323.43 299.134 322.506 299.134 321.19C299.134 319.524 297.888 318.488 296.012 318.488H292.512V327.728H293.632V323.892H295.844L298.364 327.728ZM293.632 319.538H295.998C297.314 319.538 297.958 320.084 297.958 321.19C297.958 322.296 297.314 322.842 295.998 322.842H293.632V319.538ZM307.386 323.864C307.386 322.058 306.28 320.588 304.25 320.588C302.136 320.588 300.946 321.96 300.946 324.228C300.946 326.496 302.22 327.868 304.334 327.868C305.846 327.868 306.714 327.294 307.246 326.342L306.308 325.852C306.056 326.524 305.356 326.888 304.334 326.888C303.046 326.888 302.192 326.062 302.052 324.648H307.33C307.358 324.452 307.386 324.186 307.386 323.864ZM304.25 321.568C305.44 321.568 306.154 322.366 306.308 323.654H302.066C302.234 322.338 303.004 321.568 304.25 321.568ZM313.202 326.3C312.88 326.622 312.516 326.818 312.012 326.818C311.396 326.818 310.962 326.482 310.962 325.796V321.694H313.552V320.728H310.962V318.74L309.842 319.048V320.728H308.442V321.694H309.842V325.992C309.856 327.35 310.752 327.868 311.788 327.868C312.558 327.868 313.16 327.63 313.594 327.238L313.202 326.3ZM320.915 326.916C320.523 326.916 320.383 326.748 320.383 326.412V322.968C320.383 321.344 319.221 320.588 317.625 320.588C316.267 320.588 315.161 321.26 314.797 322.296L315.623 322.898C316.001 322.016 316.701 321.568 317.625 321.568C318.675 321.568 319.263 322.184 319.263 323.108V323.5L317.401 323.808C315.595 324.116 314.671 324.942 314.671 325.992C314.671 327.252 315.735 327.868 317.051 327.868C317.947 327.868 318.857 327.49 319.305 326.832C319.431 327.616 319.879 327.868 320.565 327.868C320.915 327.868 321.209 327.798 321.405 327.728L321.475 326.846C321.307 326.888 321.097 326.916 320.915 326.916ZM317.107 326.888C316.309 326.888 315.833 326.58 315.833 325.992C315.833 325.334 316.463 324.928 317.695 324.704L319.263 324.41V325.376C319.263 326.3 318.227 326.888 317.107 326.888ZM323.665 319.384C324.169 319.384 324.505 319.048 324.505 318.544C324.505 318.04 324.169 317.704 323.665 317.704C323.161 317.704 322.825 318.04 322.825 318.544C322.825 319.048 323.161 319.384 323.665 319.384ZM324.225 320.728H323.105V327.728H324.225V320.728ZM327.887 317.508H326.767V325.992C326.767 327.266 327.313 327.868 328.447 327.868C328.811 327.868 329.189 327.798 329.483 327.672L329.665 326.594C329.259 326.748 329.021 326.79 328.643 326.79C328.069 326.79 327.887 326.566 327.887 325.852V317.508Z" fill="black" fill-opacity="0.6"/>
<path d="M297.642 263.728C297.642 259.013 297.642 256.656 299.106 255.192C300.571 253.728 302.928 253.728 307.642 253.728H313.96C318.674 253.728 321.031 253.728 322.496 255.192C323.96 256.656 323.96 259.013 323.96 263.728V297.728H297.642V263.728Z" fill="#F3CB3F"/>
<path d="M362.764 318.76V328H361.644V318.76H362.764ZM356.632 318.76V328H355.512V318.76H356.632ZM362.162 322.792V323.842H356.1V322.792H362.162ZM368.372 320.86C369.035 320.86 369.618 321.005 370.122 321.294C370.635 321.583 371.037 322.003 371.326 322.554C371.615 323.095 371.76 323.744 371.76 324.5C371.76 325.256 371.615 325.909 371.326 326.46C371.037 327.001 370.635 327.417 370.122 327.706C369.618 327.995 369.035 328.14 368.372 328.14C367.719 328.14 367.135 327.995 366.622 327.706C366.109 327.417 365.707 327.001 365.418 326.46C365.129 325.909 364.984 325.256 364.984 324.5C364.984 323.744 365.129 323.095 365.418 322.554C365.707 322.003 366.109 321.583 366.622 321.294C367.135 321.005 367.719 320.86 368.372 320.86ZM368.372 321.826C367.896 321.826 367.49 321.933 367.154 322.148C366.818 322.363 366.557 322.671 366.37 323.072C366.193 323.464 366.104 323.94 366.104 324.5C366.104 325.051 366.193 325.527 366.37 325.928C366.557 326.329 366.818 326.637 367.154 326.852C367.49 327.067 367.896 327.174 368.372 327.174C368.848 327.174 369.254 327.067 369.59 326.852C369.926 326.637 370.183 326.329 370.36 325.928C370.547 325.527 370.64 325.051 370.64 324.5C370.64 323.94 370.547 323.464 370.36 323.072C370.183 322.671 369.926 322.363 369.59 322.148C369.254 321.933 368.848 321.826 368.372 321.826ZM373.868 328V321H374.848L374.918 322.092C375.17 321.663 375.497 321.35 375.898 321.154C376.309 320.958 376.729 320.86 377.158 320.86C377.653 320.86 378.12 320.972 378.558 321.196C378.997 321.42 379.333 321.765 379.566 322.232C379.716 321.915 379.926 321.658 380.196 321.462C380.467 321.257 380.761 321.107 381.078 321.014C381.405 320.911 381.713 320.86 382.002 320.86C382.45 320.86 382.875 320.953 383.276 321.14C383.687 321.327 384.023 321.616 384.284 322.008C384.546 322.4 384.676 322.904 384.676 323.52V328H383.556V323.632C383.556 322.997 383.398 322.54 383.08 322.26C382.763 321.98 382.371 321.84 381.904 321.84C381.54 321.84 381.2 321.929 380.882 322.106C380.565 322.283 380.308 322.545 380.112 322.89C379.926 323.235 379.832 323.66 379.832 324.164V328H378.712V323.632C378.712 322.997 378.554 322.54 378.236 322.26C377.919 321.98 377.527 321.84 377.06 321.84C376.752 321.84 376.435 321.924 376.108 322.092C375.791 322.251 375.525 322.507 375.31 322.862C375.096 323.217 374.988 323.683 374.988 324.262V328H373.868ZM390.138 328.14C389.475 328.14 388.883 327.995 388.36 327.706C387.847 327.417 387.445 327.001 387.156 326.46C386.867 325.909 386.722 325.256 386.722 324.5C386.722 323.744 386.867 323.095 387.156 322.554C387.445 322.003 387.842 321.583 388.346 321.294C388.85 321.005 389.424 320.86 390.068 320.86C390.721 320.86 391.277 321 391.734 321.28C392.201 321.56 392.555 321.943 392.798 322.428C393.041 322.904 393.162 323.441 393.162 324.038C393.162 324.197 393.157 324.341 393.148 324.472C393.139 324.603 393.125 324.719 393.106 324.822H387.45V323.828H392.616L392.042 323.94C392.042 323.268 391.855 322.75 391.482 322.386C391.118 322.022 390.637 321.84 390.04 321.84C389.583 321.84 389.186 321.947 388.85 322.162C388.523 322.367 388.267 322.671 388.08 323.072C387.903 323.464 387.814 323.94 387.814 324.5C387.814 325.051 387.907 325.527 388.094 325.928C388.281 326.329 388.542 326.637 388.878 326.852C389.223 327.057 389.634 327.16 390.11 327.16C390.623 327.16 391.039 327.062 391.356 326.866C391.683 326.67 391.944 326.404 392.14 326.068L393.022 326.586C392.845 326.903 392.616 327.179 392.336 327.412C392.065 327.645 391.743 327.827 391.37 327.958C391.006 328.079 390.595 328.14 390.138 328.14Z" fill="black" fill-opacity="0.6"/>
<path d="M359.491 200.728C359.491 196.013 359.491 193.656 360.955 192.192C362.42 190.728 364.777 190.728 369.491 190.728H375.809C380.523 190.728 382.88 190.728 384.345 192.192C385.809 193.656 385.809 196.013 385.809 200.728V297.728H359.491V200.728Z" fill="#B83EE2"/>
<path d="M420.727 318.348C421.605 318.348 422.361 318.544 422.995 318.936C423.639 319.318 424.134 319.864 424.479 320.574C424.834 321.283 425.011 322.128 425.011 323.108C425.011 324.088 424.834 324.932 424.479 325.642C424.134 326.351 423.639 326.902 422.995 327.294C422.361 327.676 421.605 327.868 420.727 327.868C419.85 327.868 419.089 327.676 418.445 327.294C417.811 326.902 417.316 326.351 416.961 325.642C416.616 324.932 416.443 324.088 416.443 323.108C416.443 322.128 416.616 321.283 416.961 320.574C417.316 319.864 417.811 319.318 418.445 318.936C419.089 318.544 419.85 318.348 420.727 318.348ZM420.727 319.398C420.093 319.398 419.542 319.547 419.075 319.846C418.609 320.135 418.249 320.56 417.997 321.12C417.745 321.67 417.619 322.333 417.619 323.108C417.619 323.882 417.745 324.55 417.997 325.11C418.249 325.66 418.609 326.085 419.075 326.384C419.542 326.673 420.093 326.818 420.727 326.818C421.371 326.818 421.922 326.673 422.379 326.384C422.846 326.085 423.205 325.66 423.457 325.11C423.709 324.55 423.835 323.882 423.835 323.108C423.835 322.333 423.709 321.67 423.457 321.12C423.205 320.56 422.846 320.135 422.379 319.846C421.922 319.547 421.371 319.398 420.727 319.398ZM428.918 318.74V325.796C428.918 326.141 429.016 326.398 429.212 326.566C429.408 326.734 429.66 326.818 429.968 326.818C430.239 326.818 430.472 326.771 430.668 326.678C430.864 326.584 431.041 326.458 431.2 326.3L431.592 327.238C431.377 327.434 431.121 327.588 430.822 327.7C430.533 327.812 430.197 327.868 429.814 327.868C429.459 327.868 429.128 327.807 428.82 327.686C428.512 327.555 428.265 327.354 428.078 327.084C427.901 326.804 427.807 326.44 427.798 325.992V319.048L428.918 318.74ZM431.466 320.728V321.694H426.398V320.728H431.466ZM433.131 327.728V317.508H434.251V321.778C434.494 321.358 434.816 321.054 435.217 320.868C435.618 320.681 436.057 320.588 436.533 320.588C437.037 320.588 437.494 320.686 437.905 320.882C438.316 321.068 438.642 321.358 438.885 321.75C439.137 322.142 439.263 322.641 439.263 323.248V327.728H438.143V323.64C438.143 322.865 437.975 322.328 437.639 322.03C437.312 321.722 436.906 321.568 436.421 321.568C436.085 321.568 435.749 321.647 435.413 321.806C435.077 321.964 434.797 322.226 434.573 322.59C434.358 322.944 434.251 323.42 434.251 324.018V327.728H433.131ZM444.725 327.868C444.062 327.868 443.47 327.723 442.947 327.434C442.434 327.144 442.032 326.729 441.743 326.188C441.454 325.637 441.309 324.984 441.309 324.228C441.309 323.472 441.454 322.823 441.743 322.282C442.032 321.731 442.429 321.311 442.933 321.022C443.437 320.732 444.011 320.588 444.655 320.588C445.308 320.588 445.864 320.728 446.321 321.008C446.788 321.288 447.142 321.67 447.385 322.156C447.628 322.632 447.749 323.168 447.749 323.766C447.749 323.924 447.744 324.069 447.735 324.2C447.726 324.33 447.712 324.447 447.693 324.55H442.037V323.556H447.203L446.629 323.668C446.629 322.996 446.442 322.478 446.069 322.114C445.705 321.75 445.224 321.568 444.627 321.568C444.17 321.568 443.773 321.675 443.437 321.89C443.11 322.095 442.854 322.398 442.667 322.8C442.49 323.192 442.401 323.668 442.401 324.228C442.401 324.778 442.494 325.254 442.681 325.656C442.868 326.057 443.129 326.365 443.465 326.58C443.81 326.785 444.221 326.888 444.697 326.888C445.21 326.888 445.626 326.79 445.943 326.594C446.27 326.398 446.531 326.132 446.727 325.796L447.609 326.314C447.432 326.631 447.203 326.906 446.923 327.14C446.652 327.373 446.33 327.555 445.957 327.686C445.593 327.807 445.182 327.868 444.725 327.868ZM449.879 327.728V320.728H450.789L450.943 321.876C451.139 321.446 451.424 321.124 451.797 320.91C452.18 320.695 452.642 320.588 453.183 320.588C453.304 320.588 453.435 320.597 453.575 320.616C453.724 320.634 453.85 320.672 453.953 320.728L453.757 321.75C453.654 321.712 453.542 321.684 453.421 321.666C453.3 321.647 453.127 321.638 452.903 321.638C452.614 321.638 452.32 321.722 452.021 321.89C451.732 322.058 451.489 322.314 451.293 322.66C451.097 322.996 450.999 323.425 450.999 323.948V327.728H449.879Z" fill="black" fill-opacity="0.6"/>
<path d="M421.339 224.728C421.339 220.013 421.339 217.656 422.804 216.192C424.268 214.728 426.625 214.728 431.339 214.728H437.658C442.372 214.728 444.729 214.728 446.194 216.192C447.658 217.656 447.658 220.013 447.658 224.728V297.728H421.339V224.728Z" fill="#F33FB6"/>
<rect x="360.627" y="27.0332" width="100" height="40" rx="7" fill="#38D8A2" fill-opacity="0.1"/>
<path d="M438.627 47.0332L442.627 51.0332L446.627 47.0332" stroke="#6CCCCB" stroke-width="1.2" stroke-linecap="round" stroke-linejoin="round"/>
<path d="M386.071 42.7932V52.0332H385.007V46.2232L385.133 43.7872H385.119L382.081 52.0332H381.129L378.091 43.7872H378.077L378.203 46.2232V52.0332H377.139V42.7932H378.861L380.891 48.4072L381.591 50.7172H381.619L382.333 48.4212L384.349 42.7932H386.071ZM391.667 44.8932C392.329 44.8932 392.913 45.0379 393.417 45.3272C393.93 45.6165 394.331 46.0365 394.621 46.5872C394.91 47.1285 395.055 47.7772 395.055 48.5332C395.055 49.2892 394.91 49.9425 394.621 50.4932C394.331 51.0345 393.93 51.4499 393.417 51.7392C392.913 52.0285 392.329 52.1732 391.667 52.1732C391.013 52.1732 390.43 52.0285 389.917 51.7392C389.403 51.4499 389.002 51.0345 388.713 50.4932C388.423 49.9425 388.279 49.2892 388.279 48.5332C388.279 47.7772 388.423 47.1285 388.713 46.5872C389.002 46.0365 389.403 45.6165 389.917 45.3272C390.43 45.0379 391.013 44.8932 391.667 44.8932ZM391.667 45.8592C390.957 45.8592 390.402 46.0972 390.001 46.5732C389.599 47.0492 389.399 47.7025 389.399 48.5332C389.399 49.3639 389.599 50.0172 390.001 50.4932C390.402 50.9692 390.957 51.2072 391.667 51.2072C392.376 51.2072 392.931 50.9692 393.333 50.4932C393.734 50.0172 393.935 49.3639 393.935 48.5332C393.935 47.7025 393.734 47.0492 393.333 46.5732C392.931 46.0972 392.376 45.8592 391.667 45.8592ZM397.163 52.0332V45.0332H398.143L398.213 46.1252C398.456 45.6865 398.787 45.3739 399.207 45.1872C399.627 44.9912 400.08 44.8932 400.565 44.8932C401.069 44.8932 401.527 44.9912 401.937 45.1872C402.348 45.3739 402.675 45.6632 402.917 46.0552C403.169 46.4472 403.295 46.9465 403.295 47.5532V52.0332H402.175V47.9452C402.175 47.1705 402.007 46.6339 401.671 46.3352C401.345 46.0272 400.939 45.8732 400.453 45.8732C400.117 45.8732 399.781 45.9525 399.445 46.1112C399.109 46.2699 398.829 46.5265 398.605 46.8812C398.391 47.2359 398.283 47.7119 398.283 48.3092V52.0332H397.163ZM409.936 45.0332V45.9992H407.388V50.1012C407.388 50.4465 407.486 50.7032 407.682 50.8712C407.878 51.0392 408.13 51.1232 408.438 51.1232C408.708 51.1232 408.942 51.0765 409.138 50.9832C409.334 50.8899 409.511 50.7639 409.67 50.6052L410.062 51.5432C409.847 51.7392 409.59 51.8932 409.292 52.0052C409.002 52.1172 408.666 52.1732 408.284 52.1732C407.929 52.1732 407.598 52.1125 407.29 51.9912C406.982 51.8605 406.734 51.6599 406.548 51.3892C406.37 51.1092 406.277 50.7452 406.268 50.2972V45.9992H404.868V45.0332H406.268V43.3532L407.388 43.0452V45.0332H409.936ZM411.601 52.0332V41.8132H412.721V46.0832C412.963 45.6632 413.285 45.3599 413.687 45.1732C414.088 44.9865 414.527 44.8932 415.003 44.8932C415.507 44.8932 415.964 44.9912 416.375 45.1872C416.785 45.3739 417.112 45.6632 417.355 46.0552C417.607 46.4472 417.733 46.9465 417.733 47.5532V52.0332H416.613V47.9452C416.613 47.1705 416.445 46.6339 416.109 46.3352C415.782 46.0272 415.376 45.8732 414.891 45.8732C414.555 45.8732 414.219 45.9525 413.883 46.1112C413.547 46.2699 413.267 46.5312 413.043 46.8952C412.828 47.2499 412.721 47.7259 412.721 48.3232V52.0332H411.601ZM421.333 41.8132V50.2552C421.333 50.6099 421.398 50.8572 421.529 50.9972C421.659 51.1279 421.869 51.1932 422.159 51.1932C422.345 51.1932 422.499 51.1792 422.621 51.1512C422.742 51.1232 422.905 51.0719 423.111 50.9972L422.929 51.9772C422.621 52.1079 422.275 52.1732 421.893 52.1732C420.773 52.1732 420.213 51.5479 420.213 50.2972V41.8132H421.333ZM429.947 45.0332L426.657 53.2092C426.386 53.8905 426.078 54.3665 425.733 54.6372C425.397 54.9079 424.981 55.0432 424.487 55.0432C424.169 55.0432 423.875 54.9965 423.605 54.9032C423.343 54.8192 423.11 54.7025 422.905 54.5532L423.213 53.5732C423.399 53.7412 423.595 53.8625 423.801 53.9372C424.015 54.0212 424.225 54.0632 424.431 54.0632C424.673 54.0632 424.902 53.9885 425.117 53.8392C425.331 53.6899 425.527 53.3865 425.705 52.9292L426.069 52.0192L425.369 50.3532L423.143 45.0332H424.417L426.167 49.5972L426.601 50.8432L427.105 49.4572L428.743 45.0332H429.947Z" fill="#38D8A2"/>
<path d="M104.199 132.306L450.29 132.306" stroke="black" stroke-opacity="0.1" stroke-dasharray="3 3"/>
<defs>
<filter id="filter0_d_972_501" x="0" y="0" width="511" height="417" filterUnits="userSpaceOnUse" color-interpolation-filters="sRGB">
<feFlood flood-opacity="0" result="BackgroundImageFix"/>
<feColorMatrix in="SourceAlpha" type="matrix" values="0 0 0 0 0 0 0 0 0 0 0 0 0 0 0 0 0 0 127 0" result="hardAlpha"/>
<feOffset dy="25"/>
<feGaussianBlur stdDeviation="15"/>
<feComposite in2="hardAlpha" operator="out"/>
<feColorMatrix type="matrix" values="0 0 0 0 0.243137 0 0 0 0 0.286275 0 0 0 0 0.329412 0 0 0 0.04 0"/>
<feBlend mode="normal" in2="BackgroundImageFix" result="effect1_dropShadow_972_501"/>
<feBlend mode="normal" in="SourceGraphic" in2="effect1_dropShadow_972_501" result="shape"/>
</filter>
<filter id="filter1_d_972_501" x="0" y="1" width="511" height="417" filterUnits="userSpaceOnUse" color-interpolation-filters="sRGB">
<feFlood flood-opacity="0" result="BackgroundImageFix"/>
<feColorMatrix in="SourceAlpha" type="matrix" values="0 0 0 0 0 0 0 0 0 0 0 0 0 0 0 0 0 0 127 0" result="hardAlpha"/>
<feOffset dy="25"/>
<feGaussianBlur stdDeviation="15"/>
<feComposite in2="hardAlpha" operator="out"/>
<feColorMatrix type="matrix" values="0 0 0 0 0.243137 0 0 0 0 0.286275 0 0 0 0 0.329412 0 0 0 0.04 0"/>
<feBlend mode="normal" in2="BackgroundImageFix" result="effect1_dropShadow_972_501"/>
<feBlend mode="normal" in="SourceGraphic" in2="effect1_dropShadow_972_501" result="shape"/>
</filter>
</defs>
</svg>
