<svg width="160" height="38" viewBox="0 0 160 38" fill="none" xmlns="http://www.w3.org/2000/svg">
<rect x="0.5" y="0.5" width="159" height="37" rx="9.5" fill="white" stroke="#53DBAD"/>
<path d="M48.0603 19.1C48.0603 18.1387 48.275 17.28 48.7043 16.524C49.143 15.7587 49.7356 15.166 50.4823 14.746C51.2383 14.3167 52.083 14.102 53.0163 14.102C54.1083 14.102 55.065 14.382 55.8863 14.942C56.7076 15.502 57.2816 16.2767 57.6083 17.266H55.3543C55.1303 16.7993 54.813 16.4493 54.4023 16.216C54.001 15.9827 53.5343 15.866 53.0023 15.866C52.433 15.866 51.9243 16.0013 51.4763 16.272C51.0376 16.5333 50.6923 16.9067 50.4403 17.392C50.1976 17.8773 50.0763 18.4467 50.0763 19.1C50.0763 19.744 50.1976 20.3133 50.4403 20.808C50.6923 21.2933 51.0376 21.6713 51.4763 21.942C51.9243 22.2033 52.433 22.334 53.0023 22.334C53.5343 22.334 54.001 22.2173 54.4023 21.984C54.813 21.7413 55.1303 21.3867 55.3543 20.92H57.6083C57.2816 21.9187 56.7076 22.698 55.8863 23.258C55.0743 23.8087 54.1176 24.084 53.0163 24.084C52.083 24.084 51.2383 23.874 50.4823 23.454C49.7356 23.0247 49.143 22.432 48.7043 21.676C48.275 20.92 48.0603 20.0613 48.0603 19.1ZM62.7264 24.126C61.9797 24.126 61.3077 23.9627 60.7104 23.636C60.1131 23.3 59.6417 22.8287 59.2964 22.222C58.9604 21.6153 58.7924 20.9153 58.7924 20.122C58.7924 19.3287 58.9651 18.6287 59.3104 18.022C59.6651 17.4153 60.1457 16.9487 60.7524 16.622C61.3591 16.286 62.0357 16.118 62.7824 16.118C63.5291 16.118 64.2057 16.286 64.8124 16.622C65.4191 16.9487 65.8951 17.4153 66.2404 18.022C66.5951 18.6287 66.7724 19.3287 66.7724 20.122C66.7724 20.9153 66.5904 21.6153 66.2264 22.222C65.8717 22.8287 65.3864 23.3 64.7704 23.636C64.1637 23.9627 63.4824 24.126 62.7264 24.126ZM62.7264 22.418C63.0811 22.418 63.4124 22.334 63.7204 22.166C64.0377 21.9887 64.2897 21.7273 64.4764 21.382C64.6631 21.0367 64.7564 20.6167 64.7564 20.122C64.7564 19.3847 64.5604 18.82 64.1684 18.428C63.7857 18.0267 63.3144 17.826 62.7544 17.826C62.1944 17.826 61.7231 18.0267 61.3404 18.428C60.9671 18.82 60.7804 19.3847 60.7804 20.122C60.7804 20.8593 60.9624 21.4287 61.3264 21.83C61.6997 22.222 62.1664 22.418 62.7264 22.418ZM70.1701 17.364C70.4221 17.0093 70.7675 16.7153 71.2061 16.482C71.6541 16.2393 72.1628 16.118 72.7321 16.118C73.3948 16.118 73.9921 16.2813 74.5241 16.608C75.0655 16.9347 75.4901 17.4013 75.7981 18.008C76.1155 18.6053 76.2741 19.3007 76.2741 20.094C76.2741 20.8873 76.1155 21.592 75.7981 22.208C75.4901 22.8147 75.0655 23.286 74.5241 23.622C73.9921 23.958 73.3948 24.126 72.7321 24.126C72.1628 24.126 71.6588 24.0093 71.2201 23.776C70.7908 23.5427 70.4408 23.2487 70.1701 22.894V27.696H68.2101V16.244H70.1701V17.364ZM74.2721 20.094C74.2721 19.6273 74.1741 19.226 73.9781 18.89C73.7915 18.5447 73.5395 18.2833 73.2221 18.106C72.9141 17.9287 72.5781 17.84 72.2141 17.84C71.8595 17.84 71.5235 17.9333 71.2061 18.12C70.8981 18.2973 70.6461 18.5587 70.4501 18.904C70.2635 19.2493 70.1701 19.6553 70.1701 20.122C70.1701 20.5887 70.2635 20.9947 70.4501 21.34C70.6461 21.6853 70.8981 21.9513 71.2061 22.138C71.5235 22.3153 71.8595 22.404 72.2141 22.404C72.5781 22.404 72.9141 22.3107 73.2221 22.124C73.5395 21.9373 73.7915 21.6713 73.9781 21.326C74.1741 20.9807 74.2721 20.57 74.2721 20.094ZM85.1184 16.244L80.3164 27.668H78.2304L79.9104 23.804L76.8024 16.244H79.0004L81.0024 21.662L83.0324 16.244H85.1184ZM91.7929 17.854V21.606C91.7929 21.8673 91.8536 22.0587 91.9749 22.18C92.1056 22.292 92.3203 22.348 92.6189 22.348H93.5289V24H92.2969C90.6449 24 89.8189 23.1973 89.8189 21.592V17.854H88.8949V16.244H89.8189V14.326H91.7929V16.244H93.5289V17.854H91.7929ZM99.3067 16.132C99.8947 16.132 100.417 16.2627 100.875 16.524C101.332 16.776 101.687 17.154 101.939 17.658C102.2 18.1527 102.331 18.75 102.331 19.45V24H100.371V19.716C100.371 19.1 100.217 18.6287 99.9087 18.302C99.6007 17.966 99.1807 17.798 98.6487 17.798C98.1073 17.798 97.678 17.966 97.3607 18.302C97.0527 18.6287 96.8987 19.1 96.8987 19.716V24H94.9387V13.64H96.8987V17.21C97.1507 16.874 97.4867 16.6127 97.9067 16.426C98.3267 16.23 98.7933 16.132 99.3067 16.132ZM111.405 19.954C111.405 20.234 111.386 20.486 111.349 20.71H105.679C105.725 21.27 105.921 21.7087 106.267 22.026C106.612 22.3433 107.037 22.502 107.541 22.502C108.269 22.502 108.787 22.1893 109.095 21.564H111.209C110.985 22.3107 110.555 22.9267 109.921 23.412C109.286 23.888 108.507 24.126 107.583 24.126C106.836 24.126 106.164 23.9627 105.567 23.636C104.979 23.3 104.517 22.8287 104.181 22.222C103.854 21.6153 103.691 20.9153 103.691 20.122C103.691 19.3193 103.854 18.6147 104.181 18.008C104.507 17.4013 104.965 16.9347 105.553 16.608C106.141 16.2813 106.817 16.118 107.583 16.118C108.32 16.118 108.978 16.2767 109.557 16.594C110.145 16.9113 110.597 17.364 110.915 17.952C111.241 18.5307 111.405 19.198 111.405 19.954ZM109.375 19.394C109.365 18.89 109.183 18.4887 108.829 18.19C108.474 17.882 108.04 17.728 107.527 17.728C107.041 17.728 106.631 17.8773 106.295 18.176C105.968 18.4653 105.767 18.8713 105.693 19.394H109.375ZM118.131 13.64V24H116.171V13.64H118.131ZM121.062 15.32C120.716 15.32 120.427 15.2127 120.194 14.998C119.97 14.774 119.858 14.4987 119.858 14.172C119.858 13.8453 119.97 13.5747 120.194 13.36C120.427 13.136 120.716 13.024 121.062 13.024C121.407 13.024 121.692 13.136 121.916 13.36C122.149 13.5747 122.266 13.8453 122.266 14.172C122.266 14.4987 122.149 14.774 121.916 14.998C121.692 15.2127 121.407 15.32 121.062 15.32ZM122.028 16.244V24H120.068V16.244H122.028ZM128.262 16.132C129.186 16.132 129.933 16.426 130.502 17.014C131.071 17.5927 131.356 18.4047 131.356 19.45V24H129.396V19.716C129.396 19.1 129.242 18.6287 128.934 18.302C128.626 17.966 128.206 17.798 127.674 17.798C127.133 17.798 126.703 17.966 126.386 18.302C126.078 18.6287 125.924 19.1 125.924 19.716V24H123.964V16.244H125.924V17.21C126.185 16.874 126.517 16.6127 126.918 16.426C127.329 16.23 127.777 16.132 128.262 16.132ZM137.812 24L135.18 20.696V24H133.22V13.64H135.18V19.534L137.784 16.244H140.332L136.916 20.136L140.36 24H137.812Z" fill="#48D9A8"/>
<path d="M25.25 23H21C19.5833 23 18.3958 22.5208 17.4375 21.5625C16.4792 20.6042 16 19.4167 16 18C16 16.5833 16.4792 15.3958 17.4375 14.4375C18.3958 13.4792 19.5833 13 21 13H25.25V14.5H21C20 14.5 19.1667 14.8333 18.5 15.5C17.8333 16.1667 17.5 17 17.5 18C17.5 19 17.8333 19.8333 18.5 20.5C19.1667 21.1667 20 21.5 21 21.5H25.25V23ZM22.125 18.75V17.25H29.875V18.75H22.125ZM26.75 23V21.5H31C32 21.5 32.8333 21.1667 33.5 20.5C34.1667 19.8333 34.5 19 34.5 18C34.5 17 34.1667 16.1667 33.5 15.5C32.8333 14.8333 32 14.5 31 14.5H26.75V13H31C32.4167 13 33.6042 13.4792 34.5625 14.4375C35.5208 15.3958 36 16.5833 36 18C36 19.4167 35.5208 20.6042 34.5625 21.5625C33.6042 22.5208 32.4167 23 31 23H26.75Z" fill="#48D9A8"/>
</svg>
