<svg width="49" height="49" viewBox="0 0 49 49" fill="none" xmlns="http://www.w3.org/2000/svg">
<rect width="49" height="49" fill="#F8F8F8"/>
<path d="M24.07 20.0775C24.2567 20.0775 24.4142 20.0133 24.5425 19.885C24.6708 19.7567 24.735 19.5992 24.735 19.4125C24.735 19.2258 24.6708 19.0683 24.5425 18.94C24.4142 18.8117 24.2567 18.7475 24.07 18.7475C23.8833 18.7475 23.7258 18.8117 23.5975 18.94C23.4692 19.0683 23.405 19.2258 23.405 19.4125C23.405 19.5992 23.4692 19.7567 23.5975 19.885C23.7258 20.0133 23.8833 20.0775 24.07 20.0775ZM23.4575 17.5225H24.49C24.49 17.2192 24.5279 16.9421 24.6038 16.6912C24.6796 16.4404 24.9158 16.1517 25.3125 15.825C25.6742 15.5217 25.9308 15.2242 26.0825 14.9325C26.2342 14.6408 26.31 14.32 26.31 13.97C26.31 13.3517 26.1087 12.8558 25.7063 12.4825C25.3038 12.1092 24.77 11.9225 24.105 11.9225C23.5333 11.9225 23.0287 12.0654 22.5912 12.3512C22.1537 12.6371 21.8358 13.0308 21.6375 13.5325L22.565 13.8825C22.6933 13.5558 22.8858 13.3021 23.1425 13.1212C23.3992 12.9404 23.7025 12.85 24.0525 12.85C24.4492 12.85 24.77 12.9579 25.015 13.1737C25.26 13.3896 25.3825 13.6667 25.3825 14.005C25.3825 14.2617 25.3067 14.5037 25.155 14.7312C25.0033 14.9587 24.7817 15.195 24.49 15.44C24.14 15.7433 23.8804 16.0437 23.7112 16.3412C23.5421 16.6388 23.4575 17.0325 23.4575 17.5225ZM24 23C23.02 23 22.1042 22.8221 21.2525 22.4662C20.4008 22.1104 19.66 21.6175 19.03 20.9875C18.4 20.3575 17.9042 19.6167 17.5425 18.765C17.1808 17.9133 17 16.9917 17 16C17 15.02 17.1808 14.1042 17.5425 13.2525C17.9042 12.4008 18.4 11.66 19.03 11.03C19.66 10.4 20.4008 9.90417 21.2525 9.5425C22.1042 9.18083 23.02 9 24 9C24.9683 9 25.8783 9.18083 26.73 9.5425C27.5817 9.90417 28.3225 10.4 28.9525 11.03C29.5825 11.66 30.0812 12.4008 30.4487 13.2525C30.8162 14.1042 31 15.02 31 16C31 16.9917 30.8162 17.9133 30.4487 18.765C30.0812 19.6167 29.5825 20.3575 28.9525 20.9875C28.3225 21.6175 27.5817 22.1104 26.73 22.4662C25.8783 22.8221 24.9683 23 24 23ZM24 21.95C25.645 21.95 27.0479 21.3667 28.2088 20.2C29.3696 19.0333 29.95 17.6333 29.95 16C29.95 14.3667 29.3696 12.9667 28.2088 11.8C27.0479 10.6333 25.645 10.05 24 10.05C22.3317 10.05 20.9229 10.6333 19.7738 11.8C18.6246 12.9667 18.05 14.3667 18.05 16C18.05 17.6333 18.6246 19.0333 19.7738 20.2C20.9229 21.3667 22.3317 21.95 24 21.95Z" fill="#42BFA6"/>
<path d="M17.596 30.242V40H16.322V35.576H11.352V40H10.078V30.242H11.352V34.526H16.322V30.242H17.596ZM26.7714 35.87C26.7714 36.1127 26.7574 36.3693 26.7294 36.64H20.5974C20.644 37.396 20.9007 37.9887 21.3674 38.418C21.8434 38.838 22.4174 39.048 23.0894 39.048C23.64 39.048 24.0974 38.922 24.4614 38.67C24.8347 38.4087 25.096 38.0633 25.2454 37.634H26.6174C26.412 38.3713 26.0014 38.9733 25.3854 39.44C24.7694 39.8973 24.004 40.126 23.0894 40.126C22.3614 40.126 21.708 39.9627 21.1294 39.636C20.56 39.3093 20.112 38.8473 19.7854 38.25C19.4587 37.6433 19.2954 36.9433 19.2954 36.15C19.2954 35.3567 19.454 34.6613 19.7714 34.064C20.0887 33.4667 20.532 33.0093 21.1014 32.692C21.68 32.3653 22.3427 32.202 23.0894 32.202C23.8174 32.202 24.4614 32.3607 25.0214 32.678C25.5814 32.9953 26.0107 33.434 26.3094 33.994C26.6174 34.5447 26.7714 35.17 26.7714 35.87ZM25.4554 35.604C25.4554 35.1187 25.348 34.7033 25.1334 34.358C24.9187 34.0033 24.6247 33.7373 24.2514 33.56C23.8874 33.3733 23.4814 33.28 23.0334 33.28C22.3894 33.28 21.8387 33.4853 21.3814 33.896C20.9334 34.3067 20.6767 34.876 20.6114 35.604H25.4554ZM29.727 29.64V40H28.453V29.64H29.727ZM33.1723 33.742C33.4243 33.3033 33.7976 32.9393 34.2923 32.65C34.7963 32.3513 35.3796 32.202 36.0423 32.202C36.7236 32.202 37.3396 32.3653 37.8903 32.692C38.4503 33.0187 38.889 33.4807 39.2063 34.078C39.5236 34.666 39.6823 35.352 39.6823 36.136C39.6823 36.9107 39.5236 37.6013 39.2063 38.208C38.889 38.8147 38.4503 39.286 37.8903 39.622C37.3396 39.958 36.7236 40.126 36.0423 40.126C35.389 40.126 34.8103 39.9813 34.3063 39.692C33.8116 39.3933 33.4336 39.0247 33.1723 38.586V43.64H31.8983V32.328H33.1723V33.742ZM38.3803 36.136C38.3803 35.5573 38.2636 35.0533 38.0303 34.624C37.797 34.1947 37.4796 33.868 37.0783 33.644C36.6863 33.42 36.2523 33.308 35.7763 33.308C35.3096 33.308 34.8756 33.4247 34.4743 33.658C34.0823 33.882 33.765 34.2133 33.5223 34.652C33.289 35.0813 33.1723 35.5807 33.1723 36.15C33.1723 36.7287 33.289 37.2373 33.5223 37.676C33.765 38.1053 34.0823 38.4367 34.4743 38.67C34.8756 38.894 35.3096 39.006 35.7763 39.006C36.2523 39.006 36.6863 38.894 37.0783 38.67C37.4796 38.4367 37.797 38.1053 38.0303 37.676C38.2636 37.2373 38.3803 36.724 38.3803 36.136Z" fill="#42BFA6"/>
</svg>
