<svg width="738" height="111" viewBox="0 0 738 111" fill="none" xmlns="http://www.w3.org/2000/svg">
<g filter="url(#filter0_d_1715_239)">
<rect x="30" y="5" width="678" height="51" rx="8" fill="white"/>
<rect x="30.2" y="5.2" width="677.6" height="50.6" rx="7.8" stroke="#E6E6E6" stroke-width="0.4"/>
</g>
<path d="M61.1368 23.5829L56.4028 36.1289H54.5128L49.7788 23.5829H51.5248L55.4668 34.4009L59.4088 23.5829H61.1368ZM71.9329 30.8189C71.9329 31.1309 71.9149 31.4609 71.8789 31.8089H63.9949C64.0549 32.7809 64.3849 33.5429 64.9849 34.0949C65.5969 34.6349 66.3349 34.9049 67.1989 34.9049C67.9069 34.9049 68.4949 34.7429 68.9629 34.4189C69.4429 34.0829 69.7789 33.6389 69.9709 33.0869H71.7349C71.4709 34.0349 70.9429 34.8089 70.1509 35.4089C69.3589 35.9969 68.3749 36.2909 67.1989 36.2909C66.2629 36.2909 65.4229 36.0809 64.6789 35.6609C63.9469 35.2409 63.3709 34.6469 62.9509 33.8789C62.5309 33.0989 62.3209 32.1989 62.3209 31.1789C62.3209 30.1589 62.5249 29.2649 62.9329 28.4969C63.3409 27.7289 63.9109 27.1409 64.6429 26.7329C65.3869 26.3129 66.2389 26.1029 67.1989 26.1029C68.1349 26.1029 68.9629 26.3069 69.6829 26.7149C70.4029 27.1229 70.9549 27.6869 71.3389 28.4069C71.7349 29.1149 71.9329 29.9189 71.9329 30.8189ZM70.2409 30.4769C70.2409 29.8529 70.1029 29.3189 69.8269 28.8749C69.5509 28.4189 69.1729 28.0769 68.6929 27.8489C68.2249 27.6089 67.7029 27.4889 67.1269 27.4889C66.2989 27.4889 65.5909 27.7529 65.0029 28.2809C64.4269 28.8089 64.0969 29.5409 64.0129 30.4769H70.2409ZM78.901 26.0849C80.101 26.0849 81.073 26.4509 81.817 27.1829C82.561 27.9029 82.933 28.9469 82.933 30.3149V36.1289H81.313V30.5489C81.313 29.5649 81.067 28.8149 80.575 28.2989C80.083 27.7709 79.411 27.5069 78.559 27.5069C77.695 27.5069 77.005 27.7769 76.489 28.3169C75.985 28.8569 75.733 29.6429 75.733 30.6749V36.1289H74.095V26.2649H75.733V27.6689C76.057 27.1649 76.495 26.7749 77.047 26.4989C77.611 26.2229 78.229 26.0849 78.901 26.0849ZM84.9967 31.1609C84.9967 30.1529 85.2007 29.2709 85.6087 28.5149C86.0167 27.7469 86.5747 27.1529 87.2827 26.7329C88.0027 26.3129 88.8067 26.1029 89.6947 26.1029C90.4627 26.1029 91.1767 26.2829 91.8367 26.6429C92.4967 26.9909 93.0007 27.4529 93.3487 28.0289V22.8089H95.0047V36.1289H93.3487V34.2749C93.0247 34.8629 92.5447 35.3489 91.9087 35.7329C91.2727 36.1049 90.5287 36.2909 89.6767 36.2909C88.8007 36.2909 88.0027 36.0749 87.2827 35.6429C86.5747 35.2109 86.0167 34.6049 85.6087 33.8249C85.2007 33.0449 84.9967 32.1569 84.9967 31.1609ZM93.3487 31.1789C93.3487 30.4349 93.1987 29.7869 92.8987 29.2349C92.5987 28.6829 92.1907 28.2629 91.6747 27.9749C91.1707 27.6749 90.6127 27.5249 90.0007 27.5249C89.3887 27.5249 88.8307 27.6689 88.3267 27.9569C87.8227 28.2449 87.4207 28.6649 87.1207 29.2169C86.8207 29.7689 86.6707 30.4169 86.6707 31.1609C86.6707 31.9169 86.8207 32.5769 87.1207 33.1409C87.4207 33.6929 87.8227 34.1189 88.3267 34.4189C88.8307 34.7069 89.3887 34.8509 90.0007 34.8509C90.6127 34.8509 91.1707 34.7069 91.6747 34.4189C92.1907 34.1189 92.5987 33.6929 92.8987 33.1409C93.1987 32.5769 93.3487 31.9229 93.3487 31.1789ZM102.075 36.2909C101.151 36.2909 100.311 36.0809 99.5547 35.6609C98.8107 35.2409 98.2227 34.6469 97.7907 33.8789C97.3707 33.0989 97.1607 32.1989 97.1607 31.1789C97.1607 30.1709 97.3767 29.2829 97.8087 28.5149C98.2527 27.7349 98.8527 27.1409 99.6087 26.7329C100.365 26.3129 101.211 26.1029 102.147 26.1029C103.083 26.1029 103.929 26.3129 104.685 26.7329C105.441 27.1409 106.035 27.7289 106.467 28.4969C106.911 29.2649 107.133 30.1589 107.133 31.1789C107.133 32.1989 106.905 33.0989 106.449 33.8789C106.005 34.6469 105.399 35.2409 104.631 35.6609C103.863 36.0809 103.011 36.2909 102.075 36.2909ZM102.075 34.8509C102.663 34.8509 103.215 34.7129 103.731 34.4369C104.247 34.1609 104.661 33.7469 104.973 33.1949C105.297 32.6429 105.459 31.9709 105.459 31.1789C105.459 30.3869 105.303 29.7149 104.991 29.1629C104.679 28.6109 104.271 28.2029 103.767 27.9389C103.263 27.6629 102.717 27.5249 102.129 27.5249C101.529 27.5249 100.977 27.6629 100.473 27.9389C99.9807 28.2029 99.5847 28.6109 99.2847 29.1629C98.9847 29.7149 98.8347 30.3869 98.8347 31.1789C98.8347 31.9829 98.9787 32.6609 99.2667 33.2129C99.5667 33.7649 99.9627 34.1789 100.455 34.4549C100.947 34.7189 101.487 34.8509 102.075 34.8509ZM110.924 27.8669C111.212 27.3029 111.62 26.8649 112.148 26.5529C112.688 26.2409 113.342 26.0849 114.11 26.0849V27.7769H113.678C111.842 27.7769 110.924 28.7729 110.924 30.7649V36.1289H109.286V26.2649H110.924V27.8669ZM126.369 23.5829L121.635 36.1289H119.745L115.011 23.5829H116.757L120.699 34.4009L124.641 23.5829H126.369ZM132.467 36.2909C131.543 36.2909 130.703 36.0809 129.947 35.6609C129.203 35.2409 128.615 34.6469 128.183 33.8789C127.763 33.0989 127.553 32.1989 127.553 31.1789C127.553 30.1709 127.769 29.2829 128.201 28.5149C128.645 27.7349 129.245 27.1409 130.001 26.7329C130.757 26.3129 131.603 26.1029 132.539 26.1029C133.475 26.1029 134.321 26.3129 135.077 26.7329C135.833 27.1409 136.427 27.7289 136.859 28.4969C137.303 29.2649 137.525 30.1589 137.525 31.1789C137.525 32.1989 137.297 33.0989 136.841 33.8789C136.397 34.6469 135.791 35.2409 135.023 35.6609C134.255 36.0809 133.403 36.2909 132.467 36.2909ZM132.467 34.8509C133.055 34.8509 133.607 34.7129 134.123 34.4369C134.639 34.1609 135.053 33.7469 135.365 33.1949C135.689 32.6429 135.851 31.9709 135.851 31.1789C135.851 30.3869 135.695 29.7149 135.383 29.1629C135.071 28.6109 134.663 28.2029 134.159 27.9389C133.655 27.6629 133.109 27.5249 132.521 27.5249C131.921 27.5249 131.369 27.6629 130.865 27.9389C130.373 28.2029 129.977 28.6109 129.677 29.1629C129.377 29.7149 129.227 30.3869 129.227 31.1789C129.227 31.9829 129.371 32.6609 129.659 33.2129C129.959 33.7649 130.355 34.1789 130.847 34.4549C131.339 34.7189 131.879 34.8509 132.467 34.8509ZM144.827 36.1289L142.487 32.4569L140.237 36.1289H138.527L141.713 31.2329L138.527 26.2649H140.381L142.721 29.9189L144.953 26.2649H146.663L143.495 31.1429L146.681 36.1289H144.827Z" fill="#072C1F"/>
<path d="M666.629 25.3594L664.859 27.1294L674.859 37.1294L684.859 27.1294L683.089 25.3594L674.859 33.5894L666.629 25.3594Z" fill="#072C1F"/>
<defs>
<filter id="filter0_d_1715_239" x="0" y="0" width="738" height="111" filterUnits="userSpaceOnUse" color-interpolation-filters="sRGB">
<feFlood flood-opacity="0" result="BackgroundImageFix"/>
<feColorMatrix in="SourceAlpha" type="matrix" values="0 0 0 0 0 0 0 0 0 0 0 0 0 0 0 0 0 0 127 0" result="hardAlpha"/>
<feOffset dy="25"/>
<feGaussianBlur stdDeviation="15"/>
<feComposite in2="hardAlpha" operator="out"/>
<feColorMatrix type="matrix" values="0 0 0 0 0.243137 0 0 0 0 0.286275 0 0 0 0 0.329412 0 0 0 0.04 0"/>
<feBlend mode="normal" in2="BackgroundImageFix" result="effect1_dropShadow_1715_239"/>
<feBlend mode="normal" in="SourceGraphic" in2="effect1_dropShadow_1715_239" result="shape"/>
</filter>
</defs>
</svg>
