<svg width="740" height="111" viewBox="0 0 740 111" fill="none" xmlns="http://www.w3.org/2000/svg">
<g filter="url(#filter0_d_1715_252)">
<rect x="30" y="5" width="680" height="51" rx="8" fill="white"/>
<rect x="30.2" y="5.2" width="679.6" height="50.6" rx="7.8" stroke="#E6E6E6" stroke-width="0.4"/>
</g>
<path d="M668.77 23L667 24.77L677 34.77L687 24.77L685.23 23L677 31.23L668.77 23Z" fill="#072C1F"/>
<path d="M61.754 20.454L57.02 33H55.13L50.396 20.454H52.142L56.084 31.272L60.026 20.454H61.754ZM72.5501 27.69C72.5501 28.002 72.5321 28.332 72.4961 28.68H64.6121C64.6721 29.652 65.0021 30.414 65.6021 30.966C66.2141 31.506 66.9521 31.776 67.8161 31.776C68.5241 31.776 69.1121 31.614 69.5801 31.29C70.0601 30.954 70.3961 30.51 70.5881 29.958H72.3521C72.0881 30.906 71.5601 31.68 70.7681 32.28C69.9761 32.868 68.9921 33.162 67.8161 33.162C66.8801 33.162 66.0401 32.952 65.2961 32.532C64.5641 32.112 63.9881 31.518 63.5681 30.75C63.1481 29.97 62.9381 29.07 62.9381 28.05C62.9381 27.03 63.1421 26.136 63.5501 25.368C63.9581 24.6 64.5281 24.012 65.2601 23.604C66.0041 23.184 66.8561 22.974 67.8161 22.974C68.7521 22.974 69.5801 23.178 70.3001 23.586C71.0201 23.994 71.5721 24.558 71.9561 25.278C72.3521 25.986 72.5501 26.79 72.5501 27.69ZM70.8581 27.348C70.8581 26.724 70.7201 26.19 70.4441 25.746C70.1681 25.29 69.7901 24.948 69.3101 24.72C68.8421 24.48 68.3201 24.36 67.7441 24.36C66.9161 24.36 66.2081 24.624 65.6201 25.152C65.0441 25.68 64.7141 26.412 64.6301 27.348H70.8581ZM79.5182 22.956C80.7182 22.956 81.6902 23.322 82.4342 24.054C83.1782 24.774 83.5502 25.818 83.5502 27.186V33H81.9302V27.42C81.9302 26.436 81.6842 25.686 81.1922 25.17C80.7002 24.642 80.0282 24.378 79.1762 24.378C78.3122 24.378 77.6222 24.648 77.1062 25.188C76.6022 25.728 76.3502 26.514 76.3502 27.546V33H74.7122V23.136H76.3502V24.54C76.6742 24.036 77.1122 23.646 77.6642 23.37C78.2282 23.094 78.8462 22.956 79.5182 22.956ZM85.6138 28.032C85.6138 27.024 85.8178 26.142 86.2258 25.386C86.6338 24.618 87.1918 24.024 87.8998 23.604C88.6198 23.184 89.4238 22.974 90.3118 22.974C91.0798 22.974 91.7938 23.154 92.4538 23.514C93.1138 23.862 93.6178 24.324 93.9658 24.9V19.68H95.6218V33H93.9658V31.146C93.6418 31.734 93.1618 32.22 92.5258 32.604C91.8898 32.976 91.1458 33.162 90.2938 33.162C89.4178 33.162 88.6198 32.946 87.8998 32.514C87.1918 32.082 86.6338 31.476 86.2258 30.696C85.8178 29.916 85.6138 29.028 85.6138 28.032ZM93.9658 28.05C93.9658 27.306 93.8158 26.658 93.5158 26.106C93.2158 25.554 92.8078 25.134 92.2918 24.846C91.7878 24.546 91.2298 24.396 90.6178 24.396C90.0058 24.396 89.4478 24.54 88.9438 24.828C88.4398 25.116 88.0378 25.536 87.7378 26.088C87.4378 26.64 87.2878 27.288 87.2878 28.032C87.2878 28.788 87.4378 29.448 87.7378 30.012C88.0378 30.564 88.4398 30.99 88.9438 31.29C89.4478 31.578 90.0058 31.722 90.6178 31.722C91.2298 31.722 91.7878 31.578 92.2918 31.29C92.8078 30.99 93.2158 30.564 93.5158 30.012C93.8158 29.448 93.9658 28.794 93.9658 28.05ZM102.692 33.162C101.768 33.162 100.928 32.952 100.172 32.532C99.4279 32.112 98.8399 31.518 98.4079 30.75C97.9879 29.97 97.7779 29.07 97.7779 28.05C97.7779 27.042 97.9939 26.154 98.4259 25.386C98.8699 24.606 99.4699 24.012 100.226 23.604C100.982 23.184 101.828 22.974 102.764 22.974C103.7 22.974 104.546 23.184 105.302 23.604C106.058 24.012 106.652 24.6 107.084 25.368C107.528 26.136 107.75 27.03 107.75 28.05C107.75 29.07 107.522 29.97 107.066 30.75C106.622 31.518 106.016 32.112 105.248 32.532C104.48 32.952 103.628 33.162 102.692 33.162ZM102.692 31.722C103.28 31.722 103.832 31.584 104.348 31.308C104.864 31.032 105.278 30.618 105.59 30.066C105.914 29.514 106.076 28.842 106.076 28.05C106.076 27.258 105.92 26.586 105.608 26.034C105.296 25.482 104.888 25.074 104.384 24.81C103.88 24.534 103.334 24.396 102.746 24.396C102.146 24.396 101.594 24.534 101.09 24.81C100.598 25.074 100.202 25.482 99.9019 26.034C99.6019 26.586 99.4519 27.258 99.4519 28.05C99.4519 28.854 99.5959 29.532 99.8839 30.084C100.184 30.636 100.58 31.05 101.072 31.326C101.564 31.59 102.104 31.722 102.692 31.722ZM111.542 24.738C111.83 24.174 112.238 23.736 112.766 23.424C113.306 23.112 113.96 22.956 114.728 22.956V24.648H114.296C112.46 24.648 111.542 25.644 111.542 27.636V33H109.904V23.136H111.542V24.738ZM123.055 20.454V33H121.417V20.454H123.055ZM130.653 22.956C131.853 22.956 132.825 23.322 133.569 24.054C134.313 24.774 134.685 25.818 134.685 27.186V33H133.065V27.42C133.065 26.436 132.819 25.686 132.327 25.17C131.835 24.642 131.163 24.378 130.311 24.378C129.447 24.378 128.757 24.648 128.241 25.188C127.737 25.728 127.485 26.514 127.485 27.546V33H125.847V23.136H127.485V24.54C127.809 24.036 128.247 23.646 128.799 23.37C129.363 23.094 129.981 22.956 130.653 22.956ZM140.853 33.162C140.097 33.162 139.419 33.036 138.819 32.784C138.219 32.52 137.745 32.16 137.397 31.704C137.049 31.236 136.857 30.702 136.821 30.102H138.513C138.561 30.594 138.789 30.996 139.197 31.308C139.617 31.62 140.163 31.776 140.835 31.776C141.459 31.776 141.951 31.638 142.311 31.362C142.671 31.086 142.851 30.738 142.851 30.318C142.851 29.886 142.659 29.568 142.275 29.364C141.891 29.148 141.297 28.938 140.493 28.734C139.761 28.542 139.161 28.35 138.693 28.158C138.237 27.954 137.841 27.66 137.505 27.276C137.181 26.88 137.019 26.364 137.019 25.728C137.019 25.224 137.169 24.762 137.469 24.342C137.769 23.922 138.195 23.592 138.747 23.352C139.299 23.1 139.929 22.974 140.637 22.974C141.729 22.974 142.611 23.25 143.283 23.802C143.955 24.354 144.315 25.11 144.363 26.07H142.725C142.689 25.554 142.479 25.14 142.095 24.828C141.723 24.516 141.219 24.36 140.583 24.36C139.995 24.36 139.527 24.486 139.179 24.738C138.831 24.99 138.657 25.32 138.657 25.728C138.657 26.052 138.759 26.322 138.963 26.538C139.179 26.742 139.443 26.91 139.755 27.042C140.079 27.162 140.523 27.3 141.087 27.456C141.795 27.648 142.371 27.84 142.815 28.032C143.259 28.212 143.637 28.488 143.949 28.86C144.273 29.232 144.441 29.718 144.453 30.318C144.453 30.858 144.303 31.344 144.003 31.776C143.703 32.208 143.277 32.55 142.725 32.802C142.185 33.042 141.561 33.162 140.853 33.162ZM147.611 21.534C147.299 21.534 147.035 21.426 146.819 21.21C146.603 20.994 146.495 20.73 146.495 20.418C146.495 20.106 146.603 19.842 146.819 19.626C147.035 19.41 147.299 19.302 147.611 19.302C147.911 19.302 148.163 19.41 148.367 19.626C148.583 19.842 148.691 20.106 148.691 20.418C148.691 20.73 148.583 20.994 148.367 21.21C148.163 21.426 147.911 21.534 147.611 21.534ZM148.403 23.136V33H146.765V23.136H148.403ZM155.263 22.974C156.115 22.974 156.859 23.16 157.495 23.532C158.143 23.904 158.623 24.372 158.935 24.936V23.136H160.591V33.216C160.591 34.116 160.399 34.914 160.015 35.61C159.631 36.318 159.079 36.87 158.359 37.266C157.651 37.662 156.823 37.86 155.875 37.86C154.579 37.86 153.499 37.554 152.635 36.942C151.771 36.33 151.261 35.496 151.105 34.44H152.725C152.905 35.04 153.277 35.52 153.841 35.88C154.405 36.252 155.083 36.438 155.875 36.438C156.775 36.438 157.507 36.156 158.071 35.592C158.647 35.028 158.935 34.236 158.935 33.216V31.146C158.611 31.722 158.131 32.202 157.495 32.586C156.859 32.97 156.115 33.162 155.263 33.162C154.387 33.162 153.589 32.946 152.869 32.514C152.161 32.082 151.603 31.476 151.195 30.696C150.787 29.916 150.583 29.028 150.583 28.032C150.583 27.024 150.787 26.142 151.195 25.386C151.603 24.618 152.161 24.024 152.869 23.604C153.589 23.184 154.387 22.974 155.263 22.974ZM158.935 28.05C158.935 27.306 158.785 26.658 158.485 26.106C158.185 25.554 157.777 25.134 157.261 24.846C156.757 24.546 156.199 24.396 155.587 24.396C154.975 24.396 154.417 24.54 153.913 24.828C153.409 25.116 153.007 25.536 152.707 26.088C152.407 26.64 152.257 27.288 152.257 28.032C152.257 28.788 152.407 29.448 152.707 30.012C153.007 30.564 153.409 30.99 153.913 31.29C154.417 31.578 154.975 31.722 155.587 31.722C156.199 31.722 156.757 31.578 157.261 31.29C157.777 30.99 158.185 30.564 158.485 30.012C158.785 29.448 158.935 28.794 158.935 28.05ZM168.255 22.956C168.999 22.956 169.671 23.118 170.271 23.442C170.871 23.754 171.339 24.228 171.675 24.864C172.023 25.5 172.197 26.274 172.197 27.186V33H170.577V27.42C170.577 26.436 170.331 25.686 169.839 25.17C169.347 24.642 168.675 24.378 167.823 24.378C166.959 24.378 166.269 24.648 165.753 25.188C165.249 25.728 164.997 26.514 164.997 27.546V33H163.359V19.68H164.997V24.54C165.321 24.036 165.765 23.646 166.329 23.37C166.905 23.094 167.547 22.956 168.255 22.956ZM176.87 24.486V30.3C176.87 30.78 176.972 31.122 177.176 31.326C177.38 31.518 177.734 31.614 178.238 31.614H179.444V33H177.968C177.056 33 176.372 32.79 175.916 32.37C175.46 31.95 175.232 31.26 175.232 30.3V24.486H173.954V23.136H175.232V20.652H176.87V23.136H179.444V24.486H176.87ZM184.921 33.162C184.165 33.162 183.487 33.036 182.887 32.784C182.287 32.52 181.813 32.16 181.465 31.704C181.117 31.236 180.925 30.702 180.889 30.102H182.581C182.629 30.594 182.857 30.996 183.265 31.308C183.685 31.62 184.231 31.776 184.903 31.776C185.527 31.776 186.019 31.638 186.379 31.362C186.739 31.086 186.919 30.738 186.919 30.318C186.919 29.886 186.727 29.568 186.343 29.364C185.959 29.148 185.365 28.938 184.561 28.734C183.829 28.542 183.229 28.35 182.761 28.158C182.305 27.954 181.909 27.66 181.573 27.276C181.249 26.88 181.087 26.364 181.087 25.728C181.087 25.224 181.237 24.762 181.537 24.342C181.837 23.922 182.263 23.592 182.815 23.352C183.367 23.1 183.997 22.974 184.705 22.974C185.797 22.974 186.679 23.25 187.351 23.802C188.023 24.354 188.383 25.11 188.431 26.07H186.793C186.757 25.554 186.547 25.14 186.163 24.828C185.791 24.516 185.287 24.36 184.651 24.36C184.063 24.36 183.595 24.486 183.247 24.738C182.899 24.99 182.725 25.32 182.725 25.728C182.725 26.052 182.827 26.322 183.031 26.538C183.247 26.742 183.511 26.91 183.823 27.042C184.147 27.162 184.591 27.3 185.155 27.456C185.863 27.648 186.439 27.84 186.883 28.032C187.327 28.212 187.705 28.488 188.017 28.86C188.341 29.232 188.509 29.718 188.521 30.318C188.521 30.858 188.371 31.344 188.071 31.776C187.771 32.208 187.345 32.55 186.793 32.802C186.253 33.042 185.629 33.162 184.921 33.162Z" fill="#072C1F"/>
<defs>
<filter id="filter0_d_1715_252" x="0" y="0" width="740" height="111" filterUnits="userSpaceOnUse" color-interpolation-filters="sRGB">
<feFlood flood-opacity="0" result="BackgroundImageFix"/>
<feColorMatrix in="SourceAlpha" type="matrix" values="0 0 0 0 0 0 0 0 0 0 0 0 0 0 0 0 0 0 127 0" result="hardAlpha"/>
<feOffset dy="25"/>
<feGaussianBlur stdDeviation="15"/>
<feComposite in2="hardAlpha" operator="out"/>
<feColorMatrix type="matrix" values="0 0 0 0 0.243137 0 0 0 0 0.286275 0 0 0 0 0.329412 0 0 0 0.04 0"/>
<feBlend mode="normal" in2="BackgroundImageFix" result="effect1_dropShadow_1715_252"/>
<feBlend mode="normal" in="SourceGraphic" in2="effect1_dropShadow_1715_252" result="shape"/>
</filter>
</defs>
</svg>
