<svg width="740" height="111" viewBox="0 0 740 111" fill="none" xmlns="http://www.w3.org/2000/svg">
<g filter="url(#filter0_d_1715_248)">
<rect x="30" y="5" width="680" height="51" rx="8" fill="white"/>
<rect x="30.2" y="5.2" width="679.6" height="50.6" rx="7.8" stroke="#E6E6E6" stroke-width="0.4"/>
</g>
<path d="M50.774 30.718C50.774 29.494 51.05 28.396 51.602 27.424C52.154 26.44 52.904 25.672 53.852 25.12C54.812 24.568 55.874 24.292 57.038 24.292C58.406 24.292 59.6 24.622 60.62 25.282C61.64 25.942 62.384 26.878 62.852 28.09H60.89C60.542 27.334 60.038 26.752 59.378 26.344C58.73 25.936 57.95 25.732 57.038 25.732C56.162 25.732 55.376 25.936 54.68 26.344C53.984 26.752 53.438 27.334 53.042 28.09C52.646 28.834 52.448 29.71 52.448 30.718C52.448 31.714 52.646 32.59 53.042 33.346C53.438 34.09 53.984 34.666 54.68 35.074C55.376 35.482 56.162 35.686 57.038 35.686C57.95 35.686 58.73 35.488 59.378 35.092C60.038 34.684 60.542 34.102 60.89 33.346H62.852C62.384 34.546 61.64 35.476 60.62 36.136C59.6 36.784 58.406 37.108 57.038 37.108C55.874 37.108 54.812 36.838 53.852 36.298C52.904 35.746 52.154 34.984 51.602 34.012C51.05 33.04 50.774 31.942 50.774 30.718ZM74.0383 27.136V37H72.4003V35.542C72.0883 36.046 71.6503 36.442 71.0863 36.73C70.5343 37.006 69.9223 37.144 69.2503 37.144C68.4823 37.144 67.7923 36.988 67.1803 36.676C66.5683 36.352 66.0823 35.872 65.7223 35.236C65.3743 34.6 65.2003 33.826 65.2003 32.914V27.136H66.8203V32.698C66.8203 33.67 67.0663 34.42 67.5583 34.948C68.0503 35.464 68.7223 35.722 69.5743 35.722C70.4503 35.722 71.1403 35.452 71.6443 34.912C72.1483 34.372 72.4003 33.586 72.4003 32.554V27.136H74.0383ZM80.296 37.162C79.54 37.162 78.862 37.036 78.262 36.784C77.662 36.52 77.188 36.16 76.84 35.704C76.492 35.236 76.3 34.702 76.264 34.102H77.956C78.004 34.594 78.232 34.996 78.64 35.308C79.06 35.62 79.606 35.776 80.278 35.776C80.902 35.776 81.394 35.638 81.754 35.362C82.114 35.086 82.294 34.738 82.294 34.318C82.294 33.886 82.102 33.568 81.718 33.364C81.334 33.148 80.74 32.938 79.936 32.734C79.204 32.542 78.604 32.35 78.136 32.158C77.68 31.954 77.284 31.66 76.948 31.276C76.624 30.88 76.462 30.364 76.462 29.728C76.462 29.224 76.612 28.762 76.912 28.342C77.212 27.922 77.638 27.592 78.19 27.352C78.742 27.1 79.372 26.974 80.08 26.974C81.172 26.974 82.054 27.25 82.726 27.802C83.398 28.354 83.758 29.11 83.806 30.07H82.168C82.132 29.554 81.922 29.14 81.538 28.828C81.166 28.516 80.662 28.36 80.026 28.36C79.438 28.36 78.97 28.486 78.622 28.738C78.274 28.99 78.1 29.32 78.1 29.728C78.1 30.052 78.202 30.322 78.406 30.538C78.622 30.742 78.886 30.91 79.198 31.042C79.522 31.162 79.966 31.3 80.53 31.456C81.238 31.648 81.814 31.84 82.258 32.032C82.702 32.212 83.08 32.488 83.392 32.86C83.716 33.232 83.884 33.718 83.896 34.318C83.896 34.858 83.746 35.344 83.446 35.776C83.146 36.208 82.72 36.55 82.168 36.802C81.628 37.042 81.004 37.162 80.296 37.162ZM88.2063 28.486V34.3C88.2063 34.78 88.3083 35.122 88.5123 35.326C88.7163 35.518 89.0703 35.614 89.5743 35.614H90.7803V37H89.3043C88.3923 37 87.7083 36.79 87.2523 36.37C86.7963 35.95 86.5683 35.26 86.5683 34.3V28.486H85.2903V27.136H86.5683V24.652H88.2063V27.136H90.7803V28.486H88.2063ZM97.0669 37.162C96.1429 37.162 95.3029 36.952 94.5469 36.532C93.8029 36.112 93.2149 35.518 92.7829 34.75C92.3629 33.97 92.1529 33.07 92.1529 32.05C92.1529 31.042 92.3689 30.154 92.8009 29.386C93.2449 28.606 93.8449 28.012 94.6009 27.604C95.3569 27.184 96.2029 26.974 97.1389 26.974C98.0749 26.974 98.9209 27.184 99.6769 27.604C100.433 28.012 101.027 28.6 101.459 29.368C101.903 30.136 102.125 31.03 102.125 32.05C102.125 33.07 101.897 33.97 101.441 34.75C100.997 35.518 100.391 36.112 99.6229 36.532C98.8549 36.952 98.0029 37.162 97.0669 37.162ZM97.0669 35.722C97.6549 35.722 98.2069 35.584 98.7229 35.308C99.2389 35.032 99.6529 34.618 99.9649 34.066C100.289 33.514 100.451 32.842 100.451 32.05C100.451 31.258 100.295 30.586 99.9829 30.034C99.6709 29.482 99.2629 29.074 98.7589 28.81C98.2549 28.534 97.7089 28.396 97.1209 28.396C96.5209 28.396 95.9689 28.534 95.4649 28.81C94.9729 29.074 94.5769 29.482 94.2769 30.034C93.9769 30.586 93.8269 31.258 93.8269 32.05C93.8269 32.854 93.9709 33.532 94.2589 34.084C94.5589 34.636 94.9549 35.05 95.4469 35.326C95.9389 35.59 96.4789 35.722 97.0669 35.722ZM116.141 26.956C116.909 26.956 117.593 27.118 118.193 27.442C118.793 27.754 119.267 28.228 119.615 28.864C119.963 29.5 120.137 30.274 120.137 31.186V37H118.517V31.42C118.517 30.436 118.271 29.686 117.779 29.17C117.299 28.642 116.645 28.378 115.817 28.378C114.965 28.378 114.287 28.654 113.783 29.206C113.279 29.746 113.027 30.532 113.027 31.564V37H111.407V31.42C111.407 30.436 111.161 29.686 110.669 29.17C110.189 28.642 109.535 28.378 108.707 28.378C107.855 28.378 107.177 28.654 106.673 29.206C106.169 29.746 105.917 30.532 105.917 31.564V37H104.279V27.136H105.917V28.558C106.241 28.042 106.673 27.646 107.213 27.37C107.765 27.094 108.371 26.956 109.031 26.956C109.859 26.956 110.591 27.142 111.227 27.514C111.863 27.886 112.337 28.432 112.649 29.152C112.925 28.456 113.381 27.916 114.017 27.532C114.653 27.148 115.361 26.956 116.141 26.956ZM131.824 31.69C131.824 32.002 131.806 32.332 131.77 32.68H123.886C123.946 33.652 124.276 34.414 124.876 34.966C125.488 35.506 126.226 35.776 127.09 35.776C127.798 35.776 128.386 35.614 128.854 35.29C129.334 34.954 129.67 34.51 129.862 33.958H131.626C131.362 34.906 130.834 35.68 130.042 36.28C129.25 36.868 128.266 37.162 127.09 37.162C126.154 37.162 125.314 36.952 124.57 36.532C123.838 36.112 123.262 35.518 122.842 34.75C122.422 33.97 122.212 33.07 122.212 32.05C122.212 31.03 122.416 30.136 122.824 29.368C123.232 28.6 123.802 28.012 124.534 27.604C125.278 27.184 126.13 26.974 127.09 26.974C128.026 26.974 128.854 27.178 129.574 27.586C130.294 27.994 130.846 28.558 131.23 29.278C131.626 29.986 131.824 30.79 131.824 31.69ZM130.132 31.348C130.132 30.724 129.994 30.19 129.718 29.746C129.442 29.29 129.064 28.948 128.584 28.72C128.116 28.48 127.594 28.36 127.018 28.36C126.19 28.36 125.482 28.624 124.894 29.152C124.318 29.68 123.988 30.412 123.904 31.348H130.132ZM135.624 28.738C135.912 28.174 136.32 27.736 136.848 27.424C137.388 27.112 138.042 26.956 138.81 26.956V28.648H138.378C136.542 28.648 135.624 29.644 135.624 31.636V37H133.986V27.136H135.624V28.738ZM149.477 37.126C148.649 37.126 147.905 36.982 147.245 36.694C146.597 36.394 146.087 35.986 145.715 35.47C145.343 34.942 145.151 34.336 145.139 33.652H146.885C146.945 34.24 147.185 34.738 147.605 35.146C148.037 35.542 148.661 35.74 149.477 35.74C150.257 35.74 150.869 35.548 151.313 35.164C151.769 34.768 151.997 34.264 151.997 33.652C151.997 33.172 151.865 32.782 151.601 32.482C151.337 32.182 151.007 31.954 150.611 31.798C150.215 31.642 149.681 31.474 149.009 31.294C148.181 31.078 147.515 30.862 147.011 30.646C146.519 30.43 146.093 30.094 145.733 29.638C145.385 29.17 145.211 28.546 145.211 27.766C145.211 27.082 145.385 26.476 145.733 25.948C146.081 25.42 146.567 25.012 147.191 24.724C147.827 24.436 148.553 24.292 149.369 24.292C150.545 24.292 151.505 24.586 152.249 25.174C153.005 25.762 153.431 26.542 153.527 27.514H151.727C151.667 27.034 151.415 26.614 150.971 26.254C150.527 25.882 149.939 25.696 149.207 25.696C148.523 25.696 147.965 25.876 147.533 26.236C147.101 26.584 146.885 27.076 146.885 27.712C146.885 28.168 147.011 28.54 147.263 28.828C147.527 29.116 147.845 29.338 148.217 29.494C148.601 29.638 149.135 29.806 149.819 29.998C150.647 30.226 151.313 30.454 151.817 30.682C152.321 30.898 152.753 31.24 153.113 31.708C153.473 32.164 153.653 32.788 153.653 33.58C153.653 34.192 153.491 34.768 153.167 35.308C152.843 35.848 152.363 36.286 151.727 36.622C151.091 36.958 150.341 37.126 149.477 37.126ZM165.064 31.69C165.064 32.002 165.046 32.332 165.01 32.68H157.126C157.186 33.652 157.516 34.414 158.116 34.966C158.728 35.506 159.466 35.776 160.33 35.776C161.038 35.776 161.626 35.614 162.094 35.29C162.574 34.954 162.91 34.51 163.102 33.958H164.866C164.602 34.906 164.074 35.68 163.282 36.28C162.49 36.868 161.506 37.162 160.33 37.162C159.394 37.162 158.554 36.952 157.81 36.532C157.078 36.112 156.502 35.518 156.082 34.75C155.662 33.97 155.452 33.07 155.452 32.05C155.452 31.03 155.656 30.136 156.064 29.368C156.472 28.6 157.042 28.012 157.774 27.604C158.518 27.184 159.37 26.974 160.33 26.974C161.266 26.974 162.094 27.178 162.814 27.586C163.534 27.994 164.086 28.558 164.47 29.278C164.866 29.986 165.064 30.79 165.064 31.69ZM163.372 31.348C163.372 30.724 163.234 30.19 162.958 29.746C162.682 29.29 162.304 28.948 161.824 28.72C161.356 28.48 160.834 28.36 160.258 28.36C159.43 28.36 158.722 28.624 158.134 29.152C157.558 29.68 157.228 30.412 157.144 31.348H163.372ZM168.864 28.738C169.152 28.174 169.56 27.736 170.088 27.424C170.628 27.112 171.282 26.956 172.05 26.956V28.648H171.618C169.782 28.648 168.864 29.644 168.864 31.636V37H167.226V27.136H168.864V28.738ZM177.613 35.488L180.673 27.136H182.419L178.549 37H176.641L172.771 27.136H174.535L177.613 35.488ZM184.877 25.534C184.565 25.534 184.301 25.426 184.085 25.21C183.869 24.994 183.761 24.73 183.761 24.418C183.761 24.106 183.869 23.842 184.085 23.626C184.301 23.41 184.565 23.302 184.877 23.302C185.177 23.302 185.429 23.41 185.633 23.626C185.849 23.842 185.957 24.106 185.957 24.418C185.957 24.73 185.849 24.994 185.633 25.21C185.429 25.426 185.177 25.534 184.877 25.534ZM185.669 27.136V37H184.031V27.136H185.669ZM187.848 32.05C187.848 31.03 188.052 30.142 188.46 29.386C188.868 28.618 189.432 28.024 190.152 27.604C190.884 27.184 191.718 26.974 192.654 26.974C193.866 26.974 194.862 27.268 195.642 27.856C196.434 28.444 196.956 29.26 197.208 30.304H195.444C195.276 29.704 194.946 29.23 194.454 28.882C193.974 28.534 193.374 28.36 192.654 28.36C191.718 28.36 190.962 28.684 190.386 29.332C189.81 29.968 189.522 30.874 189.522 32.05C189.522 33.238 189.81 34.156 190.386 34.804C190.962 35.452 191.718 35.776 192.654 35.776C193.374 35.776 193.974 35.608 194.454 35.272C194.934 34.936 195.264 34.456 195.444 33.832H197.208C196.944 34.84 196.416 35.65 195.624 36.262C194.832 36.862 193.842 37.162 192.654 37.162C191.718 37.162 190.884 36.952 190.152 36.532C189.432 36.112 188.868 35.518 188.46 34.75C188.052 33.982 187.848 33.082 187.848 32.05ZM208.394 31.69C208.394 32.002 208.376 32.332 208.34 32.68H200.456C200.516 33.652 200.846 34.414 201.446 34.966C202.058 35.506 202.796 35.776 203.66 35.776C204.368 35.776 204.956 35.614 205.424 35.29C205.904 34.954 206.24 34.51 206.432 33.958H208.196C207.932 34.906 207.404 35.68 206.612 36.28C205.82 36.868 204.836 37.162 203.66 37.162C202.724 37.162 201.884 36.952 201.14 36.532C200.408 36.112 199.832 35.518 199.412 34.75C198.992 33.97 198.782 33.07 198.782 32.05C198.782 31.03 198.986 30.136 199.394 29.368C199.802 28.6 200.372 28.012 201.104 27.604C201.848 27.184 202.7 26.974 203.66 26.974C204.596 26.974 205.424 27.178 206.144 27.586C206.864 27.994 207.416 28.558 207.8 29.278C208.196 29.986 208.394 30.79 208.394 31.69ZM206.702 31.348C206.702 30.724 206.564 30.19 206.288 29.746C206.012 29.29 205.634 28.948 205.154 28.72C204.686 28.48 204.164 28.36 203.588 28.36C202.76 28.36 202.052 28.624 201.464 29.152C200.888 29.68 200.558 30.412 200.474 31.348H206.702ZM223.077 24.454V25.786H219.657V37H218.019V25.786H214.581V24.454H223.077ZM226.731 28.738C227.019 28.174 227.427 27.736 227.955 27.424C228.495 27.112 229.149 26.956 229.917 26.956V28.648H229.485C227.649 28.648 226.731 29.644 226.731 31.636V37H225.093V27.136H226.731V28.738ZM231.196 32.032C231.196 31.024 231.4 30.142 231.808 29.386C232.216 28.618 232.774 28.024 233.482 27.604C234.202 27.184 235 26.974 235.876 26.974C236.74 26.974 237.49 27.16 238.126 27.532C238.762 27.904 239.236 28.372 239.548 28.936V27.136H241.204V37H239.548V35.164C239.224 35.74 238.738 36.22 238.09 36.604C237.454 36.976 236.71 37.162 235.858 37.162C234.982 37.162 234.19 36.946 233.482 36.514C232.774 36.082 232.216 35.476 231.808 34.696C231.4 33.916 231.196 33.028 231.196 32.032ZM239.548 32.05C239.548 31.306 239.398 30.658 239.098 30.106C238.798 29.554 238.39 29.134 237.874 28.846C237.37 28.546 236.812 28.396 236.2 28.396C235.588 28.396 235.03 28.54 234.526 28.828C234.022 29.116 233.62 29.536 233.32 30.088C233.02 30.64 232.87 31.288 232.87 32.032C232.87 32.788 233.02 33.448 233.32 34.012C233.62 34.564 234.022 34.99 234.526 35.29C235.03 35.578 235.588 35.722 236.2 35.722C236.812 35.722 237.37 35.578 237.874 35.29C238.39 34.99 238.798 34.564 239.098 34.012C239.398 33.448 239.548 32.794 239.548 32.05ZM248.778 26.956C249.978 26.956 250.95 27.322 251.694 28.054C252.438 28.774 252.81 29.818 252.81 31.186V37H251.19V31.42C251.19 30.436 250.944 29.686 250.452 29.17C249.96 28.642 249.288 28.378 248.436 28.378C247.572 28.378 246.882 28.648 246.366 29.188C245.862 29.728 245.61 30.514 245.61 31.546V37H243.972V27.136H245.61V28.54C245.934 28.036 246.372 27.646 246.924 27.37C247.488 27.094 248.106 26.956 248.778 26.956ZM258.978 37.162C258.222 37.162 257.544 37.036 256.944 36.784C256.344 36.52 255.87 36.16 255.522 35.704C255.174 35.236 254.982 34.702 254.946 34.102H256.638C256.686 34.594 256.914 34.996 257.322 35.308C257.742 35.62 258.288 35.776 258.96 35.776C259.584 35.776 260.076 35.638 260.436 35.362C260.796 35.086 260.976 34.738 260.976 34.318C260.976 33.886 260.784 33.568 260.4 33.364C260.016 33.148 259.422 32.938 258.618 32.734C257.886 32.542 257.286 32.35 256.818 32.158C256.362 31.954 255.966 31.66 255.63 31.276C255.306 30.88 255.144 30.364 255.144 29.728C255.144 29.224 255.294 28.762 255.594 28.342C255.894 27.922 256.32 27.592 256.872 27.352C257.424 27.1 258.054 26.974 258.762 26.974C259.854 26.974 260.736 27.25 261.408 27.802C262.08 28.354 262.44 29.11 262.488 30.07H260.85C260.814 29.554 260.604 29.14 260.22 28.828C259.848 28.516 259.344 28.36 258.708 28.36C258.12 28.36 257.652 28.486 257.304 28.738C256.956 28.99 256.782 29.32 256.782 29.728C256.782 30.052 256.884 30.322 257.088 30.538C257.304 30.742 257.568 30.91 257.88 31.042C258.204 31.162 258.648 31.3 259.212 31.456C259.92 31.648 260.496 31.84 260.94 32.032C261.384 32.212 261.762 32.488 262.074 32.86C262.398 33.232 262.566 33.718 262.578 34.318C262.578 34.858 262.428 35.344 262.128 35.776C261.828 36.208 261.402 36.55 260.85 36.802C260.31 37.042 259.686 37.162 258.978 37.162ZM264.278 32.032C264.278 31.024 264.482 30.142 264.89 29.386C265.298 28.618 265.856 28.024 266.564 27.604C267.284 27.184 268.082 26.974 268.958 26.974C269.822 26.974 270.572 27.16 271.208 27.532C271.844 27.904 272.318 28.372 272.63 28.936V27.136H274.286V37H272.63V35.164C272.306 35.74 271.82 36.22 271.172 36.604C270.536 36.976 269.792 37.162 268.94 37.162C268.064 37.162 267.272 36.946 266.564 36.514C265.856 36.082 265.298 35.476 264.89 34.696C264.482 33.916 264.278 33.028 264.278 32.032ZM272.63 32.05C272.63 31.306 272.48 30.658 272.18 30.106C271.88 29.554 271.472 29.134 270.956 28.846C270.452 28.546 269.894 28.396 269.282 28.396C268.67 28.396 268.112 28.54 267.608 28.828C267.104 29.116 266.702 29.536 266.402 30.088C266.102 30.64 265.952 31.288 265.952 32.032C265.952 32.788 266.102 33.448 266.402 34.012C266.702 34.564 267.104 34.99 267.608 35.29C268.112 35.578 268.67 35.722 269.282 35.722C269.894 35.722 270.452 35.578 270.956 35.29C271.472 34.99 271.88 34.564 272.18 34.012C272.48 33.448 272.63 32.794 272.63 32.05ZM276.442 32.05C276.442 31.03 276.646 30.142 277.054 29.386C277.462 28.618 278.026 28.024 278.746 27.604C279.478 27.184 280.312 26.974 281.248 26.974C282.46 26.974 283.456 27.268 284.236 27.856C285.028 28.444 285.55 29.26 285.802 30.304H284.038C283.87 29.704 283.54 29.23 283.048 28.882C282.568 28.534 281.968 28.36 281.248 28.36C280.312 28.36 279.556 28.684 278.98 29.332C278.404 29.968 278.116 30.874 278.116 32.05C278.116 33.238 278.404 34.156 278.98 34.804C279.556 35.452 280.312 35.776 281.248 35.776C281.968 35.776 282.568 35.608 283.048 35.272C283.528 34.936 283.858 34.456 284.038 33.832H285.802C285.538 34.84 285.01 35.65 284.218 36.262C283.426 36.862 282.436 37.162 281.248 37.162C280.312 37.162 279.478 36.952 278.746 36.532C278.026 36.112 277.462 35.518 277.054 34.75C276.646 33.982 276.442 33.082 276.442 32.05ZM289.986 28.486V34.3C289.986 34.78 290.088 35.122 290.292 35.326C290.496 35.518 290.85 35.614 291.354 35.614H292.56V37H291.084C290.172 37 289.488 36.79 289.032 36.37C288.576 35.95 288.348 35.26 288.348 34.3V28.486H287.07V27.136H288.348V24.652H289.986V27.136H292.56V28.486H289.986ZM295.39 25.534C295.078 25.534 294.814 25.426 294.598 25.21C294.382 24.994 294.274 24.73 294.274 24.418C294.274 24.106 294.382 23.842 294.598 23.626C294.814 23.41 295.078 23.302 295.39 23.302C295.69 23.302 295.942 23.41 296.146 23.626C296.362 23.842 296.47 24.106 296.47 24.418C296.47 24.73 296.362 24.994 296.146 25.21C295.942 25.426 295.69 25.534 295.39 25.534ZM296.182 27.136V37H294.544V27.136H296.182ZM303.276 37.162C302.352 37.162 301.512 36.952 300.756 36.532C300.012 36.112 299.424 35.518 298.992 34.75C298.572 33.97 298.362 33.07 298.362 32.05C298.362 31.042 298.578 30.154 299.01 29.386C299.454 28.606 300.054 28.012 300.81 27.604C301.566 27.184 302.412 26.974 303.348 26.974C304.284 26.974 305.13 27.184 305.886 27.604C306.642 28.012 307.236 28.6 307.668 29.368C308.112 30.136 308.334 31.03 308.334 32.05C308.334 33.07 308.106 33.97 307.65 34.75C307.206 35.518 306.6 36.112 305.832 36.532C305.064 36.952 304.212 37.162 303.276 37.162ZM303.276 35.722C303.864 35.722 304.416 35.584 304.932 35.308C305.448 35.032 305.862 34.618 306.174 34.066C306.498 33.514 306.66 32.842 306.66 32.05C306.66 31.258 306.504 30.586 306.192 30.034C305.88 29.482 305.472 29.074 304.968 28.81C304.464 28.534 303.918 28.396 303.33 28.396C302.73 28.396 302.178 28.534 301.674 28.81C301.182 29.074 300.786 29.482 300.486 30.034C300.186 30.586 300.036 31.258 300.036 32.05C300.036 32.854 300.18 33.532 300.468 34.084C300.768 34.636 301.164 35.05 301.656 35.326C302.148 35.59 302.688 35.722 303.276 35.722ZM315.294 26.956C316.494 26.956 317.466 27.322 318.21 28.054C318.954 28.774 319.326 29.818 319.326 31.186V37H317.706V31.42C317.706 30.436 317.46 29.686 316.968 29.17C316.476 28.642 315.804 28.378 314.952 28.378C314.088 28.378 313.398 28.648 312.882 29.188C312.378 29.728 312.126 30.514 312.126 31.546V37H310.488V27.136H312.126V28.54C312.45 28.036 312.888 27.646 313.44 27.37C314.004 27.094 314.622 26.956 315.294 26.956ZM325.493 37.162C324.737 37.162 324.059 37.036 323.459 36.784C322.859 36.52 322.385 36.16 322.037 35.704C321.689 35.236 321.497 34.702 321.461 34.102H323.153C323.201 34.594 323.429 34.996 323.837 35.308C324.257 35.62 324.803 35.776 325.475 35.776C326.099 35.776 326.591 35.638 326.951 35.362C327.311 35.086 327.491 34.738 327.491 34.318C327.491 33.886 327.299 33.568 326.915 33.364C326.531 33.148 325.937 32.938 325.133 32.734C324.401 32.542 323.801 32.35 323.333 32.158C322.877 31.954 322.481 31.66 322.145 31.276C321.821 30.88 321.659 30.364 321.659 29.728C321.659 29.224 321.809 28.762 322.109 28.342C322.409 27.922 322.835 27.592 323.387 27.352C323.939 27.1 324.569 26.974 325.277 26.974C326.369 26.974 327.251 27.25 327.923 27.802C328.595 28.354 328.955 29.11 329.003 30.07H327.365C327.329 29.554 327.119 29.14 326.735 28.828C326.363 28.516 325.859 28.36 325.223 28.36C324.635 28.36 324.167 28.486 323.819 28.738C323.471 28.99 323.297 29.32 323.297 29.728C323.297 30.052 323.399 30.322 323.603 30.538C323.819 30.742 324.083 30.91 324.395 31.042C324.719 31.162 325.163 31.3 325.727 31.456C326.435 31.648 327.011 31.84 327.455 32.032C327.899 32.212 328.277 32.488 328.589 32.86C328.913 33.232 329.081 33.718 329.093 34.318C329.093 34.858 328.943 35.344 328.643 35.776C328.343 36.208 327.917 36.55 327.365 36.802C326.825 37.042 326.201 37.162 325.493 37.162Z" fill="#072C1F"/>
<path d="M668.77 25L667 26.77L677 36.77L687 26.77L685.23 25L677 33.23L668.77 25Z" fill="#072C1F"/>
<defs>
<filter id="filter0_d_1715_248" x="0" y="0" width="740" height="111" filterUnits="userSpaceOnUse" color-interpolation-filters="sRGB">
<feFlood flood-opacity="0" result="BackgroundImageFix"/>
<feColorMatrix in="SourceAlpha" type="matrix" values="0 0 0 0 0 0 0 0 0 0 0 0 0 0 0 0 0 0 127 0" result="hardAlpha"/>
<feOffset dy="25"/>
<feGaussianBlur stdDeviation="15"/>
<feComposite in2="hardAlpha" operator="out"/>
<feColorMatrix type="matrix" values="0 0 0 0 0.243137 0 0 0 0 0.286275 0 0 0 0 0.329412 0 0 0 0.04 0"/>
<feBlend mode="normal" in2="BackgroundImageFix" result="effect1_dropShadow_1715_248"/>
<feBlend mode="normal" in="SourceGraphic" in2="effect1_dropShadow_1715_248" result="shape"/>
</filter>
</defs>
</svg>
