<svg width="740" height="111" viewBox="0 0 740 111" fill="none" xmlns="http://www.w3.org/2000/svg">
<g filter="url(#filter0_d_1715_243)">
<rect x="30" y="5" width="680" height="51" rx="8" fill="white"/>
<rect x="30.2" y="5.2" width="679.6" height="50.6" rx="7.8" stroke="#E6E6E6" stroke-width="0.4"/>
</g>
<path d="M61.754 25.454L57.02 38H55.13L50.396 25.454H52.142L56.084 36.272L60.026 25.454H61.754ZM72.5501 32.69C72.5501 33.002 72.5321 33.332 72.4961 33.68H64.6121C64.6721 34.652 65.0021 35.414 65.6021 35.966C66.2141 36.506 66.9521 36.776 67.8161 36.776C68.5241 36.776 69.1121 36.614 69.5801 36.29C70.0601 35.954 70.3961 35.51 70.5881 34.958H72.3521C72.0881 35.906 71.5601 36.68 70.7681 37.28C69.9761 37.868 68.9921 38.162 67.8161 38.162C66.8801 38.162 66.0401 37.952 65.2961 37.532C64.5641 37.112 63.9881 36.518 63.5681 35.75C63.1481 34.97 62.9381 34.07 62.9381 33.05C62.9381 32.03 63.1421 31.136 63.5501 30.368C63.9581 29.6 64.5281 29.012 65.2601 28.604C66.0041 28.184 66.8561 27.974 67.8161 27.974C68.7521 27.974 69.5801 28.178 70.3001 28.586C71.0201 28.994 71.5721 29.558 71.9561 30.278C72.3521 30.986 72.5501 31.79 72.5501 32.69ZM70.8581 32.348C70.8581 31.724 70.7201 31.19 70.4441 30.746C70.1681 30.29 69.7901 29.948 69.3101 29.72C68.8421 29.48 68.3201 29.36 67.7441 29.36C66.9161 29.36 66.2081 29.624 65.6201 30.152C65.0441 30.68 64.7141 31.412 64.6301 32.348H70.8581ZM79.5182 27.956C80.7182 27.956 81.6902 28.322 82.4342 29.054C83.1782 29.774 83.5502 30.818 83.5502 32.186V38H81.9302V32.42C81.9302 31.436 81.6842 30.686 81.1922 30.17C80.7002 29.642 80.0282 29.378 79.1762 29.378C78.3122 29.378 77.6222 29.648 77.1062 30.188C76.6022 30.728 76.3502 31.514 76.3502 32.546V38H74.7122V28.136H76.3502V29.54C76.6742 29.036 77.1122 28.646 77.6642 28.37C78.2282 28.094 78.8462 27.956 79.5182 27.956ZM85.6138 33.032C85.6138 32.024 85.8178 31.142 86.2258 30.386C86.6338 29.618 87.1918 29.024 87.8998 28.604C88.6198 28.184 89.4238 27.974 90.3118 27.974C91.0798 27.974 91.7938 28.154 92.4538 28.514C93.1138 28.862 93.6178 29.324 93.9658 29.9V24.68H95.6218V38H93.9658V36.146C93.6418 36.734 93.1618 37.22 92.5258 37.604C91.8898 37.976 91.1458 38.162 90.2938 38.162C89.4178 38.162 88.6198 37.946 87.8998 37.514C87.1918 37.082 86.6338 36.476 86.2258 35.696C85.8178 34.916 85.6138 34.028 85.6138 33.032ZM93.9658 33.05C93.9658 32.306 93.8158 31.658 93.5158 31.106C93.2158 30.554 92.8078 30.134 92.2918 29.846C91.7878 29.546 91.2298 29.396 90.6178 29.396C90.0058 29.396 89.4478 29.54 88.9438 29.828C88.4398 30.116 88.0378 30.536 87.7378 31.088C87.4378 31.64 87.2878 32.288 87.2878 33.032C87.2878 33.788 87.4378 34.448 87.7378 35.012C88.0378 35.564 88.4398 35.99 88.9438 36.29C89.4478 36.578 90.0058 36.722 90.6178 36.722C91.2298 36.722 91.7878 36.578 92.2918 36.29C92.8078 35.99 93.2158 35.564 93.5158 35.012C93.8158 34.448 93.9658 33.794 93.9658 33.05ZM102.692 38.162C101.768 38.162 100.928 37.952 100.172 37.532C99.4279 37.112 98.8399 36.518 98.4079 35.75C97.9879 34.97 97.7779 34.07 97.7779 33.05C97.7779 32.042 97.9939 31.154 98.4259 30.386C98.8699 29.606 99.4699 29.012 100.226 28.604C100.982 28.184 101.828 27.974 102.764 27.974C103.7 27.974 104.546 28.184 105.302 28.604C106.058 29.012 106.652 29.6 107.084 30.368C107.528 31.136 107.75 32.03 107.75 33.05C107.75 34.07 107.522 34.97 107.066 35.75C106.622 36.518 106.016 37.112 105.248 37.532C104.48 37.952 103.628 38.162 102.692 38.162ZM102.692 36.722C103.28 36.722 103.832 36.584 104.348 36.308C104.864 36.032 105.278 35.618 105.59 35.066C105.914 34.514 106.076 33.842 106.076 33.05C106.076 32.258 105.92 31.586 105.608 31.034C105.296 30.482 104.888 30.074 104.384 29.81C103.88 29.534 103.334 29.396 102.746 29.396C102.146 29.396 101.594 29.534 101.09 29.81C100.598 30.074 100.202 30.482 99.9019 31.034C99.6019 31.586 99.4519 32.258 99.4519 33.05C99.4519 33.854 99.5959 34.532 99.8839 35.084C100.184 35.636 100.58 36.05 101.072 36.326C101.564 36.59 102.104 36.722 102.692 36.722ZM111.542 29.738C111.83 29.174 112.238 28.736 112.766 28.424C113.306 28.112 113.96 27.956 114.728 27.956V29.648H114.296C112.46 29.648 111.542 30.644 111.542 32.636V38H109.904V28.136H111.542V29.738ZM125.395 38.126C124.567 38.126 123.823 37.982 123.163 37.694C122.515 37.394 122.005 36.986 121.633 36.47C121.261 35.942 121.069 35.336 121.057 34.652H122.803C122.863 35.24 123.103 35.738 123.523 36.146C123.955 36.542 124.579 36.74 125.395 36.74C126.175 36.74 126.787 36.548 127.231 36.164C127.687 35.768 127.915 35.264 127.915 34.652C127.915 34.172 127.783 33.782 127.519 33.482C127.255 33.182 126.925 32.954 126.529 32.798C126.133 32.642 125.599 32.474 124.927 32.294C124.099 32.078 123.433 31.862 122.929 31.646C122.437 31.43 122.011 31.094 121.651 30.638C121.303 30.17 121.129 29.546 121.129 28.766C121.129 28.082 121.303 27.476 121.651 26.948C121.999 26.42 122.485 26.012 123.109 25.724C123.745 25.436 124.471 25.292 125.287 25.292C126.463 25.292 127.423 25.586 128.167 26.174C128.923 26.762 129.349 27.542 129.445 28.514H127.645C127.585 28.034 127.333 27.614 126.889 27.254C126.445 26.882 125.857 26.696 125.125 26.696C124.441 26.696 123.883 26.876 123.451 27.236C123.019 27.584 122.803 28.076 122.803 28.712C122.803 29.168 122.929 29.54 123.181 29.828C123.445 30.116 123.763 30.338 124.135 30.494C124.519 30.638 125.053 30.806 125.737 30.998C126.565 31.226 127.231 31.454 127.735 31.682C128.239 31.898 128.671 32.24 129.031 32.708C129.391 33.164 129.571 33.788 129.571 34.58C129.571 35.192 129.409 35.768 129.085 36.308C128.761 36.848 128.281 37.286 127.645 37.622C127.009 37.958 126.259 38.126 125.395 38.126ZM133.98 29.486V35.3C133.98 35.78 134.082 36.122 134.286 36.326C134.49 36.518 134.844 36.614 135.348 36.614H136.554V38H135.078C134.166 38 133.482 37.79 133.026 37.37C132.57 36.95 132.342 36.26 132.342 35.3V29.486H131.064V28.136H132.342V25.652H133.98V28.136H136.554V29.486H133.98ZM140.176 29.738C140.464 29.174 140.872 28.736 141.4 28.424C141.94 28.112 142.594 27.956 143.362 27.956V29.648H142.93C141.094 29.648 140.176 30.644 140.176 32.636V38H138.538V28.136H140.176V29.738ZM154.253 32.69C154.253 33.002 154.235 33.332 154.199 33.68H146.315C146.375 34.652 146.705 35.414 147.305 35.966C147.917 36.506 148.655 36.776 149.519 36.776C150.227 36.776 150.815 36.614 151.283 36.29C151.763 35.954 152.099 35.51 152.291 34.958H154.055C153.791 35.906 153.263 36.68 152.471 37.28C151.679 37.868 150.695 38.162 149.519 38.162C148.583 38.162 147.743 37.952 146.999 37.532C146.267 37.112 145.691 36.518 145.271 35.75C144.851 34.97 144.641 34.07 144.641 33.05C144.641 32.03 144.845 31.136 145.253 30.368C145.661 29.6 146.231 29.012 146.963 28.604C147.707 28.184 148.559 27.974 149.519 27.974C150.455 27.974 151.283 28.178 152.003 28.586C152.723 28.994 153.275 29.558 153.659 30.278C154.055 30.986 154.253 31.79 154.253 32.69ZM152.561 32.348C152.561 31.724 152.423 31.19 152.147 30.746C151.871 30.29 151.493 29.948 151.013 29.72C150.545 29.48 150.023 29.36 149.447 29.36C148.619 29.36 147.911 29.624 147.323 30.152C146.747 30.68 146.417 31.412 146.333 32.348H152.561ZM155.803 33.032C155.803 32.024 156.007 31.142 156.415 30.386C156.823 29.618 157.381 29.024 158.089 28.604C158.809 28.184 159.607 27.974 160.483 27.974C161.347 27.974 162.097 28.16 162.733 28.532C163.369 28.904 163.843 29.372 164.155 29.936V28.136H165.811V38H164.155V36.164C163.831 36.74 163.345 37.22 162.697 37.604C162.061 37.976 161.317 38.162 160.465 38.162C159.589 38.162 158.797 37.946 158.089 37.514C157.381 37.082 156.823 36.476 156.415 35.696C156.007 34.916 155.803 34.028 155.803 33.032ZM164.155 33.05C164.155 32.306 164.005 31.658 163.705 31.106C163.405 30.554 162.997 30.134 162.481 29.846C161.977 29.546 161.419 29.396 160.807 29.396C160.195 29.396 159.637 29.54 159.133 29.828C158.629 30.116 158.227 30.536 157.927 31.088C157.627 31.64 157.477 32.288 157.477 33.032C157.477 33.788 157.627 34.448 157.927 35.012C158.227 35.564 158.629 35.99 159.133 36.29C159.637 36.578 160.195 36.722 160.807 36.722C161.419 36.722 161.977 36.578 162.481 36.29C162.997 35.99 163.405 35.564 163.705 35.012C164.005 34.448 164.155 33.794 164.155 33.05ZM180.441 27.956C181.209 27.956 181.893 28.118 182.493 28.442C183.093 28.754 183.567 29.228 183.915 29.864C184.263 30.5 184.437 31.274 184.437 32.186V38H182.817V32.42C182.817 31.436 182.571 30.686 182.079 30.17C181.599 29.642 180.945 29.378 180.117 29.378C179.265 29.378 178.587 29.654 178.083 30.206C177.579 30.746 177.327 31.532 177.327 32.564V38H175.707V32.42C175.707 31.436 175.461 30.686 174.969 30.17C174.489 29.642 173.835 29.378 173.007 29.378C172.155 29.378 171.477 29.654 170.973 30.206C170.469 30.746 170.217 31.532 170.217 32.564V38H168.579V28.136H170.217V29.558C170.541 29.042 170.973 28.646 171.513 28.37C172.065 28.094 172.671 27.956 173.331 27.956C174.159 27.956 174.891 28.142 175.527 28.514C176.163 28.886 176.637 29.432 176.949 30.152C177.225 29.456 177.681 28.916 178.317 28.532C178.953 28.148 179.661 27.956 180.441 27.956Z" fill="#072C1F"/>
<path d="M669.77 26L668 27.77L678 37.77L688 27.77L686.23 26L678 34.23L669.77 26Z" fill="#072C1F"/>
<defs>
<filter id="filter0_d_1715_243" x="0" y="0" width="740" height="111" filterUnits="userSpaceOnUse" color-interpolation-filters="sRGB">
<feFlood flood-opacity="0" result="BackgroundImageFix"/>
<feColorMatrix in="SourceAlpha" type="matrix" values="0 0 0 0 0 0 0 0 0 0 0 0 0 0 0 0 0 0 127 0" result="hardAlpha"/>
<feOffset dy="25"/>
<feGaussianBlur stdDeviation="15"/>
<feComposite in2="hardAlpha" operator="out"/>
<feColorMatrix type="matrix" values="0 0 0 0 0.243137 0 0 0 0 0.286275 0 0 0 0 0.329412 0 0 0 0.04 0"/>
<feBlend mode="normal" in2="BackgroundImageFix" result="effect1_dropShadow_1715_243"/>
<feBlend mode="normal" in="SourceGraphic" in2="effect1_dropShadow_1715_243" result="shape"/>
</filter>
</defs>
</svg>
