<svg width="21" height="20" viewBox="0 0 21 20" fill="none" xmlns="http://www.w3.org/2000/svg">
<path d="M10.1082 15H11.6082V9H10.1082V15ZM10.7832 7.15C11.0165 7.15 11.2124 7.075 11.3707 6.925C11.529 6.775 11.6082 6.58333 11.6082 6.35C11.6082 6.11667 11.529 5.91667 11.3707 5.75C11.2124 5.58333 11.0165 5.5 10.7832 5.5C10.5499 5.5 10.354 5.58333 10.1957 5.75C10.0374 5.91667 9.9582 6.11667 9.9582 6.35C9.9582 6.58333 10.0374 6.775 10.1957 6.925C10.354 7.075 10.5499 7.15 10.7832 7.15ZM10.7832 20C9.36654 20 8.04987 19.7458 6.8332 19.2375C5.61654 18.7292 4.5582 18.025 3.6582 17.125C2.7582 16.225 2.05404 15.1667 1.5457 13.95C1.03737 12.7333 0.783203 11.4167 0.783203 10C0.783203 8.6 1.03737 7.29167 1.5457 6.075C2.05404 4.85833 2.7582 3.8 3.6582 2.9C4.5582 2 5.61654 1.29167 6.8332 0.775C8.04987 0.258333 9.36654 0 10.7832 0C12.1832 0 13.4915 0.258333 14.7082 0.775C15.9249 1.29167 16.9832 2 17.8832 2.9C18.7832 3.8 19.4915 4.85833 20.0082 6.075C20.5249 7.29167 20.7832 8.6 20.7832 10C20.7832 11.4167 20.5249 12.7333 20.0082 13.95C19.4915 15.1667 18.7832 16.225 17.8832 17.125C16.9832 18.025 15.9249 18.7292 14.7082 19.2375C13.4915 19.7458 12.1832 20 10.7832 20ZM10.7832 18.5C13.1165 18.5 15.1165 17.6667 16.7832 16C18.4499 14.3333 19.2832 12.3333 19.2832 10C19.2832 7.66667 18.4499 5.66667 16.7832 4C15.1165 2.33333 13.1165 1.5 10.7832 1.5C8.44987 1.5 6.44987 2.33333 4.7832 4C3.11654 5.66667 2.2832 7.66667 2.2832 10C2.2832 12.3333 3.11654 14.3333 4.7832 16C6.44987 17.6667 8.44987 18.5 10.7832 18.5Z" fill="white"/>
</svg>
