<svg width="338" height="227" viewBox="0 0 338 227" fill="none" xmlns="http://www.w3.org/2000/svg">
<g clip-path="url(#clip0_1815_382)">
<path d="M275.496 226.566H270.034C269.347 226.565 268.689 226.284 268.203 225.785C267.717 225.286 267.444 224.609 267.443 223.904V177.115C267.444 176.409 267.717 175.732 268.203 175.233C268.689 174.734 269.347 174.453 270.034 174.452H275.496C276.183 174.453 276.841 174.734 277.327 175.233C277.813 175.732 278.086 176.409 278.087 177.115V223.904C278.086 224.609 277.813 225.286 277.327 225.785C276.841 226.284 276.183 226.565 275.496 226.566V226.566Z" fill="#DADADA"/>
<path d="M287.041 226.566H281.579C280.892 226.565 280.234 226.284 279.748 225.785C279.262 225.286 278.989 224.609 278.988 223.904V177.115C278.989 176.409 279.262 175.732 279.748 175.233C280.234 174.734 280.892 174.453 281.579 174.452H287.041C287.728 174.453 288.387 174.734 288.872 175.233C289.358 175.732 289.631 176.409 289.632 177.115V223.904C289.631 224.609 289.358 225.286 288.872 225.785C288.386 226.284 287.728 226.565 287.041 226.566V226.566Z" fill="#DADADA"/>
<path d="M288.893 191.917H267.798C266.964 191.916 266.164 191.575 265.575 190.969C264.985 190.363 264.653 189.541 264.652 188.684V182.598C264.653 181.741 264.985 180.919 265.575 180.313C266.164 179.707 266.964 179.366 267.798 179.365H288.893C289.727 179.366 290.526 179.707 291.116 180.313C291.706 180.919 292.038 181.741 292.039 182.598V188.684C292.038 189.541 291.706 190.363 291.116 190.969C290.526 191.575 289.727 191.916 288.893 191.917V191.917Z" fill="#2F2E41"/>
<path d="M280.324 78.4664C280.968 71.8639 285.19 65.5499 291.636 63.8316C294.781 62.9733 298.12 63.2846 301.064 64.7105C303.728 66.092 305.823 68.409 306.969 71.2415C308.099 74.0435 308.531 77.0909 308.228 80.1081C307.884 83.4055 306.859 86.5896 305.224 89.4481C303.475 92.6159 301.202 95.4479 298.816 98.1259C296.384 100.854 293.633 103.365 291.588 106.428C289.773 109.144 288.314 112.834 290.102 115.961C290.803 117.107 291.81 118.022 293.004 118.595C294.197 119.168 295.526 119.375 296.832 119.191C297.472 119.092 298.091 118.88 298.662 118.567C299.292 118.221 299.854 119.206 299.223 119.552C296.828 120.866 293.851 120.568 291.589 119.091C288.981 117.388 287.818 114.382 288.306 111.275C288.863 107.733 291.267 104.691 293.574 102.142C295.985 99.4782 298.51 96.9349 300.742 94.1054C302.948 91.3104 304.917 88.2254 306.097 84.8181C307.089 81.9706 307.42 78.9245 307.063 75.9225C306.712 73.0557 305.627 70.215 303.681 68.0939C302.605 66.9546 301.317 66.0494 299.894 65.4322C298.471 64.815 296.941 64.4984 295.397 64.5012C292.191 64.4591 289.082 65.6337 286.666 67.8001C284.284 69.99 282.603 72.8701 281.845 76.0611C281.651 76.8515 281.514 77.6554 281.434 78.4664C281.363 79.1902 280.252 79.1977 280.324 78.4664H280.324Z" fill="#2F2E41"/>
<path d="M283.857 78.2041L278.585 76.4152C278.332 76.3292 278.097 76.1926 277.894 76.0132C277.692 75.8339 277.525 75.6152 277.405 75.3698C277.285 75.1245 277.213 74.8571 277.193 74.5831C277.173 74.3091 277.206 74.0337 277.29 73.7728C277.374 73.5119 277.507 73.2705 277.682 73.0624C277.856 72.8544 278.069 72.6837 278.308 72.5602C278.547 72.4367 278.807 72.3627 279.073 72.3426C279.34 72.3224 279.608 72.3564 279.862 72.4427L285.133 74.2316C285.387 74.3174 285.622 74.4539 285.825 74.6332C286.028 74.8126 286.194 75.0312 286.315 75.2767C286.435 75.5222 286.508 75.7897 286.527 76.0639C286.547 76.338 286.514 76.6135 286.43 76.8746C286.346 77.1357 286.213 77.3772 286.039 77.5854C285.864 77.7935 285.651 77.9642 285.412 78.0877C285.173 78.2112 284.912 78.285 284.646 78.305C284.379 78.325 284.111 78.2907 283.857 78.2041H283.857Z" fill="#2F2E41"/>
<path d="M337.999 226.123H218.08V226.975H337.999V226.123Z" fill="#3F3D56"/>
<path d="M179.482 148.823C176.279 148.822 173.086 148.449 169.965 147.71C168.359 147.328 166.778 146.848 165.227 146.274H165.227L165.162 146.252C163.17 145.51 161.236 144.614 159.375 143.573C158.897 143.309 158.414 143.025 157.94 142.732C157.614 142.534 157.293 142.331 156.972 142.123C150.771 138.097 145.699 132.479 142.255 125.823C138.812 119.167 137.116 111.703 137.335 104.168C137.555 96.633 139.681 89.2869 143.506 82.8544C147.33 76.4218 152.72 71.1251 159.144 67.4867C165.568 63.8483 172.804 61.9939 180.138 62.1064C187.472 62.2189 194.651 64.2945 200.966 68.1283C207.282 71.9622 212.515 77.4219 216.151 83.9689C219.787 90.5158 221.7 97.9239 221.7 105.462V105.462C221.681 112.901 219.808 120.212 216.262 126.697C212.715 133.182 207.612 138.626 201.438 142.511C200.713 142.965 199.966 143.4 199.154 143.841C198.049 144.442 196.921 144.989 195.796 145.469L195.588 145.561C195.199 145.726 194.81 145.884 194.417 146.034C194.238 146.105 194.05 146.178 193.863 146.248C189.264 147.954 184.412 148.825 179.523 148.823H179.482ZM165.356 145.515L165.418 145.536C166.96 146.11 168.534 146.588 170.131 146.969C173.198 147.695 176.335 148.062 179.482 148.062C179.496 148.062 179.51 148.063 179.523 148.062C184.326 148.065 189.093 147.209 193.611 145.533C193.793 145.465 193.975 145.394 194.154 145.322C194.466 145.203 194.772 145.081 195.077 144.954V144.954L195.307 144.854C196.478 144.362 197.656 143.796 198.808 143.169C199.607 142.735 200.341 142.307 201.053 141.861C207.118 138.045 212.132 132.696 215.617 126.325C219.101 119.954 220.941 112.772 220.96 105.463V105.462C220.96 98.0562 219.081 90.7781 215.509 84.346C211.937 77.9139 206.795 72.55 200.59 68.7834C194.386 65.0168 187.333 62.9776 180.127 62.867C172.922 62.7564 165.813 64.5782 159.502 68.1527C153.191 71.7272 147.895 76.9308 144.138 83.2504C140.38 89.57 138.291 96.7871 138.075 104.19C137.86 111.593 139.525 118.925 142.908 125.465C146.291 132.004 151.275 137.524 157.366 141.48C157.681 141.683 157.997 141.882 158.32 142.079C158.785 142.367 159.258 142.645 159.727 142.904C161.538 143.917 163.419 144.79 165.356 145.515L165.356 145.515Z" fill="#E6E6E6"/>
<path d="M103.244 87.2056C100.041 87.2051 96.8478 86.8318 93.7264 86.0928C92.1212 85.7105 90.5393 85.2311 88.989 84.6571H88.9889L88.924 84.6345C86.9321 83.8924 84.9975 82.9969 83.1367 81.9556C82.6586 81.6916 82.1752 81.4081 81.7018 81.1147C81.3759 80.9167 81.0548 80.7135 80.7337 80.5063C74.5329 76.4797 69.4605 70.8614 66.017 64.2054C62.5734 57.5494 60.8777 50.0858 61.097 42.5508C61.3163 35.0158 63.4431 27.6697 67.2676 21.2372C71.0921 14.8046 76.4821 9.50793 82.9061 5.86952C89.33 2.2311 96.5658 0.376691 103.9 0.489207C111.234 0.601722 118.413 2.67728 124.728 6.51114C131.043 10.345 136.277 15.8047 139.913 22.3517C143.549 28.8987 145.462 36.3067 145.462 43.8451V43.8447C145.443 51.2842 143.57 58.5946 140.023 65.0798C136.477 71.565 131.373 77.009 125.2 80.8933C124.475 81.3476 123.728 81.7829 122.915 82.2242C121.811 82.8252 120.683 83.3719 119.558 83.8518L119.35 83.9436C118.961 84.1089 118.572 84.2667 118.179 84.4164C118 84.4877 117.812 84.5609 117.624 84.6308C113.026 86.3368 108.174 87.208 103.285 87.2056C103.271 87.2052 103.258 87.2056 103.244 87.2056ZM89.1181 83.8975L89.1799 83.9191C90.7217 84.4928 92.2955 84.9711 93.893 85.3514C96.9599 86.0777 100.097 86.4445 103.244 86.4449C103.258 86.4449 103.271 86.4453 103.285 86.4449C108.088 86.4473 112.855 85.5914 117.373 83.9154C117.555 83.8478 117.737 83.7768 117.916 83.7051C118.227 83.5863 118.533 83.4641 118.838 83.337V83.3367L119.068 83.2364C120.24 82.745 121.418 82.1785 122.569 81.5519C123.368 81.1177 124.103 80.6898 124.815 80.2437C130.88 76.4275 135.894 71.0791 139.378 64.7078C142.863 58.3365 144.703 51.1543 144.722 43.8455V43.8451C144.721 36.439 142.843 29.1609 139.27 22.7289C135.698 16.2968 130.556 10.9328 124.352 7.16623C118.147 3.39962 111.094 1.36044 103.889 1.24983C96.6839 1.13922 89.575 2.96101 83.2638 6.53549C76.9526 10.11 71.657 15.3137 67.8995 21.6332C64.1421 27.9528 62.0525 35.17 61.8369 42.5727C61.6213 49.9755 63.2871 57.3082 66.6701 63.8474C70.0531 70.3866 75.0363 75.9065 81.1282 79.8626C81.443 80.0658 81.7583 80.2652 82.0812 80.4617C82.5471 80.7503 83.0198 81.0274 83.4891 81.2867C85.2996 82.2998 87.1811 83.1725 89.1181 83.8975V83.8975Z" fill="#E6E6E6"/>
<path d="M42.1813 174.687C38.9781 174.687 35.7853 174.313 32.6639 173.574C31.0587 173.192 29.4768 172.713 27.9266 172.139H27.9264L27.8615 172.116C25.8696 171.374 23.935 170.478 22.0742 169.437C21.5961 169.173 21.1127 168.89 20.6393 168.596C20.3135 168.398 19.9924 168.195 19.6712 167.988C13.4704 163.961 8.39804 158.343 4.95449 151.687C1.51094 145.031 -0.184818 137.567 0.0344928 130.032C0.253803 122.497 2.3806 115.151 6.2051 108.719C10.0296 102.286 15.4196 96.9894 21.8436 93.351C28.2675 89.7126 35.5033 87.8581 42.8373 87.9707C50.1713 88.0832 57.3501 90.1587 63.6655 93.9926C69.9809 97.8264 75.2147 103.286 78.8507 109.833C82.4866 116.38 84.3992 123.788 84.3995 131.327V131.326C84.38 138.766 82.5077 146.076 78.9609 152.561C75.414 159.046 70.3108 164.49 64.1373 168.375C63.4125 168.829 62.6653 169.264 61.853 169.706C60.7487 170.307 59.6202 170.853 58.4957 171.333L58.2871 171.425C57.8981 171.59 57.509 171.748 57.1163 171.898C56.9374 171.969 56.7495 172.042 56.5618 172.112C51.9634 173.818 47.1115 174.689 42.2227 174.687C42.2089 174.687 42.1952 174.687 42.1813 174.687ZM28.0556 171.379L28.1174 171.401C29.6592 171.974 31.233 172.453 32.8305 172.833C35.8974 173.559 39.0344 173.926 42.1816 173.926C42.195 173.927 42.208 173.927 42.2223 173.926C47.0255 173.929 51.7926 173.073 56.3106 171.397C56.4926 171.329 56.6747 171.258 56.8534 171.187C57.165 171.068 57.4709 170.946 57.7757 170.818V170.818L58.006 170.718C59.1773 170.226 60.3551 169.66 61.507 169.033C62.3059 168.599 63.0402 168.171 63.7524 167.725C69.8176 163.909 74.8313 158.561 78.3159 152.189C81.8005 145.818 83.6401 138.636 83.6594 131.327V131.327C83.659 123.92 81.7801 116.642 78.2079 110.21C74.6358 103.778 69.4938 98.4143 63.2893 94.6477C57.0847 90.8811 50.032 88.8419 42.8267 88.7313C35.6214 88.6207 28.5125 90.4425 22.2013 94.0169C15.8901 97.5914 10.5945 102.795 6.83706 109.115C3.07958 115.434 0.989982 122.651 0.774383 130.054C0.558785 137.457 2.22463 144.79 5.60761 151.329C8.99058 157.868 13.9738 163.388 20.0657 167.344C20.3805 167.547 20.6958 167.747 21.0187 167.943C21.4846 168.232 21.9573 168.509 22.4266 168.768C24.2371 169.781 26.1186 170.654 28.0556 171.379V171.379Z" fill="#E6E6E6"/>
<path d="M65.2366 100.836C68.4738 100.836 71.0982 98.1385 71.0982 94.8114C71.0982 91.4843 68.4738 88.7871 65.2366 88.7871C61.9993 88.7871 59.375 91.4843 59.375 94.8114C59.375 98.1385 61.9993 100.836 65.2366 100.836Z" fill="#CCCCCC"/>
<path d="M128.891 16.7771C132.128 16.7771 134.752 14.0799 134.752 10.7528C134.752 7.42567 132.128 4.72852 128.891 4.72852C125.654 4.72852 123.029 7.42567 123.029 10.7528C123.029 14.0799 125.654 16.7771 128.891 16.7771Z" fill="#CCCCCC"/>
<path d="M211.789 86.3815C215.027 86.3815 217.651 83.6844 217.651 80.3573C217.651 77.0302 215.027 74.333 211.789 74.333C208.552 74.333 205.928 77.0302 205.928 80.3573C205.928 83.6844 208.552 86.3815 211.789 86.3815Z" fill="#CCCCCC"/>
<path d="M278.617 119.181C289.556 119.181 298.424 110.068 298.424 98.825C298.424 87.5826 289.556 78.4688 278.617 78.4688C267.678 78.4688 258.811 87.5826 258.811 98.825C258.811 110.068 267.678 119.181 278.617 119.181Z" fill="#DADADA"/>
<path d="M227.021 162.828C226.75 162.828 226.481 162.784 226.223 162.698C225.899 162.591 225.598 162.42 225.339 162.193C225.08 161.966 224.867 161.689 224.713 161.377L222.224 156.38C222.069 156.069 221.975 155.729 221.948 155.38C221.921 155.032 221.96 154.681 222.065 154.349C222.169 154.016 222.337 153.708 222.557 153.441C222.778 153.175 223.047 152.956 223.35 152.797L263.875 131.479C264.487 131.157 265.198 131.098 265.852 131.315C266.506 131.532 267.049 132.008 267.362 132.636L269.851 137.634C270.164 138.262 270.221 138.993 270.01 139.665C269.799 140.336 269.337 140.895 268.725 141.216L228.199 162.535C227.835 162.728 227.431 162.828 227.021 162.828V162.828Z" fill="#DADADA"/>
<path d="M295.554 183.169H261.876C261.042 183.168 260.243 182.827 259.653 182.221C259.063 181.615 258.731 180.793 258.73 179.936V143.612C258.73 138.165 260.836 132.941 264.584 129.089C268.332 125.237 273.415 123.073 278.715 123.073C284.015 123.073 289.098 125.237 292.846 129.089C296.594 132.941 298.699 138.165 298.699 143.612V179.936C298.699 180.793 298.367 181.615 297.777 182.221C297.187 182.827 296.388 183.168 295.554 183.169V183.169Z" fill="#CCCCCC"/>
<path d="M282.662 179.222C282.636 179.222 282.611 179.221 282.585 179.221L277.125 179.058C276.438 179.038 275.787 178.738 275.316 178.224C274.844 177.71 274.591 177.026 274.61 176.32L275.928 129.55C275.937 129.201 276.014 128.856 276.153 128.537C276.292 128.218 276.492 127.93 276.74 127.691C276.79 127.642 276.842 127.596 276.895 127.552C277.375 127.155 277.978 126.947 278.593 126.966L284.053 127.128C284.74 127.15 285.39 127.45 285.861 127.964C286.333 128.477 286.587 129.162 286.568 129.867L285.25 176.637C285.229 177.329 284.948 177.985 284.465 178.468C283.982 178.95 283.336 179.221 282.662 179.222V179.222Z" fill="#DADADA"/>
<path d="M277.38 125.943C277.826 125.573 278.385 125.38 278.957 125.399L284.417 125.561C285.054 125.581 285.658 125.86 286.096 126.337C286.534 126.813 286.77 127.449 286.752 128.104L288.025 149.77C288.005 150.426 287.734 151.046 287.27 151.496C286.806 151.946 286.188 152.188 285.55 152.17L285.55 152.17L275.279 152.007C274.963 151.998 274.652 151.925 274.364 151.792C274.076 151.659 273.816 151.469 273.599 151.233C273.382 150.997 273.213 150.719 273.101 150.416C272.988 150.112 272.935 149.789 272.944 149.464L275.199 128.207C275.218 127.547 276.769 126.525 277.236 126.072C277.283 126.026 277.331 125.984 277.38 125.943Z" fill="#CCCCCC"/>
<path d="M269.701 129.81C270.23 130.035 270.662 130.447 270.92 130.973L273.393 135.978C273.681 136.563 273.731 137.241 273.533 137.864C273.335 138.487 272.905 139.004 272.337 139.302L254.433 150.815C253.864 151.111 253.204 151.163 252.598 150.959C251.992 150.756 251.489 150.314 251.199 149.729L251.199 149.729L246.425 140.382C246.282 140.092 246.196 139.776 246.171 139.453C246.147 139.129 246.185 138.804 246.283 138.495C246.381 138.186 246.537 137.901 246.743 137.654C246.948 137.407 247.199 137.205 247.481 137.058L267.686 129.887C267.967 129.739 268.274 129.65 268.589 129.625C268.904 129.6 269.221 129.64 269.521 129.741C269.582 129.762 269.642 129.785 269.701 129.81Z" fill="#CCCCCC"/>
<path d="M272.001 103.799C270.777 103.764 269.254 103.72 268.082 102.839C267.732 102.566 267.445 102.218 267.241 101.819C267.036 101.42 266.919 100.98 266.897 100.53C266.876 100.21 266.927 99.8887 267.046 99.5922C267.166 99.2956 267.351 99.0315 267.586 98.8205C268.199 98.2882 269.093 98.1638 270.057 98.455L269.058 90.9519L269.792 90.8486L270.966 99.6692L270.354 99.3806C269.644 99.0456 268.669 98.8755 268.064 99.4014C267.915 99.5389 267.799 99.7098 267.725 99.9008C267.651 100.092 267.621 100.298 267.637 100.503C267.655 100.838 267.743 101.165 267.895 101.462C268.047 101.76 268.26 102.02 268.518 102.225C269.431 102.91 270.645 102.999 272.021 103.038L272.001 103.799Z" fill="#2F2E41"/>
<path d="M265.432 91.5996H261.445V92.3603H265.432V91.5996Z" fill="#2F2E41"/>
<path d="M278.014 91.5996H274.027V92.3603H278.014V91.5996Z" fill="#2F2E41"/>
<path d="M178.109 129C189.048 129 197.916 119.886 197.916 108.643C197.916 97.4009 189.048 88.2871 178.109 88.2871C167.17 88.2871 158.303 97.4009 158.303 108.643C158.303 119.886 167.17 129 178.109 129Z" fill="#DADADA"/>
<path d="M169.122 97.6826C166.81 97.1222 164.314 96.3682 162.665 94.4976C161.262 92.9051 160.603 90.4475 161.847 88.5596C162.983 86.8357 165.223 86.2032 167.109 85.8799C169.301 85.5041 171.553 85.4493 173.61 84.4906C174.62 84.0212 175.501 83.3026 176.175 82.3988C176.801 81.4953 177.345 80.5342 177.798 79.5278C178.228 78.547 178.803 77.6401 179.502 76.8391C180.296 76.0394 181.321 75.5251 182.423 75.3731C184.904 74.9855 187.26 76.164 189.212 77.6275C191.103 79.0726 192.818 80.7454 194.321 82.6101C197.735 86.7907 200.084 91.777 201.159 97.1214C201.303 97.8401 202.374 97.536 202.23 96.8181C201.202 91.7604 199.067 87.0096 195.987 82.9262C194.461 80.8901 192.709 79.0446 190.766 77.4275C188.754 75.7619 186.431 74.3102 183.785 74.1727C182.562 74.0994 181.34 74.3487 180.237 74.8969C179.222 75.4462 178.369 76.2632 177.764 77.2638C176.517 79.2071 175.916 81.7184 173.904 83.0329C171.867 84.3644 169.316 84.3776 167.005 84.748C164.949 85.0776 162.66 85.7735 161.269 87.4703C159.729 89.347 159.787 91.9046 160.937 93.9744C162.215 96.2743 164.588 97.5294 166.972 98.2776C167.584 98.4698 168.204 98.6319 168.827 98.7829C169.522 98.9513 169.818 97.8514 169.122 97.6826V97.6826Z" fill="#2F2E41"/>
<path d="M177.263 115.44L177.242 114.679C178.619 114.64 179.833 114.551 180.745 113.866C181.004 113.661 181.217 113.401 181.369 113.104C181.521 112.807 181.609 112.479 181.627 112.144C181.643 111.939 181.612 111.733 181.538 111.542C181.464 111.351 181.349 111.18 181.2 111.043C180.594 110.517 179.62 110.688 178.91 111.022L178.297 111.311L179.472 102.49L180.205 102.593L179.206 110.097C180.171 109.805 181.065 109.931 181.678 110.462C181.913 110.673 182.097 110.937 182.217 111.233C182.336 111.53 182.387 111.851 182.366 112.171C182.345 112.621 182.227 113.061 182.023 113.46C181.818 113.859 181.531 114.208 181.182 114.481C180.01 115.361 178.487 115.405 177.263 115.44Z" fill="#2F2E41"/>
<path d="M187.818 103.24H183.832V104.001H187.818V103.24Z" fill="#2F2E41"/>
<path d="M175.236 103.24H171.25V104.001H175.236V103.24Z" fill="#2F2E41"/>
<path d="M41.5468 154.864C52.4857 154.864 61.3534 145.75 61.3534 134.508C61.3534 123.265 52.4857 114.151 41.5468 114.151C30.6079 114.151 21.7402 123.265 21.7402 134.508C21.7402 145.75 30.6079 154.864 41.5468 154.864Z" fill="#DADADA"/>
<path d="M40.7022 141.304L40.6816 140.544C42.0586 140.504 43.2726 140.416 44.1848 139.731C44.4434 139.525 44.656 139.265 44.808 138.968C44.9601 138.671 45.0481 138.344 45.0661 138.008C45.0821 137.803 45.052 137.597 44.978 137.406C44.904 137.216 44.7881 137.045 44.6394 136.907C44.0339 136.382 43.0596 136.552 42.3494 136.886L41.737 137.175L42.9114 128.354L43.6447 128.458L42.6457 135.961C43.6107 135.669 44.5048 135.795 45.1172 136.326C45.3524 136.537 45.5368 136.801 45.6563 137.098C45.7757 137.394 45.8269 137.715 45.8057 138.035C45.7841 138.485 45.6669 138.926 45.4623 139.325C45.2577 139.724 44.9707 140.072 44.6214 140.345C43.4493 141.225 41.9262 141.269 40.7022 141.304Z" fill="#2F2E41"/>
<path d="M51.2578 129.104H47.2715V129.865H51.2578V129.104Z" fill="#2F2E41"/>
<path d="M38.6738 129.104H34.6875V129.865H38.6738V129.104Z" fill="#2F2E41"/>
<path d="M103.721 66.7936C114.659 66.7936 123.527 57.6798 123.527 46.4373C123.527 35.1949 114.659 26.0811 103.721 26.0811C92.7818 26.0811 83.9141 35.1949 83.9141 46.4373C83.9141 57.6798 92.7818 66.7936 103.721 66.7936Z" fill="#CCCCCC"/>
<path d="M117.72 53.9655L117.699 53.2048C119.076 53.1654 120.29 53.0767 121.202 52.3917C121.461 52.1865 121.674 51.9264 121.826 51.6292C121.978 51.332 122.066 51.0047 122.084 50.6694C122.1 50.4645 122.07 50.2586 121.996 50.0676C121.922 49.8767 121.806 49.7059 121.657 49.5684C121.052 49.0425 120.077 49.2126 119.367 49.5476L118.755 49.8362L119.929 41.0156L120.662 41.1189L119.663 48.622C120.628 48.3304 121.522 48.4556 122.135 48.9875C122.37 49.1985 122.554 49.4625 122.674 49.7589C122.793 50.0553 122.844 50.376 122.823 50.6961C122.802 51.1466 122.684 51.5868 122.48 51.9858C122.275 52.3849 121.988 52.7331 121.639 53.0061C120.467 53.8864 118.944 53.9302 117.72 53.9655Z" fill="#2F2E41"/>
<path d="M115.693 41.7656H111.707V42.5263H115.693V41.7656Z" fill="#2F2E41"/>
<path d="M115.429 24.8811C114.689 20.3489 111.895 16.4527 108.301 13.8226C104.778 11.2898 100.566 9.96625 96.2665 10.0411C87.9421 10.1352 79.8028 14.927 75.3398 22.1174C70.3954 30.0833 70.2978 40.4857 73.6403 49.0985C74.4948 51.3172 75.5782 53.4353 76.8718 55.4167C78.3067 57.6018 80.0449 59.5293 81.7355 61.5028C84.8861 65.1806 88.4983 70.2954 86.387 75.4271C85.6072 77.3225 83.9621 79.0458 81.8686 79.1816C80.1014 79.2961 78.142 78.4275 77.3583 76.7201C76.4805 74.8074 77.6959 72.5436 79.4916 71.7608C81.375 70.9397 83.3325 72.151 84.0283 74.0141C84.3739 74.8718 84.3857 75.8333 84.0611 76.6998C83.9918 76.8316 83.9738 76.9855 84.0108 77.1304C84.0478 77.2754 84.1369 77.4004 84.2602 77.4804C84.3876 77.5558 84.5387 77.5766 84.6809 77.5383C84.8231 77.5 84.9448 77.4056 85.0198 77.2757C85.3935 76.3156 85.4746 75.2615 85.2524 74.2529C85.0302 73.2444 84.5151 72.329 83.7754 71.6281C83.0248 70.889 82.0435 70.4473 81.006 70.3814C79.9685 70.3155 78.9418 70.6296 78.1083 71.268C76.3481 72.5892 75.4175 74.9543 76.3095 77.0884C77.0817 78.9362 78.9503 80.0521 80.8374 80.2877C81.8783 80.3931 82.9281 80.2198 83.8846 79.7845C84.841 79.3493 85.6715 78.667 86.2953 77.8041C87.687 75.9311 88.3177 73.5763 88.0545 71.2351C87.4367 65.3952 82.897 61.4025 79.4891 57.1287C76.4587 53.2991 74.323 48.8064 73.2463 43.9957C72.1445 39.2674 72.1856 34.3338 73.3659 29.6255C74.5107 25.1613 76.8637 21.1222 80.1518 17.9769C83.3077 14.9711 87.1619 12.8486 91.3449 11.813C95.4806 10.7549 99.8327 11.0271 103.813 12.5928C107.985 14.2938 111.688 17.6595 113.452 21.9452C113.876 22.9849 114.18 24.0721 114.358 25.1844C114.476 25.907 115.546 25.6006 115.429 24.8811H115.429Z" fill="#2F2E41"/>
<path d="M115.405 25.053C117.258 23.2175 120.28 22.9529 122.513 24.1961C124.824 25.4821 125.751 28.2517 125.158 30.8147C124.854 32.2462 124.049 33.5133 122.896 34.3755C122.314 34.7921 122.868 35.7817 123.457 35.3608C125.956 33.5729 127.008 30.1273 126.155 27.1467C125.265 24.0347 122.307 22.1768 119.218 22.3008C117.505 22.3475 115.868 23.0398 114.62 24.2461C114.104 24.7566 114.89 25.5629 115.405 25.053Z" fill="#2F2E41"/>
<path d="M46.5916 121.647C48.9805 121.419 50.9806 119.793 52.0413 117.617C52.5829 116.491 52.867 115.252 52.8722 113.996C52.8773 112.74 52.6032 111.499 52.0709 110.368C50.9451 107.997 49.0668 106.091 46.7456 104.965C44.0458 103.621 40.9969 103.249 38.0271 103.372C32.4309 103.604 26.2654 105.219 22.8252 110.123C21.207 112.347 20.5037 115.135 20.867 117.887C21.3023 120.775 23.0126 123.277 24.8387 125.432C26.7526 127.692 28.9611 129.727 30.4737 132.316C31.7825 134.555 32.4866 137.376 31.6111 139.917C31.4023 140.52 31.0924 141.08 30.6954 141.572C30.2428 142.134 31.024 142.946 31.4805 142.379C33.0555 140.426 33.374 137.847 32.878 135.417C32.332 132.741 30.7568 130.479 29.0344 128.458C25.6829 124.525 20.6916 120.231 22.1002 114.357C22.7617 111.81 24.2668 109.581 26.3561 108.053C28.5963 106.384 31.2561 105.465 33.9589 104.967C39.1309 104.012 45.3941 104.112 49.3018 108.254C50.9258 109.975 52.0428 112.38 51.7437 114.821C51.4739 117.022 50.1064 119.181 48.1071 120.099C47.6268 120.318 47.1149 120.456 46.5916 120.506C45.8862 120.573 45.8793 121.715 46.5916 121.647H46.5916Z" fill="#2F2E41"/>
</g>
<defs>
<clipPath id="clip0_1815_382">
<rect width="338" height="226.506" fill="white" transform="translate(0 0.46875)"/>
</clipPath>
</defs>
</svg>
