<svg width="107" height="38" viewBox="0 0 107 38" fill="none" xmlns="http://www.w3.org/2000/svg">
<rect x="0.5" y="0.5" width="106" height="37" rx="9.5" fill="white" stroke="#53DBAD"/>
<path d="M19.465 24.098C18.7837 24.098 18.1677 23.9813 17.617 23.748C17.0757 23.5147 16.6463 23.1787 16.329 22.74C16.0117 22.3013 15.8483 21.7833 15.839 21.186H17.939C17.967 21.5873 18.107 21.9047 18.359 22.138C18.6203 22.3713 18.975 22.488 19.423 22.488C19.8803 22.488 20.2397 22.3807 20.501 22.166C20.7623 21.942 20.893 21.6527 20.893 21.298C20.893 21.0087 20.8043 20.7707 20.627 20.584C20.4497 20.3973 20.2257 20.2527 19.955 20.15C19.6937 20.038 19.3297 19.9167 18.863 19.786C18.2283 19.5993 17.7103 19.4173 17.309 19.24C16.917 19.0533 16.5763 18.778 16.287 18.414C16.007 18.0407 15.867 17.546 15.867 16.93C15.867 16.3513 16.0117 15.8473 16.301 15.418C16.5903 14.9887 16.9963 14.662 17.519 14.438C18.0417 14.2047 18.639 14.088 19.311 14.088C20.319 14.088 21.1357 14.3353 21.761 14.83C22.3957 15.3153 22.7457 15.9967 22.811 16.874H20.655C20.6363 16.538 20.4917 16.2627 20.221 16.048C19.9597 15.824 19.6097 15.712 19.171 15.712C18.7883 15.712 18.4803 15.81 18.247 16.006C18.023 16.202 17.911 16.4867 17.911 16.86C17.911 17.1213 17.995 17.3407 18.163 17.518C18.3403 17.686 18.555 17.826 18.807 17.938C19.0683 18.0407 19.4323 18.162 19.899 18.302C20.5337 18.4887 21.0517 18.6753 21.453 18.862C21.8543 19.0487 22.1997 19.3287 22.489 19.702C22.7783 20.0753 22.923 20.5653 22.923 21.172C22.923 21.6947 22.7877 22.18 22.517 22.628C22.2463 23.076 21.8497 23.4353 21.327 23.706C20.8043 23.9673 20.1837 24.098 19.465 24.098ZM31.8323 19.954C31.8323 20.234 31.8136 20.486 31.7763 20.71H26.1063C26.1529 21.27 26.3489 21.7087 26.6943 22.026C27.0396 22.3433 27.4643 22.502 27.9683 22.502C28.6963 22.502 29.2143 22.1893 29.5223 21.564H31.6363C31.4123 22.3107 30.9829 22.9267 30.3483 23.412C29.7136 23.888 28.9343 24.126 28.0103 24.126C27.2636 24.126 26.5916 23.9627 25.9943 23.636C25.4063 23.3 24.9443 22.8287 24.6083 22.222C24.2816 21.6153 24.1182 20.9153 24.1182 20.122C24.1182 19.3193 24.2816 18.6147 24.6083 18.008C24.9349 17.4013 25.3923 16.9347 25.9803 16.608C26.5683 16.2813 27.2449 16.118 28.0103 16.118C28.7476 16.118 29.4056 16.2767 29.9843 16.594C30.5723 16.9113 31.0249 17.364 31.3423 17.952C31.6689 18.5307 31.8323 19.198 31.8323 19.954ZM29.8023 19.394C29.7929 18.89 29.6109 18.4887 29.2563 18.19C28.9016 17.882 28.4676 17.728 27.9543 17.728C27.4689 17.728 27.0583 17.8773 26.7223 18.176C26.3956 18.4653 26.1949 18.8713 26.1203 19.394H29.8023ZM37.5609 16.132C38.4849 16.132 39.2315 16.426 39.8009 17.014C40.3702 17.5927 40.6549 18.4047 40.6549 19.45V24H38.6949V19.716C38.6949 19.1 38.5409 18.6287 38.2329 18.302C37.9249 17.966 37.5049 17.798 36.9729 17.798C36.4315 17.798 36.0022 17.966 35.6849 18.302C35.3769 18.6287 35.2229 19.1 35.2229 19.716V24H33.2629V16.244H35.2229V17.21C35.4842 16.874 35.8155 16.6127 36.2169 16.426C36.6275 16.23 37.0755 16.132 37.5609 16.132ZM42.0147 20.094C42.0147 19.31 42.1687 18.6147 42.4767 18.008C42.7941 17.4013 43.2234 16.9347 43.7647 16.608C44.3061 16.2813 44.9081 16.118 45.5707 16.118C46.0747 16.118 46.5554 16.23 47.0127 16.454C47.4701 16.6687 47.8341 16.958 48.1047 17.322V13.64H50.0927V24H48.1047V22.852C47.8621 23.2347 47.5214 23.5427 47.0827 23.776C46.6441 24.0093 46.1354 24.126 45.5567 24.126C44.9034 24.126 44.3061 23.958 43.7647 23.622C43.2234 23.286 42.7941 22.8147 42.4767 22.208C42.1687 21.592 42.0147 20.8873 42.0147 20.094ZM48.1187 20.122C48.1187 19.646 48.0254 19.24 47.8387 18.904C47.6521 18.5587 47.4001 18.2973 47.0827 18.12C46.7654 17.9333 46.4247 17.84 46.0607 17.84C45.6967 17.84 45.3607 17.9287 45.0527 18.106C44.7447 18.2833 44.4927 18.5447 44.2967 18.89C44.1101 19.226 44.0167 19.6273 44.0167 20.094C44.0167 20.5607 44.1101 20.9713 44.2967 21.326C44.4927 21.6713 44.7447 21.9373 45.0527 22.124C45.3701 22.3107 45.7061 22.404 46.0607 22.404C46.4247 22.404 46.7654 22.3153 47.0827 22.138C47.4001 21.9513 47.6521 21.69 47.8387 21.354C48.0254 21.0087 48.1187 20.598 48.1187 20.122ZM56.337 15.32C55.9916 15.32 55.7023 15.2127 55.469 14.998C55.245 14.774 55.133 14.4987 55.133 14.172C55.133 13.8453 55.245 13.5747 55.469 13.36C55.7023 13.136 55.9916 13.024 56.337 13.024C56.6823 13.024 56.967 13.136 57.191 13.36C57.4243 13.5747 57.541 13.8453 57.541 14.172C57.541 14.4987 57.4243 14.774 57.191 14.998C56.967 15.2127 56.6823 15.32 56.337 15.32ZM57.303 16.244V24H55.343V16.244H57.303ZM63.5374 16.132C64.4614 16.132 65.2081 16.426 65.7774 17.014C66.3468 17.5927 66.6314 18.4047 66.6314 19.45V24H64.6714V19.716C64.6714 19.1 64.5174 18.6287 64.2094 18.302C63.9014 17.966 63.4814 17.798 62.9494 17.798C62.4081 17.798 61.9788 17.966 61.6614 18.302C61.3534 18.6287 61.1994 19.1 61.1994 19.716V24H59.2394V16.244H61.1994V17.21C61.4608 16.874 61.7921 16.6127 62.1934 16.426C62.6041 16.23 63.0521 16.132 63.5374 16.132ZM71.7293 22.194L73.6893 16.244H75.7753L72.9053 24H70.5253L67.6693 16.244H69.7693L71.7293 22.194ZM77.8702 15.32C77.5248 15.32 77.2355 15.2127 77.0022 14.998C76.7782 14.774 76.6662 14.4987 76.6662 14.172C76.6662 13.8453 76.7782 13.5747 77.0022 13.36C77.2355 13.136 77.5248 13.024 77.8702 13.024C78.2155 13.024 78.5002 13.136 78.7242 13.36C78.9575 13.5747 79.0742 13.8453 79.0742 14.172C79.0742 14.4987 78.9575 14.774 78.7242 14.998C78.5002 15.2127 78.2155 15.32 77.8702 15.32ZM78.8362 16.244V24H76.8762V16.244H78.8362ZM83.0546 17.854V21.606C83.0546 21.8673 83.1153 22.0587 83.2366 22.18C83.3673 22.292 83.582 22.348 83.8806 22.348H84.7906V24H83.5586C81.9066 24 81.0806 23.1973 81.0806 21.592V17.854H80.1566V16.244H81.0806V14.326H83.0546V16.244H84.7906V17.854H83.0546ZM93.4104 19.954C93.4104 20.234 93.3917 20.486 93.3544 20.71H87.6844C87.731 21.27 87.927 21.7087 88.2724 22.026C88.6177 22.3433 89.0424 22.502 89.5464 22.502C90.2744 22.502 90.7924 22.1893 91.1004 21.564H93.2144C92.9904 22.3107 92.561 22.9267 91.9264 23.412C91.2917 23.888 90.5124 24.126 89.5884 24.126C88.8417 24.126 88.1697 23.9627 87.5724 23.636C86.9844 23.3 86.5224 22.8287 86.1864 22.222C85.8597 21.6153 85.6964 20.9153 85.6964 20.122C85.6964 19.3193 85.8597 18.6147 86.1864 18.008C86.513 17.4013 86.9704 16.9347 87.5584 16.608C88.1464 16.2813 88.823 16.118 89.5884 16.118C90.3257 16.118 90.9837 16.2767 91.5624 16.594C92.1504 16.9113 92.603 17.364 92.9204 17.952C93.247 18.5307 93.4104 19.198 93.4104 19.954ZM91.3804 19.394C91.371 18.89 91.189 18.4887 90.8344 18.19C90.4797 17.882 90.0457 17.728 89.5324 17.728C89.047 17.728 88.6364 17.8773 88.3004 18.176C87.9737 18.4653 87.773 18.8713 87.6984 19.394H91.3804Z" fill="#48D9A8"/>
</svg>
