<svg width="16" height="16" viewBox="0 0 16 16" fill="none" xmlns="http://www.w3.org/2000/svg">
<path d="M8 7.97461C6.9 7.97461 6 7.62461 5.3 6.92461C4.6 6.22461 4.25 5.32461 4.25 4.22461C4.25 3.12461 4.6 2.22461 5.3 1.52461C6 0.82461 6.9 0.474609 8 0.474609C9.1 0.474609 10 0.82461 10.7 1.52461C11.4 2.22461 11.75 3.12461 11.75 4.22461C11.75 5.32461 11.4 6.22461 10.7 6.92461C10 7.62461 9.1 7.97461 8 7.97461ZM0 15.9996V13.6496C0 13.0163 0.158333 12.4746 0.475 12.0246C0.791667 11.5746 1.2 11.2329 1.7 10.9996C2.81667 10.4996 3.8875 10.1246 4.9125 9.87461C5.9375 9.62461 6.96667 9.49961 8 9.49961C9.03333 9.49961 10.0583 9.62878 11.075 9.88711C12.0917 10.1454 13.1583 10.5163 14.275 10.9996C14.7917 11.2329 15.2083 11.5746 15.525 12.0246C15.8417 12.4746 16 13.0163 16 13.6496V15.9996H0ZM1.5 14.4996H14.5V13.6496C14.5 13.3829 14.4208 13.1288 14.2625 12.8871C14.1042 12.6454 13.9083 12.4663 13.675 12.3496C12.6083 11.8329 11.6333 11.4788 10.75 11.2871C9.86667 11.0954 8.95 10.9996 8 10.9996C7.05 10.9996 6.125 11.0954 5.225 11.2871C4.325 11.4788 3.35 11.8329 2.3 12.3496C2.06667 12.4663 1.875 12.6454 1.725 12.8871C1.575 13.1288 1.5 13.3829 1.5 13.6496V14.4996ZM8 6.47461C8.65 6.47461 9.1875 6.26211 9.6125 5.83711C10.0375 5.41211 10.25 4.87461 10.25 4.22461C10.25 3.57461 10.0375 3.03711 9.6125 2.61211C9.1875 2.18711 8.65 1.97461 8 1.97461C7.35 1.97461 6.8125 2.18711 6.3875 2.61211C5.9625 3.03711 5.75 3.57461 5.75 4.22461C5.75 4.87461 5.9625 5.41211 6.3875 5.83711C6.8125 6.26211 7.35 6.47461 8 6.47461Z" fill="#43C1A7"/>
</svg>
