<svg width="232" height="167" viewBox="0 0 232 167" fill="none" xmlns="http://www.w3.org/2000/svg">
<g clip-path="url(#clip0_1364_143)">
<path d="M144.75 166.911C147.025 161.995 149.297 157.005 150.284 151.679C151.271 146.352 150.856 140.571 148.03 135.95C145.203 131.33 139.638 128.197 134.327 129.242C129.965 130.099 126.462 133.538 124.411 137.486C122.36 141.434 121.538 145.887 120.74 150.264C120.482 145.291 120.209 140.238 118.559 135.54C116.908 130.842 113.658 126.465 109.026 124.647C104.395 122.829 98.3693 124.258 95.928 128.597C92.4888 134.71 97.0491 143.285 93.0944 149.078C92.4161 143.267 86.3458 138.677 80.5765 139.611C74.8073 140.546 70.493 146.818 71.6799 152.546C72.3861 155.954 74.7093 158.853 77.4869 160.947C80.2644 163.042 83.4948 165.469 86.6905 166.842L144.75 166.911Z" fill="#F2F2F2"/>
<path d="M74.7092 143.716C79.292 145.32 83.9169 146.941 88.1007 149.448C91.8504 151.694 95.1895 154.719 97.2983 158.593C98.4537 160.671 99.1397 162.977 99.308 165.349C99.3384 165.846 100.114 165.849 100.083 165.349C99.8121 160.932 97.6612 156.889 94.6828 153.692C91.4172 150.186 87.1855 147.792 82.8165 145.935C80.226 144.833 77.5711 143.897 74.9153 142.968C74.4434 142.803 74.2405 143.552 74.7092 143.716Z" fill="white"/>
<path d="M101.142 125.417C103.958 130.112 106.212 135.122 107.86 140.344C109.511 145.564 110.55 150.958 110.958 156.418C111.184 159.474 111.209 162.542 111.032 165.602C111.003 166.101 111.779 166.099 111.807 165.602C112.12 160.085 111.787 154.551 110.814 149.113C109.842 143.674 108.245 138.367 106.055 133.296C104.826 130.448 103.408 127.685 101.812 125.026C101.758 124.941 101.673 124.88 101.576 124.856C101.478 124.832 101.375 124.847 101.288 124.898C101.201 124.949 101.137 125.031 101.11 125.128C101.083 125.225 101.094 125.329 101.142 125.417Z" fill="white"/>
<path d="M139.088 129.875C135.105 138.832 132.302 148.268 130.75 157.948C130.314 160.667 129.977 163.399 129.738 166.144C129.695 166.642 130.47 166.639 130.513 166.144C131.358 156.486 133.443 146.978 136.718 137.854C137.638 135.289 138.651 132.76 139.757 130.267C139.958 129.814 139.29 129.419 139.088 129.875Z" fill="white"/>
<path d="M28.1945 166.33C20.2517 164.261 13.2329 159.583 8.26328 153.045C3.29369 146.507 0.661117 138.488 0.787554 130.274C0.819054 128.227 1.03404 126.138 1.89357 124.28C2.75309 122.423 4.34965 120.817 6.34676 120.377C8.52631 119.896 10.8262 120.878 12.4505 122.41C14.0748 123.942 15.1398 125.963 16.1196 127.97C22.0216 140.059 26.5057 153.03 28.1846 166.379L28.1945 166.33Z" fill="#F2F2F2"/>
<path d="M5.35742 120.78L9.49383 130.187L13.6302 139.594C14.9402 142.573 16.2477 145.554 17.6018 148.513C18.9439 151.447 20.3321 154.36 21.8129 157.226C23.2917 160.088 24.8633 162.904 26.5693 165.637C26.7817 165.977 26.9963 166.316 27.2129 166.654C27.3628 166.888 27.7375 166.671 27.5866 166.435C25.8479 163.722 24.2458 160.924 22.7432 158.074C21.239 155.221 19.8331 152.317 18.4791 149.389C17.1179 146.447 15.809 143.48 14.5036 140.512C13.1296 137.388 11.7558 134.263 10.3822 131.139L6.24583 121.732L5.73108 120.561C5.61914 120.307 5.24615 120.527 5.35739 120.78L5.35742 120.78Z" fill="white"/>
<path d="M26.4692 166.396C21.7873 167.468 16.8814 166.935 12.5379 164.884C8.19436 162.832 4.66481 159.38 2.515 155.082C1.97936 154.01 1.52741 152.868 1.47274 151.671C1.41806 150.475 1.81372 149.209 2.73189 148.441C3.73394 147.603 5.19281 147.491 6.44928 147.847C7.70575 148.204 8.80382 148.965 9.85385 149.743C16.1785 154.424 22.005 159.947 26.4772 166.424L26.4692 166.396Z" fill="#F2F2F2"/>
<path d="M2.32687 148.918L7.01161 152.684L11.6963 156.45C13.18 157.643 14.6627 158.837 16.1639 160.008C17.652 161.168 19.1584 162.306 20.7003 163.394C22.24 164.48 23.8153 165.517 25.4382 166.475C25.6403 166.594 25.8431 166.712 26.0466 166.829C26.1875 166.91 26.3236 166.696 26.1817 166.615C24.5473 165.676 22.9608 164.656 21.412 163.583C19.8615 162.508 18.3483 161.38 16.8558 160.226C15.3553 159.066 13.8756 157.879 12.3974 156.691C10.8414 155.44 9.28545 154.189 7.72964 152.938L3.04491 149.172L2.46192 148.704C2.33514 148.602 2.20088 148.817 2.32688 148.918H2.32687Z" fill="white"/>
<path d="M225.865 167H12.0693C12.0289 167 11.9887 166.992 11.9513 166.977C11.9139 166.961 11.8798 166.938 11.8512 166.91C11.8225 166.881 11.7998 166.847 11.7842 166.81C11.7687 166.772 11.7607 166.732 11.7607 166.692C11.7607 166.651 11.7687 166.611 11.7842 166.574C11.7998 166.536 11.8225 166.502 11.8512 166.474C11.8798 166.445 11.9139 166.422 11.9513 166.407C11.9887 166.392 12.0289 166.384 12.0693 166.384H225.865C225.947 166.384 226.025 166.416 226.083 166.474C226.14 166.532 226.173 166.61 226.173 166.692C226.173 166.773 226.14 166.852 226.083 166.91C226.025 166.967 225.947 167 225.865 167Z" fill="#3F3D56"/>
<path d="M220.249 136.143H205.774C205.774 136.314 205.706 136.479 205.585 136.6C205.464 136.721 205.299 136.789 205.128 136.789H190.92C190.719 136.941 190.536 137.114 190.375 137.307C189.889 137.886 189.623 138.619 189.625 139.376V139.893C189.625 140.751 189.966 141.573 190.572 142.179C191.177 142.786 191.999 143.126 192.855 143.127H220.249C221.105 143.126 221.926 142.785 222.532 142.179C223.138 141.573 223.478 140.751 223.479 139.893V139.376C223.478 138.519 223.137 137.697 222.532 137.091C221.926 136.485 221.105 136.144 220.249 136.143Z" fill="#3F3D56"/>
<path d="M208.36 142.998H205V166.795H208.36V142.998Z" fill="#3F3D56"/>
<path d="M217.921 166.678C217.921 167.041 212.83 166.819 206.551 166.819C200.271 166.819 195.18 167.041 195.18 166.678C195.18 166.315 200.271 163.434 206.551 163.434C212.83 163.434 217.921 166.315 217.921 166.678Z" fill="#3F3D56"/>
<path d="M219.616 136.888L219.053 133.359C218.981 132.915 218.736 132.517 218.372 132.252C218.008 131.988 217.554 131.879 217.109 131.95L211.297 132.878L201.343 134.469L198.104 134.986H205.128C205.3 134.986 205.464 135.055 205.585 135.176C205.706 135.297 205.774 135.462 205.775 135.633V136.143C205.774 136.314 205.706 136.479 205.585 136.6C205.464 136.721 205.3 136.789 205.128 136.789H187.253C187.004 136.906 186.788 137.084 186.625 137.307C186.488 137.488 186.388 137.695 186.333 137.915C186.278 138.136 186.268 138.365 186.305 138.59L186.465 139.593L186.659 140.812L186.868 142.12C186.939 142.564 187.183 142.961 187.546 143.225C187.91 143.489 188.363 143.598 188.806 143.528L193.424 142.79L206.744 140.662L218.207 138.83C218.651 138.758 219.048 138.513 219.311 138.149C219.575 137.785 219.685 137.332 219.616 136.888Z" fill="#6CD68F"/>
<path d="M193.07 137.306C192.9 137.081 192.675 136.902 192.416 136.789H187.475C187.215 136.902 186.989 137.08 186.819 137.306C186.589 137.601 186.464 137.965 186.465 138.338V158.052C186.466 158.501 186.644 158.931 186.961 159.249C187.279 159.566 187.709 159.745 188.158 159.746H191.732C192.18 159.745 192.611 159.566 192.928 159.249C193.245 158.931 193.424 158.501 193.424 158.052V138.338C193.425 137.965 193.3 137.601 193.07 137.306Z" fill="#6CD68F"/>
<path d="M203.825 103.732L203.792 103.688L201.574 100.954C201.456 100.807 201.314 100.682 201.153 100.584C201.068 100.526 200.976 100.479 200.879 100.444C200.738 100.388 200.589 100.351 200.437 100.336C200.336 100.325 200.234 100.323 200.132 100.331C200.13 100.331 200.128 100.332 200.127 100.333C199.785 100.358 199.458 100.488 199.192 100.706L194.641 104.399L188.793 109.149L180.065 116.236L179.43 116.753H190.472L191.111 116.236L193.222 114.521L193.372 114.402L203.569 106.122L203.577 106.117C203.787 105.948 203.953 105.73 204.06 105.483C204.131 105.321 204.177 105.15 204.195 104.974C204.218 104.753 204.198 104.529 204.134 104.316C204.071 104.103 203.966 103.904 203.825 103.732Z" fill="#6CD68F"/>
<path d="M203.792 103.688C203.649 102.99 203.332 102.341 202.872 101.799C202.412 101.253 201.82 100.835 201.153 100.583C201.05 100.545 200.949 100.508 200.845 100.48C200.612 100.411 200.374 100.36 200.132 100.33C200.13 100.33 200.128 100.331 200.127 100.333C199.04 100.207 197.946 100.509 197.078 101.176L189.206 107.198C189.039 107.347 188.903 107.529 188.808 107.732C188.712 107.935 188.659 108.155 188.65 108.38C188.638 108.643 188.687 108.906 188.792 109.148C188.818 109.202 188.847 109.257 188.878 109.308C188.938 109.413 189.011 109.511 189.095 109.598L190.356 111.016L193.289 114.308L193.372 114.402L193.56 114.616C193.711 114.781 193.892 114.914 194.093 115.009C194.295 115.104 194.514 115.157 194.736 115.167C194.959 115.177 195.181 115.143 195.39 115.066C195.6 114.99 195.792 114.873 195.956 114.722L202.745 107.423C203.098 107.044 203.377 106.603 203.569 106.122C203.879 105.349 203.957 104.503 203.792 103.688Z" fill="#2F2E41"/>
<path d="M206.794 94.3215C213.947 94.3215 219.747 88.5169 219.747 81.3566C219.747 74.1962 213.947 68.3916 206.794 68.3916C199.64 68.3916 193.841 74.1962 193.841 81.3566C193.841 88.5169 199.64 94.3215 206.794 94.3215Z" fill="#6CD68F"/>
<path d="M211.651 135.103L211.297 132.878L211.087 131.572C211.016 131.128 210.772 130.73 210.408 130.466C210.044 130.203 209.59 130.094 209.147 130.165L199.732 131.667L197.179 132.076L196.662 132.159V134.986H205.128C205.299 134.986 205.464 135.054 205.585 135.176C205.706 135.297 205.774 135.461 205.774 135.633V136.142C205.774 136.314 205.706 136.478 205.585 136.6C205.464 136.721 205.299 136.789 205.128 136.789H178.337C178.337 136.794 178.339 136.799 178.339 136.805L178.5 137.808L178.903 140.333C178.974 140.776 179.218 141.174 179.581 141.437C179.945 141.701 180.398 141.81 180.841 141.74L185.459 141.003L186.464 140.842L186.658 140.811L193.424 139.73L198.027 138.993L205.33 137.826L205.438 137.808L210.242 137.043C210.686 136.971 211.083 136.727 211.347 136.364C211.611 136 211.72 135.547 211.651 135.103Z" fill="#6CD68F"/>
<path d="M224.423 125.589C224.423 136.158 223.35 142.48 206.811 140.67C206.787 140.667 206.767 140.664 206.744 140.662C203.794 140.37 200.876 139.812 198.027 138.993C196.546 138.561 195.107 137.996 193.727 137.307C193.401 137.141 193.088 136.968 192.781 136.79H205.128C205.3 136.79 205.464 136.721 205.585 136.6C205.706 136.479 205.774 136.314 205.774 136.143V135.633C205.774 135.462 205.706 135.297 205.585 135.176C205.464 135.055 205.3 134.987 205.128 134.987H196.662V118.649C196.662 118.147 196.462 117.665 196.107 117.309C195.752 116.954 195.27 116.754 194.768 116.753H187.881C187.94 116.582 188 116.409 188.064 116.236C188.71 114.446 189.476 112.702 190.357 111.016C191.563 108.674 192.998 106.457 194.641 104.399C195.786 102.965 197.071 101.649 198.476 100.47C201.069 98.3283 203.891 97.0039 206.754 97.0039C217.313 97.0039 224.423 115.02 224.423 125.589Z" fill="#2F2E41"/>
<path d="M207.065 86.1619L207.079 85.6774C206.178 85.6523 205.384 85.5958 204.788 85.1595C204.619 85.0288 204.48 84.8632 204.38 84.6739C204.281 84.4846 204.223 84.2761 204.211 84.0626C204.201 83.9321 204.221 83.8009 204.269 83.6793C204.317 83.5577 204.393 83.4489 204.49 83.3614C204.886 83.0266 205.524 83.135 205.988 83.3481L206.389 83.5319L205.62 77.9141L205.141 77.9798L205.794 82.7586C205.527 82.6593 205.239 82.6285 204.956 82.6692C204.674 82.7099 204.406 82.8206 204.178 82.9914C204.024 83.1257 203.903 83.2939 203.825 83.4827C203.747 83.6714 203.714 83.8757 203.728 84.0796C203.742 84.3665 203.818 84.6469 203.952 84.901C204.086 85.1552 204.274 85.3769 204.502 85.5508C205.269 86.1115 206.265 86.1394 207.065 86.1619Z" fill="#2F2E41"/>
<path d="M202.769 78.3916H200.162V78.8761H202.769V78.3916Z" fill="#2F2E41"/>
<path d="M210.999 78.3916H208.392V78.8761H210.999V78.3916Z" fill="#2F2E41"/>
<path d="M217.131 77.7936C216.123 76.2758 214.351 75.6324 212.603 75.4759C210.635 75.2997 208.734 75.6795 206.813 76.0484C204.699 76.4545 202.462 76.8344 200.332 76.321C199.39 76.1028 198.509 75.6733 197.757 75.065C197.004 74.4566 196.4 73.6852 195.988 72.8089C195.209 71.0993 195.04 69.173 195.513 67.3539C196.012 65.4193 197.251 63.7169 198.753 62.4312C201.818 59.8069 205.967 58.6275 209.957 58.7386C213.932 58.8413 217.774 60.1935 220.939 62.6036C224.109 65.1006 226.339 68.5995 227.267 72.5289C228.236 76.4261 227.92 80.5327 226.366 84.2354C225.493 86.2628 224.23 88.0906 223.256 90.0671C222.349 91.9072 221.65 94.0467 222.214 96.0992C222.71 97.9003 224.164 99.5004 225.99 99.9894C226.82 100.208 227.699 100.15 228.495 99.8249C229.29 99.5 229.958 98.9255 230.399 98.1878C231.311 96.7473 231.333 94.8605 229.963 93.6974C229.617 93.3993 229.215 93.1746 228.78 93.0371C228.345 92.8996 227.887 92.852 227.433 92.8974C226.979 92.9427 226.539 93.08 226.14 93.3008C225.74 93.5217 225.39 93.8215 225.11 94.1821C224.554 94.9048 224.305 95.8178 224.418 96.723C224.485 97.1805 223.786 97.378 223.718 96.9162C223.554 95.9589 223.735 94.9746 224.229 94.1386C224.723 93.3026 225.498 92.6693 226.414 92.3515C227.331 92.0337 228.331 92.052 229.236 92.4032C230.14 92.7544 230.891 93.4156 231.354 94.2691C232.181 95.8243 231.735 97.7002 230.686 99.0296C230.144 99.7377 229.411 100.275 228.573 100.576C227.734 100.878 226.827 100.932 225.959 100.731C224.05 100.289 222.488 98.7702 221.753 96.9851C220.935 94.9977 221.31 92.78 222.107 90.8515C222.969 88.7669 224.249 86.8973 225.261 84.8884C226.177 83.073 226.76 81.1076 226.982 79.0858C227.427 75.0259 226.506 70.9335 224.366 67.4561C222.185 64.0327 218.856 61.4999 214.976 60.3129C211.125 59.0743 206.967 59.1843 203.187 60.6249C199.497 62.0799 195.935 65.2508 195.977 69.5095C195.996 71.3287 196.67 73.1839 198.063 74.3972C199.726 75.8473 202.043 75.9713 204.134 75.745C206.239 75.5172 208.283 74.902 210.396 74.7451C212.235 74.6085 214.218 74.7505 215.86 75.6647C216.625 76.0914 217.275 76.6958 217.758 77.4268C218.017 77.8175 217.388 78.1818 217.131 77.7936V77.7936Z" fill="#2F2E41"/>
<path d="M214.494 107.439L213.468 106.725L211.558 105.398C211.188 105.142 210.733 105.044 210.291 105.124C209.849 105.204 209.457 105.456 209.201 105.825L202.975 114.793L197.179 123.143L196.662 123.888V134.987H196.709C197.111 134.947 197.487 134.763 197.765 134.47C197.825 134.408 197.88 134.341 197.928 134.27L199.732 131.668L204.19 125.246L208.811 118.593L209.25 117.959L214.915 109.798C214.946 109.755 214.974 109.71 215 109.663C215.026 109.619 215.049 109.573 215.07 109.526C215.232 109.166 215.264 108.76 215.158 108.378C215.053 107.997 214.818 107.665 214.494 107.439Z" fill="#6CD68F"/>
<path d="M214.512 103.89C214.329 103.77 214.138 103.664 213.938 103.574C213.055 103.169 212.06 103.081 211.12 103.324C210.18 103.567 209.351 104.127 208.775 104.909L202.893 112.891C202.775 113.081 202.696 113.293 202.66 113.514C202.625 113.735 202.633 113.961 202.686 114.179C202.738 114.396 202.833 114.601 202.966 114.782C203.098 114.962 203.265 115.114 203.456 115.23L208.811 118.592L208.878 118.634L209.147 118.802C209.531 119.035 209.992 119.105 210.429 118.999C210.865 118.892 211.241 118.617 211.476 118.233L215.628 109.981L215.698 109.844L215.701 109.842L215.957 109.327C216.423 108.401 216.534 107.336 216.268 106.333C216.001 105.331 215.377 104.462 214.512 103.89Z" fill="#2F2E41"/>
<path d="M178.5 136.789V156.264C178.501 156.713 178.679 157.144 178.996 157.461C179.314 157.779 179.744 157.958 180.193 157.958H183.767C184.215 157.958 184.646 157.779 184.963 157.461C185.28 157.144 185.459 156.713 185.46 156.264V136.789H178.5Z" fill="#6CD68F"/>
<path d="M205.128 134.469H197.179V118.649C197.178 118.009 196.924 117.395 196.472 116.943C196.02 116.491 195.407 116.236 194.768 116.235H165.289C164.649 116.236 164.036 116.49 163.583 116.942C163.13 117.395 162.876 118.008 162.875 118.649V134.893C162.876 135.533 163.13 136.147 163.583 136.6C164.036 137.052 164.649 137.306 165.289 137.306H205.128C205.169 137.306 205.208 137.304 205.247 137.301C205.283 137.299 205.319 137.291 205.355 137.286C205.619 137.232 205.856 137.089 206.027 136.881C206.197 136.673 206.29 136.412 206.291 136.142V135.633C206.291 135.324 206.168 135.028 205.95 134.81C205.732 134.592 205.436 134.469 205.128 134.469ZM205.128 136.789H165.289C164.786 136.789 164.304 136.589 163.949 136.234C163.593 135.878 163.393 135.396 163.392 134.893V118.649C163.393 118.146 163.593 117.664 163.949 117.308C164.304 116.953 164.786 116.753 165.289 116.753H194.768C195.27 116.753 195.751 116.953 196.106 117.309C196.461 117.664 196.661 118.146 196.662 118.649V134.986H205.128C205.299 134.986 205.464 135.054 205.585 135.176C205.706 135.297 205.774 135.461 205.774 135.633V136.142C205.774 136.314 205.706 136.478 205.585 136.6C205.464 136.721 205.299 136.789 205.128 136.789Z" fill="#3F3D56"/>
<path d="M180.027 128.761C181.125 128.761 182.015 127.87 182.015 126.771C182.015 125.673 181.125 124.782 180.027 124.782C178.93 124.782 178.04 125.673 178.04 126.771C178.04 127.87 178.93 128.761 180.027 128.761Z" fill="#6CD68F"/>
<path d="M32.3103 93.4667C39.9489 93.4667 46.1412 87.2686 46.1412 79.623C46.1412 71.9773 39.9489 65.7793 32.3103 65.7793C24.6718 65.7793 18.4795 71.9773 18.4795 79.623C18.4795 87.2686 24.6718 93.4667 32.3103 93.4667Z" fill="#6CD68F"/>
<path d="M29.6142 131.701H25.7999C25.3545 131.702 24.9275 131.879 24.6126 132.194C24.2977 132.509 24.1205 132.937 24.1201 133.383V165.201C24.1205 165.647 24.2977 166.074 24.6126 166.39C24.9275 166.705 25.3545 166.882 25.7999 166.883H29.6142C30.0596 166.882 30.4866 166.705 30.8015 166.39C31.1165 166.074 31.2936 165.647 31.294 165.201V133.383C31.2936 132.937 31.1165 132.509 30.8015 132.194C30.4866 131.879 30.0596 131.702 29.6142 131.701Z" fill="#2F2E41"/>
<path d="M37.6748 131.701H33.8604C33.4151 131.702 32.9881 131.879 32.6731 132.194C32.3582 132.509 32.1811 132.937 32.1807 133.383V165.201C32.1811 165.647 32.3582 166.074 32.6731 166.39C32.9881 166.705 33.4151 166.882 33.8604 166.883H37.6748C37.8954 166.883 38.1138 166.839 38.3176 166.755C38.5214 166.67 38.7066 166.546 38.8626 166.39C39.0186 166.234 39.1423 166.049 39.2267 165.845C39.3111 165.641 39.3546 165.422 39.3546 165.201V133.383C39.3546 133.162 39.3111 132.943 39.2267 132.739C39.1423 132.535 39.0186 132.35 38.8626 132.194C38.7066 132.037 38.5214 131.914 38.3176 131.829C38.1138 131.745 37.8954 131.701 37.6748 131.701Z" fill="#2F2E41"/>
<path d="M40.4371 100.727C39.1004 98.9975 37.2571 97.7299 35.1651 97.1011C33.0731 96.4724 30.8371 96.5139 28.7699 97.22C26.7026 97.9261 24.9076 99.2613 23.636 101.039C22.3644 102.816 21.6797 104.947 21.6778 107.134V135.313C21.6768 135.399 21.6837 135.485 21.6985 135.569C21.7599 136 21.9745 136.395 22.3029 136.68C22.6314 136.966 23.0518 137.123 23.4868 137.124H40.8197C41.2991 137.123 41.7587 136.932 42.0977 136.592C42.4368 136.253 42.6277 135.793 42.6287 135.313V107.134C42.6319 104.813 41.8605 102.558 40.4371 100.727Z" fill="#2F2E41"/>
<path d="M43.99 85.7434L43.9756 85.226C44.9371 85.1992 45.7848 85.1389 46.4218 84.6731C46.6024 84.5335 46.7508 84.3566 46.857 84.1545C46.9632 83.9524 47.0247 83.7298 47.0372 83.5017C47.0484 83.3624 47.0274 83.2224 46.9757 83.0925C46.924 82.9627 46.8431 82.8465 46.7393 82.753C46.3165 82.3956 45.6361 82.5113 45.1402 82.7389L44.7125 82.9351L45.5326 76.9365L46.0446 77.0067L45.3471 82.1094C46.0209 81.9111 46.6453 81.9965 47.0729 82.3579C47.2371 82.5014 47.366 82.681 47.4494 82.8825C47.5328 83.0841 47.5685 83.3022 47.5537 83.5199C47.5386 83.8263 47.4568 84.1256 47.3139 84.397C47.171 84.6684 46.9706 84.9052 46.7267 85.0909C45.9082 85.6895 44.8446 85.7194 43.99 85.7434Z" fill="#2F2E41"/>
<path d="M42.5747 77.4463H39.791V77.9636H42.5747V77.4463Z" fill="#2F2E41"/>
<path d="M28.2546 101.125C28.1054 100.962 27.9253 100.83 27.7248 100.737C27.5243 100.644 27.3073 100.592 27.0865 100.584L24.081 100.46L23.2772 100.426C22.8322 100.408 22.3982 100.567 22.0702 100.869C21.7423 101.17 21.5472 101.59 21.5277 102.035L21.0522 113.499L20.2123 133.828C20.1952 134.252 20.3387 134.667 20.6143 134.99C20.8898 135.313 21.277 135.52 21.6983 135.569C21.7397 135.574 21.7784 135.577 21.8198 135.579L24.1198 135.675L25.6316 135.737C25.7527 135.742 25.874 135.735 25.9934 135.714C26.3091 135.657 26.6022 135.512 26.8384 135.295C27.0014 135.145 27.133 134.965 27.2257 134.764C27.3185 134.564 27.3704 134.346 27.3785 134.125L27.4793 131.702L28.221 113.773L28.6965 102.333C28.7151 101.887 28.5561 101.453 28.2546 101.125Z" fill="#6CD68F"/>
<path d="M26.0528 98.6155C25.7316 98.5477 25.4041 98.5139 25.0758 98.5147C23.8083 98.5162 22.5932 99.0209 21.6969 99.9179C20.8006 100.815 20.2964 102.031 20.2949 103.3V112.095C20.2956 112.373 20.3652 112.647 20.4973 112.892C20.6294 113.137 20.82 113.346 21.0522 113.499C21.2414 113.624 21.4543 113.709 21.6775 113.748C21.7755 113.766 21.875 113.776 21.9747 113.776H28.177C28.1917 113.777 28.2064 113.776 28.221 113.773C28.6585 113.762 29.0743 113.581 29.3798 113.267C29.6854 112.953 29.8565 112.533 29.8568 112.095V103.3C29.8554 102.201 29.4767 101.136 28.7842 100.283C28.0916 99.4302 27.1273 98.8415 26.0528 98.6155Z" fill="#2F2E41"/>
<path d="M59.1781 123.662C58.7728 123.452 58.4545 123.106 58.2795 122.684C58.1045 122.263 58.0841 121.792 58.2219 121.357L59.6923 116.673L59.2633 116.316L47.9778 106.97L40.4368 100.726L39.5195 99.9653C39.1764 99.681 38.7346 99.5448 38.2911 99.5865C37.8477 99.6282 37.439 99.8445 37.1549 100.188L34.723 103.131C34.582 103.301 34.4759 103.497 34.4107 103.708C34.3456 103.919 34.3226 104.141 34.3433 104.361C34.3639 104.581 34.4277 104.795 34.531 104.99C34.6343 105.185 34.7751 105.358 34.9452 105.498L42.6284 111.861L43.5019 112.583L59.4391 125.78C59.7338 126.025 60.1035 126.162 60.4867 126.168C60.8699 126.174 61.2434 126.048 61.5453 125.811C61.6285 125.746 61.7047 125.673 61.7726 125.592C61.7837 125.581 61.7941 125.57 61.8037 125.558L62.1112 125.185L59.1781 123.662Z" fill="#6CD68F"/>
<path d="M47.4353 105.175L40.6361 99.6062C40.1503 99.2081 39.5909 98.9096 38.9899 98.7279C38.3888 98.5462 37.7579 98.4847 37.1331 98.547C36.5084 98.6094 35.902 98.7942 35.3486 99.0911C34.7952 99.388 34.3057 99.7911 33.9079 100.277C33.5102 100.764 33.212 101.324 33.0304 101.925C32.8489 102.527 32.7875 103.158 32.8497 103.784C32.9755 105.047 33.5973 106.208 34.5785 107.012L41.3777 112.581C41.6772 112.826 42.0523 112.961 42.4394 112.961C42.8266 112.962 43.202 112.828 43.5021 112.584C43.5915 112.514 43.6722 112.434 43.7423 112.346L47.6705 107.542C47.8095 107.374 47.914 107.179 47.978 106.97C48.0747 106.651 48.0748 106.31 47.9782 105.991C47.8816 105.671 47.6927 105.387 47.4353 105.175Z" fill="#2F2E41"/>
<path d="M28.8426 81.9669C28.1224 80.7626 27.5587 79.4356 27.8263 78.0087C28.0652 76.7345 28.9813 75.7422 30.2986 75.612C31.0919 75.5336 31.8814 75.7455 32.6562 75.8836C33.2913 75.9953 33.9368 76.0371 34.581 76.0084C35.8772 75.9494 37.1478 75.6269 38.3155 75.0606C39.5008 74.5054 40.5535 73.7027 41.403 72.7063C42.2524 71.7099 42.8789 70.5431 43.2402 69.2842C44.0263 66.4197 43.4427 63.167 41.5759 60.8354L42.2238 60.6642L41.3802 63.4382C41.3637 63.4951 41.3346 63.5475 41.2951 63.5916C41.2555 63.6356 41.2064 63.67 41.1516 63.6923C41.0968 63.7146 41.0377 63.7242 40.9786 63.7204C40.9196 63.7166 40.8622 63.6994 40.8108 63.6701C39.2818 62.7032 37.5726 62.0572 35.7868 61.7714C34.0009 61.4857 32.1757 61.566 30.4218 62.0076C29.4308 62.2568 28.4735 62.6253 27.5711 63.1051C27.1307 63.3394 26.7386 62.6698 27.1798 62.435C28.8748 61.55 30.7316 61.0183 32.6379 60.8721C34.5441 60.7259 36.4602 60.9683 38.2701 61.5847C39.3009 61.9363 40.2854 62.4116 41.202 63.0001L40.6326 63.232L41.4762 60.4579C41.495 60.3931 41.5302 60.3342 41.5785 60.287C41.6268 60.2398 41.6865 60.206 41.7517 60.1887C41.817 60.1715 41.8855 60.1715 41.9508 60.1886C42.0161 60.2058 42.0758 60.2396 42.1241 60.2867C42.9923 61.3891 43.6287 62.656 43.9947 64.0111C44.3607 65.3663 44.4489 66.7815 44.2538 68.1716C44.0654 69.5418 43.5897 70.8565 42.858 72.0298C42.1264 73.203 41.1552 74.2082 40.0082 74.9794C38.8624 75.7536 37.5746 76.2926 36.2192 76.5653C34.8639 76.8381 33.468 76.839 32.1123 76.5682C31.3536 76.4222 30.4932 76.2132 29.7487 76.5312C29.4787 76.6616 29.2407 76.8499 29.0516 77.0827C28.8625 77.3155 28.7269 77.5871 28.6545 77.8783C28.2327 79.309 28.9505 80.6678 29.6837 81.8574L28.8426 81.9669Z" fill="#2F2E41"/>
<path d="M79.3 110.628L66.5155 103.223C66.1971 103.038 65.8414 102.928 65.4747 102.9C65.108 102.872 64.7397 102.926 64.3968 103.059C64.054 103.193 63.7455 103.402 63.4941 103.67C63.2426 103.939 63.0547 104.261 62.9441 104.612L59.264 116.316L57.729 121.203C57.555 121.754 57.5813 122.349 57.803 122.883C58.0248 123.417 58.4278 123.855 58.941 124.12L61.7733 125.592L71.0148 130.39C71.3643 130.573 71.7526 130.667 72.1467 130.667C72.4376 130.667 72.7262 130.615 72.9994 130.515L73.0176 130.507C73.3405 130.383 73.6338 130.193 73.8787 129.949C74.1235 129.705 74.3144 129.412 74.4389 129.089L80.3621 113.634C80.5732 113.089 80.5822 112.486 80.3873 111.934C80.1925 111.383 79.8067 110.919 79.3 110.628ZM79.8788 113.45L73.9556 128.906C73.8571 129.16 73.706 129.392 73.5123 129.584C73.3187 129.777 73.0867 129.926 72.8315 130.023L72.8186 130.028C72.5652 130.122 72.2951 130.162 72.0255 130.145C71.7559 130.129 71.4926 130.056 71.2525 129.933L62.1119 125.186L59.1788 123.663C58.7735 123.453 58.4551 123.107 58.2802 122.685C58.1052 122.263 58.0848 121.793 58.2226 121.358L59.693 116.673L63.4351 104.767C63.523 104.49 63.6717 104.237 63.8703 104.025C64.0689 103.813 64.3123 103.649 64.5827 103.543C64.8532 103.438 65.1437 103.395 65.433 103.417C65.7223 103.439 66.003 103.525 66.2546 103.67L79.0389 111.076C79.4395 111.306 79.7445 111.672 79.8986 112.107C80.0527 112.543 80.0457 113.019 79.8788 113.45Z" fill="#3F3D56"/>
<path d="M75.0105 115.58C74.8809 115.58 74.7535 115.547 74.6399 115.485L66.1118 110.829C65.932 110.73 65.7987 110.564 65.7411 110.367C65.6835 110.17 65.7064 109.958 65.8046 109.777C65.9029 109.597 66.0685 109.463 66.2653 109.405C66.462 109.347 66.6738 109.369 66.8542 109.467L75.3824 114.123C75.5337 114.205 75.6531 114.336 75.7219 114.494C75.7907 114.652 75.8049 114.829 75.7623 114.996C75.7196 115.163 75.6226 115.311 75.4864 115.417C75.3503 115.523 75.1828 115.58 75.0104 115.58H75.0105Z" fill="#6CD68F"/>
<path d="M73.4597 118.942C73.3302 118.942 73.2027 118.91 73.0891 118.847L64.561 114.191C64.3812 114.093 64.2479 113.926 64.1903 113.729C64.1328 113.532 64.1556 113.32 64.2538 113.14C64.3521 112.959 64.5177 112.826 64.7145 112.767C64.9112 112.709 65.123 112.731 65.3035 112.829L73.8316 117.485C73.9829 117.567 74.1024 117.698 74.1712 117.856C74.24 118.015 74.2542 118.191 74.2115 118.358C74.1689 118.525 74.0718 118.674 73.9356 118.779C73.7995 118.885 73.632 118.942 73.4597 118.942H73.4597Z" fill="#6CD68F"/>
<path d="M72.1677 122.563C72.0382 122.563 71.9108 122.531 71.7971 122.469L63.269 117.813C63.0892 117.714 62.9559 117.547 62.8983 117.35C62.8408 117.153 62.8636 116.941 62.9618 116.761C63.0601 116.581 63.2257 116.447 63.4225 116.388C63.6192 116.33 63.831 116.352 64.0115 116.45L72.5396 121.106C72.6909 121.189 72.8104 121.319 72.8792 121.477C72.948 121.636 72.9622 121.812 72.9195 121.979C72.8769 122.147 72.7798 122.295 72.6436 122.4C72.5075 122.506 72.34 122.564 72.1677 122.563H72.1677Z" fill="#6CD68F"/>
<path d="M162.352 49.2873H126.5C125.985 49.2867 125.491 49.0815 125.127 48.7168C124.762 48.3521 124.557 47.8576 124.557 47.3417V1.94555C124.557 1.42974 124.762 0.93522 125.127 0.570485C125.491 0.205751 125.985 0.00058672 126.5 0H162.352C162.867 0.000590136 163.361 0.205755 163.726 0.570489C164.09 0.935223 164.295 1.42974 164.295 1.94555V47.3417C164.295 47.8576 164.09 48.3521 163.726 48.7168C163.361 49.0815 162.867 49.2867 162.352 49.2873ZM126.5 0.432346C126.1 0.432795 125.715 0.592367 125.432 0.876051C125.148 1.15973 124.989 1.54436 124.989 1.94555V47.3417C124.989 47.7429 125.148 48.1276 125.432 48.4112C125.715 48.6949 126.1 48.8545 126.5 48.8549H162.352C162.753 48.8545 163.137 48.6949 163.42 48.4112C163.704 48.1276 163.863 47.7429 163.864 47.3417V1.94555C163.863 1.54436 163.704 1.15973 163.42 0.876051C163.137 0.592367 162.753 0.432796 162.352 0.432346H126.5Z" fill="#3F3D56"/>
<path d="M141.444 21.8205H133.552C133.294 21.8202 133.047 21.7177 132.865 21.5353C132.683 21.3529 132.58 21.1057 132.58 20.8478V11.5265C132.58 11.2686 132.683 11.0213 132.865 10.8389C133.047 10.6566 133.294 10.554 133.552 10.5537H141.444C141.701 10.554 141.948 10.6566 142.13 10.8389C142.313 11.0213 142.415 11.2686 142.415 11.5265V20.8478C142.415 21.1057 142.313 21.3529 142.13 21.5353C141.948 21.7177 141.701 21.8202 141.444 21.8205Z" fill="#6CD68F"/>
<path d="M156.778 26.1438H148.886C148.628 26.1435 148.381 26.0409 148.199 25.8585C148.017 25.6762 147.914 25.4289 147.914 25.171V15.8497C147.914 15.5918 148.017 15.3446 148.199 15.1622C148.381 14.9798 148.628 14.8772 148.886 14.877H156.778C157.035 14.8772 157.282 14.9798 157.464 15.1622C157.647 15.3446 157.749 15.5918 157.749 15.8497V25.171C157.749 25.4289 157.647 25.6762 157.464 25.8585C157.282 26.0409 157.035 26.1435 156.778 26.1438Z" fill="#CCCCCC"/>
<path d="M144.468 39.3303H136.576C136.319 39.33 136.072 39.2274 135.889 39.0451C135.707 38.8627 135.605 38.6154 135.604 38.3575V29.0363C135.605 28.7783 135.707 28.5311 135.889 28.3487C136.072 28.1663 136.319 28.0638 136.576 28.0635H144.468C144.726 28.0638 144.973 28.1663 145.155 28.3487C145.337 28.5311 145.44 28.7783 145.44 29.0363V38.3575C145.44 38.6154 145.337 38.8627 145.155 39.0451C144.973 39.2274 144.726 39.33 144.468 39.3303Z" fill="#FF6584"/>
<path d="M115.587 37.0173C115.438 36.663 115.188 36.3603 114.869 36.1465C114.55 35.9327 114.175 35.8173 113.791 35.8145H77.9395C77.4241 35.8147 76.93 36.0198 76.5656 36.3845C76.2012 36.7492 75.9964 37.2438 75.9961 37.7596V83.1558C75.9964 83.6716 76.2012 84.1662 76.5656 84.5309C76.93 84.8957 77.4241 85.1007 77.9395 85.101H113.791C114.306 85.1003 114.8 84.8951 115.165 84.5305C115.529 84.1658 115.734 83.6715 115.735 83.1558V37.7596C115.735 37.5048 115.685 37.2524 115.587 37.0173ZM115.303 83.1558C115.302 83.557 115.143 83.9416 114.86 84.2253C114.576 84.5089 114.192 84.6685 113.791 84.669H77.9395C77.5385 84.669 77.154 84.5095 76.8705 84.2257C76.587 83.942 76.4277 83.5571 76.4276 83.1558V37.7596C76.4282 37.3585 76.5876 36.9739 76.871 36.6902C77.1544 36.4065 77.5387 36.2469 77.9395 36.2464H113.791C114.093 36.2476 114.388 36.3387 114.638 36.5083C114.888 36.6778 115.082 36.9181 115.194 37.1983C115.216 37.2542 115.235 37.3112 115.251 37.369C115.286 37.4964 115.303 37.6277 115.303 37.7596V83.1558Z" fill="#3F3D56"/>
<path d="M108.104 46.5321H97.3053C97.0762 46.5321 96.8565 46.441 96.6944 46.2789C96.5324 46.1167 96.4414 45.8968 96.4414 45.6674C96.4414 45.4381 96.5324 45.2182 96.6944 45.056C96.8565 44.8938 97.0762 44.8027 97.3053 44.8027H108.104C108.333 44.8027 108.553 44.8938 108.715 45.056C108.877 45.2182 108.968 45.4381 108.968 45.6674C108.968 45.8968 108.877 46.1167 108.715 46.2789C108.553 46.441 108.333 46.5321 108.104 46.5321Z" fill="#3F3D56"/>
<path d="M108.104 51.0722H97.3053C97.0762 51.0722 96.8565 50.9811 96.6944 50.8189C96.5324 50.6567 96.4414 50.4368 96.4414 50.2075C96.4414 49.9781 96.5324 49.7582 96.6944 49.596C96.8565 49.4339 97.0762 49.3428 97.3053 49.3428H108.104C108.333 49.3428 108.553 49.4339 108.715 49.596C108.877 49.7582 108.968 49.9781 108.968 50.2075C108.968 50.4368 108.877 50.6567 108.715 50.8189C108.553 50.9811 108.333 51.0722 108.104 51.0722Z" fill="#3F3D56"/>
<path d="M91.7649 53.6565H83.8732C83.6156 53.6562 83.3685 53.5536 83.1863 53.3712C83.0041 53.1889 82.9017 52.9416 82.9014 52.6837V43.3624C82.9017 43.1045 83.0041 42.8573 83.1863 42.6749C83.3685 42.4925 83.6156 42.3899 83.8732 42.3896H91.7649C92.0225 42.3899 92.2696 42.4925 92.4518 42.6749C92.634 42.8573 92.7364 43.1045 92.7367 43.3624V52.6837C92.7364 52.9416 92.634 53.1889 92.4518 53.3712C92.2696 53.5536 92.0225 53.6562 91.7649 53.6565Z" fill="#6CD68F"/>
<path d="M108.029 60.3671H83.6242C83.5106 60.3673 83.3981 60.3451 83.2931 60.3017C83.1881 60.2583 83.0927 60.1947 83.0123 60.1143C82.932 60.034 82.8682 59.9386 82.8247 59.8336C82.7812 59.7286 82.7588 59.6161 82.7588 59.5024C82.7588 59.3887 82.7812 59.2761 82.8247 59.1711C82.8682 59.0661 82.932 58.9707 83.0123 58.8904C83.0927 58.8101 83.1881 58.7465 83.2931 58.7031C83.3981 58.6597 83.5106 58.6375 83.6242 58.6377H108.029C108.258 58.6381 108.477 58.7294 108.639 58.8915C108.801 59.0536 108.891 59.2733 108.891 59.5024C108.891 59.7315 108.801 59.9512 108.639 60.1133C108.477 60.2754 108.258 60.3667 108.029 60.3671Z" fill="#CCCCCC"/>
<path d="M108.029 64.9071H83.6242C83.5106 64.9073 83.3981 64.8851 83.2931 64.8417C83.1881 64.7984 83.0927 64.7347 83.0123 64.6544C82.932 64.5741 82.8682 64.4787 82.8247 64.3737C82.7812 64.2687 82.7588 64.1561 82.7588 64.0424C82.7588 63.9287 82.7812 63.8162 82.8247 63.7112C82.8682 63.6062 82.932 63.5108 83.0123 63.4305C83.0927 63.3502 83.1881 63.2865 83.2931 63.2431C83.3981 63.1998 83.5106 63.1775 83.6242 63.1777H108.029C108.258 63.1777 108.478 63.2688 108.64 63.431C108.802 63.5932 108.893 63.8131 108.893 64.0424C108.893 64.2717 108.802 64.4917 108.64 64.6538C108.478 64.816 108.258 64.9071 108.029 64.9071Z" fill="#CCCCCC"/>
<path d="M108.029 69.4471H83.6242C83.5106 69.4473 83.3981 69.4251 83.2931 69.3818C83.1881 69.3384 83.0927 69.2747 83.0123 69.1944C82.932 69.1141 82.8682 69.0187 82.8247 68.9137C82.7812 68.8087 82.7588 68.6961 82.7588 68.5825C82.7588 68.4688 82.7812 68.3562 82.8247 68.2512C82.8682 68.1462 82.932 68.0508 83.0123 67.9705C83.0927 67.8902 83.1881 67.8265 83.2931 67.7832C83.3981 67.7398 83.5106 67.7176 83.6242 67.7178H108.029C108.258 67.7178 108.478 67.8089 108.64 67.971C108.802 68.1332 108.893 68.3531 108.893 68.5825C108.893 68.8118 108.802 69.0317 108.64 69.1939C108.478 69.356 108.258 69.4471 108.029 69.4471Z" fill="#CCCCCC"/>
<path d="M108.029 73.9862H83.6242C83.5106 73.9864 83.3981 73.9642 83.2931 73.9208C83.1881 73.8775 83.0927 73.8138 83.0123 73.7335C82.932 73.6532 82.8682 73.5578 82.8247 73.4528C82.7812 73.3478 82.7588 73.2352 82.7588 73.1215C82.7588 73.0078 82.7812 72.8953 82.8247 72.7903C82.8682 72.6853 82.932 72.5899 83.0123 72.5096C83.0927 72.4293 83.1881 72.3656 83.2931 72.3222C83.3981 72.2789 83.5106 72.2566 83.6242 72.2568H108.029C108.258 72.2568 108.478 72.3479 108.64 72.5101C108.802 72.6723 108.893 72.8922 108.893 73.1215C108.893 73.3509 108.802 73.5708 108.64 73.733C108.478 73.8951 108.258 73.9862 108.029 73.9862Z" fill="#CCCCCC"/>
<path d="M108.029 78.5263H83.6242C83.5106 78.5264 83.3981 78.5042 83.2931 78.4609C83.1881 78.4175 83.0927 78.3538 83.0123 78.2735C82.932 78.1932 82.8682 78.0978 82.8247 77.9928C82.7812 77.8878 82.7588 77.7752 82.7588 77.6616C82.7588 77.5479 82.7812 77.4353 82.8247 77.3303C82.8682 77.2253 82.932 77.1299 83.0123 77.0496C83.0927 76.9693 83.1881 76.9056 83.2931 76.8623C83.3981 76.8189 83.5106 76.7967 83.6242 76.7969H108.029C108.258 76.7973 108.477 76.8885 108.639 77.0507C108.801 77.2128 108.891 77.4325 108.891 77.6616C108.891 77.8906 108.801 78.1103 108.639 78.2725C108.477 78.4346 108.258 78.5259 108.029 78.5263Z" fill="#CCCCCC"/>
<path d="M142.761 54.2454L122.323 73.7217L122.621 74.0348L143.059 54.5586L142.761 54.2454Z" fill="#E6E6E6"/>
<path d="M122.133 74.201L124.727 74.1704L124.722 73.7377L122.592 73.7633L122.723 71.6355L122.291 71.6094L122.133 74.201Z" fill="#E6E6E6"/>
<path d="M143.25 54.0781L143.092 56.67L142.661 56.6441L142.791 54.516L140.661 54.5417L140.656 54.1092L143.25 54.0781Z" fill="#E6E6E6"/>
<path d="M132.691 66.5175C134.003 66.5175 135.067 65.4529 135.067 64.1396C135.067 62.8263 134.003 61.7617 132.691 61.7617C131.379 61.7617 130.315 62.8263 130.315 64.1396C130.315 65.4529 131.379 66.5175 132.691 66.5175Z" fill="#E6E6E6"/>
<path d="M115.369 8.20244L94.9307 27.6787L95.2285 27.9919L115.666 8.5156L115.369 8.20244Z" fill="#E6E6E6"/>
<path d="M94.7393 28.158L97.3334 28.1275L97.3287 27.6947L95.1987 27.7203L95.329 25.5925L94.8974 25.5664L94.7393 28.158Z" fill="#E6E6E6"/>
<path d="M115.856 8.03516L115.699 10.627L115.267 10.6011L115.397 8.47308L113.267 8.49869L113.263 8.0662L115.856 8.03516Z" fill="#E6E6E6"/>
<path d="M105.299 20.4745C106.611 20.4745 107.674 19.4099 107.674 18.0966C107.674 16.7834 106.611 15.7188 105.299 15.7188C103.986 15.7188 102.923 16.7834 102.923 18.0966C102.923 19.4099 103.986 20.4745 105.299 20.4745Z" fill="#E6E6E6"/>
<path d="M197.171 134.743H196.654V137.071H197.171V134.743Z" fill="#3F3D56"/>
</g>
<defs>
<clipPath id="clip0_1364_143">
<rect width="231" height="167" fill="white" transform="translate(0.783203)"/>
</clipPath>
</defs>
</svg>
