<svg width="435" height="344" viewBox="0 0 435 344" fill="none" xmlns="http://www.w3.org/2000/svg">
<g clip-path="url(#clip0_1932_58)">
<g style="mix-blend-mode:multiply" opacity="0.3">
<path d="M205.177 173.539H110.246C107.167 173.539 104.67 176.043 104.67 179.132V218.799C104.67 221.888 107.167 224.392 110.246 224.392H120.105C119.534 228.759 118.783 235.023 119.195 235.023C119.633 235.023 124.416 228.433 127.308 224.392H205.177C208.257 224.392 210.754 221.888 210.754 218.799V179.132C210.754 176.043 208.257 173.539 205.177 173.539Z" fill="#DAEEF7"/>
</g>
<path d="M209.717 162.997H114.784C111.704 162.997 109.207 165.501 109.207 168.59V208.257C109.207 211.346 111.704 213.85 114.784 213.85H124.642C124.071 218.217 123.32 224.481 123.732 224.481C124.17 224.481 128.953 217.891 131.845 213.85H209.715C212.794 213.85 215.291 211.346 215.291 208.257V168.59C215.291 165.501 212.794 162.997 209.715 162.997H209.717Z" fill="#FEB546"/>
<path d="M137.473 198.481C142.933 193.005 142.933 184.126 137.473 178.65C132.013 173.174 123.16 173.174 117.699 178.65C112.239 184.126 112.239 193.005 117.699 198.481C123.16 203.957 132.013 203.957 137.473 198.481Z" fill="white"/>
<path d="M129.796 195.629H125.691V199.741H129.796V195.629Z" fill="#FFC0BB"/>
<path d="M129.8 198.095V195.631H125.695V197.727C126.58 198.203 127.888 198.475 129.8 198.095Z" fill="#F99893"/>
<path d="M136.272 188.271C135.844 188.06 135.345 188.097 134.896 188.325C135.05 184.27 131.746 180.857 127.585 181C123.425 180.857 120.12 184.267 120.275 188.325C119.826 188.097 119.327 188.06 118.899 188.271C118.078 188.677 117.822 189.839 118.328 190.869C118.836 191.897 119.912 192.402 120.734 191.996C120.848 191.939 120.949 191.867 121.042 191.784C121.513 195.138 124.307 197.652 127.585 197.605C130.864 197.652 133.658 195.138 134.128 191.784C134.22 191.867 134.323 191.939 134.437 191.996C135.259 192.402 136.335 191.897 136.843 190.869C137.348 189.841 137.093 188.677 136.272 188.271Z" fill="#FFC0BB"/>
<path d="M122.587 179.395C122.587 179.395 124.646 177.646 129.331 177.928C134.014 178.21 134.905 180.662 135.172 184.161L134.898 188.327C134.898 188.327 133.681 187.074 132.099 183.596C132.099 183.596 129.479 186.546 128.337 186.196C127.195 185.847 128.77 183.723 128.77 183.723C128.77 183.723 123.427 188.332 120.282 188.325C120.282 188.325 118.616 182.929 120.954 180.951C120.954 180.951 119.194 181.035 119.1 180.688C119.007 180.341 119.94 179.822 121.632 180.017C121.632 180.017 120.427 177.651 121.101 177.405C121.775 177.158 122.594 179.393 122.594 179.393L122.587 179.395Z" fill="#07085B"/>
<path d="M130.271 193.063C130.091 193.876 129.162 194.516 128.024 194.551C126.887 194.587 125.921 194.005 125.691 193.204L130.271 193.063Z" fill="white"/>
<path d="M146.929 174.427H201.474C201.779 174.427 202.024 174.673 202.024 174.978V176.311C202.024 176.616 201.779 176.863 201.474 176.863H146.929C146.625 176.863 146.379 176.616 146.379 176.311V174.978C146.379 174.673 146.625 174.427 146.929 174.427Z" fill="white"/>
<path d="M146.929 180.857H158.969C159.273 180.857 159.519 181.104 159.519 181.409V182.742C159.519 183.047 159.273 183.294 158.969 183.294H146.929C146.625 183.294 146.379 183.047 146.379 182.742V181.409C146.379 181.104 146.625 180.857 146.929 180.857Z" fill="white"/>
<path d="M201.479 180.857H165.032C164.729 180.857 164.482 181.104 164.482 181.409V182.742C164.482 183.047 164.729 183.294 165.032 183.294H201.479C201.783 183.294 202.029 183.047 202.029 182.742V181.409C202.029 181.104 201.783 180.857 201.479 180.857Z" fill="white"/>
<path d="M146.929 187.287H174.575C174.879 187.287 175.125 187.534 175.125 187.839V189.172C175.125 189.477 174.879 189.723 174.575 189.723H146.929C146.625 189.723 146.379 189.477 146.379 189.172V187.839C146.379 187.534 146.625 187.287 146.929 187.287Z" fill="white"/>
<path d="M179.882 187.287H201.476C201.781 187.287 202.026 187.534 202.026 187.839V189.172C202.026 189.477 201.781 189.723 201.476 189.723H179.882C179.578 189.723 179.332 189.477 179.332 189.172V187.839C179.332 187.534 179.578 187.287 179.882 187.287Z" fill="white"/>
<path d="M146.929 193.716H201.474C201.779 193.716 202.024 193.962 202.024 194.267V195.6C202.024 195.905 201.779 196.152 201.474 196.152H146.929C146.625 196.152 146.379 195.905 146.379 195.6V194.267C146.379 193.962 146.625 193.716 146.929 193.716Z" fill="white"/>
<path d="M255.977 112.762L259.436 134.517L266.744 105.512C266.744 105.512 256.501 100.527 256.05 102.339C255.598 104.151 255.977 112.762 255.977 112.762Z" fill="#07085B"/>
<path d="M314.112 159.587L317.273 197.198L284.18 195.612L287.996 162.305L314.112 159.587Z" fill="#FFC0BB"/>
<path d="M286.182 178.146L287.995 162.307L314.111 159.587L315.206 172.612C310.013 177.801 300.676 183.18 286.182 178.146Z" fill="#F99893"/>
<path d="M265.891 134.245C267.88 138.373 266.824 143.013 263.532 144.609C260.239 146.205 255.957 144.154 253.968 140.026C251.979 135.897 253.034 131.257 256.327 129.662C259.619 128.066 263.901 130.117 265.891 134.245Z" fill="#F99893"/>
<path d="M265.651 153.328C263.283 148.007 261.898 142.285 261.088 137.268C260.915 136.19 260.679 135.127 260.426 134.069C259.396 129.788 259.122 125.2 259.836 120.417C262.136 105.028 274.48 92.7586 289.853 90.6276C310.56 87.7574 328.801 103.132 330.088 123.498C332.218 122.128 334.68 121.687 336.924 122.524C341.23 124.134 343.095 129.816 341.089 135.214C339.084 140.612 333.966 143.684 329.658 142.074C329.059 141.851 328.514 141.541 328.015 141.173C327.35 158.613 314.04 172.889 297.041 173.687C288.729 174.077 280.995 171.171 274.993 166.081C271.146 163.246 267.516 157.73 265.651 153.328Z" fill="#FFC0BB"/>
<path d="M286.868 125.896C286.8 127.929 286.783 129.912 286.68 131.855C286.561 133.653 286.364 136.235 285.248 137.605C285.082 137.84 284.207 138.79 284.186 140.231C284.139 141.576 284.848 142.778 285.73 143.515C287.537 145.038 289.877 145.183 291.815 144.705C289.837 144.355 287.942 143.672 286.839 142.376C286.329 141.733 285.99 141.013 286.109 140.339C286.198 139.565 286.627 139.161 286.783 138.927C287.333 138.197 287.993 137.436 288.276 134.953C288.375 133.888 288.361 132.853 288.262 131.827C288.066 129.785 287.63 127.79 286.87 125.896H286.868Z" fill="#F99893"/>
<path d="M298.595 128.582C298.675 130.29 300.121 131.609 301.822 131.529C303.523 131.45 304.841 129.999 304.761 128.293C304.682 126.584 303.236 125.265 301.534 125.345C299.831 125.425 298.516 126.875 298.595 128.582Z" fill="#333333"/>
<path d="M272.199 131.567C272.278 133.276 273.724 134.594 275.426 134.515C277.129 134.435 278.445 132.984 278.365 131.278C278.285 129.57 276.839 128.251 275.138 128.331C273.434 128.41 272.119 129.861 272.199 131.567Z" fill="#333333"/>
<path d="M303.775 149.539C300.633 152.285 296.547 154.43 292.487 154.923C288.097 155.479 284.219 154.137 280.484 151.828C283.964 154.759 287.994 156.245 292.587 155.728C297.062 155.144 301.243 152.56 303.778 149.537L303.775 149.539Z" fill="#F99893"/>
<path d="M294.721 121.591C299.071 120.243 301.533 120.166 303.522 120.41C307.858 120.994 310.299 122.917 311.815 123.583C309.99 120.211 307.184 118.413 303.796 117.988C300.124 117.547 296.532 119.211 294.723 121.591H294.721Z" fill="#07085B"/>
<path d="M281.125 123.126C278.895 121.15 275.053 120.206 271.526 121.358C268.292 122.431 265.882 124.736 264.742 128.408C266.104 127.458 268.119 125.099 272.263 123.679C274.161 123.055 276.588 122.647 281.125 123.123V123.126Z" fill="#07085B"/>
<path d="M280.485 182.2C280.485 182.2 249.34 186.166 241.431 192.611C233.521 199.055 195.457 293.751 195.457 293.751L227.095 330.935L294.327 331.43C294.327 331.43 344.749 358.699 376.387 332.918C408.025 307.137 391.712 217.401 373.422 198.067C355.132 178.731 322.504 179.229 322.504 179.229C322.504 179.229 292.843 200.05 280.485 182.202V182.2Z" fill="#02CCC0"/>
<path d="M340.795 229.3C339.681 234.461 339 239.699 338.513 244.954C338.244 247.58 338.13 250.22 337.978 252.856C337.898 255.496 337.837 258.139 337.875 260.786C337.978 266.071 338.265 271.375 339.173 276.611C340.058 281.826 341.345 287.057 343.762 291.767C342.136 286.743 341.331 281.577 340.746 276.395C340.173 271.211 339.974 265.982 339.908 260.758C339.801 255.531 339.927 250.293 340.093 245.052C340.278 239.812 340.517 234.566 340.795 229.3Z" fill="white"/>
<path d="M247.612 225.829C246.189 233.511 244.682 241.161 243.152 248.801C241.589 256.433 239.969 264.051 238.127 271.608C236.307 279.167 234.283 286.68 231.835 294.042C230.609 297.724 229.24 301.355 227.634 304.88C226.053 308.412 224.176 311.831 221.66 314.821C224.522 312.141 226.626 308.745 228.526 305.326C230.37 301.857 231.959 298.255 233.328 294.579C234.727 290.913 235.928 287.18 237.065 283.432C238.163 279.672 239.167 275.886 240.103 272.087C240.996 268.278 241.853 264.459 242.621 260.627C243.362 256.787 244.092 252.948 244.706 249.087C245.979 241.375 246.968 233.618 247.612 225.829Z" fill="white"/>
<path d="M231.96 309.503C232.159 307.933 244.039 306.18 248.406 305.955C251.715 305.783 273.649 305.049 281.109 304.711L280.561 306.635L280.674 315.131L281.9 320.761C275.355 321.177 259.353 321.806 256.021 322.465C251.57 323.348 243.85 326.713 243.85 326.713C243.85 326.713 240.639 325.981 244.72 324.216C247.996 322.799 250.297 320.602 251.268 319.511C251.827 318.882 251.221 317.764 250.814 317.87C239.705 320.79 238.561 321.273 238.561 321.273C238.561 321.273 225.503 321.2 238.486 318.257C246.269 316.492 249.057 315.469 249.752 314.591C250.046 314.218 249.52 312.949 249.045 312.92C242.303 312.503 230.2 314.899 233.516 313.329C236.219 312.047 244.732 310.642 248.043 310.114C248.247 310.081 248.574 308.844 247.671 308.769C241.25 308.231 231.775 310.963 231.96 309.503Z" fill="#FFC0BB"/>
<path d="M340.218 292.474C337.492 293.127 334.726 293.601 331.988 294.18C326.477 295.187 320.95 296.067 315.404 296.846C309.853 297.576 304.293 298.25 298.721 298.79C293.17 299.341 287.524 299.815 282.029 300.125L281.29 300.167L281.128 300.81C280.655 302.679 280.349 304.502 280.115 306.37C279.881 308.231 279.785 310.109 279.787 311.986C279.804 313.866 279.965 315.746 280.272 317.607C280.613 319.466 281.161 321.285 281.898 323.029L281.961 323.179L282.08 323.259L288.186 327.366C290.219 328.736 292.262 330.097 294.324 331.43C292.41 329.891 290.477 328.38 288.537 326.88L282.857 322.482C282.27 320.834 281.851 319.133 281.619 317.391C281.404 315.605 281.304 313.805 281.357 311.998C281.416 310.193 281.594 308.391 281.846 306.6C282.073 305.047 282.375 303.479 282.759 301.979C285.394 301.892 287.919 301.721 290.507 301.531C293.315 301.322 296.121 301.099 298.92 300.803C304.52 300.224 310.108 299.522 315.668 298.632C321.226 297.734 326.758 296.645 332.236 295.347C334.965 294.647 337.698 293.974 340.384 293.122C343.092 292.359 345.748 291.406 348.392 290.463C345.659 291.129 342.963 291.897 340.216 292.472L340.218 292.474Z" fill="white"/>
<path d="M101.6 246.404H207.553C210.804 246.404 213.731 248.376 214.965 251.391L247.408 330.811H305.988C307.626 330.811 308.953 332.141 308.953 333.784C308.953 335.427 307.626 336.758 305.988 336.758H136.866C133.742 336.758 130.91 334.918 129.633 332.059L95.5279 255.808C93.5528 251.391 96.7751 246.399 101.6 246.399V246.404Z" fill="#07085B"/>
<path d="M255.314 92.1772C255.314 92.1772 244.931 92.5129 255.827 83.7073C266.722 74.9017 295.974 64.5776 314.725 74.5074C314.725 74.5074 318.474 66.5115 323.893 68.4219C329.313 70.3299 320.369 75.831 320.369 75.831C320.369 75.831 327.291 75.6081 329.402 79.0135C330.963 81.5317 326.725 81.642 324.408 81.527C328.349 82.1982 343.454 91.7665 335.872 122.314C333.177 121.72 317.821 99.3893 317.821 99.3893C317.821 99.3893 282.705 118.955 286.178 103.398C286.178 103.398 249.796 126.167 254.959 107.359C254.959 107.359 240.89 108.394 255.31 92.1796L255.314 92.1772Z" fill="#07085B"/>
<path d="M335.905 122.499C335.905 122.499 332.997 121.473 329.87 123.963C326.744 126.451 327.09 135.198 327.09 135.198C327.09 135.198 312.163 144.851 313.735 104C315.411 60.5405 326.187 107.486 326.187 107.486L335.905 122.496V122.499Z" fill="#07085B"/>
<g style="mix-blend-mode:multiply" opacity="0.3">
<path d="M136.691 83.4912H27.9625C24.2066 83.4912 21.1621 86.5445 21.1621 90.3113V135.311C21.1621 139.078 24.2066 142.131 27.9625 142.131H113.564C117.027 146.98 123.31 155.661 123.865 155.661C124.384 155.661 123.385 147.461 122.681 142.131H136.691C140.447 142.131 143.491 139.078 143.491 135.311V90.3113C143.491 86.5445 140.447 83.4912 136.691 83.4912Z" fill="#DAEEF7"/>
</g>
<path d="M132.201 71.8203H23.4722C19.7164 71.8203 16.6719 74.8736 16.6719 78.6404V123.64C16.6719 127.407 19.7164 130.46 23.4722 130.46H109.076C112.539 135.309 118.822 143.99 119.377 143.99C119.896 143.99 118.897 135.79 118.193 130.46H132.203C135.959 130.46 139.003 127.407 139.003 123.64V78.6404C139.003 74.8736 135.959 71.8203 132.203 71.8203H132.201Z" fill="#F9AB3F"/>
<path d="M46.5883 116.915C55.2735 113.27 59.3676 103.253 55.7327 94.543C52.0978 85.8325 42.1104 81.7265 33.4252 85.372C24.74 89.0174 20.6459 99.0339 24.2808 107.744C27.9157 116.455 37.9031 120.561 46.5883 116.915Z" fill="white"/>
<path d="M31.1329 101.588C31.1329 101.588 29.4434 94.632 33.4707 92.027C37.498 89.4219 41.7968 88.8258 44.736 90.3255C48.8101 92.4072 50.4833 98.028 49.1798 101.14L38.3686 98.4176L31.1353 101.591L31.1329 101.588Z" fill="#040744"/>
<path d="M42.7067 109.756H37.7012V114.769H42.7067V109.756Z" fill="#FFC0BB"/>
<path d="M42.7067 112.76V109.756H37.7012V112.312C38.7776 112.891 40.3736 113.225 42.7067 112.76Z" fill="#F99893"/>
<path d="M50.5995 100.784C50.0776 100.526 49.4715 100.572 48.9216 100.849C49.1111 95.9045 45.0815 91.7434 40.0081 91.9195C34.9348 91.7434 30.9075 95.9045 31.0947 100.849C30.5471 100.57 29.9387 100.526 29.4168 100.784C28.4152 101.279 28.104 102.696 28.7218 103.952C29.3396 105.205 30.6524 105.823 31.654 105.327C31.792 105.259 31.9184 105.17 32.0284 105.069C32.6017 109.157 36.0089 112.223 40.0058 112.166C44.0027 112.223 47.4099 109.157 47.9832 105.069C48.0955 105.17 48.2196 105.259 48.3576 105.327C49.3592 105.823 50.672 105.208 51.2898 103.952C51.9076 102.699 51.5963 101.279 50.5948 100.784H50.5995Z" fill="#FFC0BB"/>
<path d="M43.2847 106.625C43.0647 107.615 41.9321 108.395 40.5467 108.439C39.1591 108.481 37.982 107.773 37.7012 106.796L43.2847 106.625Z" fill="white"/>
<path d="M31.096 100.85C31.096 100.85 37.6483 98.8593 40.5149 95.5361C40.5149 95.5361 39.7029 99.5399 39.0992 100.178C39.2911 100.305 45.6421 97.2095 46.5056 94.3509C47.3691 91.4924 40.0118 90.4668 40.0118 90.4668C40.0118 90.4668 37.4915 91.544 37.3628 91.6074C37.2364 91.6708 34.8706 91.9477 34.5991 92.5532C34.2458 93.3394 32.5773 93.4098 32.5773 93.4098L31.5242 95.6089L30.7871 97.9229L31.1007 100.85H31.096Z" fill="#040744"/>
<path d="M25.7285 91.7993C27.1747 92.3837 28.8479 92.6536 30.5796 92.1185C34.4033 90.9403 35.9173 91.398 36.4251 91.6867C36.7317 91.8603 37.0944 91.9284 37.429 91.8181C37.8058 91.6913 38.1568 91.3487 38.0468 90.485C38.0468 90.485 38.1989 86.8426 35.0843 84.7656C31.1997 85.9391 27.9001 88.4644 25.7285 91.797V91.7993Z" fill="#040744"/>
<path d="M33.9563 91.5601C33.844 91.4099 33.8791 91.1939 34.0359 91.0907C34.6747 90.6706 36.3175 89.7224 38.2902 89.6215C38.4751 89.6121 38.6295 89.7623 38.6295 89.9477C38.6295 90.1214 38.4938 90.2622 38.3206 90.2716C36.5187 90.3655 34.9719 91.2573 34.3892 91.6375C34.2465 91.729 34.0569 91.6962 33.9563 91.5601Z" fill="#FEB546"/>
<path d="M82.5463 86.4111H61.0525C60.6816 86.4111 60.3809 86.7127 60.3809 87.0847V88.7088C60.3809 89.0808 60.6816 89.3823 61.0525 89.3823H82.5463C82.9173 89.3823 83.218 89.0808 83.218 88.7088V87.0847C83.218 86.7127 82.9173 86.4111 82.5463 86.4111Z" fill="white"/>
<path d="M75.1352 94.25H61.0525C60.6816 94.25 60.3809 94.5516 60.3809 94.9236V96.5476C60.3809 96.9196 60.6816 97.2212 61.0525 97.2212H75.1352C75.5062 97.2212 75.8068 96.9196 75.8068 96.5476V94.9236C75.8068 94.5516 75.5062 94.25 75.1352 94.25Z" fill="white"/>
<path d="M96.7781 94.25H79.1384C78.7675 94.25 78.4668 94.5516 78.4668 94.9236V96.5476C78.4668 96.9196 78.7675 97.2212 79.1384 97.2212H96.7781C97.149 97.2212 97.4497 96.9196 97.4497 96.5476V94.9236C97.4497 94.5516 97.149 94.25 96.7781 94.25Z" fill="white"/>
<path d="M125.031 86.4111H87.6755C87.3046 86.4111 87.0039 86.7127 87.0039 87.0847V88.7088C87.0039 89.0808 87.3046 89.3823 87.6755 89.3823H125.031C125.402 89.3823 125.702 89.0808 125.702 88.7088V87.0847C125.702 86.7127 125.402 86.4111 125.031 86.4111Z" fill="white"/>
<path d="M125.031 109.617H61.0525C60.6816 109.617 60.3809 109.919 60.3809 110.291V111.915C60.3809 112.287 60.6816 112.588 61.0525 112.588H125.031C125.402 112.588 125.703 112.287 125.703 111.915V110.291C125.703 109.919 125.402 109.617 125.031 109.617Z" fill="white"/>
<path d="M93.4536 102.091H61.0525C60.6816 102.091 60.3809 102.392 60.3809 102.764V104.388C60.3809 104.76 60.6816 105.062 61.0525 105.062H93.4536C93.8245 105.062 94.1252 104.76 94.1252 104.388V102.764C94.1252 102.392 93.8245 102.091 93.4536 102.091Z" fill="white"/>
<path d="M125.031 102.091H99.7341C99.3632 102.091 99.0625 102.392 99.0625 102.764V104.388C99.0625 104.76 99.3632 105.062 99.7341 105.062H125.031C125.402 105.062 125.702 104.76 125.702 104.388V102.764C125.702 102.392 125.402 102.091 125.031 102.091Z" fill="white"/>
<path d="M162.652 300.75C166.27 299.984 168.356 295.34 167.312 290.376C166.268 285.412 162.489 282.008 158.871 282.773C155.253 283.539 153.167 288.183 154.211 293.147C155.254 298.111 159.034 301.515 162.652 300.75Z" fill="white"/>
<path d="M125.279 22.7748L127.547 39.9026L115.416 31.0172L78.2852 11.9932L107.005 14.6311C107.005 14.6311 121.636 18.196 122.429 18.9142C123.22 19.6323 125.282 22.7748 125.282 22.7748H125.279Z" fill="#C12F56"/>
<path d="M137.998 12.4297L78.2852 11.9932L125.279 22.7748L137.998 12.4297Z" fill="#FF5B7E"/>
<path d="M106.083 40.0058L121.732 27.4006L78.2852 11.9932L106.083 40.0058Z" fill="#FF5B7E"/>
<path d="M199.134 115.351L198.346 114.182C199.553 113.363 200.658 112.361 201.631 111.199L202.708 112.107C201.65 113.368 200.447 114.459 199.134 115.351Z" fill="#FEB546"/>
<path d="M207.035 103.856L205.694 103.433C206.508 100.83 207.047 97.878 207.295 94.6533L208.696 94.7613C208.441 98.0915 207.882 101.152 207.037 103.856H207.035ZM208.647 85.545L207.248 85.6881C207.208 85.3009 207.164 84.9137 207.112 84.5288C206.939 83.2169 206.689 81.8909 206.368 80.5883C206.073 79.3867 205.71 78.1781 205.294 76.9952L206.621 76.5235C207.054 77.7509 207.428 79.0065 207.735 80.2504C208.067 81.6022 208.327 82.9798 208.509 84.3434C208.561 84.733 208.608 85.139 208.65 85.5473L208.647 85.545ZM201.435 68.9359C199.933 66.474 198.138 64.0497 196.104 61.7333L197.16 60.8016C199.247 63.179 201.089 65.669 202.636 68.199L201.435 68.9359ZM157.5 65.5986C156.542 65.8357 154.102 65.8897 152.536 64.9532C151.366 64.2539 150.39 63.1532 149.719 61.7755L150.982 61.1559C151.544 62.3059 152.309 63.1766 153.257 63.7422C154.385 64.4181 156.4 64.4181 157.163 64.2304C157.266 64.2046 157.303 64.1858 157.303 64.1858C157.362 64.1482 157.434 64.1013 157.504 64.0544L158.286 65.2278C158.206 65.2818 158.124 65.3334 158.043 65.3851C157.904 65.4719 157.727 65.5423 157.5 65.5986ZM189.697 55.4389C187.46 53.5285 185.036 51.7143 182.497 50.048L183.267 48.8676C185.857 50.5667 188.326 52.4161 190.61 54.364L189.697 55.4389ZM163.352 57.3023L161.976 57.0137C162.159 56.1453 162.25 55.2582 162.252 54.3804C162.255 53.1413 162.098 51.8645 161.782 50.5808C161.611 49.8838 161.389 49.1726 161.127 48.4686L162.442 47.9734C162.725 48.7291 162.961 49.4942 163.146 50.2428C163.49 51.6369 163.661 53.031 163.659 54.3851C163.656 55.3591 163.553 56.3424 163.352 57.3047V57.3023ZM150.989 52.9629L149.721 52.3551C150.994 49.6819 153.39 47.3421 156.29 45.9316L156.484 45.84L157.083 47.1168L156.905 47.2012C154.287 48.4733 152.129 50.5737 150.992 52.9629H150.989ZM174.318 46.638C171.767 45.8565 169.743 45.3824 168.763 45.3355C167.639 45.2815 166.61 45.2697 165.62 45.3003L165.578 43.8898C166.605 43.8593 167.67 43.871 168.83 43.925C170.326 43.9954 173.167 44.8098 174.73 45.2885L174.32 46.638H174.318ZM156.566 40.9303C154.649 38.6773 152.405 36.72 149.899 35.1123L150.657 33.9248C153.28 35.6075 155.63 37.6564 157.635 40.015L156.566 40.9303Z" fill="#FEB546"/>
<path d="M141.832 31.5005C140.353 31.0921 138.86 30.8105 137.393 30.6603L137.535 29.2568C139.08 29.4141 140.652 29.7121 142.206 30.1393L141.834 31.4981L141.832 31.5005Z" fill="#FEB546"/>
<path d="M77.314 230.914C77.314 230.914 76.7969 236.033 72.7695 236.387C76.7969 236.741 77.314 241.86 77.314 241.86C77.314 241.86 77.8312 236.741 81.8585 236.387C77.8312 236.033 77.314 230.914 77.314 230.914Z" fill="#FF5B7E"/>
<path d="M228.907 157.963C228.907 157.963 228.084 166.111 221.672 166.675C228.084 167.238 228.907 175.386 228.907 175.386C228.907 175.386 229.731 167.238 236.143 166.675C229.731 166.111 228.907 157.963 228.907 157.963Z" fill="#02CCC0"/>
<path d="M7.23561 59.5312C7.23561 59.5312 6.41189 67.6797 0 68.243C6.41189 68.8062 7.23561 76.9547 7.23561 76.9547C7.23561 76.9547 8.05933 68.8062 14.4712 68.243C8.05933 67.6797 7.23561 59.5312 7.23561 59.5312Z" fill="#02CCC0"/>
<path d="M162.262 127.694C162.262 127.694 161.633 134.913 156.744 135.413C161.635 135.913 162.262 143.132 162.262 143.132C162.262 143.132 162.892 135.913 167.78 135.413C162.889 134.913 162.262 127.694 162.262 127.694Z" fill="#FEB546"/>
<path d="M35.3949 22.1426C35.3949 22.1426 34.7654 29.3617 29.877 29.8615C34.7678 30.3614 35.3949 37.5805 35.3949 37.5805C35.3949 37.5805 36.0244 30.3614 40.9129 29.8615C36.0221 29.3617 35.3949 22.1426 35.3949 22.1426Z" fill="#FEB546"/>
<path d="M388.448 84.1506C414.158 84.1506 435 65.3129 435 42.0753C435 18.8378 414.158 0 388.448 0C362.738 0 341.896 18.8378 341.896 42.0753C341.896 65.3129 362.738 84.1506 388.448 84.1506Z" fill="#E6F7FF"/>
<path d="M359.813 90.4451C359.813 93.482 357.089 95.9439 353.731 95.9439C350.373 95.9439 347.646 93.482 347.646 90.4451C347.646 87.4082 350.37 84.9463 353.731 84.9463C357.091 84.9463 359.813 87.4082 359.813 90.4451Z" fill="#E6F7FF"/>
<path d="M409.521 35.1123C408.536 29.6393 404.775 25.1919 399.054 24.7765C391.874 24.2555 389.052 30.7564 388.537 31.3572C388.207 30.9653 386.719 27.107 382.678 25.3163C376.065 22.3873 368.05 26.9286 367.146 36.6049C366.678 41.6202 368.146 45.4292 370.987 49.426C375.065 55.1642 382.172 61.3553 387.826 65.5422C388.037 65.6971 388.179 65.6971 388.383 65.5422C391.42 63.2423 401.731 56.1288 407.015 47.8583C409.519 43.9366 410.345 39.684 409.521 35.1099V35.1123Z" fill="#FF5B7E"/>
</g>
<defs>
<clipPath id="clip0_1932_58">
<rect width="435" height="344" fill="white"/>
</clipPath>
</defs>
</svg>
