<svg width="15" height="20" viewBox="0 0 15 20" fill="none" xmlns="http://www.w3.org/2000/svg">
<path d="M7.31055 12.0186C8.97055 12.0186 10.3005 10.6786 10.3005 9.01855L10.3105 3.01855C10.3105 1.35855 8.97055 0.0185547 7.31055 0.0185547C5.65055 0.0185547 4.31055 1.35855 4.31055 3.01855V9.01855C4.31055 10.6786 5.65055 12.0186 7.31055 12.0186ZM6.11055 2.91855C6.11055 2.25855 6.65055 1.71855 7.31055 1.71855C7.97055 1.71855 8.51055 2.25855 8.51055 2.91855L8.50055 9.11856C8.50055 9.77856 7.97055 10.3186 7.31055 10.3186C6.65055 10.3186 6.11055 9.77856 6.11055 9.11856V2.91855ZM12.6105 9.01855C12.6105 12.0186 10.0705 14.1186 7.31055 14.1186C4.55055 14.1186 2.01055 12.0186 2.01055 9.01855H0.310547C0.310547 12.4286 3.03055 15.2486 6.31055 15.7386V19.0186H8.31055V15.7386C11.5905 15.2586 14.3105 12.4386 14.3105 9.01855H12.6105Z" fill="black"/>
</svg>
