<svg width="17" height="20" viewBox="0 0 17 20" fill="none" xmlns="http://www.w3.org/2000/svg">
<path d="M8.2168 19.9814C9.3168 19.9814 10.2168 19.0814 10.2168 17.9814H6.2168C6.2168 19.0814 7.1168 19.9814 8.2168 19.9814ZM14.2168 13.9814V8.98145C14.2168 5.91145 12.5868 3.34145 9.7168 2.66145V1.98145C9.7168 1.15145 9.0468 0.481445 8.2168 0.481445C7.3868 0.481445 6.7168 1.15145 6.7168 1.98145V2.66145C3.8568 3.34145 2.2168 5.90145 2.2168 8.98145V13.9814L0.216797 15.9814V16.9814H16.2168V15.9814L14.2168 13.9814ZM12.2168 14.9814H4.2168V8.98145C4.2168 6.50145 5.7268 4.48145 8.2168 4.48145C10.7068 4.48145 12.2168 6.50145 12.2168 8.98145V14.9814Z" fill="#072C1F"/>
</svg>
