<svg width="18" height="18" viewBox="0 0 18 18" fill="none" xmlns="http://www.w3.org/2000/svg">
<path d="M12.9717 11.498H12.1817L11.9017 11.228C12.8817 10.088 13.4717 8.60805 13.4717 6.99805C13.4717 3.40805 10.5617 0.498047 6.97168 0.498047C3.38168 0.498047 0.47168 3.40805 0.47168 6.99805C0.47168 10.588 3.38168 13.498 6.97168 13.498C8.58168 13.498 10.0617 12.908 11.2017 11.928L11.4717 12.208V12.998L16.4717 17.988L17.9617 16.498L12.9717 11.498ZM6.97168 11.498C4.48168 11.498 2.47168 9.48805 2.47168 6.99805C2.47168 4.50805 4.48168 2.49805 6.97168 2.49805C9.46168 2.49805 11.4717 4.50805 11.4717 6.99805C11.4717 9.48805 9.46168 11.498 6.97168 11.498Z" fill="#072C1F"/>
</svg>
