<svg width="42" height="40" viewBox="0 0 42 40" fill="none" xmlns="http://www.w3.org/2000/svg">
<ellipse cx="21.2053" cy="20" rx="20.3518" ry="20" fill="#38D8A2"/>
<path d="M21.7916 22.8821C20.8918 22.8821 20.1383 22.5914 19.5314 22.0102C18.9245 21.4289 18.6211 20.7258 18.6211 19.9008V12.8414C18.6211 12.0539 18.9298 11.3883 19.5471 10.8446C20.1645 10.3008 20.9127 10.0289 21.7916 10.0289C22.6706 10.0289 23.4188 10.3008 24.0362 10.8446C24.6535 11.3883 24.9622 12.0539 24.9622 12.8414V19.9008C24.9622 20.7258 24.6588 21.4289 24.0519 22.0102C23.445 22.5914 22.6915 22.8821 21.7916 22.8821ZM20.8499 31.4039V27.5789C18.6315 27.3727 16.769 26.5383 15.2622 25.0758C13.7554 23.6133 13.002 21.8883 13.002 19.9008H14.8855C14.8855 21.6071 15.5604 23.0414 16.9102 24.2039C18.2601 25.3664 19.8872 25.9477 21.7916 25.9477C23.6961 25.9477 25.3232 25.3664 26.6731 24.2039C28.0229 23.0414 28.6978 21.6071 28.6978 19.9008H30.5813C30.5813 21.8883 29.8279 23.6133 28.3211 25.0758C26.8143 26.5383 24.9518 27.3727 22.7334 27.5789V31.4039H20.8499ZM21.7916 21.1946C22.1684 21.1946 22.477 21.068 22.7177 20.8149C22.9584 20.5617 23.0787 20.2571 23.0787 19.9008V12.8414C23.0787 12.5227 22.9531 12.2555 22.702 12.0399C22.4509 11.8242 22.1474 11.7164 21.7916 11.7164C21.4359 11.7164 21.1324 11.8242 20.8813 12.0399C20.6302 12.2555 20.5046 12.5227 20.5046 12.8414V19.9008C20.5046 20.2571 20.6249 20.5617 20.8656 20.8149C21.1063 21.068 21.4149 21.1946 21.7916 21.1946Z" fill="white"/>
</svg>
