<svg width="27" height="27" viewBox="0 0 27 27" fill="none" xmlns="http://www.w3.org/2000/svg">
<circle cx="13.5" cy="13.5" r="13.5" fill="#E2E6E4"/>
<path d="M9 17.9999H9.73333L17.1167 10.6165L16.3833 9.8832L9 17.2665V17.9999ZM19.2333 9.89987L17.1 7.76654L17.8 7.06654C17.9889 6.87765 18.2222 6.7832 18.5 6.7832C18.7778 6.7832 19.0111 6.87765 19.2 7.06654L19.9333 7.79987C20.1222 7.98876 20.2167 8.22209 20.2167 8.49987C20.2167 8.77765 20.1222 9.01098 19.9333 9.19987L19.2333 9.89987ZM18.5333 10.5999L10.1333 18.9999H8V16.8665L16.4 8.46654L18.5333 10.5999ZM16.75 10.2499L16.3833 9.8832L17.1167 10.6165L16.75 10.2499Z" fill="#393535"/>
</svg>
