<svg width="197" height="131" viewBox="0 0 197 131" fill="none" xmlns="http://www.w3.org/2000/svg">
<path d="M165.514 75.0655C165.334 76.9845 165.83 78.9063 166.918 80.4992C168.006 82.092 169.618 83.256 171.474 83.7901C170.872 90.0938 170.27 96.3976 169.667 102.701L163.229 102.088L162.762 106.993L165.262 107.231L165.05 109.461L167.374 109.681L167.188 111.643L164.506 111.381L164.343 113.076L168.632 113.49L168.569 114.135C168.496 114.921 169.273 115.707 170.053 115.686C170.453 115.686 170.838 115.533 171.128 115.258C171.417 114.983 171.589 114.607 171.608 114.208C172.367 106.28 173.125 98.3512 173.883 90.4213L174.49 84.0757C176.057 83.9368 177.552 83.3554 178.8 82.3997C180.048 81.444 180.997 80.1535 181.537 78.6792C182.076 77.2049 182.183 75.6079 181.846 74.075C181.508 72.5422 180.74 71.137 179.631 70.0239C178.522 68.9108 177.117 68.1358 175.583 67.7898C174.048 67.4437 172.446 67.5408 170.965 68.0698C169.484 68.5987 168.184 69.5376 167.218 70.7766C166.253 72.0155 165.661 73.5032 165.512 75.0655H165.514ZM169.838 71.1172C170.618 70.4744 171.545 70.0334 172.537 69.8334C173.529 69.6334 174.556 69.6804 175.525 69.9704C176.494 70.2604 177.377 70.7844 178.095 71.4959C178.813 72.2074 179.344 73.0846 179.64 74.0496C179.937 75.0147 179.991 76.0379 179.797 77.0285C179.603 78.0192 179.166 78.9469 178.527 79.7293C177.887 80.5117 177.064 81.1247 176.131 81.514C175.197 81.9034 174.181 82.057 173.174 81.9614C171.962 81.8463 170.812 81.3754 169.868 80.6082C168.925 79.8409 168.23 78.8118 167.873 77.651C167.516 76.4902 167.512 75.2499 167.862 74.0869C168.212 72.9238 168.899 71.8904 169.838 71.1172Z" fill="#E0E0E0"/>
<path d="M174.283 39.3549L174.808 38.0318C175.246 36.8745 175.205 35.5911 174.694 34.464C174.184 33.3368 173.245 32.4583 172.085 32.0216C170.924 31.5848 169.638 31.6257 168.508 32.1353C167.378 32.6448 166.497 33.5812 166.059 34.7385L165.534 36.0878C164.918 35.9526 164.274 36.0442 163.721 36.3456C163.167 36.6471 162.742 37.1381 162.523 37.7279L159.563 45.5748C159.322 46.2226 159.347 46.9394 159.632 47.569C159.918 48.1986 160.442 48.69 161.089 48.9363L169.258 52.0043C169.908 52.2452 170.626 52.2205 171.257 51.9353C171.889 51.6502 172.381 51.1279 172.628 50.4821L175.591 42.6221C175.818 42.0127 175.81 41.3408 175.569 40.7369C175.327 40.1331 174.869 39.6405 174.283 39.3549ZM167.95 46.484L165.815 45.6822L166.729 44.2674C166.546 44.0301 166.446 43.7402 166.442 43.4411C166.438 43.1419 166.532 42.8497 166.708 42.6079C166.885 42.3661 167.135 42.1878 167.422 42.0996C167.708 42.0114 168.016 42.0181 168.298 42.1186C168.581 42.2191 168.823 42.4081 168.989 42.6573C169.155 42.9065 169.235 43.2025 169.219 43.5012C169.202 43.7999 169.089 44.0851 168.896 44.3144C168.704 44.5436 168.442 44.7045 168.15 44.7731L167.95 46.484ZM173.345 38.9908L166.477 36.4179L167.002 35.1079C167.39 34.2645 168.083 33.599 168.943 33.2454C169.803 32.8918 170.765 32.8764 171.636 33.2022C172.507 33.5281 173.222 34.1711 173.637 35.0016C174.051 35.8321 174.135 36.7885 173.871 37.6781L173.345 38.9908Z" fill="#EBEBEB"/>
<path d="M72.082 17.292C72.0422 16.6955 71.9543 16.1032 71.8193 15.5208C71.6453 14.8417 71.3699 14.1926 71.0025 13.5951C70.1365 12.1564 68.7952 11.0634 67.2091 10.504C65.6229 9.94455 63.891 9.95366 62.3108 10.5297C61.6553 10.7618 61.0396 11.0932 60.4853 11.5122C60.198 11.7256 59.9251 11.9575 59.6684 12.2065C59.4127 12.4676 59.1766 12.7469 58.9618 13.0423C58.0516 14.2737 57.5605 15.7634 57.5605 17.2933C57.5605 18.8232 58.0516 20.3129 58.9618 21.5442C59.1795 21.8374 59.4155 22.1165 59.6684 22.38C59.9238 22.6218 60.194 22.8475 60.4774 23.056C61.0317 23.475 61.6475 23.8064 62.3029 24.0385C63.5156 24.4818 64.8248 24.5949 66.0958 24.366C67.2028 24.1629 68.2464 23.7034 69.1428 23.0245C69.885 22.4673 70.5136 21.7736 70.9946 20.9809C71.362 20.3834 71.6374 19.7343 71.8115 19.0552C71.9467 18.472 72.0346 17.8788 72.0741 17.2815C72.0815 17.3213 72.0815 17.3622 72.0741 17.402C72.0741 17.4937 72.0741 17.6064 72.0741 17.7505C72.0753 17.9393 72.0595 18.1278 72.0269 18.3138C72.0009 18.5712 71.9544 18.8261 71.8876 19.0762C71.7279 19.7685 71.4621 20.4322 71.0996 21.0438C70.5688 21.947 69.8509 22.7268 68.994 23.3313C68.137 23.9359 67.1606 24.3511 66.13 24.5494C64.8265 24.7957 63.4807 24.6899 62.232 24.2428C61.5565 24.0051 60.9214 23.6659 60.3487 23.2367C60.0517 23.0214 59.77 22.7859 59.5055 22.532C59.2427 22.2635 58.9987 21.9772 58.7753 21.6752C57.8354 20.4066 57.3281 18.8707 57.3281 17.2933C57.3281 15.7158 57.8354 14.1799 58.7753 12.9113C59.0002 12.6097 59.2441 12.3226 59.5055 12.052C59.7704 11.7952 60.0521 11.5562 60.3487 11.3367C60.9221 10.9093 61.5571 10.571 62.232 10.3332C63.4807 9.88617 64.8265 9.78033 66.13 10.0267C67.1604 10.2237 68.1369 10.6376 68.9943 11.2407C69.8517 11.8438 70.5703 12.6224 71.1023 13.5244C71.4652 14.1358 71.731 14.7995 71.8903 15.492C71.957 15.742 72.0036 15.997 72.0295 16.2544C72.0621 16.4404 72.0779 16.6289 72.0768 16.8177C72.0768 16.9618 72.0768 17.0797 72.0768 17.1662C72.0871 17.2073 72.0889 17.2501 72.082 17.292Z" fill="#E0E0E0"/>
<path d="M69.7783 22.6053C69.8229 22.5634 71.4173 24.083 73.3427 26.0113C75.268 27.9397 76.7915 29.5221 76.7573 29.5641C76.7232 29.606 75.1183 28.089 73.193 26.1581C71.2676 24.2271 69.7336 22.6499 69.7783 22.6053Z" fill="#E0E0E0"/>
<path d="M111.493 57.0295L87.2408 52.138C86.8424 52.0579 86.4637 51.9003 86.1263 51.6742C85.7889 51.448 85.4995 51.1578 85.2746 50.8201C85.0497 50.4824 84.8937 50.1038 84.8156 49.706C84.7374 49.3081 84.7386 48.8988 84.8191 48.5014L91.5906 15.0178C91.7534 14.2149 92.2291 13.5094 92.9133 13.0564C93.5975 12.6034 94.4341 12.44 95.239 12.6022L110.618 15.72L120.04 30.3448L115.131 54.6139C114.968 55.4145 114.494 56.1182 113.812 56.571C113.13 57.0237 112.296 57.1886 111.493 57.0295Z" fill="#EBEBEB"/>
<path d="M110.616 15.7197L108.711 25.1517C108.563 25.8977 108.717 26.6718 109.138 27.3054C109.56 27.939 110.216 28.3806 110.962 28.5341L120.048 30.3681L110.616 15.7197Z" fill="#F5F5F5"/>
<path d="M108.669 25.9824C108.669 25.9824 108.089 28.2435 110.545 29.5194C110.636 29.5681 110.731 29.611 110.828 29.6478C111.974 30.0984 119.496 33.0538 119.538 32.8756C119.58 32.6975 120.064 30.3447 120.064 30.3447L110.978 28.5107C110.978 28.5107 108.714 27.9815 108.669 25.9824Z" fill="#E0E0E0"/>
<path d="M103.781 41.9514C103.056 41.9497 102.333 41.8813 101.622 41.7471C95.9348 40.6991 93.7836 34.9979 93.7625 34.9351C93.748 34.8959 93.743 34.8538 93.748 34.8124C93.753 34.7709 93.7679 34.7312 93.7914 34.6966C93.8335 34.6364 98.0099 28.6706 104.345 29.8392C110.484 30.9762 111.826 37.8695 111.837 37.9402C111.843 37.9741 111.842 38.0089 111.835 38.0426C111.828 38.0763 111.814 38.1083 111.795 38.1367C110.831 39.3315 109.611 40.2948 108.224 40.9552C106.836 41.6156 105.318 41.956 103.781 41.9514ZM94.3063 34.8774C94.653 35.7053 96.7937 40.3113 101.719 41.2231C104.374 41.713 106.804 41.2938 108.937 39.9759C109.836 39.4292 110.636 38.7337 111.301 37.9192C111.104 37.052 109.617 31.343 104.253 30.3474C98.7269 29.344 94.9025 34.0914 94.2984 34.8879L94.3063 34.8774Z" fill="white"/>
<path d="M103.228 39.7089C102.652 39.7064 102.086 39.56 101.581 39.2831C101.077 39.0062 100.65 38.6077 100.339 38.1238C99.8208 37.3079 99.6327 36.3262 99.8126 35.3773C99.9926 34.4283 100.527 33.583 101.308 33.0122C101.687 32.7348 102.119 32.5381 102.577 32.434C103.035 32.33 103.51 32.3209 103.971 32.4074C104.433 32.4938 104.872 32.674 105.261 32.9367C105.65 33.1994 105.981 33.539 106.233 33.9344C106.759 34.7481 106.947 35.7334 106.759 36.6828C106.583 37.6307 106.049 38.475 105.267 39.0408C104.675 39.4729 103.961 39.7068 103.228 39.7089ZM103.331 32.8628C102.71 32.8648 102.106 33.0629 101.605 33.4288C100.932 33.9219 100.472 34.6516 100.318 35.4702C100.164 36.2888 100.327 37.1352 100.775 37.8382C100.988 38.1744 101.269 38.4632 101.599 38.6867C101.929 38.9102 102.301 39.0636 102.693 39.1373C103.085 39.211 103.488 39.2035 103.877 39.1153C104.266 39.027 104.633 38.8599 104.954 38.6242C105.63 38.1346 106.09 37.4034 106.238 36.5833C106.397 35.7679 106.233 34.923 105.781 34.2253C105.569 33.8875 105.289 33.597 104.959 33.3716C104.629 33.1463 104.256 32.9909 103.864 32.9152C103.692 32.8829 103.517 32.8654 103.341 32.8628H103.331Z" fill="white"/>
<path d="M95.6109 41.0266C95.5663 41.0267 95.5224 41.0155 95.4833 40.9939C95.4442 40.9724 95.4113 40.9412 95.3877 40.9035C95.3693 40.8743 95.357 40.8417 95.3513 40.8077C95.3456 40.7737 95.3466 40.7389 95.3544 40.7053C95.3623 40.6717 95.3766 40.64 95.3968 40.612C95.4169 40.5839 95.4424 40.5601 95.4717 40.5419L111.55 30.5178C111.579 30.4966 111.612 30.4815 111.647 30.4737C111.682 30.4658 111.719 30.4652 111.754 30.472C111.79 30.4788 111.823 30.4927 111.853 30.5131C111.883 30.5334 111.908 30.5596 111.927 30.5901C111.946 30.6206 111.959 30.6546 111.964 30.6902C111.97 30.7258 111.968 30.7621 111.958 30.7969C111.949 30.8316 111.933 30.8641 111.91 30.8923C111.888 30.9204 111.86 30.9437 111.828 30.9606L95.7423 40.9873C95.7028 41.0118 95.6574 41.0254 95.6109 41.0266Z" fill="white"/>
<path d="M53.6678 109.485L36.471 119.496C36.1879 119.661 35.8749 119.769 35.5499 119.814C35.225 119.858 34.8944 119.838 34.5772 119.755C34.2599 119.672 33.9623 119.527 33.7013 119.328C33.4403 119.13 33.2211 118.883 33.0563 118.6L19.1744 94.8573C19.0085 94.5751 18.9001 94.263 18.8553 93.939C18.8106 93.615 18.8304 93.2853 18.9136 92.9689C18.9968 92.6525 19.1418 92.3556 19.3402 92.0951C19.5387 91.8347 19.7867 91.6159 20.0701 91.4513L30.976 85.103L44.4981 88.868L54.5661 106.076C54.7319 106.359 54.8402 106.671 54.8848 106.995C54.9294 107.32 54.9094 107.65 54.8259 107.966C54.7425 108.283 54.5972 108.58 54.3985 108.841C54.1997 109.101 53.9514 109.32 53.6678 109.485Z" fill="#EBEBEB"/>
<path d="M30.9727 85.1108L34.8838 91.7918C35.1931 92.3213 35.7006 92.7065 36.2947 92.8627C36.8887 93.019 37.5207 92.9335 38.0515 92.625L44.4947 88.8758L30.9727 85.1108Z" fill="#F5F5F5"/>
<path d="M35.3164 92.326C35.3164 92.326 36.1806 93.9976 38.3397 93.4526C38.4218 93.4325 38.5025 93.4071 38.5814 93.3766C39.5086 93.0387 45.6208 90.7986 45.5473 90.6702C45.4737 90.5418 44.4966 88.8755 44.4966 88.8755L38.056 92.6247C38.056 92.6247 36.4144 93.505 35.3164 92.326Z" fill="#E0E0E0"/>
<path d="M35.4578 106.734C33.9607 106.722 32.4855 106.374 31.1422 105.714C31.1051 105.695 31.0734 105.666 31.0496 105.632C31.0258 105.597 31.0107 105.557 31.0056 105.515C31.0056 105.458 30.2991 99.6046 34.767 96.9113C39.0958 94.2913 43.6294 97.7523 43.6741 97.7863C43.7018 97.8079 43.7249 97.8347 43.7421 97.8653C43.7592 97.8959 43.77 97.9296 43.7739 97.9645C43.7739 98.0116 44.2703 102.772 39.5712 105.61C38.3305 106.356 36.9067 106.745 35.4578 106.734ZM31.5178 105.324C32.2323 105.662 35.9175 107.216 39.3033 105.175C41.0598 104.173 42.3645 102.538 42.9491 100.605C43.1917 99.8097 43.2983 98.9789 43.2643 98.1479C42.6234 97.6946 38.7359 95.148 35.0428 97.3619C31.2237 99.657 31.4338 104.441 31.5178 105.324Z" fill="white"/>
<path d="M37.5882 104.221C37.322 104.222 37.0569 104.187 36.8002 104.116C36.0352 103.905 35.382 103.406 34.9773 102.725C34.5581 102.063 34.4195 101.261 34.5918 100.497C34.7642 99.7328 35.2334 99.068 35.8966 98.6484C36.2265 98.4499 36.5938 98.3213 36.9756 98.2703C37.3574 98.2194 37.7456 98.2473 38.1162 98.3523C38.8806 98.5648 39.5336 99.0631 39.9391 99.7435C40.3583 100.406 40.4969 101.207 40.3246 101.972C40.1522 102.736 39.6829 103.401 39.0197 103.82C38.5883 104.082 38.0932 104.221 37.5882 104.221ZM37.3518 98.7715C36.938 98.7709 36.532 98.8833 36.1777 99.0964C35.6339 99.4447 35.2507 99.9937 35.1118 100.623C34.973 101.253 35.0899 101.912 35.437 102.455C35.7723 103.021 36.3146 103.435 36.9499 103.611C37.2519 103.697 37.5683 103.72 37.8797 103.679C38.191 103.638 38.4905 103.534 38.7597 103.372C39.3035 103.024 39.6867 102.475 39.8255 101.845C39.9644 101.216 39.8475 100.557 39.5004 100.013C39.1637 99.4487 38.6219 99.0349 37.9875 98.858C37.7802 98.8021 37.5665 98.7739 37.3518 98.7741V98.7715Z" fill="white"/>
<path d="M35.3925 108.45C35.3672 108.452 35.3417 108.452 35.3163 108.45C35.2832 108.44 35.2523 108.424 35.2255 108.402C35.1986 108.38 35.1764 108.353 35.1601 108.323C35.1437 108.292 35.1335 108.259 35.1302 108.224C35.1268 108.19 35.1302 108.155 35.1403 108.122L39.4271 93.5158C39.4367 93.4828 39.4528 93.4519 39.4744 93.4251C39.496 93.3983 39.5227 93.376 39.5529 93.3594C39.5832 93.3429 39.6164 93.3324 39.6507 93.3287C39.685 93.325 39.7197 93.328 39.7528 93.3376C39.7859 93.3473 39.8168 93.3633 39.8437 93.3849C39.8706 93.4064 39.8929 93.433 39.9095 93.4632C39.9261 93.4933 39.9366 93.5265 39.9403 93.5607C39.9441 93.5949 39.941 93.6295 39.9314 93.6625L35.642 108.272C35.6244 108.324 35.5908 108.369 35.5461 108.401C35.5013 108.433 35.4476 108.45 35.3925 108.45Z" fill="white"/>
<path d="M18.7734 41.7157L26.8846 64.6066C27.0242 64.9994 27.3087 65.3243 27.6801 65.5151C28.0514 65.7059 28.4818 65.7483 28.8834 65.6337L70.9364 53.655C71.1436 53.5962 71.3372 53.4971 71.506 53.3636C71.6748 53.2301 71.8156 53.0646 71.9203 52.8768C72.0249 52.6889 72.0914 52.4823 72.1159 52.2688C72.1405 52.0553 72.1226 51.839 72.0632 51.6324L66.8677 33.4863C66.8082 33.2788 66.7081 33.0852 66.5733 32.9164C66.4385 32.7477 66.2716 32.6072 66.0822 32.5029C65.8928 32.3987 65.6846 32.3329 65.4696 32.3092C65.2546 32.2855 65.037 32.3045 64.8294 32.3649L39.0145 39.9C38.8082 39.9601 38.592 39.979 38.3784 39.9556C38.1647 39.9323 37.9578 39.8671 37.7695 39.7638L32.0092 36.6198C31.6305 36.415 31.1864 36.3661 30.772 36.4836L19.8687 39.5987C19.6536 39.66 19.4533 39.7646 19.2802 39.906C19.1071 40.0474 18.9648 40.2227 18.8622 40.421C18.7596 40.6193 18.6988 40.8365 18.6835 41.0592C18.6682 41.2818 18.6988 41.5053 18.7734 41.7157Z" fill="#455A64"/>
<g opacity="0.3">
<path d="M18.7734 41.7157L26.8846 64.6066C27.0242 64.9994 27.3087 65.3243 27.6801 65.5151C28.0514 65.7059 28.4818 65.7483 28.8834 65.6337L70.9364 53.655C71.1436 53.5962 71.3372 53.4971 71.506 53.3636C71.6748 53.2301 71.8156 53.0646 71.9203 52.8768C72.0249 52.6889 72.0914 52.4823 72.1159 52.2688C72.1405 52.0553 72.1226 51.839 72.0632 51.6324L66.8677 33.4863C66.8082 33.2788 66.7081 33.0852 66.5733 32.9164C66.4385 32.7477 66.2716 32.6072 66.0822 32.5029C65.8928 32.3987 65.6846 32.3329 65.4696 32.3092C65.2546 32.2855 65.037 32.3045 64.8294 32.3649L39.0145 39.9C38.8082 39.9601 38.592 39.979 38.3784 39.9556C38.1647 39.9323 37.9578 39.8671 37.7695 39.7638L32.0092 36.6198C31.6305 36.415 31.1864 36.3661 30.772 36.4836L19.8687 39.5987C19.6536 39.66 19.4533 39.7646 19.2802 39.906C19.1071 40.0474 18.9648 40.2227 18.8622 40.421C18.7596 40.6193 18.6988 40.8365 18.6835 41.0592C18.6682 41.2818 18.6988 41.5053 18.7734 41.7157Z" fill="black"/>
</g>
<path d="M32.4288 66.0241C30.8186 62.3823 25.0741 48.5147 23.3851 44.4301C23.3254 44.2852 23.2968 44.1295 23.3012 43.9729C23.3057 43.8163 23.343 43.6624 23.4108 43.5211C23.4787 43.3798 23.5755 43.2544 23.6951 43.1528C23.8146 43.0512 23.9542 42.9758 24.1048 42.9314L65.1491 30.6175C65.3028 30.5714 65.4645 30.5585 65.6235 30.5798C65.7824 30.6011 65.9351 30.6559 66.0711 30.7408C66.2071 30.8256 66.3234 30.9384 66.4122 31.0717C66.5009 31.2049 66.5602 31.3556 66.5859 31.5135L70.5443 55.8795C70.5895 56.1546 70.5303 56.4367 70.3783 56.6706C70.2263 56.9046 69.9924 57.0737 69.7222 57.1449L33.7368 66.6765C33.4766 66.7413 33.2018 66.7111 32.9619 66.5915C32.722 66.4718 32.5329 66.2706 32.4288 66.0241Z" fill="#E0E0E0"/>
<path d="M30.4178 68.445C28.8418 64.8923 22.9791 50.7338 21.3138 46.699C21.263 46.5648 21.2404 46.4216 21.2473 46.2783C21.2543 46.135 21.2906 45.9947 21.3542 45.866C21.4177 45.7373 21.507 45.6229 21.6167 45.5301C21.7263 45.4372 21.8539 45.3678 21.9915 45.3261L63.3037 33.4392C63.4451 33.4005 63.593 33.3918 63.7379 33.4135C63.8829 33.4353 64.0217 33.4871 64.1454 33.5656C64.2691 33.644 64.3749 33.7474 64.4562 33.8692C64.5374 33.9909 64.5922 34.1282 64.617 34.2723L68.5202 58.2846C68.5603 58.5398 68.5044 58.8008 68.3633 59.0174C68.2222 59.2341 68.0059 59.3911 67.7559 59.4584L31.6392 69.0266C31.3996 69.0888 31.1456 69.0645 30.9221 68.9581C30.6986 68.8517 30.52 68.67 30.4178 68.445Z" fill="#F5F5F5"/>
<path d="M69.2214 34.5187L31.8124 45.6904L31.2582 44.8022C31.1298 44.6076 30.9417 44.4597 30.7219 44.3808C30.5022 44.302 30.2627 44.2963 30.0394 44.3647L18.2326 47.7707C18.0891 47.8092 17.9553 47.8771 17.8396 47.9701C17.7239 48.0631 17.629 48.1791 17.5608 48.3107C17.4925 48.4424 17.4526 48.5867 17.4434 48.7346C17.4343 48.8825 17.4561 49.0307 17.5076 49.1697L17.9988 50.4116L18.1905 50.8963L29.6743 76.4361C29.7847 76.6595 29.9723 76.8356 30.2025 76.9319C30.4328 77.0282 30.6902 77.0382 30.9272 76.9601L75.5307 63.6662C75.7785 63.5989 75.9922 63.4419 76.1301 63.2258C76.2681 63.0097 76.3203 62.7501 76.2766 62.4977L70.5348 35.2497C70.5022 35.1123 70.4414 34.9833 70.3561 34.8707C70.2709 34.7581 70.163 34.6644 70.0395 34.5956C69.916 34.5269 69.7794 34.4845 69.6386 34.4713C69.4977 34.458 69.3557 34.4742 69.2214 34.5187Z" fill="#455A64"/>
<path d="M48.4671 61.6433C45.0524 61.6433 42.5649 59.4792 42.536 59.453C42.5196 59.4391 42.507 59.4212 42.4996 59.4009C42.4922 59.3807 42.4903 59.3589 42.494 59.3377C42.494 59.2801 43.395 53.613 48.4487 52.1248C53.3422 50.6812 56.8199 54.9728 56.854 55.0068C56.8756 55.0362 56.8851 55.0728 56.8803 55.109C56.8803 55.1562 56.0739 59.7307 50.747 61.3053C50.0073 61.5267 49.2394 61.6406 48.4671 61.6433ZM42.7646 59.3036C43.2295 59.6862 46.5759 62.2721 50.6708 61.0617C53.371 60.2757 54.8446 58.6827 55.6037 57.4932C56.0744 56.7718 56.4149 55.9737 56.6097 55.1352C56.2262 54.6846 52.9744 51.0637 48.5249 52.3764C43.9308 53.7283 42.8854 58.6539 42.7646 59.3036Z" fill="white"/>
<path d="M49.9072 59.5972C49.3807 59.5972 48.8645 59.4511 48.4166 59.1751C47.9686 58.8991 47.6064 58.5043 47.3706 58.0347C47.1349 57.5651 47.0348 57.0393 47.0815 56.5162C47.1283 55.9931 47.3201 55.4933 47.6355 55.0727C47.9509 54.6522 48.3774 54.3275 48.8673 54.1349C49.3572 53.9424 49.8911 53.8897 50.4093 53.9827C50.9275 54.0757 51.4096 54.3106 51.8015 54.6614C52.1934 55.0121 52.4797 55.4647 52.6284 55.9685C52.8378 56.6873 52.7533 57.4595 52.3935 58.1164C52.0337 58.7733 51.4279 59.2614 50.7083 59.474C50.4487 59.5535 50.1788 59.595 49.9072 59.5972ZM49.9072 54.1974C49.3665 54.1984 48.8398 54.3692 48.402 54.6856C47.9641 55.002 47.6372 55.4479 47.4677 55.9601C47.2982 56.4723 47.2947 57.0246 47.4577 57.5389C47.6206 58.0532 47.9418 58.5032 48.3757 58.8251C48.8095 59.147 49.334 59.3244 49.8746 59.3323C50.4153 59.3401 50.9447 59.178 51.3877 58.8688C51.8308 58.5596 52.165 58.1191 52.3429 57.6098C52.5208 57.1005 52.5334 56.5482 52.3789 56.0314C52.2199 55.5009 51.8934 55.0358 51.4481 54.7054C51.0027 54.3749 50.4623 54.1967 49.9072 54.1974Z" fill="white"/>
<path d="M45.2912 63.8231C45.266 63.8239 45.2411 63.8165 45.2203 63.8022C45.1911 63.7834 45.1705 63.7538 45.1632 63.7199C45.1558 63.686 45.1622 63.6506 45.1809 63.6214L53.7885 50.0707C53.8073 50.0416 53.837 50.0211 53.871 50.0137C53.905 50.0064 53.9405 50.0127 53.9697 50.0315C53.9847 50.0403 53.9977 50.0521 54.008 50.0661C54.0182 50.0801 54.0256 50.096 54.0295 50.1129C54.0334 50.1298 54.0339 50.1473 54.0308 50.1644C54.0278 50.1814 54.0213 50.1977 54.0118 50.2122L45.4016 63.7629C45.3895 63.7812 45.3732 63.7962 45.3539 63.8067C45.3347 63.8172 45.3132 63.8229 45.2912 63.8231Z" fill="white"/>
<path d="M58.3555 116.747V66.9516C58.3555 65.8606 58.7899 64.8144 59.5633 64.0429C60.3367 63.2715 61.3856 62.8382 62.4793 62.8382H66.4193C67.2075 62.8379 67.9791 62.6125 68.6429 62.1885C69.3067 61.7646 69.8348 61.16 70.165 60.4461L71.0134 58.6121C71.3432 57.8987 71.871 57.2945 72.5343 56.871C73.1977 56.4476 73.9688 56.2226 74.7564 56.2227H93.474C94.1912 56.2227 94.8959 56.4093 95.5187 56.764C96.1415 57.1187 96.6607 57.6293 97.0253 58.2453L97.9446 59.7963C98.3075 60.4154 98.8264 60.929 99.4499 61.2861C100.073 61.6432 100.78 61.8314 101.498 61.8321H125.356C125.898 61.8321 126.435 61.9386 126.935 62.1454C127.436 62.3523 127.89 62.6555 128.273 63.0378C128.656 63.42 128.96 63.8738 129.167 64.3732C129.374 64.8725 129.481 65.4077 129.48 65.9481V116.747H58.3555Z" fill="#62DB9B"/>
<g opacity="0.3">
<path d="M58.3555 116.747V66.9516C58.3555 65.8606 58.7899 64.8144 59.5633 64.0429C60.3367 63.2715 61.3856 62.8382 62.4793 62.8382H66.4193C67.2075 62.8379 67.9791 62.6125 68.6429 62.1885C69.3067 61.7646 69.8348 61.16 70.165 60.4461L71.0134 58.6121C71.3432 57.8987 71.871 57.2945 72.5343 56.871C73.1977 56.4476 73.9688 56.2226 74.7564 56.2227H93.474C94.1912 56.2227 94.8959 56.4093 95.5187 56.764C96.1415 57.1187 96.6607 57.6293 97.0253 58.2453L97.9446 59.7963C98.3075 60.4154 98.8264 60.929 99.4499 61.2861C100.073 61.6432 100.78 61.8314 101.498 61.8321H125.356C125.898 61.8321 126.435 61.9386 126.935 62.1454C127.436 62.3523 127.89 62.6555 128.273 63.0378C128.656 63.42 128.96 63.8738 129.167 64.3732C129.374 64.8725 129.481 65.4077 129.48 65.9481V116.747H58.3555Z" fill="black"/>
</g>
<path d="M58.3555 115.657L65.6497 68.9558C65.8114 68.2043 66.2266 67.5308 66.8261 67.0478C67.4255 66.5648 68.173 66.3014 68.9436 66.3018H130.187C130.744 66.3015 131.293 66.4394 131.784 66.7031C132.275 66.9669 132.692 67.3481 132.999 67.8126C133.306 68.2771 133.492 68.8103 133.54 69.3643C133.589 69.9182 133.499 70.4756 133.279 70.9863L120.056 114.494L58.3555 115.657Z" fill="#EBEBEB"/>
<path d="M58.3555 115.657L67.5751 72.6894C67.7361 71.9378 68.1508 71.2641 68.7497 70.7806C69.3487 70.2971 70.0958 70.0331 70.8663 70.0327H132.123C132.68 70.0329 133.229 70.1713 133.72 70.4353C134.211 70.6993 134.628 71.0808 134.935 71.5455C135.241 72.0101 135.427 72.5434 135.476 73.0975C135.525 73.6516 135.435 74.209 135.214 74.7199L117.779 115.089L58.3555 115.657Z" fill="#FAFAFA"/>
<path d="M58.3555 116.748L73.2066 74.8275C73.509 73.9755 74.0687 73.2379 74.8086 72.7162C75.5485 72.1945 76.4323 71.9142 77.3384 71.9141H140.478C140.95 71.9143 141.416 72.0267 141.836 72.2419C142.256 72.4571 142.619 72.7689 142.894 73.1516C143.17 73.5344 143.35 73.977 143.42 74.4429C143.49 74.9088 143.448 75.3846 143.297 75.831L129.48 116.748H58.3555Z" fill="#62DB9B"/>
<path d="M101.242 102.083C93.8426 102.083 89.7896 95.7322 89.7502 95.6667C89.7275 95.6301 89.7142 95.5885 89.7115 95.5455C89.7087 95.5026 89.7166 95.4596 89.7345 95.4204C89.7739 95.3366 93.6246 87.2172 101.885 87.2041H101.914C109.902 87.2041 113.209 95.1768 113.254 95.258C113.268 95.2914 113.276 95.3275 113.276 95.3641C113.276 95.4006 113.268 95.4368 113.254 95.4702C112.567 96.7311 111.648 97.8519 110.546 98.774C108.82 100.275 105.818 102.067 101.268 102.078L101.242 102.083ZM90.2756 95.5095C90.864 96.3689 94.6963 101.559 101.245 101.559H101.268C105.636 101.559 108.526 99.8377 110.18 98.3994C111.192 97.535 112.046 96.5023 112.705 95.3471C112.284 94.4091 109.027 87.7281 101.901 87.7281H101.885C94.5229 87.7386 90.7983 94.4851 90.2756 95.5095Z" fill="white"/>
<path d="M102.02 99.3244C101.133 99.325 100.266 99.0631 99.5276 98.5719C98.7896 98.0807 98.2141 97.3823 97.874 96.565C97.5339 95.7477 97.4444 94.8481 97.6168 93.98C97.7891 93.1119 98.2157 92.3143 98.8425 91.688C99.4693 91.0617 100.268 90.6348 101.138 90.4613C102.008 90.2879 102.91 90.3756 103.73 90.7134C104.55 91.0512 105.251 91.624 105.745 92.3592C106.239 93.0945 106.503 93.9593 106.504 94.8442C106.504 96.0311 106.032 97.1695 105.191 98.0094C104.351 98.8494 103.21 99.3224 102.02 99.3244ZM102.02 90.9011C101.236 90.9006 100.47 91.1321 99.8181 91.5663C99.1662 92.0004 98.6581 92.6178 98.3581 93.3401C98.0581 94.0625 97.9798 94.8574 98.133 95.6242C98.2861 96.391 98.664 97.0952 99.2186 97.6477C99.7732 98.2002 100.48 98.5761 101.249 98.7279C102.018 98.8797 102.814 98.8005 103.538 98.5003C104.262 98.2001 104.88 97.6925 105.315 97.0417C105.749 96.3909 105.98 95.6261 105.979 94.8442C105.972 93.8007 105.553 92.8019 104.811 92.0657C104.07 91.3295 103.066 90.9156 102.02 90.9142V90.9011Z" fill="white"/>
<path d="M93.4044 102.576C93.3667 102.576 93.3293 102.568 93.2949 102.553C93.2604 102.538 93.2297 102.515 93.2048 102.487C93.1592 102.434 93.1364 102.366 93.1413 102.297C93.1462 102.227 93.1785 102.163 93.2311 102.117L111.226 86.3739C111.279 86.3315 111.346 86.3111 111.414 86.3169C111.481 86.3226 111.544 86.3542 111.588 86.4048C111.633 86.4555 111.656 86.5215 111.654 86.5889C111.651 86.6564 111.622 86.7201 111.573 86.7669L93.5752 102.51C93.528 102.552 93.4674 102.575 93.4044 102.576Z" fill="white"/>
<path d="M146.759 59.8516C146.759 59.8516 148.598 61.0306 149.386 62.765C150.846 66.0243 158.916 79.685 158.916 79.685C158.916 79.685 158.976 86.235 158.916 88.5799C158.855 90.9248 158.057 96.4634 158.057 96.4634L148.771 93.6496L149.005 82.2552L141.719 70.8634L146.759 59.8516Z" fill="#455A64"/>
<path d="M145.066 68.846C145.397 67.8425 147.495 61.3187 146.849 60.0061C146.203 58.6935 141.176 55.2325 141.176 55.2325L137.188 51.9077L122.855 49.1646L112.887 49.8431L111.996 61.8323L125.311 61.924C128.762 61.924 129.474 65.068 129.474 65.592V66.3151H129.999C130.462 66.315 130.92 66.4068 131.346 66.5852C131.773 66.7635 132.159 67.0248 132.484 67.3538C132.808 67.6828 133.063 68.073 133.235 68.5014C133.406 68.9299 133.49 69.3882 133.482 69.8495V70.3342C134.215 70.6413 134.804 71.2131 135.132 71.935H140.734C141.622 71.935 142.875 72.7681 143.29 73.9052C144.814 69.8861 145.258 68.2617 145.071 68.8172L145.066 68.846Z" fill="#455A64"/>
<path d="M151.096 35.8261C144.312 38.9309 136.224 38.3571 129.34 35.4777C127.286 34.6209 125.216 33.476 124.086 31.566C123.795 31.0708 123.561 30.4866 123.711 29.9311C123.86 29.3757 124.514 28.9382 125.024 29.2028L151.096 35.8261Z" fill="#455A64"/>
<g opacity="0.3">
<path d="M151.096 35.8261C144.312 38.9309 136.224 38.3571 129.34 35.4777C127.286 34.6209 125.216 33.476 124.086 31.566C123.795 31.0708 123.561 30.4866 123.711 29.9311C123.86 29.3757 124.514 28.9382 125.024 29.2028L151.096 35.8261Z" fill="black"/>
</g>
<path d="M142.873 45.7979C142.873 45.7979 149.127 49.3322 149.385 51.9391L143.167 57.2656L145.082 58.6987L133.062 63.7422C133.062 63.7422 136.159 61.8611 138.179 56.4508C140.199 51.0405 139.585 50.7208 139.585 50.7208L142.873 45.7979Z" fill="#455A64"/>
<g opacity="0.3">
<path d="M142.873 45.7979C142.873 45.7979 148.991 49.2039 149.385 51.9391L143.167 57.2656L145.082 58.6987L133.062 63.7422C133.062 63.7422 136.159 61.8611 138.179 56.4508C140.199 51.0405 139.585 50.7208 139.585 50.7208L142.873 45.7979Z" fill="black"/>
</g>
<path d="M126.392 38.3358C126.791 38.7602 127.553 38.6135 127.934 38.1733C128.315 37.7332 128.401 37.1253 128.401 36.5306C128.401 35.9359 128.333 35.3568 128.475 34.7909C128.738 33.7665 132.381 31.2434 133.442 31.2382L135.837 27.9422C137.056 27.0776 138.236 26.1606 139.688 26.179C141.001 26.1947 142.168 27.0069 143.447 27.3108C144.379 27.5309 145.359 27.4785 146.299 27.6645C147.24 27.8505 148.212 28.3719 148.514 29.2784C148.692 29.8024 148.624 31.9325 148.808 32.4617C149.184 33.5595 150.526 33.4573 150.762 34.5918C150.954 35.514 150.326 35.5402 150.237 36.4782C150.14 37.4974 150.707 38.4458 151.122 39.3812C151.537 40.3165 151.779 41.5034 151.122 42.2972C150.549 42.9968 149.48 43.1304 148.921 43.8404C148.514 44.3644 148.469 45.0587 148.28 45.6744C148.091 46.2901 147.605 46.9687 146.948 46.9189L139.399 46.5573C136.691 46.7748 133.902 46.9844 131.314 46.1643C128.727 45.3443 126.36 43.2457 126.082 40.5497C126.465 40.6521 126.873 40.6042 127.222 40.4161C126.937 40.153 126.714 39.8297 126.571 39.4697C126.427 39.1098 126.366 38.7223 126.392 38.3358Z" fill="#263238"/>
<path d="M131.412 42.3156C131.396 40.3716 131.391 38.4171 131.709 36.4992C132.027 34.5814 132.691 32.6871 133.889 31.1518C134.07 30.9213 135.465 29.4174 135.728 29.5327C135.922 29.6165 134.884 31.1047 134.94 31.3064C135.381 33.2688 135.013 35.3438 134.254 37.204C133.499 39.0081 132.545 40.7226 131.409 42.3156" fill="#263238"/>
<path d="M134.885 60.1293C132.022 59.1625 128.25 51.8815 128.25 51.8815L133.467 35.1869C134.78 30.4919 138.628 27.3452 143.296 28.7915L143.718 28.9513C145.774 29.7214 147.464 31.2354 148.451 33.192C149.438 35.1486 149.65 37.4043 149.045 39.5099C147.879 43.5735 146.537 48.0459 145.712 50.1523C144.007 54.512 139.361 53.5583 139.361 53.5583C139.361 53.5583 139.006 54.5854 138.573 55.8902C137.611 58.8193 136.535 60.7476 135.421 60.2813L134.885 60.1293Z" fill="#FFBE9D"/>
<path d="M139.36 53.5453C137.333 52.7798 135.569 51.4504 134.277 49.7148C134.277 49.7148 134.472 53.4248 139.005 54.6719L139.36 53.5453Z" fill="#EB996E"/>
<path d="M145.593 42.1453C145.533 42.3084 145.411 42.4417 145.255 42.517C145.098 42.5923 144.917 42.6037 144.752 42.5488C144.67 42.5252 144.594 42.4853 144.527 42.4317C144.46 42.3781 144.405 42.3117 144.365 42.2365C144.325 42.1613 144.3 42.0788 144.292 41.9938C144.284 41.9089 144.293 41.8232 144.319 41.7419C144.378 41.578 144.499 41.4438 144.656 41.3683C144.814 41.2928 144.994 41.2821 145.159 41.3384C145.242 41.362 145.318 41.4019 145.385 41.4555C145.451 41.5091 145.506 41.5755 145.547 41.6507C145.587 41.7259 145.612 41.8084 145.62 41.8934C145.628 41.9783 145.619 42.064 145.593 42.1453Z" fill="#263238"/>
<path d="M147.422 40.9767C147.314 41.0291 146.97 40.4999 146.295 40.2484C145.62 39.9969 144.997 40.1488 144.955 40.0388C144.934 39.989 145.068 39.8711 145.344 39.7951C145.712 39.7033 146.099 39.7271 146.452 39.8632C146.804 39.993 147.105 40.2317 147.311 40.5444C147.458 40.7802 147.474 40.9532 147.422 40.9767Z" fill="#263238"/>
<path d="M139.231 39.9421C139.171 40.1052 139.05 40.2385 138.893 40.3138C138.736 40.3891 138.556 40.4005 138.391 40.3456C138.309 40.3219 138.232 40.2821 138.165 40.2285C138.099 40.1749 138.043 40.1086 138.003 40.0335C137.962 39.9583 137.937 39.8758 137.929 39.7909C137.921 39.7059 137.929 39.6202 137.955 39.5386C138.015 39.375 138.136 39.2412 138.294 39.1658C138.452 39.0905 138.632 39.0794 138.798 39.1352C138.88 39.1588 138.957 39.1986 139.023 39.2523C139.09 39.3059 139.145 39.3723 139.185 39.4475C139.226 39.5227 139.25 39.6052 139.258 39.6902C139.266 39.7751 139.257 39.8608 139.231 39.9421Z" fill="#263238"/>
<path d="M140.712 38.776C140.605 38.8205 140.25 38.3306 139.572 38.0843C138.895 37.838 138.288 37.9533 138.241 37.8511C138.22 37.8066 138.346 37.7044 138.616 37.6441C138.985 37.5732 139.366 37.6068 139.717 37.7411C140.064 37.8651 140.368 38.0883 140.589 38.383C140.741 38.5952 140.762 38.7524 140.712 38.776Z" fill="#263238"/>
<path d="M141.184 44.8495C141.184 44.8102 141.643 44.8941 142.355 45.0617C142.534 45.1089 142.71 45.1377 142.783 45.0303C142.864 44.8579 142.891 44.6652 142.86 44.4775C142.86 44.0006 142.86 43.5028 142.844 42.9788C142.844 40.8488 142.904 39.1248 142.988 39.1274C143.072 39.1301 143.149 40.8514 143.154 42.9815C143.154 43.5055 143.154 44.0033 143.154 44.4801C143.185 44.728 143.126 44.9789 142.988 45.1875C142.941 45.239 142.883 45.279 142.818 45.3044C142.752 45.3299 142.682 45.3401 142.613 45.3342C142.507 45.3235 142.403 45.2998 142.303 45.2635C141.599 45.0434 141.173 44.8888 141.184 44.8495Z" fill="#263238"/>
<path d="M141.545 37.1336C141.409 37.2935 140.757 36.9529 139.94 36.7511C139.123 36.5494 138.393 36.5258 138.349 36.3214C138.333 36.2245 138.509 36.0935 138.835 36.0149C139.26 35.9269 139.701 35.9369 140.122 36.044C140.544 36.1512 140.935 36.3527 141.267 36.6332C141.514 36.8585 141.606 37.0577 141.545 37.1336Z" fill="#263238"/>
<path d="M147.781 39.9709C147.605 40.0783 147.201 39.7455 146.644 39.5281C146.087 39.3106 145.575 39.2451 145.525 39.0434C145.507 38.9491 145.638 38.8233 145.901 38.7552C146.243 38.682 146.6 38.7168 146.923 38.8547C147.247 38.9832 147.523 39.2106 147.711 39.5045C147.858 39.7351 147.863 39.9158 147.781 39.9709Z" fill="#263238"/>
<path d="M132.603 38.5638C132.54 38.5036 129.922 36.5412 128.889 39.5725C127.857 42.6039 131.119 43.01 131.156 42.9261C131.193 42.8423 132.603 38.5638 132.603 38.5638Z" fill="#FFBE9D"/>
<path d="M130.618 41.4641C130.618 41.4484 130.553 41.4824 130.45 41.4929C130.306 41.5038 130.163 41.4588 130.051 41.3671C129.77 41.1392 129.673 40.5392 129.846 39.989C129.926 39.7269 130.065 39.4861 130.251 39.2842C130.311 39.2021 130.39 39.1355 130.482 39.09C130.573 39.0444 130.674 39.0212 130.776 39.0222C130.844 39.0266 130.909 39.0556 130.957 39.1038C131.005 39.152 131.034 39.2162 131.039 39.2842C131.039 39.3838 131.012 39.4388 131.026 39.4493C131.039 39.4598 131.11 39.4205 131.125 39.2869C131.134 39.2063 131.116 39.1251 131.073 39.0563C131.012 38.9657 130.917 38.9027 130.81 38.8808C130.677 38.8633 130.542 38.8799 130.418 38.9289C130.293 38.978 130.183 39.0579 130.098 39.1611C129.879 39.3809 129.717 39.6507 129.626 39.9471C129.439 40.5628 129.557 41.2414 129.951 41.5191C130.025 41.5709 130.109 41.6053 130.198 41.6198C130.286 41.6343 130.377 41.6286 130.463 41.6029C130.59 41.5348 130.629 41.4719 130.618 41.4641Z" fill="#EB996E"/>
<path d="M148.743 33.827C149.326 33.7196 148.373 31.6393 147.343 30.683C145.786 29.2525 143.159 27.8194 141.302 27.7434C139.08 27.6491 137.054 28.0997 135.423 29.6088C133.792 31.1179 132.697 33.1432 132.059 35.2706C131.864 35.9178 131.709 36.6095 131.875 37.2671C132.077 38.0793 132.755 38.771 132.4 39.6853C132.332 39.8489 132.296 40.0243 132.296 40.2015C132.296 40.3787 132.332 40.5541 132.4 40.7176C132.763 41.5036 133.627 41.163 134.126 40.7176C135.176 39.7482 135.733 38.3596 136.243 37.0077C136.605 36.054 136.973 35.0768 137.007 34.055C137.026 33.4995 136.944 32.9415 136.994 32.3886C137.001 32.1098 137.069 31.836 137.194 31.5862C137.318 31.3364 137.495 31.1167 137.714 30.9424C137.817 30.8753 137.927 30.8191 138.042 30.7747C138.589 30.5446 139.188 30.4639 139.777 30.5408C140.366 30.6176 140.924 30.8494 141.394 31.2123C142.907 32.3834 145.539 34.2515 146.495 33.924C147.874 33.4497 148.318 32.9939 148.318 32.9939L148.743 33.827Z" fill="#263238"/>
<path d="M141.604 27.3896C143.463 27.3896 145.36 28.0394 146.658 29.3651C147.348 30.0699 147.871 31.0052 147.826 31.9851C147.782 32.965 147.038 33.9501 146.048 34.0156L145.975 34.034C144.53 34.034 143.745 33.5912 142.597 32.724C141.63 31.9904 140.881 31 139.912 30.269C138.874 29.4843 137.625 29.028 136.324 28.959C137.926 28.0342 139.739 27.3975 141.604 27.3896Z" fill="#263238"/>
<path d="M134.832 28.5738C134.85 28.6052 135.189 28.3904 135.796 28.2017C136.149 28.0927 136.513 28.025 136.881 28C137.327 27.9639 137.775 28.0265 138.194 28.1834C138.946 28.5167 139.588 29.0542 140.049 29.7344C140.403 30.2584 140.521 30.641 140.558 30.6279C140.595 30.6148 140.558 30.5231 140.5 30.3501C140.419 30.1063 140.309 29.8725 140.175 29.6532C139.731 28.9129 139.066 28.3301 138.273 27.9869C137.826 27.816 137.344 27.7531 136.868 27.8035C136.485 27.8403 136.108 27.9285 135.749 28.0655C135.409 28.1656 135.096 28.3392 134.832 28.5738Z" fill="#455A64"/>
<path d="M134.188 29.5591C134.118 29.8684 134.102 30.1878 134.144 30.5023C134.262 32.0427 134.911 33.4947 135.983 34.6105C136.19 34.8511 136.438 35.054 136.715 35.2105C136.771 35.1607 135.61 34.2463 134.9 32.6298C134.191 31.0132 134.259 29.5487 134.188 29.5591Z" fill="#455A64"/>
<path d="M145.199 28.2148C145.426 28.4149 145.663 28.602 145.911 28.7755C146.474 29.2368 146.962 29.7821 147.358 30.3921C147.75 30.9989 148.046 31.6614 148.238 32.3571C148.297 32.6534 148.372 32.9463 148.462 33.2348C148.492 32.9287 148.466 32.6198 148.385 32.323C148.077 30.8553 147.235 29.5533 146.021 28.6681C145.778 28.4678 145.499 28.3141 145.199 28.2148Z" fill="#455A64"/>
<path d="M132.29 56.4111C132.29 56.4111 134.977 58.7115 137.859 57.8155L137.333 59.0469C137.094 59.5316 136.804 59.9893 136.466 60.4119C135.497 61.6823 134.347 62.8042 133.052 63.7419C132.054 60.818 131.631 58.5517 132.29 56.4111Z" fill="white"/>
<path d="M149.121 31.938C149.121 31.938 148.832 29.6009 148.569 27.5128C148.401 26.174 147.075 22.4745 145.417 21.9898C143.76 21.5051 143.153 22.223 142.431 22.0108C141.708 21.7986 140.792 21.0833 139.455 21.4187C138.118 21.754 136.387 22.4824 135.583 23.8736C134.779 25.2648 133.345 27.649 133.038 29.0717C132.913 29.7621 132.71 30.4363 132.434 31.0812C132.434 31.0812 138.745 28.2228 149.121 31.938Z" fill="#455A64"/>
<path d="M149.145 33.1221L148.861 29.8498C148.861 29.8498 144.133 28.2175 141.186 27.9555C138.239 27.6935 133.214 28.4507 133.214 28.4507L132.547 31.3694L149.145 33.1221Z" fill="#263238"/>
<path d="M143.926 22.9199C143.949 22.9199 144.039 23.2527 144.291 23.7505C144.63 24.3965 145.062 24.9897 145.573 25.5111C146.089 26.03 146.639 26.5157 147.217 26.9652C147.465 27.1438 147.699 27.34 147.918 27.5521C147.841 27.5212 147.77 27.4788 147.706 27.4263C147.574 27.3399 147.388 27.2089 147.159 27.0412C146.559 26.6103 145.996 26.13 145.476 25.6054C144.953 25.0767 144.523 24.4637 144.204 23.7924C144.11 23.5891 144.032 23.3789 143.97 23.1636C143.943 23.085 143.928 23.0029 143.926 22.9199Z" fill="#263238"/>
<path d="M137.398 26.551C137.398 26.5275 137.711 26.4567 138.186 26.2524C138.467 26.1307 138.737 25.988 138.995 25.8253C139.311 25.6283 139.609 25.4029 139.883 25.152C140.152 24.8926 140.397 24.6103 140.616 24.3083C140.793 24.0594 140.949 23.7966 141.084 23.5223C141.315 23.056 141.401 22.7363 141.425 22.7363C141.425 22.8133 141.41 22.8896 141.383 22.9616C141.329 23.1644 141.259 23.3624 141.173 23.5538C141.046 23.8376 140.894 24.1094 140.719 24.366C140.501 24.6796 140.253 24.971 139.978 25.2358C139.698 25.4984 139.394 25.7335 139.069 25.938C138.801 26.0982 138.52 26.2349 138.228 26.3467C138.033 26.4225 137.832 26.482 137.627 26.5248C137.553 26.546 137.476 26.5548 137.398 26.551Z" fill="#263238"/>
<path d="M156.757 34.909C156.882 34.9493 156.991 35.0275 157.069 35.1328C157.148 35.2381 157.191 35.3652 157.193 35.4962C157.196 35.6273 157.157 35.7558 157.082 35.8637C157.008 35.9717 156.901 36.0538 156.778 36.0984C152.068 37.7808 146.986 38.1432 142.084 37.1464C132.828 35.2574 124.677 29.9729 124.415 29.8104C123.745 29.3677 124.31 29.1869 124.536 29.1266C124.761 29.0664 137.587 30.6986 142.213 31.1152C145.78 31.4401 153.426 33.8295 156.757 34.909Z" fill="#455A64"/>
<path d="M122.852 49.1645C122.852 49.1645 124.604 43.4869 125.079 42.2896C125.199 41.956 125.411 41.6626 125.689 41.4423C125.967 41.2219 126.302 41.0835 126.655 41.0425L127.235 42.2293C128.678 45.334 134.243 49.1566 134.243 49.1566C134.243 49.1566 133.371 49.8142 132.447 55.2586C131.522 60.703 133.054 63.7422 133.054 63.7422" fill="#455A64"/>
<path d="M133.061 63.7423C133.061 63.7423 133.046 63.7214 133.025 63.6768C132.99 63.6112 132.96 63.5439 132.933 63.4751C132.824 63.2114 132.729 62.942 132.649 62.6681C132.359 61.6492 132.187 60.6004 132.137 59.5425C132.063 57.9505 132.176 56.3553 132.476 54.7898C132.631 53.899 132.817 52.9558 133.061 51.9969C133.19 51.5148 133.324 51.0248 133.492 50.5349C133.579 50.2886 133.673 50.045 133.781 49.8039C133.884 49.5471 134.029 49.3097 134.212 49.1018V49.2118C133.474 48.6878 132.728 48.1271 131.984 47.5271C131.388 47.0372 130.805 46.5446 130.261 46.0337C129.983 45.7848 129.736 45.5097 129.473 45.2661C129.211 45.0224 128.964 44.7421 128.735 44.4801C128.27 43.9628 127.853 43.4051 127.488 42.8138C127.157 42.2216 126.894 41.6348 126.618 41.0767L126.673 41.1108C126.342 41.1449 126.027 41.2711 125.764 41.4749C125.512 41.6701 125.313 41.9249 125.184 42.2164C124.942 42.798 124.761 43.3797 124.577 43.9168L123.663 46.7228C123.414 47.4957 123.214 48.1062 123.077 48.5332C123.009 48.735 122.959 48.8948 122.92 49.0101L122.878 49.1332C122.878 49.1594 122.862 49.1725 122.859 49.1725V49.1306L122.894 49.0048C122.928 48.8869 122.975 48.7271 123.033 48.5227L123.587 46.7018C123.829 45.9158 124.125 44.97 124.475 43.8853C124.659 43.3456 124.829 42.7692 125.076 42.1719C125.211 41.8537 125.428 41.5768 125.705 41.3693C125.981 41.1617 126.308 41.031 126.652 40.9902H126.692L126.71 41.0269C126.986 41.5824 127.259 42.1771 127.582 42.7509C127.944 43.3345 128.358 43.8843 128.819 44.3936C129.048 44.6556 129.308 44.9176 129.555 45.1796C129.802 45.4416 130.08 45.7036 130.343 45.942C130.886 46.4503 131.464 46.9403 132.061 47.4276C132.801 48.0276 133.547 48.5961 134.277 49.1096L134.341 49.1542L134.28 49.217C134.117 49.4115 133.985 49.6309 133.891 49.8668C133.784 50.1026 133.692 50.3436 133.605 50.5847C133.434 51.0694 133.303 51.5567 133.174 52.0362C132.927 52.9951 132.741 53.9304 132.581 54.8186C132.276 56.3756 132.152 57.9625 132.213 59.5477C132.255 60.6001 132.413 61.6447 132.683 62.6629C132.757 62.9379 132.844 63.209 132.946 63.4751L133.025 63.6794C133.039 63.6993 133.051 63.7203 133.061 63.7423Z" fill="#263238"/>
<path d="M112.887 49.8433C112.887 49.8433 108.395 50.9751 106.48 57.7242C105.574 60.9101 105.43 61.8193 105.43 61.8193L111.996 61.8402L112.887 49.8433Z" fill="#455A64"/>
<path d="M146.335 65.1255C146.31 65.2461 146.273 65.3637 146.224 65.4766L145.878 66.4119C145.583 67.1979 145.182 68.2931 144.761 69.5087C144.341 70.7244 143.973 71.8301 143.711 72.6318L143.419 73.5802C143.387 73.698 143.345 73.8128 143.293 73.9234C143.306 73.8015 143.331 73.6812 143.369 73.5645C143.427 73.3366 143.516 73.0091 143.632 72.603C143.866 71.7934 144.212 70.6799 144.633 69.459C145.053 68.238 145.47 67.1534 145.788 66.3726C145.946 65.9822 146.077 65.6678 146.174 65.4504C146.218 65.3376 146.272 65.2289 146.335 65.1255Z" fill="#263238"/>
<path d="M132.414 63.7422C132.414 63.7422 132.361 63.7108 132.269 63.6374L131.86 63.3073L131.573 63.0663L131.25 62.765C131.016 62.5475 130.749 62.3012 130.462 62.0104C129.006 60.5089 127.688 58.8806 126.522 57.1451C125.886 56.1949 125.3 55.2119 124.768 54.2002C124.317 53.3765 123.915 52.5271 123.565 51.6562C123.331 51.0671 123.137 50.4632 122.984 49.8484C122.945 49.6414 122.913 49.4711 122.887 49.3427C122.874 49.2842 122.866 49.2245 122.863 49.1646C122.888 49.2199 122.905 49.278 122.916 49.3375L123.037 49.8379C123.208 50.4429 123.415 51.0377 123.654 51.6195C124.016 52.481 124.425 53.3224 124.878 54.1399C125.382 55.07 125.989 56.0604 126.675 57.0691C127.827 58.7979 129.122 60.4279 130.546 61.9423C130.809 62.2384 131.072 62.4873 131.305 62.71L131.621 63.0191L131.896 63.268L132.277 63.6139C132.326 63.6528 132.372 63.6957 132.414 63.7422Z" fill="#263238"/>
<path d="M137.711 71.9531C137.627 71.858 137.553 71.7554 137.488 71.6466C137.351 71.4422 137.159 71.1462 136.926 70.7768C136.458 70.0405 135.828 69.0135 135.158 67.8633C134.488 66.7131 133.902 65.6599 133.49 64.8896C133.282 64.5071 133.119 64.1927 133.009 63.9752C132.947 63.8648 132.894 63.749 132.852 63.6294C132.929 63.7298 132.998 63.8367 133.056 63.949C133.193 64.1822 133.366 64.473 133.582 64.8451C134.031 65.6311 134.632 66.6529 135.284 67.7952L137.01 70.7401L137.535 71.6309C137.604 71.7323 137.663 71.8402 137.711 71.9531Z" fill="#263238"/>
<path d="M137.638 66.0243C137.507 65.8087 137.301 65.6478 137.06 65.5713C136.818 65.4947 136.558 65.5077 136.325 65.6078L136.104 65.7519C135.961 65.8764 135.855 66.0391 135.8 66.2211C135.746 66.4031 135.744 66.5969 135.795 66.7799C135.846 66.9629 135.949 67.1276 136.09 67.2549C136.231 67.3821 136.406 67.4667 136.594 67.4988C136.782 67.5309 136.975 67.5091 137.151 67.436C137.327 67.3629 137.478 67.2416 137.587 67.086C137.697 66.9305 137.76 66.7471 137.769 66.5573C137.778 66.3675 137.733 66.179 137.638 66.0139V66.0243Z" fill="#263238"/>
<path d="M136.462 66.7366C136.563 66.7366 136.644 66.6556 136.644 66.5558C136.644 66.4559 136.563 66.375 136.462 66.375C136.362 66.375 136.281 66.4559 136.281 66.5558C136.281 66.6556 136.362 66.7366 136.462 66.7366Z" fill="#455A64"/>
<path d="M137.191 66.548C137.191 66.5837 137.18 66.6187 137.16 66.6484C137.14 66.6781 137.112 66.7013 137.079 66.715C137.046 66.7287 137.009 66.7323 136.974 66.7253C136.939 66.7183 136.907 66.7011 136.881 66.6758C136.856 66.6505 136.839 66.6183 136.832 66.5832C136.825 66.5482 136.828 66.5118 136.842 66.4788C136.856 66.4458 136.879 66.4175 136.909 66.3977C136.938 66.3778 136.974 66.3672 137.009 66.3672C137.057 66.3672 137.104 66.3862 137.138 66.4201C137.172 66.454 137.191 66.5 137.191 66.548Z" fill="#455A64"/>
<path d="M139.77 69.954C139.638 69.7384 139.433 69.5775 139.191 69.5009C138.95 69.4244 138.689 69.4374 138.457 69.5374L138.233 69.6815C138.089 69.8061 137.984 69.9688 137.929 70.1508C137.874 70.3328 137.873 70.5266 137.924 70.7096C137.975 70.8926 138.077 71.0573 138.219 71.1845C138.36 71.3118 138.535 71.3964 138.723 71.4285C138.911 71.4605 139.104 71.4388 139.28 71.3657C139.455 71.2926 139.607 71.1713 139.716 71.0157C139.826 70.8601 139.889 70.6768 139.898 70.487C139.907 70.2972 139.861 70.1087 139.767 69.9435L139.77 69.954Z" fill="#263238"/>
<path d="M138.591 70.6614C138.691 70.6614 138.773 70.5804 138.773 70.4806C138.773 70.3807 138.691 70.2998 138.591 70.2998C138.491 70.2998 138.41 70.3807 138.41 70.4806C138.41 70.5804 138.491 70.6614 138.591 70.6614Z" fill="#455A64"/>
<path d="M139.138 70.6614C139.238 70.6614 139.32 70.5804 139.32 70.4806C139.32 70.3807 139.238 70.2998 139.138 70.2998C139.038 70.2998 138.957 70.3807 138.957 70.4806C138.957 70.5804 139.038 70.6614 139.138 70.6614Z" fill="#455A64"/>
<path d="M117.386 57.3439C117.331 57.2619 117.286 57.174 117.252 57.0819C117.157 56.8906 117.047 56.6574 116.913 56.3849C116.627 55.7981 116.214 54.9963 115.707 54.1396C115.2 53.2829 114.693 52.5335 114.315 52.0017L113.866 51.3703C113.806 51.2964 113.754 51.2165 113.711 51.1318C113.785 51.1919 113.852 51.2615 113.908 51.3388C114.029 51.4777 114.194 51.6847 114.394 51.944C115.43 53.3054 116.305 54.7815 117.002 56.343C117.133 56.6443 117.236 56.888 117.299 57.0609C117.343 57.1501 117.372 57.2456 117.386 57.3439Z" fill="#263238"/>
<path d="M117.126 61.9527C117.109 61.3856 117.136 60.8179 117.207 60.255C117.236 59.6886 117.309 59.1254 117.425 58.5703C117.444 59.1375 117.417 59.7053 117.344 60.2681C117.318 60.8347 117.245 61.3982 117.126 61.9527Z" fill="#263238"/>
<path d="M124.521 53.6315C124.521 53.6682 122.543 53.773 120.098 53.8647C117.652 53.9564 115.672 53.9983 115.672 53.959C115.672 53.9197 117.65 53.8176 120.093 53.7285C122.535 53.6394 124.518 53.5949 124.521 53.6315Z" fill="#263238"/>
<path d="M123.524 51.4541C123.404 51.4667 123.284 51.4667 123.164 51.4541C122.936 51.4541 122.599 51.4279 122.19 51.4148C120.041 51.3494 117.894 51.5589 115.799 52.0384C115.397 52.1301 115.071 52.2087 114.848 52.2663C114.733 52.3012 114.615 52.3257 114.496 52.3397C114.603 52.2853 114.716 52.2431 114.832 52.2139C115.053 52.1406 115.373 52.0489 115.775 51.9519C116.821 51.6858 117.885 51.4993 118.959 51.3939C120.033 51.2911 121.114 51.2684 122.192 51.3257C122.605 51.3519 122.938 51.3808 123.169 51.4096C123.289 51.4133 123.407 51.4282 123.524 51.4541Z" fill="#263238"/>
<path d="M146.045 63.1552C145.871 63.0216 145.708 62.8735 145.559 62.7124C145.174 62.3523 144.767 62.0154 144.341 61.7037C143.914 61.3938 143.468 61.1103 143.006 60.8548C142.808 60.7597 142.616 60.6503 142.434 60.5273C142.649 60.5805 142.857 60.6615 143.051 60.7684C143.532 61.0022 143.991 61.2784 144.422 61.5937C144.855 61.9054 145.259 62.2563 145.628 62.6417C145.79 62.7932 145.93 62.9659 146.045 63.1552Z" fill="#263238"/>
<path d="M146.941 62.3875C146.677 61.7994 146.346 61.243 145.956 60.729C145.529 60.2455 145.05 59.8105 144.527 59.4321C144.71 59.4913 144.882 59.5798 145.037 59.6941C145.812 60.2214 146.416 60.9613 146.778 61.8242C146.865 62.0011 146.92 62.1917 146.941 62.3875Z" fill="#263238"/>
<path d="M122.388 97.0581C122.375 100.535 122.388 106.621 122.414 110.111C122.418 110.818 122.702 111.495 123.204 111.994C123.707 112.493 124.387 112.773 125.096 112.773H142.929C143.64 112.773 144.322 112.491 144.825 111.989C145.328 111.488 145.61 110.807 145.61 110.098V96.8432C145.61 96.4888 145.54 96.138 145.403 95.811C145.266 95.484 145.065 95.1875 144.812 94.9386C144.559 94.6897 144.259 94.4935 143.929 94.3612C143.6 94.229 143.247 94.1634 142.892 94.1682L125.03 94.3935C124.328 94.4038 123.657 94.6888 123.163 95.1871C122.669 95.6854 122.391 96.3572 122.388 97.0581Z" fill="#455A64"/>
<path d="M135.299 104.136C136.487 103.648 137.054 102.291 136.565 101.106C136.076 99.9202 134.716 99.3547 133.527 99.8426C132.339 100.331 131.772 101.687 132.261 102.873C132.75 104.058 134.11 104.624 135.299 104.136Z" fill="#263238"/>
<path d="M133.201 103.37H135.636V107.7C135.636 107.975 135.526 108.238 135.332 108.432C135.137 108.626 134.873 108.735 134.598 108.735H134.225C133.95 108.735 133.686 108.626 133.491 108.432C133.297 108.238 133.187 107.975 133.188 107.7V103.37H133.201Z" fill="#263238"/>
<path d="M128.52 94.3622H126.082V87.5502C126.082 85.4531 126.917 83.4419 128.404 81.959C129.891 80.4761 131.907 79.6431 134.009 79.6431C136.112 79.6431 138.128 80.4761 139.615 81.959C141.101 83.4419 141.937 85.4531 141.937 87.5502V90.7833H139.478V87.5424C139.478 86.0929 138.901 84.7027 137.873 83.6778C136.846 82.6529 135.452 82.077 133.999 82.077C132.546 82.077 131.152 82.6529 130.124 83.6778C129.097 84.7027 128.52 86.0929 128.52 87.5424V94.3622Z" fill="#E0E0E0"/>
<path d="M128.52 94.3621C128.52 94.3621 128.52 94.3123 128.52 94.2232V93.8224C128.52 93.4661 128.52 92.9499 128.52 92.2818C128.52 91.6137 128.52 90.7937 128.507 89.84C128.507 89.3631 128.507 88.8522 128.507 88.3099C128.48 87.7321 128.509 87.1531 128.591 86.5807C128.829 85.2444 129.552 84.0422 130.622 83.2035C131.217 82.7348 131.904 82.3948 132.639 82.2053C133.422 82.0021 134.241 81.9717 135.037 82.1162C135.881 82.2685 136.677 82.6187 137.359 83.138C138.082 83.673 138.659 84.3801 139.038 85.1947C139.139 85.402 139.226 85.6155 139.3 85.834C139.37 86.0552 139.428 86.28 139.474 86.5073C139.555 86.9699 139.589 87.4396 139.576 87.909C139.576 88.847 139.576 89.8024 139.576 90.7753L139.508 90.7072H141.956L141.888 90.7753V88.8915C141.888 88.2523 141.906 87.5973 141.856 86.9501C141.788 86.0859 141.581 85.2382 141.241 84.4402C140.742 83.3017 139.981 82.2964 139.02 81.5054C138.059 80.7144 136.925 80.1599 135.71 79.8866C135.515 79.8368 135.318 79.8211 135.124 79.787L134.835 79.7425L134.541 79.7268C134.346 79.7268 134.152 79.698 133.96 79.7032L133.382 79.732C132.632 79.7913 131.895 79.9599 131.194 80.2324C131.11 80.2665 131.021 80.2927 130.932 80.3294L130.685 80.4473C130.522 80.5311 130.354 80.5992 130.199 80.6909C129.585 81.0392 129.018 81.4625 128.51 81.9512C128.386 82.0691 128.279 82.2001 128.161 82.3232C128.043 82.4435 127.934 82.5722 127.835 82.7083C127.047 83.7006 126.514 84.8698 126.283 86.1143C126.184 86.6792 126.137 87.2519 126.143 87.8252V89.4208C126.143 91.4565 126.13 93.1255 126.128 94.3516L126.101 94.3254L127.916 94.3411H128.386H128.549H128.394H127.932L126.093 94.3569H126.067V94.3307C126.067 93.1045 126.067 91.4356 126.051 89.3998C126.051 88.8889 126.051 88.3518 126.051 87.8042C126.045 87.225 126.09 86.6464 126.185 86.075C126.415 84.8097 126.951 83.6197 127.748 82.6088C127.85 82.4707 127.96 82.3394 128.079 82.2158C128.197 82.09 128.305 81.9538 128.434 81.8359C128.687 81.5914 128.956 81.363 129.238 81.1521C129.525 80.9317 129.828 80.7321 130.144 80.5547C130.299 80.4604 130.472 80.3923 130.635 80.3084L130.898 80.1853C130.982 80.1486 131.071 80.1198 131.16 80.0857C131.872 79.8037 132.622 79.6272 133.385 79.5617L133.968 79.5303C134.165 79.5303 134.362 79.546 134.562 79.5539L134.859 79.5696L135.153 79.6141C135.35 79.6482 135.552 79.6639 135.746 79.7137C137.382 80.0731 138.863 80.9354 139.981 82.1791C140.56 82.8211 141.031 83.5518 141.378 84.3432C141.722 85.1549 141.933 86.0165 142.003 86.8951C142.053 87.558 142.027 88.2051 142.035 88.847V90.7989H139.45V90.7334C139.45 89.7605 139.45 88.8051 139.45 87.8671C139.463 87.4057 139.43 86.9441 139.353 86.489C139.308 86.2663 139.25 86.0462 139.185 85.8314C138.844 84.7773 138.183 83.8551 137.293 83.193C136.628 82.6839 135.851 82.34 135.027 82.1896C134.247 82.0473 133.446 82.0741 132.678 82.2682C131.673 82.5288 130.763 83.0707 130.056 83.8302C129.349 84.5896 128.875 85.5349 128.689 86.5545C128.604 87.1233 128.573 87.6987 128.597 88.2732C128.597 88.8208 128.597 89.3343 128.597 89.8164C128.597 90.7727 128.597 91.5954 128.597 92.2661C128.597 92.9368 128.597 93.4425 128.583 93.7962V94.1892C128.523 94.3202 128.52 94.3621 128.52 94.3621Z" fill="#263238"/>
<path d="M148.307 88.6426C147.74 89.0518 147.148 89.4246 146.534 89.7587C145.944 90.1316 145.33 90.465 144.695 90.7569C145.853 89.9746 147.06 89.2683 148.31 88.6426H148.307Z" fill="#263238"/>
<path d="M145.551 87.2461C145.406 87.7434 145.218 88.2273 144.989 88.6923C144.799 89.1746 144.569 89.64 144.301 90.0836C144.445 89.5857 144.633 89.1017 144.863 88.6373C145.052 88.155 145.283 87.6896 145.551 87.2461Z" fill="#263238"/>
<path d="M147.258 92.7484C146.876 92.626 146.51 92.4617 146.165 92.2584C145.799 92.0945 145.453 91.8897 145.133 91.6479C145.881 91.9324 146.594 92.3016 147.258 92.7484Z" fill="#263238"/>
<path d="M152.925 91.0557C153.678 90.3483 155.089 91.1343 155.738 91.9387L155.507 91.619C156.45 92.8504 156.778 94.0661 156.376 95.5621C156.05 96.7752 155.651 98.0878 155.346 98.5856L153.957 100.844C153.81 101.091 153.607 101.3 153.364 101.454C153.121 101.608 152.846 101.704 152.559 101.732C152.442 101.752 152.322 101.732 152.218 101.675L151.251 101.46C151.251 101.46 150.161 102.073 149.444 102.369C148.727 102.665 147.183 102.458 147.183 102.458L143.941 105.366C143.795 105.503 143.612 105.594 143.414 105.626C143.216 105.659 143.013 105.632 142.83 105.55C142.776 105.531 142.725 105.502 142.682 105.464C142.639 105.425 142.604 105.379 142.58 105.326C142.555 105.274 142.541 105.218 142.539 105.16C142.537 105.103 142.547 105.045 142.568 104.992C142.788 104.268 145.307 101.586 145.307 101.586L145.772 100.907L147.963 97.7629C147.948 97.6938 147.915 97.6298 147.868 97.5774C147.82 97.525 147.76 97.4861 147.692 97.4645C147.625 97.443 147.553 97.4396 147.484 97.4548C147.414 97.4699 147.351 97.503 147.298 97.5507L146.607 98.1821L145.67 99.9009C145.67 99.9009 144.711 100.553 144.094 100.05L145.095 97.1237L147.269 94.2967C147.269 94.2967 151.17 92.6828 152.081 91.8313C152.347 91.5928 152.638 91.3204 152.925 91.0557Z" fill="#FFBE9D"/>
<path d="M149.765 100.255C149.799 100.278 149.339 100.91 148.612 101.528C147.884 102.146 147.191 102.505 147.172 102.469C147.154 102.432 147.795 102.018 148.507 101.407C149.218 100.797 149.723 100.223 149.765 100.255Z" fill="#EB996E"/>
<path d="M152.027 100.807C152.067 100.844 151.765 101.156 151.318 101.436C151.067 101.632 150.782 101.781 150.478 101.876C150.454 101.837 150.796 101.588 151.229 101.302C151.482 101.117 151.749 100.951 152.027 100.807Z" fill="#EB996E"/>
<path d="M144.75 102.204C144.93 101.93 145.127 101.668 145.338 101.418C145.709 100.938 146.208 100.268 146.736 99.5077C146.998 99.1305 147.245 98.7637 147.466 98.4309C147.668 98.147 147.824 97.8331 147.928 97.5008C148.013 97.1902 148.001 96.8614 147.894 96.5576C147.894 96.5576 147.965 96.6284 148.02 96.796C148.091 97.0338 148.097 97.286 148.039 97.527C147.947 97.8779 147.795 98.2103 147.589 98.5095C147.374 98.8501 147.132 99.2195 146.867 99.5994C146.342 100.362 145.816 101.025 145.428 101.488C145.227 101.749 145 101.989 144.75 102.204Z" fill="#EB996E"/>
<path d="M147.761 97.2021C147.774 97.2257 147.554 97.341 147.254 97.5925C146.865 97.92 146.553 98.3288 146.34 98.7899C146.241 99.0631 146.116 99.3263 145.967 99.5759C145.827 99.7793 145.631 99.9377 145.403 100.032C145.207 100.133 144.99 100.186 144.77 100.186C144.77 100.158 145.009 100.108 145.353 99.9243C145.553 99.8264 145.723 99.6761 145.844 99.4894C145.98 99.2438 146.097 98.988 146.193 98.7244C146.414 98.2404 146.755 97.8203 147.183 97.5034C147.351 97.3615 147.549 97.2585 147.761 97.2021Z" fill="#EB996E"/>
<path d="M157.832 96.2039C157.81 96.1644 157.794 96.1221 157.784 96.0781C157.753 95.9812 157.716 95.8607 157.671 95.7139C157.574 95.3969 157.443 94.9279 157.238 94.383C157.009 93.731 156.691 93.1138 156.292 92.549C155.812 91.858 155.135 91.3261 154.349 91.0215C153.546 90.7581 152.677 90.7785 151.888 91.0792C151.241 91.321 150.642 91.6759 150.12 92.1272C149.765 92.4292 149.429 92.7529 149.114 93.0966L148.851 93.3769C148.791 93.4398 148.757 93.4738 148.754 93.4686C148.776 93.4295 148.801 93.3927 148.83 93.3586C148.883 93.2904 148.964 93.1883 149.069 93.0625C149.372 92.7024 149.701 92.3652 150.054 92.0538C150.578 91.5849 151.185 91.2164 151.843 90.9665C152.658 90.6481 153.559 90.6231 154.391 90.8958C155.201 91.2078 155.898 91.7555 156.392 92.4678C156.792 93.0446 157.107 93.6754 157.327 94.3411C157.519 94.9017 157.637 95.3681 157.719 95.6904C157.755 95.8371 157.784 95.9524 157.808 96.0624C157.823 96.108 157.831 96.1558 157.832 96.2039Z" fill="#263238"/>
<path d="M155.427 79.2106C155.427 79.2368 155.012 79.2106 154.35 79.2813C153.489 79.3834 152.649 79.6222 151.863 79.9887C151.074 80.3502 150.353 80.8448 149.733 81.4507C149.26 81.9196 149.039 82.2707 149.016 82.255C149.053 82.1618 149.103 82.0737 149.163 81.993C149.224 81.8969 149.292 81.805 149.365 81.7179C149.457 81.5964 149.557 81.4809 149.664 81.3721C150.275 80.7357 151.002 80.221 151.805 79.8551C152.603 79.4814 153.461 79.2517 154.34 79.1765C154.602 79.1567 154.866 79.1567 155.128 79.1765C155.229 79.176 155.329 79.1874 155.427 79.2106Z" fill="#263238"/>
<path d="M146.332 48.1216C146.706 48.3669 147.057 48.6439 147.383 48.9495C147.767 49.3023 148.119 49.6891 148.434 50.1049C148.86 50.6543 149.194 51.2693 149.421 51.9258V51.9573L149.395 51.9782L143.188 57.3178V57.2104L144.095 57.8889L145.103 58.6461L145.198 58.7169L145.09 58.7614L136.54 62.3246L133.982 63.3726L133.307 63.666L133.126 63.7342C133.084 63.7499 133.062 63.7551 133.062 63.7525L133.12 63.7211L133.296 63.6398L133.982 63.3412L136.524 62.2512L145.056 58.6461L145.04 58.764L144.029 58.0068L143.125 57.3309L143.057 57.2785L143.123 57.2235L149.35 51.9127L149.335 51.9625C149.117 51.3154 148.794 50.7082 148.379 50.1652C148.073 49.7454 147.731 49.3535 147.357 48.994C147.204 48.8421 147.057 48.7189 146.934 48.6115C146.81 48.5041 146.7 48.415 146.611 48.3495L146.409 48.1897C146.38 48.1703 146.355 48.1474 146.332 48.1216Z" fill="#263238"/>
<path d="M140.819 47.5006C140.727 47.574 140.333 47.2229 139.823 46.843C139.314 46.4631 138.873 46.1723 138.917 46.057C138.962 45.9417 139.519 46.0884 140.07 46.5076C140.622 46.9268 140.906 47.4351 140.819 47.5006Z" fill="#263238"/>
<g opacity="0.3">
<path d="M155.322 78.2096C154.566 77.7092 153.544 77.9266 152.722 78.3092C151.034 79.1204 149.712 80.5327 149.016 82.268L149.278 81.8383C150.636 80.1903 152.774 79.3388 154.915 79.2707C155.076 79.2657 155.231 79.2096 155.359 79.1107C155.486 79.0118 155.578 78.8751 155.622 78.7205C155.626 78.6157 155.6 78.5118 155.547 78.4212C155.494 78.3306 155.416 78.2572 155.322 78.2096Z" fill="black"/>
</g>
</svg>
