<svg width="25" height="25" viewBox="0 0 25 25" fill="none" xmlns="http://www.w3.org/2000/svg">
<circle cx="12.5" cy="12.5" r="12" fill="white" stroke="#38D8A2"/>
<path d="M15.204 9.076C15.0616 9.076 14.9224 9.11823 14.804 9.19734C14.6856 9.27646 14.5933 9.38891 14.5388 9.52047C14.4843 9.65203 14.4701 9.7968 14.4978 9.93647C14.5256 10.0761 14.5942 10.2044 14.6949 10.3051C14.7956 10.4058 14.9239 10.4744 15.0635 10.5022C15.2032 10.5299 15.348 10.5157 15.4795 10.4612C15.6111 10.4067 15.7235 10.3144 15.8027 10.196C15.8818 10.0776 15.924 9.9384 15.924 9.796C15.924 9.60504 15.8481 9.42191 15.7131 9.28688C15.5781 9.15186 15.395 9.076 15.204 9.076ZM17.964 10.528C17.9523 10.0302 17.8591 9.53764 17.688 9.07C17.5354 8.66988 17.298 8.30757 16.992 8.008C16.6949 7.70046 16.3317 7.46451 15.93 7.318C15.4636 7.1417 14.9705 7.04633 14.472 7.036C13.836 7 13.632 7 12 7C10.368 7 10.164 7 9.528 7.036C9.02949 7.04633 8.53641 7.1417 8.07 7.318C7.66901 7.46599 7.30616 7.70174 7.008 8.008C6.70046 8.30511 6.46451 8.66826 6.318 9.07C6.1417 9.53641 6.04633 10.0295 6.036 10.528C6 11.164 6 11.368 6 13C6 14.632 6 14.836 6.036 15.472C6.04633 15.9705 6.1417 16.4636 6.318 16.93C6.46451 17.3317 6.70046 17.6949 7.008 17.992C7.30616 18.2983 7.66901 18.534 8.07 18.682C8.53641 18.8583 9.02949 18.9537 9.528 18.964C10.164 19 10.368 19 12 19C13.632 19 13.836 19 14.472 18.964C14.9705 18.9537 15.4636 18.8583 15.93 18.682C16.3317 18.5355 16.6949 18.2995 16.992 17.992C17.2993 17.6935 17.537 17.3309 17.688 16.93C17.8591 16.4624 17.9523 15.9698 17.964 15.472C17.964 14.836 18 14.632 18 13C18 11.368 18 11.164 17.964 10.528ZM16.884 15.4C16.8796 15.7809 16.8107 16.1582 16.68 16.516C16.5842 16.7771 16.4303 17.0131 16.23 17.206C16.0354 17.4043 15.7999 17.5579 15.54 17.656C15.1822 17.7867 14.8049 17.8556 14.424 17.86C13.824 17.89 13.602 17.896 12.024 17.896C10.446 17.896 10.224 17.896 9.624 17.86C9.22853 17.8674 8.83476 17.8065 8.46 17.68C8.21147 17.5768 7.98681 17.4237 7.8 17.23C7.60085 17.0372 7.44891 16.8011 7.356 16.54C7.20951 16.1771 7.12827 15.7912 7.116 15.4C7.116 14.8 7.08 14.578 7.08 13C7.08 11.422 7.08 11.2 7.116 10.6C7.11869 10.2106 7.18977 9.82477 7.326 9.46C7.43163 9.20675 7.59376 8.981 7.8 8.8C7.98229 8.5937 8.20757 8.42986 8.46 8.32C8.82573 8.18803 9.2112 8.11905 9.6 8.116C10.2 8.116 10.422 8.08 12 8.08C13.578 8.08 13.8 8.08 14.4 8.116C14.7809 8.12037 15.1582 8.18935 15.516 8.32C15.7887 8.42119 16.0334 8.58571 16.23 8.8C16.4266 8.98431 16.5803 9.20964 16.68 9.46C16.8134 9.82536 16.8824 10.2111 16.884 10.6C16.914 11.2 16.92 11.422 16.92 13C16.92 14.578 16.914 14.8 16.884 15.4ZM12 9.922C11.3915 9.92319 10.797 10.1047 10.2916 10.4437C9.78621 10.7826 9.39263 11.2637 9.16058 11.8263C8.92853 12.3888 8.86843 13.0075 8.98788 13.6042C9.10732 14.2008 9.40094 14.7487 9.83165 15.1786C10.2623 15.6085 10.8108 15.901 11.4077 16.0193C12.0046 16.1376 12.6232 16.0763 13.1853 15.8431C13.7474 15.61 14.2277 15.2155 14.5657 14.7094C14.9036 14.2034 15.084 13.6085 15.084 13C15.0848 12.5951 15.0055 12.194 14.8507 11.8198C14.696 11.4456 14.4687 11.1057 14.1821 10.8196C13.8955 10.5336 13.5552 10.307 13.1807 10.153C12.8062 9.99891 12.4049 9.92042 12 9.922ZM12 14.998C11.6048 14.998 11.2185 14.8808 10.89 14.6613C10.5614 14.4417 10.3053 14.1297 10.1541 13.7646C10.0029 13.3995 9.9633 12.9978 10.0404 12.6102C10.1175 12.2226 10.3078 11.8666 10.5872 11.5872C10.8666 11.3078 11.2226 11.1175 11.6102 11.0404C11.9978 10.9633 12.3995 11.0029 12.7646 11.1541C13.1297 11.3053 13.4417 11.5614 13.6613 11.89C13.8808 12.2185 13.998 12.6048 13.998 13C13.998 13.2624 13.9463 13.5222 13.8459 13.7646C13.7455 14.007 13.5983 14.2273 13.4128 14.4128C13.2273 14.5983 13.007 14.7455 12.7646 14.8459C12.5222 14.9463 12.2624 14.998 12 14.998Z" fill="#38D8A2"/>
</svg>
