<svg width="25" height="25" viewBox="0 0 25 25" fill="none" xmlns="http://www.w3.org/2000/svg">
<circle cx="12.5" cy="12.5" r="12" fill="white" stroke="#38D8A2"/>
<path fill-rule="evenodd" clip-rule="evenodd" d="M19 17H16.6V12.8006C16.6 11.6486 16.0918 11.006 15.1804 11.006C14.1886 11.006 13.6 11.6756 13.6 12.8006V17H11.2V9.2H13.6V10.0772C13.6 10.0772 14.353 8.756 16.0498 8.756C17.7472 8.756 19 9.7916 19 11.9348V17ZM8.46521 7.9526C8.27204 7.95189 8.0809 7.91313 7.90271 7.83854C7.72452 7.76394 7.56277 7.65497 7.42671 7.51784C7.29064 7.38072 7.18293 7.21813 7.10971 7.03937C7.0365 6.86061 6.99922 6.66917 7.00001 6.476C6.9993 6.28288 7.03664 6.09151 7.10989 5.91281C7.18313 5.73412 7.29086 5.5716 7.42692 5.43454C7.56298 5.29748 7.7247 5.18857 7.90285 5.11401C8.081 5.03945 8.27209 5.00071 8.46521 5C8.85513 5.00159 9.22847 5.15797 9.50311 5.43476C9.77776 5.71154 9.93124 6.08608 9.92981 6.476C9.93068 6.66914 9.89347 6.86057 9.82033 7.03933C9.74718 7.21808 9.63952 7.38068 9.5035 7.51781C9.36749 7.65494 9.20578 7.76392 9.02762 7.83852C8.84947 7.91313 8.65836 7.95189 8.46521 7.9526ZM7.00001 17H10V9.2H7.00001V17Z" fill="#38D8A2"/>
</svg>
