<svg width="42" height="40" viewBox="0 0 42 40" fill="none" xmlns="http://www.w3.org/2000/svg">
<ellipse cx="21.137" cy="20" rx="20.3518" ry="20" fill="#38D8A2"/>
<path d="M12.7222 27.6924C12.2525 27.6924 11.8415 27.5481 11.4893 27.2597C11.1371 26.9712 10.9609 26.6347 10.9609 26.25V13.75C10.9609 13.3654 11.1371 13.0289 11.4893 12.7404C11.8415 12.452 12.2525 12.3077 12.7222 12.3077H27.986C28.4557 12.3077 28.8666 12.452 29.2189 12.7404C29.5711 13.0289 29.7472 13.3654 29.7472 13.75V18.9183L34.4438 15.0722V24.9279L29.7472 21.0818V26.25C29.7472 26.6347 29.5711 26.9712 29.2189 27.2597C28.8666 27.5481 28.4557 27.6924 27.986 27.6924H12.7222ZM12.7222 26.25H27.986V13.75H12.7222V26.25ZM12.7222 26.25V13.75V26.25Z" fill="white"/>
</svg>
