<svg width="192" height="192" viewBox="0 0 192 192" fill="none" xmlns="http://www.w3.org/2000/svg">
<path d="M57.6172 15.4175H25.0117V49.4053H57.6172V15.4175Z" fill="#E0E0E0"/>
<path d="M55.4101 15.4175H22.8047V49.4053H55.4101V15.4175Z" fill="#EBEBEB"/>
<path d="M51.0301 19.9868H27.1914V44.8355H51.0301V19.9868Z" fill="#FAFAFA"/>
<path d="M27.1906 45.001C27.0152 45.2514 26.8159 45.4842 26.5954 45.696C26.2114 46.08 25.6738 46.6368 25.0594 47.232C24.445 47.8272 23.9074 48.3533 23.5234 48.7258C23.3157 48.9413 23.0882 49.1367 22.8438 49.3095C23.0123 49.0582 23.2066 48.8252 23.4236 48.6144C23.8076 48.2304 24.3452 47.6698 24.9596 47.0784C25.574 46.4871 26.1116 45.9571 26.5148 45.5808C26.7182 45.3634 26.9448 45.169 27.1906 45.001Z" fill="#E0E0E0"/>
<path d="M51.0273 44.9277C51.2711 45.1041 51.4974 45.3034 51.7032 45.5229C52.0872 45.9069 52.644 46.4445 53.2392 47.0589C53.8344 47.6733 54.3566 48.2109 54.7329 48.5949C54.9495 48.8016 55.1451 49.0293 55.3166 49.2746C55.071 49.1021 54.8444 48.9038 54.6408 48.6833C54.2568 48.2993 53.7 47.7617 53.1048 47.1473C52.5096 46.5329 51.9873 45.9953 51.611 45.6113C51.3929 45.4046 51.1973 45.1755 51.0273 44.9277Z" fill="#E0E0E0"/>
<path d="M50.9648 20.0525C51.1398 19.8075 51.3392 19.5811 51.56 19.3766C51.944 18.9926 52.4778 18.4358 53.0768 17.8406C53.6759 17.2454 54.2288 16.7193 54.632 16.3469C54.8405 16.1306 55.0694 15.9352 55.3156 15.7632C55.1399 16.0063 54.9405 16.2314 54.7204 16.4352C54.3364 16.8192 53.8026 17.3798 53.1844 17.9712C52.5661 18.5625 52.0324 19.0925 51.6253 19.4688C51.4254 19.6851 51.2041 19.8807 50.9648 20.0525Z" fill="#E0E0E0"/>
<path d="M27.1252 20.114C26.8815 19.9376 26.6552 19.7383 26.4494 19.5188C26.0654 19.1348 25.5047 18.5972 24.9134 17.9828C24.322 17.3684 23.7921 16.8308 23.4158 16.4468C23.1995 16.2408 23.0052 16.0131 22.8359 15.7671C23.0788 15.9417 23.3038 16.1398 23.5079 16.3584C23.8919 16.7424 24.4526 17.28 25.0439 17.8944C25.6353 18.5088 26.1652 19.0464 26.5415 19.4304C26.7596 19.6371 26.9553 19.8662 27.1252 20.114Z" fill="#E0E0E0"/>
<path d="M50.9639 44.8357C50.9639 44.8357 50.9639 44.7934 50.9639 44.7166C50.9639 44.6398 50.9639 44.517 50.9639 44.371C50.9639 44.06 50.9639 43.603 50.9639 43.0309C50.9639 41.8558 50.9639 40.1432 50.9639 37.9659C50.9639 33.6152 50.9408 27.4136 50.9216 19.987L51.0023 20.0638H27.2288L27.3171 19.9755C27.3171 29.0955 27.3171 37.6395 27.3171 44.8242L27.2403 44.7474L44.4589 44.7857L49.2896 44.8088H50.5683H49.3088H44.4896L27.2096 44.8472H27.1328V44.7704C27.1328 37.5742 27.1328 29.0264 27.1328 19.9218V19.8296H27.225H50.9984H51.0752V19.9102C51.0752 27.356 51.0445 33.5768 51.0368 37.9582C51.0368 40.1278 51.0368 41.8328 51.0138 43.004C51.0138 43.58 51.0138 44.0254 51.0138 44.3288C51.0138 44.4747 51.0138 44.5861 51.0138 44.6667C51.0138 44.7474 50.9639 44.8357 50.9639 44.8357Z" fill="#E0E0E0"/>
<path d="M33.4778 30.3667C33.4778 30.3667 32.9671 36.5107 39.6218 36.5107C39.6295 33.2352 36.9223 30.6432 33.4778 30.3667Z" fill="#EBEBEB"/>
<path d="M45.6713 30.3704C45.6713 30.3704 39.5273 29.8597 39.5273 36.5144C42.8029 36.5259 45.3949 33.8149 45.6713 30.3704Z" fill="#EBEBEB"/>
<path d="M39.334 27.0029C39.334 27.0029 34.3074 31.5149 39.6105 36.5184C42.0758 33.9072 41.853 29.81 39.334 27.0029Z" fill="#E0E0E0"/>
<path d="M141.562 139.876C139.533 138.608 137.241 137.82 134.862 137.572C133.767 137.461 132.558 137.491 131.69 138.156C131.589 138.215 131.506 138.3 131.449 138.402C131.391 138.504 131.362 138.619 131.363 138.735C131.418 138.896 131.528 139.033 131.674 139.119C134.401 141.197 138.525 141.462 141.562 139.868" fill="#E0E0E0"/>
<path d="M141.391 139.684C139.839 138.545 138.391 137.272 137.064 135.878C135.731 134.475 134.794 132.743 134.349 130.859C134.233 130.287 134.199 129.634 134.564 129.181C138.02 131.869 140.708 135.36 141.391 139.684Z" fill="#E0E0E0"/>
<path d="M141.531 139.849C141.211 137.966 141.237 136.04 141.608 134.166C142.042 132.311 143.052 130.537 144.637 129.477C145.233 130.871 144.975 132.476 144.557 133.931C143.906 136.188 142.892 138.323 141.554 140.252" fill="#E0E0E0"/>
<path d="M144.909 145.92C142.858 146.17 141.069 147.252 139.533 148.639C137.994 150.042 136.922 151.884 136.461 153.915C138.477 153.792 140.186 152.379 141.422 150.781C142.659 149.184 143.523 147.441 144.878 145.951" fill="#E0E0E0"/>
<path d="M145.647 146.876C144.839 144.824 144.557 142.603 144.825 140.414C145.093 138.226 145.904 136.138 147.183 134.342C148.354 138.501 147.924 143.201 145.647 146.876Z" fill="#E0E0E0"/>
<path d="M150.111 152.198C148.234 152.081 146.365 152.519 144.736 153.457C143.106 154.396 141.789 155.793 140.949 157.474C140.833 157.701 140.733 157.989 140.887 158.192C140.966 158.269 141.063 158.325 141.169 158.356C141.274 158.387 141.386 158.391 141.494 158.369C143.299 158.254 144.9 157.167 146.221 155.931C147.542 154.694 148.694 153.262 150.153 152.194" fill="#E0E0E0"/>
<path d="M149.97 151.91C149.009 148.812 148.95 145.505 149.801 142.375C150.135 141.147 150.7 139.856 151.836 139.28C151.881 139.25 151.932 139.229 151.986 139.22C152.04 139.211 152.095 139.213 152.147 139.227C152.239 139.275 152.309 139.356 152.343 139.453C152.724 140.312 152.888 141.25 152.823 142.187C152.755 143.12 152.611 144.046 152.393 144.956C152.036 146.649 151.848 148.469 150.918 149.929C150.698 150.279 150.501 150.643 150.327 151.019C150.15 151.403 150.15 151.522 149.989 151.818" fill="#E0E0E0"/>
<path d="M161.797 153.673C160.921 150.336 161.851 146.296 163.951 143.562C164.109 143.363 164.312 143.148 164.566 143.178C164.95 143.213 165.053 143.731 165.034 144.119C164.877 147.547 163.755 150.862 161.797 153.681" fill="#E0E0E0"/>
<path d="M162.863 154.398C166.914 155.454 171.561 154.429 174.929 151.945C172.91 150.933 170.604 150.651 168.401 151.146C166.219 151.645 164.226 152.62 162.867 154.398" fill="#E0E0E0"/>
<path d="M163.762 152.179C166.031 148.481 170.378 146.069 174.713 145.851C174.214 147.613 172.763 148.98 171.131 149.81C169.499 150.639 167.675 150.996 165.874 151.346C165.175 151.48 164.215 151.63 163.762 152.179Z" fill="#E0E0E0"/>
<path d="M162.022 141.412C162.637 139.307 163.255 137.188 163.424 134.999C163.593 132.81 163.278 130.533 162.145 128.655C160.026 132.756 159.814 137.545 161.957 141.631" fill="#E0E0E0"/>
<path d="M169.156 137.806C171.633 133.302 176.686 129.708 181.801 129.201C179.828 134.116 174.448 137.91 169.156 137.806Z" fill="#E0E0E0"/>
<path d="M167.598 138.689C171.292 139.25 174.441 141.612 177.893 143.04C178.616 143.391 179.418 143.545 180.22 143.485C180.593 143.484 180.958 143.367 181.263 143.151C181.567 142.935 181.799 142.63 181.924 142.278C182.05 141.926 182.065 141.544 181.966 141.184C181.867 140.823 181.66 140.502 181.372 140.264C180.882 139.813 180.308 139.464 179.682 139.238C175.919 137.672 171.887 137.633 167.924 138.582" fill="#E0E0E0"/>
<path d="M165.461 141.281C166.298 141.519 166.582 141.953 167.247 142.518C169.505 144.437 172.177 145.809 175.053 146.527C175.353 146.6 175.741 146.63 175.89 146.361C176.04 146.093 175.856 145.839 175.687 145.632C174.433 144.16 172.805 143.054 170.975 142.429C169.17 141.761 167.611 140.951 165.461 141.124" fill="#E0E0E0"/>
<path d="M163.043 125.626C164.559 127.021 166.351 128.083 168.303 128.745C170.254 129.406 172.323 129.652 174.375 129.466C174.563 129.469 174.746 129.404 174.889 129.281C175.174 128.97 174.832 128.49 174.505 128.233C171.172 125.637 167.14 124.558 163.047 125.61" fill="#E0E0E0"/>
<path d="M165.906 124.581C167.912 123.104 170.238 122.123 172.696 121.717C175.153 121.312 177.671 121.493 180.045 122.246C178.263 124.001 175.794 124.934 173.306 125.203C170.822 125.431 168.317 125.22 165.906 124.581Z" fill="#E0E0E0"/>
<path d="M164.769 117.388C164.443 114.063 164.654 111.44 164.424 108.1C164.424 107.831 164.351 107.512 164.101 107.416C163.752 107.282 163.464 107.708 163.333 108.061C162.849 109.61 162.725 111.248 162.97 112.852C163.216 114.456 163.825 115.983 164.75 117.316" fill="#E0E0E0"/>
<path d="M164.531 117.754C166.785 116.36 168.475 114.543 170.038 112.405C171.125 110.915 172.042 109.133 171.797 107.305C170.261 107.274 168.817 108.115 167.822 109.279C166.874 110.483 166.185 111.87 165.798 113.353C165.357 114.816 165.05 116.317 164.531 117.754Z" fill="#E0E0E0"/>
<path d="M169.94 116.252C174.897 114.416 179.486 111.71 183.492 108.261C181.875 107.608 180.036 108 178.404 108.645C174.706 110.139 171.684 112.658 169.871 116.206" fill="#E0E0E0"/>
<path d="M166.051 119.573C168.554 119.846 171.097 120.027 173.577 119.612C176.058 119.197 178.323 118.237 180.601 117.277C180.804 117.215 180.975 117.078 181.081 116.893C181.116 116.787 181.118 116.674 181.087 116.567C181.057 116.46 180.994 116.365 180.908 116.294C180.733 116.155 180.528 116.058 180.309 116.014C177.832 115.319 175.155 115.63 172.717 116.467C170.394 117.255 168.159 118.285 166.051 119.539" fill="#E0E0E0"/>
<path d="M151.768 125.741C150.063 122.285 150.174 118.276 151.645 114.724C152.686 116.306 152.797 118.318 152.62 120.203C152.444 122.089 151.852 124.02 151.822 125.913" fill="#E0E0E0"/>
<path d="M144.948 122.3C142.811 122.272 140.692 122.691 138.726 123.529C136.76 124.366 134.991 125.605 133.531 127.165C135.659 127.499 137.847 126.95 139.783 126.013C141.718 125.076 143.438 123.744 145.159 122.427" fill="#E0E0E0"/>
<path d="M140.365 120.768C138.28 120.599 136.272 120.341 134.268 120.956C132.263 121.57 130.428 122.964 129.625 124.896C131.592 125.054 133.565 124.681 135.339 123.817C137.102 122.952 138.784 121.932 140.365 120.768Z" fill="#E0E0E0"/>
<path d="M147.152 120.837C145.278 119.608 143.351 118.36 141.17 117.849C138.989 117.339 136.454 117.715 134.93 119.362C136.7 120.399 138.843 120.514 140.893 120.514C142.944 120.514 145.455 120.487 147.387 121.171" fill="#E0E0E0"/>
<path d="M147.161 120.937C143.954 117.788 142.741 112.132 144.031 107.831C146.561 111.705 147.668 116.338 147.161 120.937Z" fill="#E0E0E0"/>
<path d="M155.98 112.016C156.587 110.611 157.01 109.136 157.555 107.704C158.049 106.252 158.808 104.904 159.794 103.73C160.798 102.549 162.225 101.81 163.768 101.671C163.274 103.84 162.333 105.882 161.007 107.667C159.68 109.452 157.995 110.941 156.061 112.039" fill="#E0E0E0"/>
<path d="M154.384 113.875C153.382 112.5 152.226 110.63 150.871 109.601C149.515 108.572 147.745 107.95 146.09 108.345C146.948 109.848 148.144 111.13 149.584 112.09C151.024 113.05 152.667 113.661 154.384 113.875Z" fill="#E0E0E0"/>
<path d="M154.705 112.128C154.049 110.461 153.388 108.776 153.123 107.005C152.858 105.235 153.019 103.342 153.926 101.798C155.684 105.124 156.253 108.71 154.794 112.166" fill="#E0E0E0"/>
<path d="M155.996 101.802C156.994 98.5035 160.013 96.0728 163.273 94.9592C163.678 94.7952 164.116 94.7294 164.552 94.7672C164.768 94.7924 164.973 94.8803 165.14 95.0202C165.307 95.1601 165.429 95.3458 165.492 95.5544C165.611 96.1151 165.147 96.6181 164.724 96.9906C162.175 99.1663 159.211 100.803 156.011 101.802" fill="#E0E0E0"/>
<path d="M156.034 99.1027C156.161 96.9792 156.292 94.8211 156.983 92.8051C157.674 90.7891 159.01 88.8999 160.949 88.0205C161.28 90.1671 160.331 92.3021 159.187 94.1645C158.043 96.0269 156.668 97.7549 155.98 99.817" fill="#E0E0E0"/>
<path d="M155.979 100.57C155.158 98.1657 155.069 95.1129 153.633 93.0163C152.627 91.5532 151.014 90.5548 150.147 89.0073C149.623 90.4934 149.696 92.1243 150.35 93.5577C151.004 94.9765 151.905 96.2677 153.011 97.3708C154.079 98.5229 154.989 99.3638 155.979 100.57Z" fill="#E0E0E0"/>
<path d="M155.994 171.352C155.933 171.352 155.875 155.316 155.871 135.544C155.867 115.772 155.914 99.7285 155.979 99.7285C156.044 99.7285 156.098 115.761 156.102 135.544C156.106 155.328 156.059 171.352 155.994 171.352Z" fill="#E0E0E0"/>
<path d="M170.007 123.321C169.814 123.416 169.612 123.491 169.404 123.548L167.745 124.108C166.348 124.585 164.424 125.26 162.339 126.128C160.254 126.996 158.326 127.733 157.216 128.693C156.774 129.064 156.423 129.53 156.187 130.057C156.03 130.441 156.003 130.663 155.98 130.66C155.97 130.604 155.97 130.547 155.98 130.491C156.005 130.331 156.044 130.174 156.099 130.022C156.308 129.463 156.652 128.964 157.101 128.571C157.771 128.005 158.52 127.54 159.324 127.192C160.211 126.777 161.198 126.343 162.243 125.913C164.335 125.057 166.275 124.377 167.688 123.951C168.394 123.732 168.97 123.567 169.374 123.46C169.58 123.393 169.792 123.347 170.007 123.321Z" fill="#E0E0E0"/>
<path d="M174.6 112.04C174.6 112.04 174.55 112.109 174.431 112.22L173.917 112.704L171.997 114.447L165.603 120.142C163.107 122.361 160.953 124.485 159.459 126.082C158.71 126.881 158.119 127.542 157.716 128.002C157.531 128.217 157.378 128.386 157.251 128.532C157.124 128.678 157.086 128.717 157.078 128.709C157.118 128.637 157.164 128.569 157.216 128.505C157.312 128.375 157.454 128.183 157.646 127.945C158.03 127.465 158.603 126.793 159.336 125.971C161.266 123.863 163.306 121.86 165.449 119.969C167.953 117.75 170.234 115.745 171.889 114.324L173.859 112.635L174.4 112.185C174.461 112.129 174.528 112.08 174.6 112.04Z" fill="#E0E0E0"/>
<path d="M162.912 122.4C162.847 122.369 163.365 121.167 163.887 119.643C164.409 118.118 164.655 116.836 164.724 116.847C164.793 116.859 164.636 118.176 164.106 119.72C163.885 120.373 163.628 121.014 163.338 121.64C163.233 121.912 163.09 122.168 162.912 122.4Z" fill="#E0E0E0"/>
<path d="M156.012 132.096C155.868 131.961 155.74 131.812 155.628 131.651L154.641 130.387C153.815 129.316 152.671 127.841 151.388 126.225C150.106 124.608 148.927 123.153 148.074 122.112L147.072 120.872C146.941 120.726 146.825 120.566 146.727 120.396C146.879 120.521 147.018 120.661 147.141 120.814C147.399 121.091 147.763 121.501 148.205 122.012C149.092 123.037 150.294 124.47 151.576 126.09C152.859 127.711 153.988 129.201 154.783 130.295C155.167 130.844 155.493 131.29 155.708 131.604C155.823 131.759 155.925 131.924 156.012 132.096Z" fill="#E0E0E0"/>
<path d="M152.938 128.16C152.9 128.202 152.082 127.227 151.652 125.752C151.41 124.966 151.311 124.143 151.36 123.322H151.46C151.418 123.506 151.383 123.606 151.364 123.602C151.345 123.598 151.345 123.494 151.364 123.306H151.467C151.515 124.106 151.653 124.898 151.878 125.668C152.289 127.104 153 128.122 152.938 128.16Z" fill="#E0E0E0"/>
<path d="M148.99 123.172C148.714 122.96 148.412 122.785 148.091 122.65C147.282 122.408 146.432 122.34 145.595 122.45C144.748 122.515 143.908 122.652 143.084 122.857C142.746 122.965 142.401 123.047 142.051 123.103C142.359 122.92 142.693 122.784 143.042 122.7C143.866 122.443 144.718 122.282 145.58 122.22C146.447 122.104 147.33 122.199 148.153 122.496C148.502 122.616 148.799 122.855 148.99 123.172Z" fill="#E0E0E0"/>
<path d="M148.031 121.962C148.031 121.997 147.509 121.751 146.656 121.459C144.426 120.695 142.037 120.514 139.717 120.933C138.83 121.09 138.293 121.255 138.281 121.217C138.394 121.146 138.517 121.094 138.646 121.063C138.986 120.944 139.334 120.847 139.687 120.772C142.029 120.257 144.472 120.443 146.71 121.305C147.046 121.434 147.375 121.583 147.693 121.751C147.92 121.874 148.039 121.947 148.031 121.962Z" fill="#E0E0E0"/>
<path d="M155.98 116.847C155.919 116.847 155.469 115.311 154.978 113.36C154.486 111.41 154.133 109.831 154.21 109.816C154.287 109.801 154.72 111.352 155.212 113.303C155.703 115.253 156.041 116.832 155.98 116.847Z" fill="#E0E0E0"/>
<path d="M156.046 116.847C155.977 116.87 155.685 115.826 154.933 114.758C154.461 114.127 153.91 113.56 153.293 113.069C153.527 113.127 153.743 113.239 153.927 113.395C154.391 113.736 154.795 114.153 155.121 114.628C155.618 115.274 155.937 116.04 156.046 116.847Z" fill="#E0E0E0"/>
<path d="M155.993 162.816C155.97 162.816 155.92 162.432 155.739 161.748C155.475 160.789 155.116 159.859 154.668 158.972C153.562 156.71 151.546 153.838 148.985 150.965C147.714 149.514 146.485 148.147 145.44 146.837C144.502 145.684 143.654 144.461 142.902 143.178C142.399 142.312 141.972 141.405 141.623 140.467C141.504 140.129 141.42 139.872 141.37 139.699C141.337 139.599 141.316 139.496 141.309 139.392C141.332 139.392 141.447 139.776 141.712 140.413C142.091 141.333 142.538 142.224 143.048 143.078C143.814 144.34 144.67 145.545 145.609 146.684C146.658 147.978 147.89 149.341 149.161 150.793C151.73 153.676 153.743 156.579 154.822 158.883C155.259 159.786 155.598 160.734 155.831 161.71C155.895 161.974 155.943 162.242 155.974 162.512C155.992 162.612 155.998 162.714 155.993 162.816Z" fill="#E0E0E0"/>
<path d="M168.66 148.504C168.447 148.645 168.225 148.773 167.996 148.888C167.396 149.23 166.821 149.615 166.276 150.04C165.469 150.667 164.713 151.356 164.014 152.102C163.219 152.939 162.401 153.914 161.568 154.955C159.901 157.048 158.342 158.899 157.409 160.377C156.933 161.111 156.587 161.729 156.361 162.163C156.256 162.394 156.134 162.618 155.996 162.831C156.007 162.765 156.028 162.702 156.058 162.643C156.107 162.524 156.177 162.343 156.28 162.124C156.573 161.494 156.903 160.881 157.267 160.289C158.177 158.776 159.725 156.898 161.387 154.809C162.225 153.765 163.05 152.789 163.86 151.952C164.571 151.209 165.341 150.526 166.164 149.909C166.724 149.496 167.319 149.132 167.942 148.823C168.161 148.711 168.326 148.642 168.461 148.592C168.521 148.549 168.588 148.519 168.66 148.504Z" fill="#E0E0E0"/>
<path d="M168.904 153.143C168.442 153.246 167.974 153.314 167.502 153.346C166.376 153.463 165.263 153.682 164.177 153.999C163.103 154.35 162.096 154.878 161.197 155.562C160.51 156.096 160.187 156.534 160.156 156.507C160.204 156.387 160.275 156.278 160.364 156.184C160.582 155.905 160.826 155.648 161.093 155.416C161.981 154.677 163.003 154.115 164.104 153.761C165.205 153.435 166.34 153.234 167.487 153.162C167.958 153.112 168.432 153.106 168.904 153.143Z" fill="#E0E0E0"/>
<path d="M160.564 156C160.491 155.957 161.125 154.99 161.613 153.696C162.1 152.402 162.181 151.238 162.265 151.25C162.302 151.505 162.294 151.765 162.242 152.018C162.172 152.622 162.034 153.218 161.832 153.792C161.619 154.361 161.346 154.905 161.017 155.416C160.899 155.634 160.746 155.831 160.564 156Z" fill="#E0E0E0"/>
<path d="M172.762 136.047C172.69 136.094 172.614 136.134 172.535 136.166L171.875 136.466C171.587 136.589 171.237 136.746 170.842 136.954C170.446 137.161 169.985 137.368 169.501 137.66L168.733 138.094C168.468 138.248 168.204 138.428 167.927 138.601C167.363 138.947 166.798 139.369 166.195 139.795C163.612 141.724 161.358 144.058 159.521 146.707C159.114 147.325 158.711 147.905 158.388 148.481C158.223 148.765 158.051 149.034 157.908 149.303L157.498 150.071C157.225 150.563 157.033 151.031 156.841 151.434C156.649 151.837 156.499 152.202 156.388 152.486L156.111 153.155C156.083 153.235 156.046 153.313 156 153.385C156.011 153.301 156.033 153.218 156.065 153.139C156.131 152.959 156.207 152.732 156.303 152.452C156.425 152.089 156.565 151.733 156.722 151.384C156.902 150.973 157.087 150.497 157.352 149.998L157.736 149.207C157.874 148.934 158.043 148.662 158.208 148.37C158.523 147.786 158.922 147.218 159.329 146.577C161.159 143.894 163.431 141.543 166.049 139.622C166.664 139.192 167.236 138.774 167.808 138.436C168.092 138.263 168.357 138.086 168.626 137.937L169.394 137.51C169.882 137.23 170.354 137.027 170.757 136.835C171.1 136.664 171.451 136.511 171.809 136.378L172.489 136.12C172.576 136.083 172.668 136.058 172.762 136.047Z" fill="#E0E0E0"/>
<path d="M162.738 142.759C162.832 142.436 163.024 142.151 163.287 141.941C163.904 141.403 164.692 141.101 165.511 141.089C166.312 141.084 167.106 141.239 167.845 141.546C168.159 141.645 168.456 141.789 168.729 141.972C168.413 141.91 168.105 141.817 167.807 141.696C167.074 141.445 166.305 141.315 165.53 141.312C164.762 141.328 164.019 141.589 163.41 142.057C163.17 142.275 162.946 142.51 162.738 142.759Z" fill="#E0E0E0"/>
<path d="M161.24 144.307C161.174 144.273 161.739 143.443 161.869 142.257C162 141.07 161.658 140.133 161.727 140.114C161.796 140.095 161.881 140.321 161.988 140.713C162.262 141.745 162.134 142.843 161.631 143.785C161.435 144.138 161.278 144.323 161.24 144.307Z" fill="#E0E0E0"/>
<path d="M144.922 165.12C145.267 171.264 147.115 177.481 149.956 183.782H162.306C165.017 177.523 166.733 171.302 167.04 165.12H144.922Z" fill="#E0E0E0"/>
<path d="M165.038 175.016C165.038 175.081 160.972 175.135 155.953 175.135C150.934 175.135 146.871 175.081 146.871 175.016C146.871 174.95 150.938 174.9 155.953 174.9C160.968 174.9 165.038 174.954 165.038 175.016Z" fill="#FAFAFA"/>
<path d="M164.761 177.235C164.761 177.3 160.948 177.354 156.248 177.354C151.547 177.354 147.73 177.3 147.73 177.235C147.73 177.17 151.544 177.12 156.248 177.12C160.952 177.12 164.761 177.173 164.761 177.235Z" fill="#FAFAFA"/>
<path d="M150.143 169.125C150.296 171.019 150.296 172.922 150.143 174.816C150.077 174.816 150.027 173.541 150.027 171.97C150.027 170.4 150.089 169.125 150.143 169.125Z" fill="#FAFAFA"/>
<path d="M156.771 169.125C156.837 169.125 156.887 170.442 156.887 172.07C156.887 173.698 156.837 175.016 156.771 175.016C156.706 175.016 156.656 173.698 156.656 172.07C156.656 170.442 156.706 169.125 156.771 169.125Z" fill="#FAFAFA"/>
<path d="M162.982 169.075C163.048 169.075 163.098 170.419 163.098 172.078C163.098 173.737 163.048 175.085 162.982 175.085C162.917 175.085 162.867 173.741 162.867 172.078C162.867 170.415 162.917 169.075 162.982 169.075Z" fill="#FAFAFA"/>
<path d="M166.656 169.125C166.656 169.19 161.887 169.24 156.004 169.24C150.121 169.24 145.352 169.19 145.352 169.125C145.352 169.06 150.117 169.01 156.004 169.01C161.89 169.01 166.656 169.06 166.656 169.125Z" fill="#FAFAFA"/>
<path d="M160.019 107.992H20.0586V112.305H160.019V107.992Z" fill="#EBEBEB"/>
<path d="M32.1667 111.774L21.6797 183.763H23.9299L36.863 112.304L32.1667 111.774Z" fill="#EBEBEB"/>
<path d="M150.134 111.317L161.197 183.763H158.95L145.434 111.978L150.134 111.317Z" fill="#EBEBEB"/>
<path d="M25.3744 90.624V100.332H23.7539V101.376H25.3744V107.873H55.6797V101.96H53.4371V100.669H55.6797V98.7495H56.6781V97.8739H55.4877V90.624H25.3744Z" fill="#F5F5F5"/>
<path d="M47.625 90.6392V107.762H55.6698V101.852H53.4272V100.673L55.6698 100.711V98.78H56.6874L56.6682 97.7816L55.4855 97.7547V90.6123L47.625 90.6392Z" fill="#E0E0E0"/>
<path d="M48.1986 101.234C48.1986 101.295 42.7189 101.342 35.9567 101.342C29.1945 101.342 23.7109 101.295 23.7109 101.234C23.7109 101.173 29.1945 101.126 35.9567 101.126C42.7189 101.126 48.1986 101.176 48.1986 101.234Z" fill="#E0E0E0"/>
<path d="M48.1986 100.247C48.1986 100.308 42.7189 100.354 35.9567 100.354C29.1945 100.354 23.7109 100.308 23.7109 100.247C23.7109 100.185 29.1945 100.139 35.9567 100.139C42.7189 100.139 48.1986 100.189 48.1986 100.247Z" fill="#E0E0E0"/>
<path d="M49.7728 97.5934C49.7728 97.6548 44.2893 97.7009 37.5309 97.7009C30.7725 97.7009 25.2852 97.6548 25.2852 97.5934C25.2852 97.5319 30.7648 97.4858 37.5309 97.4858C44.297 97.4858 49.7728 97.5358 49.7728 97.5934Z" fill="#E0E0E0"/>
<path d="M49.9174 104.832C49.9174 104.893 44.4377 104.943 37.6754 104.943C30.9132 104.943 25.4297 104.893 25.4297 104.832C25.4297 104.77 30.9094 104.724 37.6754 104.724C44.4415 104.724 49.9174 104.766 49.9174 104.832Z" fill="#E0E0E0"/>
<path d="M57.9167 84.1113H52.6328V90.3936H57.9167V84.1113Z" fill="#F5F5F5"/>
<path d="M52.8146 83.7002H28.9375V90.785H52.8146V83.7002Z" fill="#E0E0E0"/>
<path d="M58.074 84.2994H52.1719V83.7119H58.074C58.1534 83.7119 58.2296 83.7435 58.2858 83.7996C58.3419 83.8558 58.3735 83.932 58.3735 84.0114C58.3705 84.0889 58.3376 84.1621 58.2818 84.2158C58.2259 84.2695 58.1514 84.2995 58.074 84.2994Z" fill="#E0E0E0"/>
<path d="M58.074 90.789H52.1719V90.1899H58.074C58.1534 90.1899 58.2296 90.2215 58.2858 90.2777C58.3419 90.3338 58.3735 90.41 58.3735 90.4895C58.3735 90.5689 58.3419 90.6451 58.2858 90.7013C58.2296 90.7574 58.1534 90.789 58.074 90.789Z" fill="#E0E0E0"/>
<path d="M50.9396 83.7002H48.1172V90.785H50.9396V83.7002Z" fill="#EBEBEB"/>
<path d="M34.0333 83.7808H31.2109V90.8656H34.0333V83.7808Z" fill="#EBEBEB"/>
<path d="M57.9157 85.1517C57.9157 85.1517 56.7637 85.1825 55.3621 85.1825C53.9605 85.1825 52.8047 85.1825 52.8047 85.1517C52.8047 85.121 53.9567 85.1172 55.3621 85.1172C56.7676 85.1172 57.9157 85.1325 57.9157 85.1517Z" fill="#E0E0E0"/>
<path d="M57.9157 86.0927C57.9157 86.0927 56.7637 86.1235 55.3621 86.1235C53.9605 86.1235 52.8047 86.1235 52.8047 86.0927C52.8047 86.062 53.9567 86.062 55.3621 86.062C56.7676 86.062 57.9157 86.0735 57.9157 86.0927Z" fill="#E0E0E0"/>
<path d="M57.9157 87.2524C57.9157 87.2524 56.7637 87.2831 55.3621 87.2831C53.9605 87.2831 52.8047 87.2831 52.8047 87.2524C52.8047 87.2217 53.9567 87.2217 55.3621 87.2217C56.7676 87.2217 57.9157 87.2332 57.9157 87.2524Z" fill="#E0E0E0"/>
<path d="M57.9157 88.4121C57.9157 88.4121 56.7637 88.4428 55.3621 88.4428C53.9605 88.4428 52.8047 88.4428 52.8047 88.4121C52.8047 88.3813 53.9567 88.3813 55.3621 88.3813C56.7676 88.3813 57.9157 88.3929 57.9157 88.4121Z" fill="#E0E0E0"/>
<path d="M57.9157 89.5717C57.9157 89.5717 56.7637 89.6025 55.3621 89.6025C53.9605 89.6025 52.8047 89.6025 52.8047 89.5717C52.8047 89.541 53.9567 89.541 55.3621 89.541C56.7676 89.541 57.9157 89.5525 57.9157 89.5717Z" fill="#E0E0E0"/>
<path d="M46.5959 86.6147H35.8555V87.8896H46.5959V86.6147Z" fill="#EBEBEB"/>
<path d="M47.8002 76.8228L50.7723 83.8039H48.86L47.5391 80.0752L47.8002 76.8228Z" fill="#E0E0E0"/>
<path d="M38.6755 70.5098L37.5273 83.8039H47.2387L48.3062 70.5098H38.6755Z" fill="#EBEBEB"/>
<path d="M39.6233 71.5619L38.6172 82.6979L45.9093 82.7939L46.8924 71.4966L39.6233 71.5619Z" fill="#FAFAFA"/>
<path d="M41.1698 73.106L40.5977 80.7668H44.4876L45.1711 73.106H41.1698Z" fill="#E0E0E0"/>
<path d="M152.77 21.0953L149.18 21.1147L149.276 38.982L152.867 38.9626L152.77 21.0953Z" fill="#E0E0E0"/>
<path d="M127.371 21.1406L118.07 21.1909L118.124 31.0557L127.424 31.0054L127.371 21.1406Z" fill="#EBEBEB"/>
<path d="M136.625 21.0942L127.324 21.1445L127.378 31.0093L136.678 30.959L136.625 21.0942Z" fill="#F5F5F5"/>
<path d="M118.081 23.9229C124.259 23.9767 130.457 23.9229 136.636 23.8384C136.658 23.8339 136.679 23.8217 136.693 23.8039C136.708 23.786 136.716 23.7636 136.716 23.7405C136.716 23.7174 136.708 23.695 136.693 23.6772C136.679 23.6593 136.658 23.6471 136.636 23.6426C130.458 23.6068 124.275 23.6439 118.084 23.754C118.062 23.754 118.041 23.7629 118.025 23.7787C118.009 23.7945 118 23.816 118 23.8384C118 23.8608 118.009 23.8823 118.025 23.8982C118.041 23.914 118.062 23.9229 118.084 23.9229H118.081Z" fill="#E0E0E0"/>
<path d="M129.169 30.8461L112.273 30.9375L112.317 38.9745L129.213 38.8831L129.169 30.8461Z" fill="#EBEBEB"/>
<path d="M145.982 30.7514L129.086 30.8428L129.129 38.8798L146.025 38.7884L145.982 30.7514Z" fill="#F5F5F5"/>
<path d="M112.28 33.1774C123.504 33.3041 134.767 33.1774 145.991 33.0123C146.018 33.0123 146.043 33.0018 146.062 32.983C146.08 32.9643 146.091 32.9389 146.091 32.9125C146.091 32.886 146.08 32.8606 146.062 32.8419C146.043 32.8231 146.018 32.8126 145.991 32.8126C134.767 32.755 123.5 32.7589 112.28 33.0085C112.257 33.0085 112.236 33.0174 112.22 33.0332C112.204 33.049 112.195 33.0705 112.195 33.0929C112.195 33.1153 112.204 33.1368 112.22 33.1527C112.236 33.1685 112.257 33.1774 112.28 33.1774Z" fill="#E0E0E0"/>
<path d="M171.421 38.9795H105.965V41.8595H171.421V38.9795Z" fill="#E0E0E0"/>
<path d="M119.337 40.3657H116.68V50.1923H119.337V40.3657Z" fill="#E0E0E0"/>
<path d="M159.005 40.3657H156.348V50.1923H159.005V40.3657Z" fill="#E0E0E0"/>
<path d="M156.27 14.4332L152.68 14.4526L152.813 39.0283L156.403 39.0088L156.27 14.4332Z" fill="#EBEBEB"/>
<path d="M161.88 19.0108L156.301 19.041L156.409 38.955L161.988 38.9248L161.88 19.0108Z" fill="#F5F5F5"/>
<path d="M161.845 22.8519C160.918 22.948 159.985 22.9801 159.053 22.9479C158.123 22.9802 157.192 22.9481 156.266 22.8519C158.123 22.7239 159.988 22.7239 161.845 22.8519Z" fill="#E0E0E0"/>
<path d="M161.845 22.0145C160.918 22.1106 159.985 22.1427 159.053 22.1105C158.123 22.1428 157.192 22.1107 156.266 22.0145C158.123 21.8865 159.988 21.8865 161.845 22.0145Z" fill="#E0E0E0"/>
<path d="M161.845 35.9344C159.988 36.0624 158.123 36.0624 156.266 35.9344C158.123 35.8064 159.988 35.8064 161.845 35.9344Z" fill="#E0E0E0"/>
<path d="M161.845 35.0975C159.988 35.2255 158.123 35.2255 156.266 35.0975C158.123 34.9695 159.988 34.9695 161.845 35.0975Z" fill="#E0E0E0"/>
<path d="M159.147 33.2734C159.093 33.2734 159.047 31.2651 159.047 28.7844C159.047 26.3038 159.093 24.2993 159.147 24.2993C159.2 24.2993 159.243 26.3076 159.243 28.7844C159.243 31.2612 159.197 33.2734 159.147 33.2734Z" fill="#E0E0E0"/>
<path d="M167.981 23.9077H161.906V38.9413H167.981V23.9077Z" fill="#EBEBEB"/>
<path d="M155.457 18.6356C155.457 18.84 155.397 19.0401 155.284 19.2105C155.171 19.3809 155.01 19.5139 154.822 19.5926C154.633 19.6714 154.425 19.6924 154.224 19.653C154.024 19.6136 153.839 19.5155 153.695 19.3712C153.55 19.2269 153.451 19.0428 153.411 18.8423C153.371 18.6419 153.391 18.434 153.469 18.245C153.547 18.056 153.679 17.8945 153.849 17.7808C154.019 17.6671 154.219 17.6064 154.424 17.6064C154.697 17.6064 154.959 17.7147 155.153 17.9076C155.346 18.1005 155.456 18.3623 155.457 18.6356Z" fill="#E0E0E0"/>
<path d="M154.743 21.4771H154.105V36.0959H154.743V21.4771Z" fill="#E0E0E0"/>
<path d="M176.583 183.763C176.583 183.817 140.487 183.863 96.0042 183.863C51.5216 183.863 15.418 183.817 15.418 183.763C15.418 183.71 51.4909 183.664 96.0042 183.664C140.517 183.664 176.583 183.706 176.583 183.763Z" fill="#263238"/>
<path d="M95.3448 135.118L111.177 183.763H108.293L89.7461 135.118H95.3448Z" fill="#E0E0E0"/>
<path d="M95.3443 135.118H94.9603H93.8851L89.7302 135.141L89.7686 135.083C92.9481 143.366 99.8025 161.28 107.744 182.016C107.959 182.584 108.174 183.168 108.389 183.709L108.297 183.648H111.177L111.081 183.778C106.661 170.143 102.717 157.989 99.8793 149.241C98.4662 144.86 97.3296 141.335 96.5462 138.897C96.1622 137.679 95.855 136.735 95.6476 136.089L95.4172 135.356C95.3673 135.191 95.3443 135.103 95.3443 135.103C95.3443 135.103 95.375 135.179 95.4288 135.341L95.6707 136.059C95.8819 136.7 96.1929 137.633 96.5923 138.839C97.391 141.27 98.543 144.783 99.9792 149.145C102.84 157.905 106.814 170.07 111.269 183.705L111.311 183.836H108.239L108.212 183.771C108.001 183.21 107.782 182.646 107.567 182.077C99.6758 161.311 92.8598 143.378 89.7148 135.106V135.049H89.7763L93.9542 135.072H95.0179C95.2329 135.11 95.3443 135.118 95.3443 135.118Z" fill="#263238"/>
<path d="M64.1839 135.118L48.3516 183.763H51.2316L69.7826 135.118H64.1839Z" fill="#E0E0E0"/>
<path d="M64.1857 135.118C64.1857 135.118 64.3047 135.118 64.5428 135.118H65.6065L69.7844 135.095H69.8458L69.8228 135.152C66.6817 143.424 59.8657 161.356 51.9745 182.123L51.3255 183.817L51.3025 183.882H48.2305L48.2727 183.751L59.5661 149.191L62.953 138.885C63.337 137.679 63.6634 136.746 63.8746 136.105L64.1165 135.387C64.1703 135.225 64.201 135.148 64.201 135.148C64.201 135.148 64.178 135.237 64.1281 135.402L63.8977 136.135C63.6903 136.78 63.3869 137.725 62.9991 138.942C62.2119 141.381 61.0791 144.906 59.666 149.287C56.8244 158.035 52.8845 170.188 48.4647 183.824L48.3687 183.694H51.2487L51.1565 183.755L51.8017 182.062C59.7428 161.326 66.5972 143.397 69.7575 135.133L69.7998 135.191L65.641 135.168H64.5697L64.1857 135.118Z" fill="#263238"/>
<path d="M90.1523 136.186C90.0655 136.259 89.9731 136.326 89.8758 136.385L89.0617 136.923L86.0627 138.889C83.5321 140.555 80.0416 142.867 76.2054 145.44L66.3827 152.064L63.4029 154.065L62.5926 154.579C62.5011 154.647 62.4034 154.706 62.3008 154.756C62.3853 154.68 62.4752 154.611 62.5696 154.548L63.3606 153.984L66.3059 151.933C68.7981 150.213 72.2579 147.851 76.0979 145.279C79.9379 142.706 83.4361 140.41 85.9897 138.774C87.2646 137.96 88.2937 137.303 89.0233 136.854L89.8566 136.347C89.951 136.286 90.0498 136.232 90.1523 136.186Z" fill="#263238"/>
<path d="M59.7782 83.2587C59.7782 83.2587 54.817 83.7694 54.095 86.7569C53.3731 89.7444 51.023 126.693 54.095 131.927C57.167 137.161 96.719 136.431 99.4646 135.713C102.21 134.995 103.504 133.213 103.224 131.036C102.944 128.859 76.0099 126.159 76.0099 126.159L77.6534 87.5979C77.6534 87.5979 67.969 82.7211 59.7782 83.2587Z" fill="#263238"/>
<path d="M103.247 131.969H103.128H102.775L101.419 132.004C100.24 132.035 98.5354 132.05 96.4272 132.046C92.2032 132.046 86.3856 131.9 79.969 131.439C76.7626 131.205 73.7098 130.909 70.9411 130.595C68.1725 130.28 65.6842 129.934 63.6029 129.608C62.5584 129.454 61.6214 129.289 60.7958 129.151C59.9702 129.012 59.2598 128.886 58.68 128.767L57.3475 128.509L57.0019 128.44L56.8867 128.41C56.9262 128.404 56.9662 128.404 57.0058 128.41L57.3552 128.46L58.6954 128.678C59.2752 128.778 59.9856 128.897 60.815 129.02C61.6445 129.143 62.5814 129.304 63.6221 129.446C65.7072 129.757 68.1955 130.076 70.9603 130.391C73.7251 130.706 76.7779 130.986 79.9843 131.221C86.3971 131.681 92.2147 131.839 96.4272 131.885C98.5315 131.908 100.236 131.912 101.419 131.908H103.132L103.247 131.969Z" fill="#455A64"/>
<path d="M97.4411 155.301C97.4104 155.347 91.1435 150.942 83.4481 145.47C75.7528 139.998 69.5358 135.517 69.5665 135.486C69.5972 135.456 75.8641 139.845 83.5633 145.321C91.2625 150.797 97.4718 155.255 97.4411 155.301Z" fill="#263238"/>
<path d="M63.2839 50.085L60.1159 44.5055C62.0726 41.3287 62.7702 37.5348 62.0716 33.8697C61.373 30.2046 59.3288 26.9334 56.3407 24.699C53.3527 22.4646 49.6369 21.4287 45.9239 21.7948C42.2108 22.161 38.769 23.9028 36.2749 26.6778C33.7809 29.4528 32.415 33.0604 32.4458 36.7913C32.4766 40.5223 33.9018 44.1068 36.4413 46.8402C38.9808 49.5737 42.4509 51.2585 46.1695 51.5633C49.8881 51.8681 53.5863 50.771 56.537 48.4876L63.2839 50.085Z" fill="white"/>
<path d="M63.2822 50.0853L56.5161 48.5493H56.424L56.4816 48.4725L56.566 48.5569C54.4861 50.1821 52.0121 51.2262 49.3968 51.5829C48.6135 51.6942 47.8219 51.7353 47.0313 51.7057C46.6243 51.6827 46.2096 51.6712 45.791 51.6366L44.5276 51.4485C40.763 50.7098 37.4209 48.5651 35.1811 45.4504C33.9372 43.7324 33.0744 41.7686 32.6505 39.6904C32.2203 37.486 32.2806 35.2141 32.8272 33.0357C33.3928 30.7621 34.4919 28.6559 36.0336 26.8917C37.5987 25.0807 39.5734 23.6695 41.7936 22.7752C43.9231 21.9342 46.2144 21.5825 48.4982 21.7461C50.6549 21.8948 52.7525 22.5162 54.6422 23.5662C58.0384 25.4449 60.5841 28.5554 61.7539 32.2561C62.2148 33.8358 62.4336 35.4762 62.4028 37.1214C62.3214 39.7457 61.5492 42.3021 60.1641 44.5326V44.4712L63.2822 50.0814C63.0748 49.7281 62.0995 48.0424 60.0643 44.5288V44.5019V44.4712C61.4195 42.2511 62.1677 39.7139 62.2339 37.1137C62.2589 35.4895 62.0362 33.8709 61.5734 32.3137C60.4174 28.6554 57.9041 25.5787 54.55 23.716C52.6855 22.6844 50.6167 22.076 48.4905 21.9342C46.2417 21.7746 43.9858 22.1223 41.8896 22.9518C39.7047 23.8336 37.7617 25.2237 36.2217 27.0069C34.7031 28.7443 33.621 30.819 33.0652 33.0587C32.5233 35.2024 32.4617 37.4394 32.8848 39.6097C33.2953 41.6658 34.1411 43.6101 35.3654 45.3121C37.5701 48.3923 40.8657 50.5166 44.5814 51.2526L45.8294 51.4446C46.2441 51.4792 46.6512 51.4907 47.0544 51.5176C47.8356 51.549 48.6182 51.5117 49.3929 51.4062C51.9842 51.0643 54.4397 50.0458 56.5123 48.4533L56.8963 48.1653L56.6083 48.5493L56.5737 48.4571L63.2822 50.0853Z" fill="#263238"/>
<path d="M44.8396 34.6869H45.7843L47.8425 31.8145V29.9291C47.8425 29.9291 49.3017 29.8408 49.1328 32.3061C48.9638 34.7713 49.1328 34.1454 49.1328 34.1454C49.1328 34.1454 52.2316 34.1454 52.4889 34.4296C52.6771 34.6216 52.7616 37.7013 52.7923 39.3678C52.8137 39.7706 52.6994 40.1689 52.4675 40.4989C52.2357 40.8289 51.8997 41.0716 51.5136 41.188C51.4048 41.2183 51.2924 41.2338 51.1795 41.2341C50.4115 41.2341 46.4601 40.6043 46.4601 40.6043H44.8281L44.8396 34.6869Z" fill="#A0F4B9"/>
<path d="M42.1367 34.1685L42.7204 40.6235H44.337V34.299L42.1367 34.1685Z" fill="#A0F4B9"/>
<path d="M123.019 115.968C123.019 115.968 131.905 115.968 132.27 124.247C132.635 132.526 106.403 176.202 106.403 176.202L98.0976 172.258L115.907 129.876L77.2617 126.075L78.3561 116.352L123.019 115.968Z" fill="#FFBE9D"/>
<path d="M108.16 173.683L107.903 174.271C107.903 174.271 116.043 182.642 115.314 184.569L95.6875 175.738L98.8939 169.325C101.202 171.994 104.189 173.522 108.16 173.683Z" fill="#455A64"/>
<g opacity="0.6">
<path d="M99.944 172.312C99.7293 172.285 99.5122 172.338 99.3338 172.461C99.1554 172.583 99.0282 172.767 98.9763 172.977C98.9408 173.19 98.9887 173.41 99.1102 173.589C99.2317 173.768 99.4174 173.894 99.6291 173.941C99.8564 173.968 100.086 173.911 100.274 173.78C100.462 173.649 100.594 173.453 100.647 173.23C100.662 173.004 100.588 172.78 100.441 172.608C100.294 172.435 100.085 172.326 99.8595 172.305" fill="white"/>
</g>
<g opacity="0.6">
<path d="M95.6875 175.742L96.4555 174.206L114.983 183.233C114.983 183.233 115.686 184.001 115.31 184.577L95.6875 175.742Z" fill="white"/>
</g>
<path d="M107.946 174.355C107.9 174.447 107.401 174.278 106.794 174.374C106.187 174.47 105.75 174.758 105.677 174.681C105.604 174.605 105.999 174.113 106.74 174.009C107.481 173.906 108.007 174.274 107.946 174.355Z" fill="#263238"/>
<path d="M109.623 176.133C109.603 176.233 109.112 176.21 108.605 176.471C108.098 176.732 107.81 177.116 107.718 177.07C107.626 177.024 107.806 176.452 108.444 176.141C109.081 175.83 109.661 176.041 109.623 176.133Z" fill="#263238"/>
<path d="M109.686 179.121C109.59 179.121 109.686 178.564 110.151 178.149C110.615 177.735 111.176 177.731 111.18 177.827C111.184 177.923 110.796 178.08 110.412 178.426C110.028 178.771 109.786 179.155 109.686 179.121Z" fill="#263238"/>
<path d="M106.209 84.7524L107.787 89.5793L99.1819 90.2513L98.1797 87.667L106.209 84.7524Z" fill="#FFBE9D"/>
<path d="M130.642 91.085C130.808 91.4152 131.238 91.469 131.568 91.6418C131.875 91.8179 132.127 92.0768 132.295 92.3891C132.463 92.7014 132.539 93.0545 132.516 93.4082C132.461 94.1155 132.227 94.7973 131.837 95.3896C131.717 95.6303 131.542 95.8395 131.326 96.0002C131.217 96.0761 131.087 96.1169 130.953 96.1169C130.82 96.1169 130.69 96.0761 130.581 96.0002C130.328 95.789 130.358 95.3973 130.412 95.0709C130.616 93.8459 130.351 92.2984 130.639 91.0888" fill="#FFBE9D"/>
<path d="M73.4103 30.5624C73.3374 30.0239 73.4688 29.4776 73.7787 29.0312C74.0886 28.5849 74.5545 28.2708 75.0845 28.1509L84.5847 22.1067C88.2058 21.2926 92.7677 27.3406 93.4167 30.9886C94.0725 34.9982 94.3297 39.0628 94.1847 43.123C93.9236 49.3669 89.8301 50.035 89.8301 50.035L92.9021 70.7979L78.0989 61.6702L73.4103 30.5624Z" fill="#FFBE9D"/>
<path d="M91.444 36.1687C91.4694 36.3729 91.4142 36.579 91.2902 36.7431C91.1661 36.9073 90.983 37.0167 90.7797 37.0481C90.5796 37.0851 90.3729 37.0412 90.2052 36.926C90.0374 36.8108 89.9223 36.6337 89.885 36.4337C89.8596 36.2295 89.9147 36.0235 90.0388 35.8593C90.1628 35.6951 90.3459 35.5857 90.5493 35.5543C90.7494 35.5173 90.956 35.5612 91.1238 35.6764C91.2915 35.7916 91.4067 35.9687 91.444 36.1687Z" fill="#263238"/>
<path d="M92.6638 33.9262C92.587 34.0107 91.9572 33.9992 91.1623 34.3102C90.3674 34.6213 89.8414 35.036 89.7415 35.0129C89.6417 34.9899 89.7415 34.8785 89.9834 34.6865C90.317 34.414 90.695 34.201 91.1009 34.0568C91.4881 33.9077 91.8994 33.8309 92.3143 33.8302C92.5908 33.8225 92.7022 33.8878 92.6638 33.9262Z" fill="#263238"/>
<path d="M83.5811 36.5491C83.6055 36.7537 83.5494 36.9597 83.4247 37.1238C83.3001 37.2878 83.1166 37.3971 82.913 37.4285C82.7135 37.4644 82.5078 37.4199 82.3409 37.3048C82.1741 37.1897 82.0595 37.0133 82.0221 36.8141C81.9957 36.6097 82.0505 36.4031 82.1747 36.2387C82.2989 36.0743 82.4826 35.9652 82.6864 35.9347C82.8865 35.8977 83.0932 35.9416 83.2609 36.0568C83.4287 36.172 83.5438 36.349 83.5811 36.5491Z" fill="#263238"/>
<path d="M84.4064 35.5352C84.2912 35.5813 83.6999 35.228 82.7821 35.0936C81.8644 34.9592 81.1463 35.0936 81.058 35.0321C80.9696 34.9707 81.1463 34.9054 81.442 34.8325C81.9026 34.741 82.3759 34.7319 82.8397 34.8056C83.2892 34.8671 83.7231 35.013 84.1184 35.2357C84.3911 35.3931 84.4794 35.516 84.4064 35.5352Z" fill="#263238"/>
<path d="M88.1524 40.758C88.5809 40.564 89.0326 40.4259 89.4964 40.3471C89.7076 40.301 89.9073 40.2357 89.9265 40.0821C89.9197 39.8571 89.8432 39.6397 89.7076 39.46C89.4516 38.948 89.1751 38.4245 88.8782 37.8895C87.7262 35.6508 86.8506 33.7999 86.9582 33.7538C87.0657 33.7077 88.0641 35.4856 89.2238 37.7244L90.0263 39.3064C90.1931 39.5519 90.2679 39.8484 90.2375 40.1436C90.2148 40.2233 90.1743 40.2968 90.1191 40.3587C90.0639 40.4205 89.9954 40.4691 89.9188 40.5007C89.8027 40.5462 89.6815 40.5771 89.5578 40.5928C89.0981 40.7063 88.6259 40.7618 88.1524 40.758Z" fill="#263238"/>
<path d="M89.8269 50.0504C86.9586 50.4745 84.0289 50.075 81.3789 48.8984C81.3789 48.8984 83.9018 53.2146 89.969 51.9244L89.8269 50.0504Z" fill="#EB996E"/>
<path d="M88.249 42.8275C88.0425 42.5585 87.7784 42.3392 87.476 42.1857C87.1737 42.0322 86.8408 41.9484 86.5018 41.9404C86.3058 41.9445 86.1157 42.008 85.9566 42.1225C85.7975 42.237 85.677 42.3972 85.6109 42.5817C85.5446 42.8201 85.5368 43.071 85.5883 43.313C85.6398 43.555 85.749 43.781 85.9066 43.9718C86.0614 44.1736 86.2718 44.3259 86.5119 44.4098C86.752 44.4937 87.0114 44.5056 87.2583 44.4441C87.6588 44.2789 88.0001 43.9964 88.2375 43.6339C88.3235 43.5416 88.3855 43.4294 88.4179 43.3075C88.432 43.2305 88.4289 43.1514 88.409 43.0758C88.3891 43.0001 88.3528 42.9298 88.3027 42.8697" fill="#EB996E"/>
<path d="M85.7291 41.6334C85.8673 41.6065 85.9748 42.5243 86.835 43.0849C87.6952 43.6455 88.6628 43.4305 88.6859 43.5572C88.6859 43.6148 88.49 43.7608 88.0753 43.8222C87.5391 43.8921 86.9953 43.7711 86.5393 43.4804C86.1015 43.199 85.7903 42.7584 85.6715 42.2516C85.5908 41.8561 85.6676 41.6334 85.7291 41.6334Z" fill="#263238"/>
<path d="M84.6743 31.7606C84.5936 31.991 83.7411 31.895 82.7543 32.0333C81.7674 32.1715 80.9533 32.4518 80.8151 32.2483C80.7536 32.1485 80.8919 31.9296 81.1991 31.6992C81.6286 31.4156 82.117 31.2336 82.6274 31.1671C83.1377 31.1006 83.6565 31.1512 84.1444 31.3152C84.5207 31.488 84.7088 31.6493 84.6743 31.7606Z" fill="#263238"/>
<path d="M92.7131 32.0332C92.548 32.2444 91.803 32.1292 90.9313 32.2175C90.0596 32.3058 89.3377 32.5285 89.1457 32.3442C89.0574 32.2559 89.1457 32.0485 89.4568 31.8335C89.8795 31.5625 90.3616 31.398 90.8618 31.3538C91.362 31.3097 91.8654 31.3873 92.3291 31.5801C92.6593 31.7452 92.7822 31.9295 92.7131 32.0332Z" fill="#263238"/>
<path d="M69.2443 46.5217C69.3979 43.7377 69.8433 34.825 71.6405 29.9636C73.4376 25.1021 75.9681 22.9249 78.5717 21.8996C79.555 21.4794 80.6301 21.3202 81.693 21.4372C82.7559 21.5543 83.7705 21.9437 84.6389 22.5677C85.9752 23.5124 86.7509 26.6228 86.7509 26.6228C86.7509 26.6228 80.4341 28.8039 78.6869 32.7668C76.6632 37.298 76.3022 39.5021 76.3022 39.5021L75.7569 41.9175C75.7569 41.9175 76.9435 52.4161 77.4773 54.5895L68.9141 62.8685C69.1944 60.1345 69.0907 49.3018 69.2443 46.5217Z" fill="#263238"/>
<path d="M86.9403 26.638C86.9403 26.638 90.5998 25.8124 92.4469 29.8406C93.284 31.6646 94.1134 37.1865 94.1134 37.1865C94.1134 37.1865 94.4245 32.6745 93.9406 30.2207C93.4568 27.767 91.8632 24.7718 89.7665 23.255C87.6699 21.7382 86.0801 21.166 82.8008 21.742C83.7883 21.9889 84.6848 22.5125 85.3851 23.2511C85.8805 23.831 86.1262 24.3455 86.9403 26.638Z" fill="#263238"/>
<path d="M76.3731 39.8017C76.1503 38.45 74.5683 37.7127 73.47 38.5306C72.8671 38.9761 72.4601 39.7825 72.6828 41.2186C73.2819 45.0586 76.9951 43.6532 76.9836 43.5457C76.9721 43.4382 76.6342 41.3799 76.3731 39.8017Z" fill="#FFBE9D"/>
<path d="M75.589 42.2747C75.589 42.2747 75.5314 42.3323 75.4277 42.4014C75.2782 42.4923 75.1001 42.5238 74.9285 42.4897C74.5023 42.4053 74.0645 41.8139 73.9378 41.1304C73.8764 40.804 73.8895 40.4679 73.9762 40.1473C73.9919 40.0219 74.0384 39.9024 74.1114 39.7992C74.1844 39.696 74.2817 39.6125 74.3948 39.556C74.4686 39.525 74.5508 39.5202 74.6277 39.5426C74.7046 39.565 74.7715 39.6131 74.8172 39.6789C74.8863 39.7787 74.8709 39.8555 74.894 39.8593C74.917 39.8632 74.9669 39.7825 74.894 39.6289C74.8581 39.5376 74.7916 39.4615 74.7058 39.4139C74.5878 39.3514 74.4499 39.3376 74.3218 39.3755C74.1693 39.4314 74.0336 39.5253 73.9274 39.6483C73.8213 39.7712 73.7482 39.9192 73.7151 40.0782C73.6049 40.4337 73.5838 40.8109 73.6536 41.1765C73.7957 41.9445 74.3026 42.6049 74.8824 42.6779C74.9894 42.6915 75.098 42.6809 75.2003 42.647C75.3027 42.6132 75.3961 42.5568 75.4738 42.4821C75.5967 42.3669 75.6044 42.2785 75.589 42.2747Z" fill="#EB996E"/>
<path d="M80.082 21.4771C80.082 21.5078 80.612 21.431 81.4568 21.4464C81.951 21.4561 82.4408 21.5429 82.9083 21.7037C83.4761 21.9136 83.9977 22.2318 84.4443 22.6406C85.2707 23.3792 85.9148 24.2993 86.3259 25.3286C86.6407 26.0966 86.7099 26.6419 86.7559 26.6342C86.7504 26.5111 86.7324 26.3889 86.7022 26.2694C86.3961 24.8308 85.6371 23.528 84.5364 22.5523C84.0759 22.1256 83.5338 21.7965 82.9428 21.5846C82.4627 21.424 81.9591 21.3448 81.4529 21.3504C81.1139 21.3502 80.7753 21.372 80.4391 21.4157C80.3186 21.4262 80.1992 21.4468 80.082 21.4771Z" fill="#455A64"/>
<path d="M73.134 42.9848C73.1355 42.9631 73.1355 42.9413 73.134 42.9195L73.0803 42.7467C73.0534 42.6661 73.0265 42.5701 72.9919 42.4626L72.8883 42.0786C72.6789 41.2391 72.591 40.374 72.6271 39.5096C72.676 38.2274 72.9911 36.9694 73.5526 35.8155C74.2702 34.4186 75.2941 33.2018 76.5478 32.2559C77.1912 31.7593 77.8644 31.3028 78.5638 30.8888C79.2396 30.4818 79.9193 30.1439 80.5491 29.7675C81.6504 29.0957 82.698 28.3395 83.6825 27.5058C84.5235 26.7954 85.1724 26.1848 85.6025 25.7547C85.8214 25.5397 85.9865 25.3707 86.0979 25.2517L86.2246 25.1173C86.2515 25.0866 86.2668 25.0712 86.263 25.0674L86.2169 25.1058L86.0787 25.2325L85.5718 25.7279C85.1225 26.1464 84.4659 26.7455 83.6172 27.4405C82.6292 28.2604 81.5818 29.0061 80.4838 29.6715C79.8617 30.0555 79.1743 30.3743 78.4947 30.7851C77.7885 31.1989 77.11 31.6581 76.4633 32.1599C75.1885 33.1148 74.1484 34.348 73.422 35.7656C72.8587 36.9355 72.5498 38.2116 72.5158 39.5096C72.4894 40.3813 72.5916 41.2521 72.8191 42.0939L72.9343 42.4779C72.9766 42.5855 73.0111 42.6776 73.038 42.7583L73.1071 42.9311C73.1225 42.9656 73.1302 42.9848 73.134 42.9848Z" fill="#455A64"/>
<path d="M72.0797 41.6332C72.0797 41.6332 72.0797 41.6101 72.0797 41.5717L72.0566 41.3874C72.0566 41.2261 71.9952 41.0034 71.9645 40.6847C71.874 39.8198 71.8599 38.9486 71.9222 38.0812C72.016 36.7965 72.2741 35.5292 72.6902 34.3103C73.21 32.8215 73.9688 31.4272 74.9366 30.1823C75.9334 28.9519 77.0965 27.8663 78.3926 26.9567C79.5446 26.0965 80.6966 25.4207 81.6144 24.814C82.5322 24.2072 83.2963 23.7426 83.807 23.3893C84.0643 23.2204 84.2563 23.0783 84.3869 22.9823L84.5366 22.8748L84.5866 22.8325C84.5866 22.8325 84.5635 22.8325 84.529 22.8632L84.3715 22.9592L83.7763 23.3432C83.2618 23.6773 82.5014 24.1496 81.5606 24.7256C80.6198 25.3016 79.4986 25.9928 78.3158 26.853C77.017 27.7637 75.8534 28.8535 74.8598 30.0901C73.8727 31.347 73.1006 32.7587 72.575 34.268C72.1541 35.4989 71.8959 36.7795 71.807 38.0773C71.7536 38.9486 71.7832 39.8229 71.8954 40.6885C71.9338 40.9957 71.9875 41.23 72.0144 41.3912C72.0144 41.4642 72.0413 41.5256 72.0528 41.5717C72.0643 41.6178 72.0758 41.6332 72.0797 41.6332Z" fill="#455A64"/>
<path d="M92.582 56.4209C92.582 56.4209 97.5318 58.4331 98.4803 61.0097C99.4287 63.5863 106.625 84.8638 106.625 84.8638L98.2729 88.0663L94.4636 70.5559L92.582 56.4209Z" fill="#455A64"/>
<path d="M66.9897 116.844C66.9897 116.844 118.062 114.497 121.268 115.342C124.475 116.187 126.391 117.804 127.028 121.647C127.666 125.491 137.511 176.417 137.511 176.417L128.556 179.052C128.556 179.052 115.992 150.367 115.458 145.567C114.924 140.767 113.154 130.929 113.154 130.929C113.154 130.929 93.7392 131.247 79.4429 130.929C65.1465 130.61 67.0665 117.377 67.0665 117.377L66.9897 116.844Z" fill="#FFBE9D"/>
<path d="M128.448 179.282L128.382 179.128C127.868 177.953 115.802 150.363 115.273 145.586C114.781 141.182 113.233 132.415 113.003 131.121C111.083 131.151 92.893 131.42 79.4491 131.121C75.0063 131.021 71.6616 129.673 69.4997 127.119C66.228 123.253 66.8117 117.838 66.8847 117.381L66.7656 116.663H66.9807C69.0696 116.567 118.126 114.325 121.321 115.169C124.907 116.118 126.616 117.988 127.223 121.624C127.852 125.418 137.591 175.884 137.706 176.394L137.737 176.563L128.448 179.282ZM113.322 130.733L113.353 130.894C113.372 130.99 115.127 140.794 115.657 145.544C116.16 150.079 127.672 176.536 128.67 178.817L137.299 176.283C136.669 173.023 127.461 125.365 126.846 121.678C126.27 118.222 124.642 116.433 121.225 115.534C118.199 114.732 70.8399 116.867 67.2187 117.032L67.2763 117.381V117.408C67.2763 117.466 66.5083 122.991 69.8031 126.878C71.892 129.343 75.1407 130.641 79.4645 130.741C93.5919 131.055 112.972 130.741 113.168 130.741L113.322 130.733Z" fill="#EB996E"/>
<path d="M70.44 89.2991L71.7264 97.2556C71.7264 97.2556 66.1392 107.842 65.5095 116.943C65.2099 121.267 67.6906 130.122 67.6906 130.122C67.6906 130.122 87.3667 132.284 97.9805 132.008L109.305 131.512L111.301 113.821L98.5911 111.986L98.7831 87.8783C98.7831 87.8783 101.087 81.5308 101.264 79.653C101.671 75.6901 101.502 71.6812 97.5427 66.5433L92.5815 56.421L90.9264 55.653L91.7136 67.9142L77.4519 54.3628L70.2288 56.9548L68.1821 66.6124L70.44 89.2991Z" fill="#455A64"/>
<g opacity="0.3">
<path d="M95.1631 114.916C94.2376 115.077 87.5599 115.173 86.6344 115.334C86.477 115.382 86.3113 115.398 86.1476 115.38C85.9839 115.363 85.8255 115.312 85.6821 115.231C85.5665 115.121 85.4864 114.98 85.4522 114.824C85.418 114.669 85.4312 114.507 85.4901 114.359C85.6125 114.062 85.8049 113.798 86.0507 113.591C87.6674 112.055 89.7679 111.168 91.8107 110.3C92.4635 110.027 93.1701 109.747 93.8536 109.916C94.1888 110.027 94.4919 110.218 94.7368 110.472C94.9816 110.726 95.1609 111.036 95.2591 111.375C95.4538 112.052 95.5342 112.757 95.4971 113.46" fill="black"/>
</g>
<g opacity="0.3">
<path d="M70.9661 94.8481C73.3508 94.2913 74.8484 91.9413 75.816 89.691C76.7837 87.4408 77.5824 84.9563 79.4794 83.4049C80.8695 82.2529 82.7319 81.7461 83.9338 80.4097C84.5051 79.7551 84.8839 78.9551 85.0283 78.0984C85.1727 77.2416 85.0769 76.3616 84.7517 75.556C84.4061 74.7342 83.7111 73.9585 82.8317 73.9125C81.7949 73.8587 80.9885 74.7573 80.3549 75.5829C77.457 79.3793 74.7242 83.2961 72.1565 87.3333C70.778 89.5029 69.4032 92.1371 70.3632 94.5217" fill="black"/>
</g>
<path d="M70.9803 58.2222C70.9803 58.2222 66.9444 59.5047 65.4852 62.0353C64.026 64.5659 61.6068 76.8538 61.0232 80.1639C60.4395 83.474 57.6171 97.0945 61.0232 99.2372C64.4292 101.38 68.9067 98.0852 70.074 96.123C71.2414 94.1607 76.0068 83.9578 76.0068 83.9578L71.7252 80.3598C71.7252 80.3598 72.4932 70.6292 72.2129 68.5825C71.9326 66.5358 70.9803 58.2222 70.9803 58.2222Z" fill="#FFBE9D"/>
<path d="M58.3242 83.4853L67.69 84.0959L71.9677 79.0731L73.1505 71.1627L72.8356 56.0293C72.8356 56.0293 64.4759 58.0683 62.6673 64.4235C61.3271 69.1199 58.3242 83.4853 58.3242 83.4853Z" fill="#455A64"/>
<path d="M74.8972 65.5872C74.3596 65.5142 73.6722 66.1478 74.1292 67.6761C74.5132 68.951 75.2351 70.1913 75.1813 70.9017C75.1276 71.6121 74.8511 73.0905 74.8511 73.8585C74.8176 74.6094 74.7446 75.3579 74.6322 76.1011L68.2578 83.7811L73.7759 88.6502L78.142 81.792C78.142 81.792 79.4591 82.0108 80.2233 81.1353L81.3753 79.8182C81.3753 79.8182 84.3321 78.7238 83.7292 77.1302C83.7292 77.1302 84.6047 76.2969 83.8098 74.9606C83.8098 74.9606 84.2245 73.5705 83.6217 72.7526C83.6217 72.7526 83.5679 70.8902 83.0725 70.56C82.5772 70.2297 77.4546 70.176 77.4546 70.176C77.1756 69.3245 76.8539 68.4876 76.4908 67.6684C75.9301 66.743 75.646 65.687 74.8972 65.5872Z" fill="#FFBE9D"/>
<path d="M77.0778 73.1402C77.0778 73.1594 76.9434 73.0865 76.8244 72.906C76.6693 72.6628 76.6015 72.374 76.6322 72.0872C76.6629 71.8004 76.7903 71.5326 76.9933 71.3277C77.1469 71.178 77.2775 71.1319 77.289 71.1511C77.0607 71.4276 76.9038 71.7559 76.8321 72.1073C76.8324 72.466 76.9166 72.8197 77.0778 73.1402Z" fill="#EB996E"/>
<path d="M83.4059 72.6143C82.6337 72.8394 81.8393 72.9797 81.0367 73.0328C80.2408 73.1485 79.4346 73.1756 78.6328 73.1135C79.4219 72.976 80.218 72.8825 81.0175 72.8331C81.8088 72.7146 82.6062 72.6415 83.4059 72.6143Z" fill="#EB996E"/>
<path d="M83.86 74.8106C83.2235 75.0691 82.5516 75.2296 81.867 75.2868C81.1921 75.4117 80.5022 75.435 79.8203 75.3559C79.8203 75.2983 80.7266 75.2407 81.8402 75.0871C82.9538 74.9335 83.8485 74.7569 83.86 74.8106Z" fill="#EB996E"/>
<path d="M83.7478 77.0648C82.7542 77.3695 81.7098 77.4726 80.6758 77.3681C81.181 77.2576 81.695 77.1921 82.2118 77.1723C82.7197 77.0919 83.2336 77.056 83.7478 77.0648Z" fill="#EB996E"/>
<path d="M78.9124 77.7563C78.9124 77.7793 78.8049 77.7563 78.6743 77.6833C78.5022 77.566 78.3814 77.3875 78.3364 77.1841C78.2872 76.9831 78.3146 76.7709 78.4132 76.5889C78.49 76.4545 78.5745 76.4008 78.5937 76.4161C78.6129 76.4315 78.4362 76.7502 78.5284 77.138C78.6206 77.5259 78.9393 77.7064 78.9124 77.7563Z" fill="#EB996E"/>
<path d="M77.6502 75.9281C77.6502 75.9473 77.5235 75.882 77.4044 75.7169C77.2516 75.4988 77.1637 75.2418 77.151 74.9758C77.1352 74.7091 77.1936 74.4432 77.3199 74.2078C77.4236 74.0311 77.5235 73.9543 77.5427 73.9697C77.4252 74.2873 77.3604 74.6219 77.3507 74.9604C77.3996 75.2966 77.5007 75.623 77.6502 75.9281Z" fill="#EB996E"/>
<path d="M82.1754 79.4882C81.8969 79.6358 81.591 79.7246 81.2768 79.7493C80.9726 79.8368 80.6533 79.8591 80.3398 79.8146C80.6177 79.6653 80.9239 79.5764 81.2384 79.5535C81.5422 79.4637 81.862 79.4414 82.1754 79.4882Z" fill="#EB996E"/>
<path d="M79.7057 70.2108C79.7057 70.2684 78.9377 70.2684 77.9661 70.3644C76.9946 70.4604 76.2458 70.6101 76.2305 70.5564C76.7748 70.3258 77.3563 70.1957 77.9469 70.1724C78.5308 70.081 79.1263 70.094 79.7057 70.2108Z" fill="#EB996E"/>
<path d="M96.5653 88.6694H128.307C128.867 88.6694 129.404 88.8919 129.8 89.288C130.196 89.6841 130.419 90.2213 130.419 90.7814V113.28H94.4609V90.7776C94.4619 90.2194 94.6839 89.6844 95.0782 89.2894C95.4725 88.8943 96.0071 88.6715 96.5653 88.6694Z" fill="#E0E0E0"/>
<path d="M130.42 114.916H88.1797C88.1797 114.486 88.3504 114.074 88.6543 113.77C88.9582 113.466 89.3704 113.295 89.8002 113.295H130.42V114.916Z" fill="#E0E0E0"/>
<path d="M129.093 90.2515H95.5547V113.295H129.093V90.2515Z" fill="white"/>
<path d="M129.088 113.28C129.088 113.28 129.088 113.134 129.088 112.858C129.088 112.581 129.088 112.166 129.088 111.636C129.088 110.565 129.088 108.998 129.065 106.994C129.065 102.985 129.042 97.2365 129.023 90.2361L129.104 90.3168H95.5691L95.669 90.2169C95.669 98.4461 95.669 106.26 95.669 113.257L95.5806 113.165L119.738 113.211L126.65 113.238H128.489H128.962H129.127H128.973H128.509H126.688L119.811 113.261L95.5922 113.307H95.5V113.28C95.5 106.28 95.5 98.4653 95.5 90.24V90.1401H95.5998H129.135H129.215V90.24C129.215 97.2595 129.184 103.027 129.173 107.048C129.173 109.044 129.173 110.603 129.173 111.656C129.173 112.182 129.173 112.585 129.173 112.861C129.173 113.138 129.088 113.28 129.088 113.28Z" fill="#263238"/>
<path d="M130.243 113.28C130.243 113.338 121.176 113.38 109.994 113.38C98.8123 113.38 89.7422 113.338 89.7422 113.28C89.7422 113.222 98.8084 113.18 109.994 113.18C121.18 113.18 130.243 113.242 130.243 113.28Z" fill="#263238"/>
<path d="M112.317 110.588C117.184 110.588 121.13 106.642 121.13 101.775C121.13 96.908 117.184 92.9624 112.317 92.9624C107.45 92.9624 103.504 96.908 103.504 101.775C103.504 106.642 107.45 110.588 112.317 110.588Z" fill="#A0F4B9"/>
<path d="M106.844 101.99L108.71 100.224L111.287 102.597L116.359 97.8237L118.202 99.5671L111.26 106.157L106.844 101.99Z" fill="white"/>
<path d="M74.6416 76.1009C74.6838 76.1354 72.0381 79.3303 68.7318 83.2318C65.4256 87.1332 62.7107 90.2666 62.6685 90.2398C62.6262 90.2129 65.272 87.0141 68.5782 83.1089C71.8845 79.2036 74.5993 76.0663 74.6416 76.1009Z" fill="#EB996E"/>
<path d="M74.184 71.1514C74.0977 72.2654 73.9451 73.3733 73.727 74.4691C73.5758 75.577 73.3578 76.6746 73.0742 77.7562C73.1604 76.6409 73.313 75.5317 73.5312 74.4346C73.6848 73.3284 73.9028 72.2322 74.184 71.1514Z" fill="#263238"/>
<path d="M98.7835 87.8781C98.7972 87.7997 98.8178 87.7226 98.8449 87.6477L99.0523 87.0026C99.2366 86.4458 99.5092 85.6394 99.8203 84.6372C100.192 83.4663 100.502 82.2768 100.75 81.0736C101.059 79.6046 101.197 78.1047 101.16 76.6039C101.022 73.8714 100.254 71.2077 98.9179 68.8202C98.521 68.0932 98.0852 67.3882 97.6123 66.7082C97.451 66.4663 97.3128 66.2858 97.2283 66.1591C97.1789 66.096 97.1364 66.0278 97.1016 65.9556C97.1602 66.0086 97.213 66.0679 97.259 66.1322C97.3588 66.2551 97.5086 66.4279 97.6814 66.666C98.1805 67.3315 98.6371 68.028 99.0484 68.7511C99.6596 69.8276 100.163 70.9622 100.55 72.138C101.032 73.5783 101.31 75.0789 101.375 76.5962C101.414 78.1133 101.27 79.6295 100.945 81.112C100.687 82.3184 100.361 83.5094 99.97 84.6794C99.6398 85.6778 99.348 86.4804 99.1406 87.0295C99.0408 87.2855 98.9601 87.4967 98.8987 87.6631C98.8692 87.7392 98.8305 87.8114 98.7835 87.8781Z" fill="#263238"/>
<path d="M90.6233 75.9204C90.639 76.0993 90.639 76.2792 90.6233 76.458C90.6227 76.6687 90.6073 76.8792 90.5772 77.0878C90.5495 77.3663 90.5072 77.6431 90.4505 77.9172C90.389 78.2497 90.3069 78.578 90.2047 78.9002C90.0965 79.2742 89.9684 79.6421 89.8207 80.0023C89.4663 80.8149 89.0261 81.5873 88.5075 82.3063C87.9759 83.024 87.3668 83.6807 86.6911 84.2647C86.395 84.5177 86.0848 84.7536 85.7619 84.9713C85.4856 85.1675 85.197 85.3458 84.8979 85.505C84.6498 85.6484 84.3934 85.7767 84.1299 85.889C83.9411 85.981 83.7461 86.0593 83.5462 86.1233C83.38 86.1917 83.2077 86.2444 83.0316 86.2807C83.0124 86.2385 83.7497 86.0119 84.8095 85.3937C85.0994 85.2271 85.3801 85.0451 85.6505 84.8484C85.95 84.6487 86.238 84.3953 86.5529 84.138C87.876 82.9739 88.9251 81.5314 89.6249 79.914C89.7713 79.5625 89.8995 79.2036 90.0089 78.8388C90.115 78.5214 90.2035 78.1983 90.2739 77.8711C90.5926 76.6884 90.5849 75.9204 90.6233 75.9204Z" fill="#263238"/>
<path d="M101.177 79.411C101.155 79.3899 101.137 79.3652 101.123 79.338L100.989 79.1038C100.862 78.8926 100.689 78.6046 100.47 78.2475C100.251 77.8904 99.9096 77.4526 99.5525 76.9534C99.1954 76.4542 98.7423 75.9089 98.2623 75.2984C96.2885 72.8868 93.374 69.7188 90.0332 66.3358C86.6924 62.9528 83.5551 60.0036 81.2549 57.8878L79.6882 56.4862C79.2274 56.0792 78.828 55.7182 78.494 55.4417L77.726 54.7928L77.5301 54.62C77.5049 54.602 77.4828 54.58 77.4648 54.5547C77.4923 54.5682 77.5181 54.585 77.5416 54.6046C77.5992 54.6468 77.6684 54.6968 77.749 54.762L78.54 55.3803L79.7573 56.4017C80.2296 56.8088 80.7596 57.2734 81.3432 57.7841C83.6741 59.8577 86.8191 62.803 90.1752 66.1822C93.5314 69.5614 96.4229 72.7563 98.3698 75.1947C98.846 75.8129 99.276 76.3697 99.6447 76.8689L100.536 78.1899C100.739 78.5739 100.92 78.8504 101.023 79.0692L101.146 79.2996C101.172 79.3739 101.182 79.411 101.177 79.411Z" fill="#263238"/>
<path d="M93.7202 97.1751C93.6497 97.1998 93.5759 97.214 93.5013 97.2174L92.8754 97.3057C92.3301 97.3787 91.5352 97.4631 90.5714 97.5515C88.6091 97.7281 85.8866 97.8702 82.8914 97.8356C79.8962 97.8011 77.1621 97.5822 75.2114 97.3595C74.2322 97.2481 73.4411 97.1406 72.9074 97.0523L72.2815 96.9524C72.208 96.9444 72.1358 96.9276 72.0664 96.9025C72.1404 96.8932 72.2152 96.8932 72.2891 96.9025L72.9189 96.9678C73.4642 97.0331 74.259 97.1175 75.2229 97.2097C77.1774 97.3979 79.8923 97.5937 82.9029 97.6283C85.9134 97.6628 88.6206 97.5399 90.5829 97.4017C91.5621 97.3326 92.357 97.2711 92.8869 97.2212L93.5166 97.1713C93.5844 97.1655 93.6526 97.1668 93.7202 97.1751Z" fill="#263238"/>
<path d="M110.352 88.6427C110.352 88.6427 116.641 86.1889 117.237 85.9931C117.832 85.7973 123.331 85.3672 123.331 85.3672L130.419 87.9131C130.419 87.9131 130.485 89.3685 128.83 89.1726C127.371 88.9262 125.932 88.5719 124.525 88.1128L123.53 88.7041L110.352 88.6427Z" fill="#FFBE9D"/>
<path d="M130.079 89.5756C130.244 89.9097 130.674 89.9596 131.005 90.1363C131.31 90.3147 131.56 90.5741 131.728 90.8858C131.895 91.1975 131.973 91.5494 131.953 91.9027C131.898 92.6088 131.664 93.2893 131.273 93.8803C131.153 94.1189 130.98 94.3265 130.766 94.487C130.657 94.563 130.527 94.6037 130.394 94.6037C130.261 94.6037 130.131 94.563 130.021 94.487C129.917 94.3592 129.846 94.2069 129.816 94.0443C129.787 93.8816 129.799 93.7142 129.853 93.5577C130.056 92.3327 129.791 90.7814 130.079 89.5718" fill="#FFBE9D"/>
<path d="M137.207 174.517L137.422 175.116C137.422 175.116 149.096 175.573 149.895 177.47L129.589 184.604L127.488 177.75C131.002 178.088 134.216 177.135 137.207 174.517Z" fill="#455A64"/>
<g opacity="0.6">
<path d="M130.305 179.186C130.13 179.314 130.009 179.503 129.964 179.716C129.92 179.928 129.955 180.15 130.063 180.338C130.185 180.52 130.374 180.649 130.589 180.695C130.804 180.742 131.028 180.703 131.215 180.587C131.4 180.452 131.528 180.252 131.575 180.027C131.621 179.802 131.582 179.568 131.465 179.37C131.318 179.197 131.111 179.087 130.885 179.064C130.66 179.04 130.434 179.105 130.255 179.243" fill="white"/>
</g>
<g opacity="0.6">
<path d="M129.585 184.604L129.082 182.957L148.727 176.721C148.727 176.721 149.768 176.798 149.879 177.489L129.585 184.604Z" fill="white"/>
</g>
<path d="M137.512 175.15C137.543 175.25 137.063 175.469 136.687 175.96C136.311 176.452 136.199 176.959 136.096 176.951C135.992 176.943 135.934 176.317 136.399 175.734C136.864 175.15 137.501 175.05 137.512 175.15Z" fill="#263238"/>
<path d="M139.95 175.28C140.007 175.369 139.635 175.687 139.447 176.225C139.259 176.763 139.316 177.243 139.216 177.273C139.116 177.304 138.855 176.763 139.105 176.098C139.355 175.434 139.915 175.188 139.95 175.28Z" fill="#263238"/>
<path d="M142.055 177.408C141.975 177.462 141.671 177.024 141.725 176.383C141.779 175.741 142.178 175.373 142.247 175.438C142.316 175.503 142.136 175.899 142.09 176.417C142.044 176.936 142.151 177.362 142.055 177.408Z" fill="#263238"/>
</svg>
