<svg width="190" height="190" viewBox="0 0 190 190" fill="none" xmlns="http://www.w3.org/2000/svg">
<path d="M36.237 134.35C34.115 133.017 31.7149 132.19 29.2222 131.933C28.0822 131.815 26.8244 131.849 25.9048 132.545C25.798 132.605 25.7096 132.693 25.6493 132.799C25.589 132.906 25.5591 133.027 25.5628 133.149C25.615 133.323 25.7302 133.47 25.8858 133.563C28.7396 135.741 33.0602 136.018 36.237 134.35Z" fill="#E0E0E0"/>
<path d="M36.058 134.14C34.4373 132.95 32.9253 131.619 31.5398 130.161C30.1429 128.693 29.1619 126.879 28.6974 124.906C28.5758 124.309 28.5378 123.625 28.9216 123.15C32.5354 125.97 35.3816 129.61 36.0694 134.148" fill="#E0E0E0"/>
<path d="M36.2035 134.319C35.9299 132.343 35.8235 130.314 36.2871 128.372C36.7507 126.431 37.8071 124.572 39.4563 123.463C40.0795 124.922 39.8097 126.602 39.3727 128.125C38.6898 130.486 37.6284 132.72 36.2301 134.741" fill="#E0E0E0"/>
<path d="M39.741 140.665C37.594 140.927 35.7206 142.06 34.117 143.515C32.5009 144.981 31.3769 146.911 30.8984 149.04C33.0074 148.907 34.7934 147.421 36.093 145.753C37.3926 144.085 38.2894 142.257 39.7144 140.699" fill="#E0E0E0"/>
<path d="M40.5132 141.68C39.6661 139.532 39.3692 137.206 39.6492 134.914C39.9292 132.622 40.7774 130.436 42.1168 128.555C43.3404 132.909 42.8768 137.83 40.5132 141.68Z" fill="#E0E0E0"/>
<path d="M45.1896 147.25C43.2262 147.127 41.2698 147.583 39.5638 148.563C37.8578 149.543 36.4775 151.002 35.5946 152.76C35.4768 152.996 35.3704 153.3 35.53 153.52C35.6137 153.6 35.7154 153.659 35.8265 153.691C35.9376 153.724 36.0549 153.729 36.1684 153.706C38.0684 153.585 39.7329 152.445 41.1084 151.153C42.484 149.861 43.6963 148.36 45.2239 147.239" fill="#E0E0E0"/>
<path d="M45.0422 146.951C44.0349 143.708 43.9729 140.245 44.8636 136.968C45.2132 135.68 45.806 134.327 46.9916 133.727C47.039 133.695 47.0926 133.673 47.1489 133.663C47.2052 133.653 47.263 133.656 47.3184 133.67C47.4157 133.719 47.4894 133.805 47.5236 133.909C47.9242 134.807 48.0978 135.79 48.029 136.77C47.9576 137.747 47.8077 138.717 47.5806 139.67C47.2006 141.444 47.0068 143.348 46.034 144.876C45.8039 145.242 45.597 145.623 45.4146 146.016C45.2322 146.396 45.2322 146.54 45.0612 146.848" fill="#E0E0E0"/>
<path d="M57.4252 148.793C56.5094 145.305 57.4822 141.072 59.6824 138.21C59.842 138.001 60.0624 137.773 60.3208 137.8C60.7274 137.838 60.8338 138.378 60.8148 138.784C60.6474 142.373 59.4727 145.842 57.4252 148.793Z" fill="#E0E0E0"/>
<path d="M58.543 149.557C62.7838 150.659 67.663 149.588 71.1742 146.988C69.0597 145.926 66.6427 145.63 64.3342 146.149C62.0542 146.673 59.9642 147.695 58.543 149.569" fill="#E0E0E0"/>
<path d="M59.4844 147.232C61.8594 143.359 66.4118 140.832 70.949 140.604C70.4246 142.447 68.9084 143.884 67.1984 144.75C65.4884 145.617 63.577 145.993 61.696 146.358C60.9626 146.502 59.9594 146.658 59.4844 147.232Z" fill="#E0E0E0"/>
<path d="M57.6628 135.957C58.305 133.753 58.951 131.53 59.1296 129.242C59.3082 126.954 58.9814 124.564 57.792 122.6C55.5728 126.894 55.3486 131.91 57.5982 136.185" fill="#E0E0E0"/>
<path d="M65.1328 132.18C67.7244 127.468 73.0178 123.702 78.372 123.174C76.3086 128.315 70.6732 132.294 65.1328 132.18Z" fill="#E0E0E0"/>
<path d="M63.5 133.107C67.3684 133.696 70.6668 136.166 74.2806 137.667C75.0393 138.032 75.8802 138.193 76.7202 138.134C77.1122 138.133 77.4943 138.011 77.8141 137.784C78.1338 137.557 78.3756 137.237 78.5063 136.867C78.637 136.498 78.6502 136.097 78.544 135.72C78.4379 135.342 78.2176 135.007 77.9134 134.76C77.4016 134.286 76.7993 133.92 76.1426 133.684C72.202 132.043 67.9802 132.001 63.842 133" fill="#E0E0E0"/>
<path d="M61.2616 135.82C62.1356 136.071 62.4358 136.523 63.1312 137.112C65.4962 139.124 68.2934 140.562 71.305 141.315C71.6166 141.391 72.027 141.422 72.1828 141.14C72.3386 140.859 72.1448 140.597 71.97 140.38C70.6553 138.839 68.9485 137.681 67.03 137.029C65.13 136.326 63.5074 135.478 61.2578 135.661" fill="#E0E0E0"/>
<path d="M58.7344 119.431C60.3206 120.893 62.1952 122.008 64.2376 122.703C66.28 123.398 68.4452 123.658 70.5942 123.466C70.7928 123.47 70.9859 123.401 71.1376 123.273C71.434 122.946 71.0768 122.444 70.7272 122.174C67.2426 119.454 63.017 118.329 58.7344 119.431Z" fill="#E0E0E0"/>
<path d="M61.7266 118.332C63.8271 116.789 66.263 115.763 68.8353 115.341C71.4077 114.918 74.0435 115.11 76.5276 115.9C74.6656 117.736 72.0778 118.724 69.4748 118.993C66.8737 119.233 64.2508 119.011 61.7266 118.34" fill="#E0E0E0"/>
<path d="M60.537 110.801C60.195 107.32 60.4154 104.573 60.176 101.077C60.157 100.795 60.0962 100.461 59.834 100.358C59.454 100.222 59.1652 100.666 59.0474 101.039C58.5402 102.659 58.4103 104.375 58.6678 106.054C58.9254 107.733 59.5634 109.33 60.5332 110.725" fill="#E0E0E0"/>
<path d="M60.2852 111.188C62.645 109.729 64.4158 107.821 66.0498 105.583C67.1898 104.025 68.1512 102.163 67.8928 100.244C66.293 100.214 64.773 101.095 63.7318 102.311C62.6906 103.527 62.075 105.043 61.6114 106.575C61.1478 108.106 60.8286 109.679 60.2852 111.188Z" fill="#E0E0E0"/>
<path d="M65.9513 109.611C71.1418 107.693 75.9473 104.862 80.1405 101.251C78.4457 100.571 76.5039 100.978 74.8205 101.662C70.9521 103.227 67.7867 105.864 65.8867 109.581" fill="#E0E0E0"/>
<path d="M61.8789 113.092C64.5009 113.377 67.1609 113.563 69.7601 113.13C72.3593 112.697 74.7267 111.69 77.1169 110.687C77.3241 110.626 77.5014 110.491 77.6147 110.307C77.6524 110.196 77.6555 110.076 77.6236 109.964C77.5917 109.851 77.5263 109.751 77.4361 109.676C77.2524 109.532 77.0378 109.431 76.8091 109.383C74.2137 108.658 71.4131 109.003 68.8595 109.858C66.4261 110.69 64.0864 111.773 61.8789 113.092Z" fill="#E0E0E0"/>
<path d="M46.9218 119.549C45.1358 115.942 45.2498 111.732 46.7964 108.012C47.8832 109.669 48.0162 111.778 47.8148 113.75C47.6134 115.722 47.0168 117.747 46.9788 119.727" fill="#E0E0E0"/>
<path d="M39.7829 115.946C37.5454 115.917 35.3265 116.355 33.268 117.233C31.2095 118.11 29.3567 119.407 27.8281 121.041C30.0549 121.391 32.3501 120.817 34.3755 119.825C36.4009 118.834 38.2021 117.45 39.9843 116.071" fill="#E0E0E0"/>
<path d="M34.9824 114.343C32.8012 114.164 30.6998 113.894 28.6022 114.54C26.5046 115.186 24.5932 116.661 23.7344 118.663C25.7955 118.828 27.8629 118.434 29.7194 117.523C31.5642 116.616 33.3254 115.548 34.9824 114.331" fill="#E0E0E0"/>
<path d="M42.0876 114.415C40.1268 113.13 38.109 111.819 35.8214 111.287C33.5338 110.755 30.8814 111.147 29.293 112.872C31.1436 113.955 33.3894 114.084 35.5326 114.084C37.6758 114.084 40.3092 114.058 42.3346 114.772" fill="#E0E0E0"/>
<path d="M42.0986 114.521C38.7432 111.223 37.4702 105.303 38.8192 100.796C41.4706 104.853 42.6298 109.704 42.0986 114.521Z" fill="#E0E0E0"/>
<path d="M51.3359 105.181C51.9667 103.707 52.4151 102.164 52.9813 100.663C53.5008 99.1486 54.2971 97.7441 55.3297 96.5208C56.3791 95.285 57.8722 94.5112 59.4869 94.3662C58.97 96.6374 57.9852 98.7759 56.5955 100.645C55.2058 102.514 53.4417 104.073 51.4157 105.223" fill="#E0E0E0"/>
<path d="M49.6635 107.126C48.6147 105.682 47.4063 103.706 45.9851 102.65C44.5639 101.593 42.7133 100.921 40.9805 101.335C41.8783 102.908 43.1305 104.251 44.6377 105.256C46.1449 106.261 47.8657 106.902 49.6635 107.126Z" fill="#E0E0E0"/>
<path d="M49.9959 105.298C49.3081 103.554 48.6165 101.791 48.3391 99.9364C48.0617 98.082 48.2327 96.0984 49.1789 94.4834C51.0219 97.9642 51.6147 101.703 50.0909 105.34" fill="#E0E0E0"/>
<path d="M51.3477 94.4833C52.3927 91.0291 55.5543 88.4869 58.9667 87.3203C59.39 87.147 59.8487 87.078 60.3043 87.1189C60.5317 87.1413 60.7471 87.2315 60.9226 87.3779C61.0981 87.5242 61.2256 87.72 61.2885 87.9397C61.4139 88.5287 60.9275 89.0531 60.4715 89.4597C57.8025 91.7373 54.7002 93.4513 51.3515 94.4985" fill="#E0E0E0"/>
<path d="M51.3891 91.656C51.5221 89.4292 51.6627 87.172 52.3847 85.063C53.1067 82.954 54.5051 80.9742 56.5343 80.0508C56.8801 82.3004 55.8883 84.5348 54.6913 86.4728C53.4943 88.4108 52.0541 90.2348 51.3359 92.3932" fill="#E0E0E0"/>
<path d="M51.334 93.1918C50.4714 90.6724 50.3802 87.4918 48.8754 85.284C47.819 83.764 46.1318 82.7076 45.2274 81.085C44.6778 82.6418 44.7527 84.3511 45.4364 85.854C46.1227 87.3386 47.0671 88.6895 48.2256 89.844C49.3428 91.0334 50.2966 91.9302 51.334 93.1918Z" fill="#E0E0E0"/>
<path d="M51.3482 167.306C51.2836 167.306 51.2228 150.518 51.219 129.812C51.2152 109.106 51.2646 92.3135 51.333 92.3135C51.4014 92.3135 51.4584 109.098 51.4622 129.812C51.466 150.526 51.4166 167.306 51.3482 167.306Z" fill="#E0E0E0"/>
<path d="M66.02 117.014C65.8188 117.116 65.6073 117.196 65.3892 117.253L63.6526 117.838C62.1858 118.336 60.1756 119.058 57.9906 119.955C55.8056 120.852 53.7878 121.634 52.6288 122.641C52.1656 123.028 51.7966 123.516 51.5496 124.066C51.3824 124.446 51.3558 124.701 51.333 124.697C51.3213 124.64 51.3213 124.58 51.333 124.522C51.3573 124.355 51.398 124.191 51.4546 124.032C51.675 123.447 52.0365 122.925 52.5072 122.512C53.207 121.919 53.9907 121.432 54.8328 121.068C55.7638 120.635 56.7974 120.179 57.8918 119.731C60.0806 118.834 62.1098 118.135 63.5918 117.675C64.3328 117.443 64.937 117.272 65.355 117.162C65.5717 117.092 65.7943 117.043 66.02 117.014Z" fill="#E0E0E0"/>
<path d="M70.8308 105.204C70.7769 105.271 70.7171 105.333 70.6522 105.39L70.1126 105.899L68.1024 107.723L61.4068 113.685C58.7962 116.011 56.539 118.245 54.9734 119.906C54.1906 120.742 53.5712 121.426 53.1494 121.92L52.663 122.475C52.6118 122.543 52.5517 122.605 52.4844 122.657C52.5214 122.58 52.5687 122.509 52.625 122.444C52.7276 122.308 52.8758 122.106 53.0772 121.859C53.4572 121.354 54.0766 120.643 54.848 119.792C56.8681 117.584 59.0042 115.484 61.2472 113.503C63.8692 111.185 66.2556 109.099 67.9884 107.598L70.0518 105.827L70.6218 105.356C70.751 105.261 70.8232 105.196 70.8308 105.204Z" fill="#E0E0E0"/>
<path d="M58.5878 116.049C58.5194 116.018 59.0666 114.76 59.61 113.164C60.1534 111.568 60.4156 110.227 60.4878 110.238C60.56 110.25 60.3966 111.629 59.838 113.244C59.6043 113.931 59.3341 114.604 59.0286 115.262C58.9216 115.545 58.7731 115.81 58.5878 116.049Z" fill="#E0E0E0"/>
<path d="M51.3639 126.214C51.2164 126.07 51.0816 125.913 50.9611 125.746L49.9313 124.42C49.0649 123.303 47.8679 121.76 46.5113 120.065C45.1547 118.371 43.9349 116.854 43.0419 115.756L41.9855 114.453C41.8391 114.301 41.7115 114.133 41.6055 113.951C41.7624 114.084 41.9073 114.23 42.0387 114.388C42.3085 114.681 42.6885 115.11 43.1521 115.646C44.0831 116.718 45.3371 118.219 46.6823 119.913C48.0275 121.608 49.2055 123.17 50.0377 124.318C50.4519 124.891 50.7977 125.359 51.0067 125.689C51.1459 125.85 51.2658 126.026 51.3639 126.214Z" fill="#E0E0E0"/>
<path d="M48.1502 122.083C48.1084 122.125 47.2496 121.107 46.8012 119.56C46.5488 118.736 46.4458 117.874 46.4972 117.014H46.6036C46.5542 117.208 46.52 117.311 46.501 117.307C46.482 117.303 46.482 117.197 46.501 116.995H46.6074C46.6596 117.834 46.8036 118.665 47.0368 119.473C47.4662 120.989 48.2148 122.042 48.1502 122.083Z" fill="#E0E0E0"/>
<path d="M43.996 116.858C43.7062 116.636 43.3896 116.452 43.0536 116.31C42.2076 116.059 41.3182 115.988 40.443 116.101C39.5549 116.17 38.6741 116.312 37.8096 116.527C37.4552 116.639 37.0933 116.725 36.7266 116.785C37.0508 116.597 37.4001 116.455 37.764 116.364C38.6286 116.095 39.521 115.927 40.424 115.862C41.3322 115.74 42.2564 115.839 43.1182 116.151C43.483 116.279 43.7928 116.529 43.996 116.858Z" fill="#E0E0E0"/>
<path d="M43.011 115.592C43.011 115.63 42.46 115.372 41.567 115.068C40.4043 114.672 39.1966 114.423 37.9722 114.327C36.7468 114.238 35.5152 114.3 34.3052 114.513C33.3742 114.68 32.8118 114.851 32.7852 114.813C32.9028 114.74 33.0309 114.685 33.1652 114.65C33.5213 114.524 33.8857 114.422 34.2558 114.346C35.4762 114.076 36.7297 113.987 37.976 114.084C39.2216 114.179 40.4467 114.455 41.6126 114.904C41.965 115.039 42.3089 115.195 42.6424 115.372C42.7758 115.426 42.9001 115.5 43.011 115.592Z" fill="#E0E0E0"/>
<path d="M51.334 110.239C51.2694 110.239 50.7982 108.62 50.2814 106.587C49.7646 104.554 49.3998 102.889 49.4644 102.874C49.529 102.859 50.0002 104.493 50.517 106.526C51.0338 108.559 51.3986 110.22 51.334 110.239Z" fill="#E0E0E0"/>
<path d="M51.3999 110.238C51.3277 110.261 51.0199 109.166 50.2371 108.049C49.7431 107.389 49.1658 106.795 48.5195 106.282C48.7653 106.339 48.9935 106.455 49.1845 106.62C49.6701 106.979 50.0926 107.415 50.4347 107.912C51.2555 109.06 51.4607 110.234 51.3999 110.238Z" fill="#E0E0E0"/>
<path d="M51.3506 158.358C51.324 158.358 51.2746 157.951 51.0846 157.241C50.8029 156.236 50.421 155.262 49.9446 154.334C48.8046 151.962 46.6766 148.957 43.9938 145.947C42.6638 144.427 41.3756 142.994 40.2812 141.626C39.2972 140.42 38.4079 139.139 37.6212 137.796C37.0935 136.889 36.6447 135.938 36.2798 134.954C36.1582 134.604 36.067 134.33 36.0176 134.14C35.984 134.047 35.9611 133.95 35.9492 133.852C35.972 133.852 36.0936 134.232 36.371 134.919C36.7655 135.883 37.233 136.816 37.7694 137.709C38.5714 139.031 39.468 140.293 40.4522 141.486C41.5504 142.842 42.8424 144.267 44.1724 145.787C46.8628 148.805 48.968 151.867 50.0966 154.258C50.5536 155.204 50.909 156.196 51.1568 157.218C51.2328 157.598 51.286 157.864 51.305 158.058C51.3305 158.156 51.3458 158.256 51.3506 158.358Z" fill="#E0E0E0"/>
<path d="M64.5982 143.382C64.3742 143.522 64.142 143.649 63.9028 143.762C63.2745 144.114 62.6725 144.512 62.1015 144.951C61.258 145.609 60.4665 146.33 59.7342 147.11C58.902 147.987 58.047 149.01 57.173 150.1C55.4288 152.289 53.7948 154.227 52.8182 155.777C52.3204 156.537 51.9593 157.191 51.7237 157.647C51.6131 157.888 51.4862 158.122 51.3438 158.346C51.355 158.277 51.3768 158.211 51.4083 158.149C51.4615 158.023 51.53 157.837 51.644 157.605C51.9471 156.95 52.2923 156.316 52.6776 155.705C53.6238 154.121 55.2464 152.152 56.9906 149.967C57.8646 148.873 58.7309 147.851 59.5783 146.973C60.3252 146.193 61.1362 145.478 62.0028 144.833C62.5886 144.399 63.2117 144.018 63.8648 143.693C64.0928 143.576 64.2828 143.503 64.4044 143.45C64.4651 143.418 64.5305 143.395 64.5982 143.382Z" fill="#E0E0E0"/>
<path d="M64.8649 148.239C64.3826 148.349 63.892 148.42 63.3981 148.451C62.2181 148.574 61.0517 148.804 59.9135 149.139C58.7894 149.504 57.7357 150.058 56.7975 150.777C56.0755 151.332 55.7373 151.792 55.7031 151.765C55.7568 151.64 55.8313 151.526 55.9235 151.427C56.1499 151.141 56.4045 150.879 56.6835 150.644C57.6139 149.868 58.6847 149.279 59.8375 148.907C60.989 148.565 62.1761 148.356 63.3753 148.284C63.8694 148.224 64.368 148.209 64.8649 148.239Z" fill="#E0E0E0"/>
<path d="M56.1349 151.24C56.0589 151.198 56.7201 150.187 57.2331 148.827C57.7461 147.467 57.8297 146.251 57.9171 146.266C57.9509 146.528 57.9419 146.793 57.8905 147.052C57.8178 147.686 57.6737 148.309 57.4611 148.911C57.2389 149.507 56.9535 150.077 56.6099 150.613C56.3477 151.012 56.1615 151.24 56.1349 151.24Z" fill="#E0E0E0"/>
<path d="M68.9001 130.341C68.8263 130.391 68.7473 130.433 68.6645 130.466L67.9767 130.778C67.6727 130.907 67.3041 131.074 66.8937 131.291C66.4833 131.507 65.9931 131.724 65.4877 132.028L64.6859 132.484C64.4085 132.644 64.1349 132.834 63.8423 133.016C63.2533 133.373 62.6605 133.814 62.0297 134.266C59.3235 136.277 56.9632 138.716 55.0415 141.486C54.6159 142.132 54.1941 142.74 53.8559 143.344C53.6811 143.641 53.5025 143.922 53.3505 144.207L52.9249 145.024C52.6399 145.537 52.4347 146.027 52.2371 146.449C52.0395 146.871 51.8799 147.243 51.7621 147.551C51.6443 147.859 51.5455 148.064 51.4695 148.25C51.4396 148.334 51.4014 148.414 51.3555 148.49C51.3673 148.402 51.3903 148.317 51.4239 148.235L51.6709 147.517C51.7773 147.201 51.9179 146.825 52.1117 146.377C52.3055 145.928 52.4917 145.45 52.7729 144.925L53.1871 144.097C53.3353 143.812 53.5101 143.527 53.6811 143.223C54.0155 142.611 54.4411 141.995 54.8591 141.323C56.773 138.513 59.1531 136.05 61.8967 134.042C62.5351 133.594 63.1355 133.153 63.7359 132.799C64.0323 132.621 64.3097 132.419 64.5947 132.275L65.4079 131.83C65.9209 131.538 66.4111 131.325 66.8329 131.124C67.1933 130.946 67.5623 130.786 67.9387 130.645L68.6455 130.375C68.7286 130.353 68.8141 130.342 68.9001 130.341Z" fill="#E0E0E0"/>
<path d="M58.4102 137.37C58.507 137.03 58.7092 136.729 58.9878 136.511C59.6325 135.95 60.4546 135.633 61.3096 135.618C62.149 135.614 62.981 135.776 63.7568 136.097C64.0858 136.201 64.3981 136.352 64.684 136.545C64.3476 136.48 64.0182 136.383 63.6998 136.257C62.9318 136 62.1268 135.872 61.3172 135.877C60.5134 135.894 59.7359 136.166 59.098 136.656C58.8517 136.877 58.6218 137.116 58.4102 137.37Z" fill="#E0E0E0"/>
<path d="M56.8409 138.99C56.7763 138.952 57.3653 138.085 57.5021 136.839C57.6389 135.592 57.2817 134.62 57.3539 134.601C57.4947 134.783 57.5887 134.997 57.6275 135.224C57.9084 136.306 57.7728 137.455 57.2475 138.442C57.0461 138.815 56.8637 139.005 56.8409 138.99Z" fill="#E0E0E0"/>
<path d="M39.7539 160.764C40.1149 167.178 42.0339 173.703 45.0207 180.299H57.9407C60.7755 173.771 62.5767 167.254 62.8807 160.764H39.7539Z" fill="#E0E0E0"/>
<path d="M60.8008 171.145C60.8008 171.213 56.5448 171.267 51.3008 171.267C46.0568 171.267 41.8008 171.213 41.8008 171.145C41.8008 171.077 46.0568 171.023 51.3008 171.023C56.5448 171.023 60.8008 171.077 60.8008 171.145Z" fill="#FAFAFA"/>
<path d="M60.5249 173.47C60.5249 173.535 56.5349 173.588 51.6101 173.588C46.6853 173.588 42.6953 173.535 42.6953 173.47C42.6953 173.406 46.6853 173.349 51.6101 173.349C56.5349 173.349 60.5249 173.402 60.5249 173.47Z" fill="#FAFAFA"/>
<path d="M45.2193 164.974C45.2877 164.974 45.3409 166.307 45.3409 167.953C45.3409 169.598 45.2877 170.932 45.2193 170.932C45.1509 170.932 45.0977 169.598 45.0977 167.953C45.0977 166.307 45.1661 164.974 45.2193 164.974Z" fill="#FAFAFA"/>
<path d="M52.1646 164.974C52.2292 164.974 52.2862 166.357 52.2862 168.059C52.2862 169.762 52.2292 171.145 52.1646 171.145C52.1 171.145 52.043 169.762 52.043 168.059C52.043 166.357 52.0962 164.974 52.1646 164.974Z" fill="#FAFAFA"/>
<path d="M58.6647 164.92C58.7331 164.92 58.7863 166.326 58.7863 168.063C58.7863 169.799 58.7331 171.209 58.6647 171.209C58.5963 171.209 58.5469 169.803 58.5469 168.063C58.5469 166.322 58.6001 164.92 58.6647 164.92Z" fill="#FAFAFA"/>
<path d="M62.5012 164.973C62.5012 165.042 57.5042 165.095 51.3482 165.095C45.1922 165.095 40.1914 165.042 40.1914 164.973C40.1914 164.905 45.1846 164.852 51.3482 164.852C57.5118 164.852 62.5012 164.92 62.5012 164.973Z" fill="#FAFAFA"/>
<path d="M50.3191 20.8848H19.8203V52.6756H50.3191V20.8848Z" fill="#E0E0E0"/>
<path d="M48.2527 20.8848H17.7539V52.6756H48.2527V20.8848Z" fill="#FAFAFA"/>
<path d="M48.2601 52.6877H17.7461V20.8779H48.2601V52.6877ZM17.7613 52.6687H48.2601V20.9007H17.7651L17.7613 52.6687Z" fill="#E0E0E0"/>
<path d="M44.1539 25.1602H21.8555V48.4048H44.1539V25.1602Z" fill="white"/>
<path d="M21.855 48.5605C21.6965 48.7939 21.5116 49.0081 21.304 49.1989C20.9506 49.5789 20.449 50.0843 19.8866 50.6353C19.3242 51.1863 18.8112 51.6803 18.4312 52.0299C18.2391 52.2349 18.0221 52.4149 17.7852 52.5657C17.9432 52.3332 18.1281 52.1202 18.3362 51.9311C18.6896 51.5511 19.1912 51.0419 19.7536 50.4909C20.316 49.9399 20.8328 49.4421 21.2128 49.0925C21.404 48.8893 21.6197 48.7106 21.855 48.5605Z" fill="#E0E0E0"/>
<path d="M44.1523 48.5C44.386 48.6595 44.6014 48.8443 44.7945 49.051C45.1745 49.4082 45.6761 49.9098 46.2309 50.4684C46.7857 51.027 47.2759 51.5476 47.6255 51.9276C47.8287 52.1199 48.0086 52.3354 48.1613 52.5698C47.9274 52.4137 47.713 52.2299 47.5229 52.0226C47.1429 51.6692 46.6375 51.1638 46.0827 50.6014C45.5279 50.039 45.0377 49.5222 44.6881 49.1422C44.485 48.9499 44.3051 48.7344 44.1523 48.5Z" fill="#E0E0E0"/>
<path d="M44.082 25.221C44.242 24.9888 44.4267 24.7748 44.633 24.5826C44.9902 24.2026 45.488 23.6972 46.0504 23.1462C46.6128 22.5952 47.122 22.1012 47.502 21.7516C47.6938 21.5463 47.9108 21.3663 48.148 21.2158C47.9911 21.448 47.8074 21.661 47.6008 21.8504C47.2436 22.2304 46.742 22.7358 46.1796 23.2906C45.6172 23.8454 45.1004 24.3394 44.7204 24.689C44.5314 24.893 44.3168 25.0718 44.082 25.221Z" fill="#E0E0E0"/>
<path d="M21.7943 25.2779C21.5609 25.1195 21.3467 24.9346 21.1559 24.7269C20.7759 24.3735 20.2705 23.8719 19.7195 23.3095C19.1685 22.7471 18.6745 22.2341 18.3249 21.8541C18.1203 21.6631 17.9403 21.4474 17.7891 21.2119C18.0225 21.3673 18.2356 21.5511 18.4237 21.7591C18.8037 22.1125 19.3091 22.6141 19.8639 23.1765C20.4187 23.7389 20.9013 24.2557 21.2813 24.6357C21.4768 24.829 21.6489 25.0445 21.7943 25.2779Z" fill="#E0E0E0"/>
<path d="M44.0795 48.4045C44.0795 48.4045 44.0795 48.3627 44.0795 48.2905C44.0795 48.2183 44.0795 48.1043 44.0795 47.9675C44.0795 47.6736 44.0795 47.2556 44.0795 46.7135C44.0795 45.6115 44.0795 44.0079 44.0567 41.9749C44.0567 37.9051 44.0301 32.0949 44.0149 25.1599L44.0985 25.2473H21.8647L21.9635 25.1485C21.9635 33.6795 21.9635 41.6595 21.9635 48.3931L21.8761 48.3095L37.9767 48.3513L42.5025 48.3741H43.6995H44.0073H43.6995H42.5215L38.0185 48.3969L21.8609 48.4387H21.7773V48.3551C21.7773 41.6215 21.7773 33.6415 21.7773 25.1105V25.0801H21.8799H44.0795H44.1669V25.1675C44.1479 32.1329 44.1327 37.9545 44.1213 42.0357C44.1213 44.0611 44.1213 45.6571 44.0985 46.7553C44.0985 47.2911 44.0985 47.7053 44.0985 47.9941C44.0985 48.1271 44.0985 48.2297 44.0985 48.3095C44.0951 48.3417 44.0888 48.3735 44.0795 48.4045Z" fill="#E0E0E0"/>
<path d="M36.7217 33.0605H29.2812V40.5009H36.7217V33.0605Z" fill="#EBEBEB"/>
<path d="M168.124 14.0684H123.809V78.2998H168.124V14.0684Z" fill="#E0E0E0"/>
<path d="M165.902 14.0684H121.586V78.2998H165.902V14.0684Z" fill="#F5F5F5"/>
<path d="M160.393 21.0225H127.09V71.3421H160.393V21.0225Z" fill="white"/>
<path d="M160.394 71.3416C160.394 71.3416 160.394 71.2542 160.394 71.0946C160.394 70.935 160.394 70.6918 160.394 70.3802C160.394 69.7494 160.394 68.8222 160.394 67.6214C160.394 65.2084 160.394 61.6972 160.364 57.255C160.364 48.382 160.334 35.8192 160.311 21.022L160.421 21.1322H127.122L127.243 21.0106C127.243 39.9916 127.243 57.4906 127.217 71.3302L127.122 71.2352L151.362 71.2846L158.061 71.3074H159.817H160.425H159.836H158.099L151.423 71.334L127.122 71.3834H127.027V71.2884C127.027 57.4526 127.027 39.9498 127 20.9688V20.9004H127.125H160.425H160.535V21.0106C160.512 35.8306 160.493 48.4276 160.482 57.3158C160.482 61.7466 160.459 65.2502 160.451 67.6556C160.451 68.8488 160.451 69.7684 160.451 70.3954C160.451 70.6994 160.451 70.935 160.451 71.0946C160.451 71.2542 160.394 71.3416 160.394 71.3416Z" fill="#E0E0E0"/>
<path d="M166.026 14.0605C165.794 14.4614 165.53 14.8426 165.236 15.2005C164.719 15.8883 163.989 16.8231 163.157 17.8377C162.325 18.8523 161.542 19.7377 160.965 20.3837C160.667 20.7481 160.338 21.0851 159.98 21.3907C160.23 20.9991 160.512 20.6292 160.824 20.2849C161.421 19.5667 162.15 18.6775 162.96 17.6971L165.091 15.1093C165.371 14.7327 165.684 14.3817 166.026 14.0605Z" fill="#E0E0E0"/>
<path d="M160.566 71.1777C162.222 73.8105 164.17 76.2478 166.373 78.4433L160.566 71.1777Z" fill="white"/>
<path d="M166.373 78.4433C166.005 78.1706 165.667 77.8612 165.362 77.5199C163.815 75.9487 162.435 74.222 161.243 72.3671C160.976 71.9956 160.749 71.5969 160.566 71.1777C160.865 71.5223 161.138 71.888 161.383 72.2721C161.87 72.9599 162.558 73.8985 163.359 74.8979C164.161 75.8973 164.925 76.7979 165.484 77.4059C165.807 77.7279 166.104 78.0748 166.373 78.4433Z" fill="#E0E0E0"/>
<path d="M121.602 78.2461L127.404 71.0869L121.602 78.2461Z" fill="white"/>
<path d="M127.382 71.0873C127.435 71.1291 126.178 72.763 124.574 74.7428C122.97 76.7226 121.629 78.2882 121.58 78.2464C121.53 78.2046 122.784 76.5668 124.388 74.5908C125.991 72.6148 127.333 71.0607 127.382 71.0873Z" fill="#E0E0E0"/>
<path d="M121.602 14.0604C121.655 14.0186 122.916 15.5234 124.421 17.4272C125.926 19.331 127.1 20.9042 127.047 20.946C126.05 19.8728 125.11 18.7477 124.231 17.5754C123.293 16.4512 122.415 15.2779 121.602 14.0604Z" fill="#E0E0E0"/>
<path d="M150.016 31.2402H138.867V62.9018H150.016V31.2402Z" fill="#E0E0E0"/>
<path d="M142.211 145.54C142.173 145.582 141.873 145.403 141.535 145.134C141.197 144.864 140.957 144.609 140.992 144.564C141.026 144.518 141.33 144.7 141.668 144.97C142.006 145.24 142.246 145.487 142.211 145.54Z" fill="#263238"/>
<path d="M151.378 131.826C151.435 130.545 151.469 129.234 151.067 128.026C150.664 126.818 149.725 125.689 148.471 125.431C147.039 125.134 145.572 126.039 144.766 127.262C143.961 128.486 143.691 129.968 143.451 131.412C141.818 141.367 141.216 151.464 141.654 161.542L147.517 162.363C150.101 151.837 150.911 142.645 151.378 131.826Z" fill="#455A64"/>
<path d="M147.658 125.377C147.658 125.377 147.658 125.411 147.631 125.472C147.605 125.533 147.57 125.628 147.532 125.738C147.437 125.985 147.308 126.323 147.152 126.749C147.073 126.969 146.962 127.209 146.875 127.482L146.59 128.368C146.487 128.687 146.381 129.029 146.263 129.39L145.959 130.549C145.468 132.459 145.087 134.397 144.819 136.351C144.504 138.555 144.295 140.995 144.131 143.571C143.831 148.709 143.786 153.368 143.653 156.738C143.592 158.426 143.535 159.778 143.47 160.732C143.436 161.188 143.413 161.549 143.394 161.815L143.371 162.096C143.375 162.128 143.375 162.16 143.371 162.191C143.366 162.16 143.366 162.128 143.371 162.096C143.371 162.02 143.371 161.925 143.371 161.811C143.371 161.545 143.383 161.184 143.406 160.728C143.447 159.786 143.482 158.422 143.523 156.735C143.618 153.364 143.641 148.705 143.941 143.56C144.105 140.991 144.321 138.544 144.648 136.34C144.922 134.38 145.317 132.438 145.83 130.526L146.145 129.367L146.491 128.349L146.795 127.463C146.886 127.19 147 126.954 147.088 126.734C147.27 126.312 147.411 125.974 147.517 125.734L147.631 125.476C147.636 125.442 147.644 125.409 147.658 125.377Z" fill="#263238"/>
<path d="M148.203 125.399C148.51 125.76 148.752 126.17 148.921 126.612C149.372 127.825 149.554 129.121 149.457 130.412C149.301 133.649 149.009 138.11 148.625 143.039C148.241 147.968 147.823 152.379 147.443 155.617C147.268 157.224 147.12 158.528 147.01 159.417C146.953 159.85 146.907 160.196 146.877 160.451C146.877 160.557 146.847 160.644 146.835 160.717C146.835 160.748 146.828 160.779 146.816 160.808C146.811 160.778 146.811 160.747 146.816 160.717L146.835 160.447C146.858 160.188 146.888 159.843 146.93 159.406C147.018 158.486 147.143 157.186 147.31 155.606C147.618 152.383 148.025 147.926 148.412 143.001C148.8 138.076 149.111 133.611 149.305 130.381C149.415 129.111 149.257 127.832 148.842 126.627C148.668 126.199 148.454 125.788 148.203 125.399Z" fill="#263238"/>
<path d="M152.264 140.551C151.88 140.521 151.504 140.423 151.154 140.262C150.781 140.164 150.429 140.001 150.113 139.779C150.498 139.805 150.874 139.901 151.223 140.064C151.597 140.161 151.95 140.326 152.264 140.551Z" fill="#263238"/>
<path d="M152.97 134.577C152.298 135.028 151.554 135.361 150.77 135.561C151.439 135.106 152.184 134.773 152.97 134.577Z" fill="#263238"/>
<path d="M152.6 129.702C152.316 129.783 152.017 129.799 151.726 129.747C151.247 129.713 150.863 129.641 150.867 129.58C151.151 129.498 151.451 129.484 151.741 129.538C152.036 129.524 152.331 129.58 152.6 129.702Z" fill="#263238"/>
<path d="M146.557 126.578C146.508 126.609 146.249 126.289 145.983 125.864C145.717 125.438 145.539 125.07 145.603 125.039C145.668 125.009 145.907 125.328 146.173 125.754C146.439 126.179 146.606 126.54 146.557 126.578Z" fill="#263238"/>
<path d="M144.559 129.527C144.292 129.621 144.007 129.65 143.727 129.611C143.445 129.639 143.16 129.597 142.898 129.489C143.165 129.394 143.45 129.364 143.731 129.402C144.187 129.413 144.559 129.466 144.559 129.527Z" fill="#263238"/>
<path d="M143.122 135.424C142.817 135.412 142.518 135.33 142.248 135.185C141.785 134.999 141.427 134.805 141.45 134.748C141.756 134.761 142.055 134.843 142.324 134.987C142.788 135.174 143.145 135.371 143.122 135.424Z" fill="#263238"/>
<path d="M142.97 140.384C142.97 140.441 142.647 140.558 142.21 140.65C141.773 140.741 141.45 140.764 141.42 140.707C141.389 140.65 141.743 140.532 142.18 140.444C142.617 140.357 142.959 140.327 142.97 140.384Z" fill="#263238"/>
<path d="M142.291 148.5C142.051 148.644 141.78 148.729 141.5 148.747C141.052 148.827 140.68 148.846 140.672 148.789C140.664 148.732 141.014 148.622 141.462 148.542C141.731 148.46 142.015 148.446 142.291 148.5Z" fill="#263238"/>
<path d="M141.845 152.976C141.872 153.03 141.575 153.239 141.184 153.444C140.793 153.649 140.454 153.778 140.424 153.729C140.394 153.679 140.69 153.467 141.085 153.261C141.48 153.056 141.819 152.927 141.845 152.976Z" fill="#263238"/>
<path d="M145.504 158.08C145.451 158.11 145.197 157.753 144.927 157.285C144.738 157.017 144.609 156.711 144.547 156.389C144.596 156.358 144.855 156.715 145.121 157.183C145.308 157.453 145.438 157.758 145.504 158.08Z" fill="#263238"/>
<path d="M146.556 149.613C146.598 149.655 146.309 149.993 145.918 150.373C145.526 150.753 145.158 151.038 145.127 150.997C145.097 150.955 145.374 150.617 145.769 150.237C146.165 149.857 146.518 149.572 146.556 149.613Z" fill="#263238"/>
<path d="M146.324 145.179C146.283 145.221 146.017 145 145.728 144.693C145.439 144.385 145.245 144.104 145.287 144.062C145.329 144.02 145.599 144.24 145.884 144.552C146.169 144.864 146.366 145.16 146.324 145.179Z" fill="#263238"/>
<path d="M147.06 139.517C147.102 139.555 146.863 139.897 146.525 140.277C146.186 140.657 145.879 140.931 145.837 140.889C145.795 140.847 146.031 140.509 146.369 140.129C146.707 139.749 147.003 139.479 147.06 139.517Z" fill="#263238"/>
<path d="M147.443 135.405C147.405 135.447 147.063 135.184 146.683 134.82C146.303 134.455 146.045 134.124 146.086 134.082C146.128 134.041 146.466 134.307 146.846 134.671C147.226 135.036 147.5 135.363 147.443 135.405Z" fill="#263238"/>
<path d="M148.259 129.85C148.196 130.152 148.066 130.436 147.879 130.682C147.621 131.111 147.374 131.442 147.324 131.404C147.388 131.102 147.517 130.817 147.704 130.572C147.963 130.142 148.202 129.819 148.259 129.85Z" fill="#263238"/>
<path d="M149.769 124.701C149.722 124.999 149.609 125.283 149.439 125.533C149.203 125.966 148.971 126.293 148.922 126.266C148.968 125.968 149.081 125.683 149.252 125.434C149.488 125.02 149.72 124.674 149.769 124.701Z" fill="#263238"/>
<path d="M151.482 127.038C151.509 127.091 151.273 127.254 150.961 127.418C150.65 127.581 150.372 127.646 150.346 127.592C150.319 127.539 150.555 127.38 150.87 127.212C151.186 127.045 151.459 126.988 151.482 127.038Z" fill="#263238"/>
<path d="M151.522 145.54C151.125 145.543 150.734 145.448 150.382 145.262C150.003 145.138 149.661 144.918 149.391 144.624C149.762 144.738 150.122 144.887 150.466 145.069C150.834 145.188 151.188 145.346 151.522 145.54Z" fill="#263238"/>
<path d="M150.822 149.446C150.822 149.503 150.48 149.621 150.032 149.708C149.583 149.796 149.215 149.819 149.207 149.762C149.2 149.705 149.549 149.587 149.994 149.499C150.262 149.418 150.546 149.399 150.822 149.446Z" fill="#263238"/>
<path d="M149.963 156.18C149.602 156.003 149.294 155.733 149.07 155.397C148.794 155.103 148.6 154.741 148.508 154.349C148.776 154.632 149.019 154.938 149.234 155.264C149.502 155.549 149.746 155.855 149.963 156.18Z" fill="#263238"/>
<path d="M140.539 159.22C140.501 159.178 140.741 158.912 141.071 158.627C141.402 158.342 141.702 158.152 141.74 158.194C141.778 158.236 141.539 158.502 141.208 158.787C140.877 159.072 140.577 159.281 140.539 159.22Z" fill="#263238"/>
<path d="M137.837 144.579C137.457 143.385 136.738 141.998 135.488 141.979C135.116 141.999 134.756 142.119 134.447 142.327C134.137 142.534 133.889 142.821 133.729 143.157C133.386 143.822 133.223 144.565 133.254 145.312C133.409 150.617 134.313 155.874 135.94 160.926H140.5C140.453 155.373 139.555 149.86 137.837 144.579Z" fill="#455A64"/>
<path d="M129.558 137.078C128.916 134.52 127.009 133.141 124.793 133.012C122.772 133.365 121.985 135.356 121.753 137.397C121.521 139.438 122.133 141.467 122.772 143.424C124.778 149.701 126.783 155.98 128.787 162.26L134.487 161.637C132.678 153.228 131.645 145.426 129.558 137.078Z" fill="#455A64"/>
<path d="M135.487 141.979C135.342 142.185 135.215 142.402 135.107 142.629C134.871 143.275 134.796 143.969 134.89 144.651C134.982 145.521 135.08 146.551 135.225 147.717C135.369 148.884 135.582 150.127 135.84 151.438C136.357 154.067 136.939 156.427 137.311 158.148C137.497 159.007 137.638 159.703 137.729 160.189C137.767 160.409 137.797 160.596 137.824 160.748C137.84 160.812 137.846 160.879 137.843 160.945C137.815 160.885 137.794 160.821 137.782 160.755C137.744 160.607 137.702 160.425 137.649 160.204L137.167 158.179C136.76 156.469 136.152 154.117 135.647 151.479C135.392 150.161 135.187 148.895 135.05 147.74C134.978 147.163 134.928 146.6 134.883 146.095C134.837 145.589 134.784 145.103 134.757 144.662C134.677 143.96 134.777 143.249 135.046 142.595C135.148 142.361 135.298 142.151 135.487 141.979Z" fill="#263238"/>
<path d="M124.878 132.848C124.626 133.138 124.396 133.446 124.19 133.771C123.663 134.679 123.364 135.701 123.32 136.75C123.295 138.307 123.534 139.856 124.027 141.333C124.524 143.028 125.075 144.89 125.649 146.839L128.564 156.856C128.925 158.125 129.214 159.159 129.426 159.896C129.518 160.238 129.594 160.515 129.647 160.724C129.678 160.82 129.699 160.918 129.711 161.017C129.668 160.927 129.633 160.833 129.609 160.736C129.54 160.531 129.457 160.257 129.347 159.919C129.122 159.182 128.807 158.156 128.423 156.879L125.448 146.881C124.878 144.928 124.334 143.081 123.84 141.367C123.346 139.653 123.08 138.073 123.175 136.724C123.233 135.656 123.557 134.62 124.118 133.71C124.323 133.383 124.579 133.092 124.878 132.848Z" fill="#263238"/>
<path d="M133.24 161.033C133.187 160.947 133.143 160.855 133.111 160.759C133.035 160.577 132.913 160.311 132.784 159.957C132.514 159.258 132.165 158.228 131.808 156.936C131.45 155.644 131.089 154.082 130.747 152.346C130.405 150.609 130.052 148.69 129.672 146.68C129.292 144.67 128.836 142.781 128.327 141.086C127.883 139.585 127.328 138.119 126.666 136.701C126.222 135.746 125.714 134.822 125.146 133.935C124.949 133.616 124.766 133.388 124.667 133.22C124.604 133.141 124.551 133.054 124.508 132.962C124.578 133.034 124.643 133.111 124.702 133.194C124.816 133.353 125.006 133.574 125.215 133.889C125.816 134.764 126.35 135.682 126.814 136.637C127.499 138.055 128.071 139.525 128.524 141.033C129.078 142.878 129.534 144.75 129.892 146.642C130.272 148.648 130.626 150.564 130.949 152.308C131.272 154.052 131.621 155.602 131.963 156.898C132.305 158.194 132.632 159.224 132.879 159.938C132.993 160.295 133.103 160.565 133.164 160.751C133.196 160.843 133.221 160.937 133.24 161.033Z" fill="#263238"/>
<path d="M122.866 142.5C122.866 142.557 122.57 142.679 122.175 142.777C121.78 142.876 121.445 142.903 121.434 142.85C121.423 142.796 121.73 142.667 122.126 142.572C122.521 142.477 122.851 142.424 122.866 142.5Z" fill="#263238"/>
<path d="M122.263 138.597C121.627 138.709 120.979 138.734 120.336 138.673C120.956 138.456 121.627 138.429 122.263 138.597Z" fill="#263238"/>
<path d="M122.907 135.048C122.869 135.09 122.561 134.893 122.215 134.6C121.869 134.307 121.622 134.034 121.66 133.992C121.698 133.95 122.006 134.148 122.352 134.44C122.698 134.733 122.945 135.003 122.907 135.048Z" fill="#263238"/>
<path d="M124.641 131.761C124.698 131.761 124.682 132.05 124.671 132.388C124.66 132.726 124.671 133 124.603 133.007C124.534 133.015 124.451 132.738 124.462 132.38C124.473 132.023 124.584 131.75 124.641 131.761Z" fill="#263238"/>
<path d="M128.191 133.311C128.236 133.341 128.1 133.623 127.879 133.934C127.659 134.246 127.446 134.474 127.397 134.443C127.347 134.413 127.488 134.128 127.708 133.816C127.929 133.505 128.141 133.277 128.191 133.311Z" fill="#263238"/>
<path d="M130.493 137.309C130.512 137.366 130.22 137.537 129.832 137.689C129.445 137.841 129.118 137.928 129.095 137.875C129.072 137.822 129.369 137.651 129.756 137.495C130.144 137.339 130.471 137.256 130.493 137.309Z" fill="#263238"/>
<path d="M131.888 141.429C131.332 141.808 130.653 141.96 129.988 141.854C130.29 141.738 130.606 141.658 130.927 141.619C131.237 141.511 131.56 141.447 131.888 141.429Z" fill="#263238"/>
<path d="M125.474 140.258C125.421 140.258 125.474 139.958 125.565 139.623C125.657 139.289 125.797 139.034 125.854 139.049C125.911 139.065 125.854 139.353 125.763 139.684C125.672 140.015 125.531 140.277 125.474 140.258Z" fill="#263238"/>
<path d="M126.371 145.426C126.389 145.125 126.478 144.832 126.63 144.571C126.823 144.123 127.009 143.777 127.078 143.811C127.06 144.112 126.971 144.405 126.82 144.666C126.626 145.103 126.424 145.449 126.371 145.426Z" fill="#263238"/>
<path d="M124.16 146.84C124.138 146.897 123.78 146.798 123.34 146.661C122.899 146.524 122.553 146.399 122.58 146.342C122.606 146.285 122.96 146.323 123.419 146.46C123.879 146.597 124.183 146.79 124.16 146.84Z" fill="#263238"/>
<path d="M125.43 151.054C125.465 151.103 125.221 151.335 124.887 151.57C124.553 151.806 124.256 151.95 124.222 151.92C124.188 151.89 124.431 151.639 124.765 151.403C125.1 151.168 125.4 151.008 125.43 151.054Z" fill="#263238"/>
<path d="M126.454 155.256C126.454 155.313 126.169 155.435 125.781 155.526C125.393 155.617 125.07 155.651 125.059 155.594C125.048 155.537 125.348 155.42 125.732 155.325C126.115 155.23 126.442 155.199 126.454 155.256Z" fill="#263238"/>
<path d="M132.003 144.935C132.033 144.985 131.775 145.19 131.398 145.315C131.022 145.441 130.695 145.475 130.684 145.418C130.673 145.361 130.969 145.255 131.326 145.122C131.683 144.989 131.972 144.886 132.003 144.935Z" fill="#263238"/>
<path d="M132.798 151.472C132.771 151.525 132.464 151.434 132.11 151.266C131.757 151.099 131.487 150.921 131.514 150.867C131.54 150.814 131.844 150.909 132.198 151.076C132.551 151.244 132.821 151.422 132.798 151.472Z" fill="#263238"/>
<path d="M134.195 156.15C133.878 156.137 133.567 156.054 133.286 155.907C132.808 155.721 132.435 155.527 132.458 155.47C132.773 155.485 133.082 155.568 133.362 155.713C133.668 155.796 133.953 155.945 134.195 156.15Z" fill="#263238"/>
<path d="M126.677 159.813C126.651 159.764 127.023 159.513 127.456 159.171C127.889 158.829 128.216 158.529 128.266 158.57C128.315 158.612 128.034 158.985 127.585 159.33C127.335 159.574 127.02 159.742 126.677 159.813Z" fill="#263238"/>
<path d="M130.381 157.438C130.32 157.438 130.24 157.13 130.096 156.765C129.951 156.4 129.807 156.112 129.852 156.077C129.898 156.043 130.141 156.294 130.293 156.689C130.445 157.084 130.434 157.43 130.381 157.438Z" fill="#263238"/>
<path d="M129.4 151.809C129.365 151.859 129.126 151.745 128.864 151.555C128.602 151.365 128.419 151.175 128.453 151.133C128.488 151.091 128.727 151.198 128.985 151.388C129.244 151.578 129.434 151.764 129.4 151.809Z" fill="#263238"/>
<path d="M138.018 142.998C138.052 143.043 137.82 143.271 137.497 143.511C137.174 143.75 136.889 143.891 136.855 143.853C136.821 143.815 137.053 143.579 137.376 143.34C137.699 143.1 137.984 142.948 138.018 142.998Z" fill="#263238"/>
<path d="M139.317 146.547C139.317 146.604 138.96 146.68 138.508 146.63C138.056 146.581 137.718 146.429 137.748 146.376C137.778 146.323 138.128 146.376 138.542 146.421C138.956 146.467 139.314 146.49 139.317 146.547Z" fill="#263238"/>
<path d="M133.731 147.345C133.731 147.399 133.408 147.52 132.971 147.551C132.534 147.581 132.184 147.505 132.192 147.448C132.199 147.391 132.537 147.368 132.952 147.342C133.366 147.315 133.719 147.288 133.731 147.345Z" fill="#263238"/>
<path d="M134.215 143.985C134.215 144.042 133.869 144.05 133.497 143.879C133.124 143.708 132.908 143.442 132.946 143.404C132.984 143.366 133.242 143.533 133.584 143.689C133.926 143.845 134.223 143.928 134.215 143.985Z" fill="#263238"/>
<path d="M139.798 150.362C139.512 150.297 139.245 150.167 139.019 149.982C138.62 149.731 138.319 149.488 138.35 149.438C138.38 149.389 138.73 149.552 139.129 149.818C139.528 150.084 139.843 150.312 139.798 150.362Z" fill="#263238"/>
<path d="M153.421 160.329H123.625V165.611H153.421V160.329Z" fill="#96DDAB"/>
<path d="M125.855 164.562L129.477 180.34H147.234L151.201 164.562H125.855Z" fill="#96DDAB"/>
<path d="M153.407 165.615C153.407 165.672 146.685 165.722 138.397 165.722C130.109 165.722 123.387 165.672 123.387 165.615C123.387 165.558 130.105 165.509 138.397 165.509C146.688 165.509 153.407 165.558 153.407 165.615Z" fill="#263238"/>
<path d="M136.834 147.459C136.785 147.49 136.583 147.254 136.382 146.931C136.181 146.608 136.055 146.319 136.105 146.289C136.154 146.258 136.355 146.494 136.557 146.817C136.758 147.14 136.884 147.44 136.834 147.459Z" fill="#263238"/>
<path d="M136.846 151.708C136.832 151.432 136.885 151.156 137.002 150.906C137.142 150.48 137.302 150.146 137.359 150.172C137.373 150.448 137.32 150.724 137.203 150.974C137.063 151.396 136.903 151.727 136.846 151.708Z" fill="#263238"/>
<path d="M138.321 156.18C138.268 156.206 138.048 155.849 137.823 155.382C137.657 155.112 137.552 154.81 137.516 154.496C137.569 154.473 137.789 154.827 138.013 155.294C138.179 155.563 138.284 155.865 138.321 156.18Z" fill="#263238"/>
<path d="M135.156 159.756C135.11 159.718 135.289 159.444 135.536 159.14C135.783 158.836 136.049 158.624 136.09 158.662C136.132 158.7 135.957 158.973 135.71 159.277C135.463 159.581 135.197 159.794 135.156 159.756Z" fill="#263238"/>
<path d="M134.493 153.242C134.493 153.299 134.197 153.296 133.855 153.242C133.513 153.189 133.239 153.087 133.25 153.03C133.262 152.973 133.547 152.976 133.889 153.03C134.231 153.083 134.52 153.185 134.493 153.242Z" fill="#263238"/>
<path d="M64.4843 47.3817L61.0871 41.3929C63.1914 37.9804 63.9432 33.9041 63.1945 29.9655C62.4459 26.0268 60.251 22.5106 57.0415 20.1081C53.8319 17.7056 49.8397 16.5905 45.8496 16.9821C41.8596 17.3737 38.1604 19.2436 35.4791 22.2243C32.7979 25.2049 31.3285 29.0807 31.3599 33.0898C31.3912 37.0989 32.9211 40.9512 35.6487 43.8895C38.3763 46.8279 42.1044 48.6396 46.1 48.9687C50.0957 49.2978 54.0699 48.1204 57.2415 45.6679L64.4843 47.3817Z" fill="#FAFAFA"/>
<path d="M64.4838 47.3818L57.2258 45.725H57.1536L57.1992 45.6642L57.2676 45.7364C56.2512 46.5248 55.1453 47.1906 53.973 47.72C52.576 48.3461 51.0968 48.7696 49.5802 48.9778C48.7407 49.0949 47.8925 49.1369 47.0456 49.1032C46.6086 49.0804 46.164 49.069 45.7156 49.031L44.3628 48.8258C41.234 48.2128 38.3566 46.6878 36.0927 44.4428C33.8288 42.1979 32.2797 39.3333 31.6404 36.2098C31.1781 33.8486 31.243 31.4143 31.8304 29.081C32.4309 26.6442 33.6033 24.3855 35.2504 22.4918L35.904 21.7737C36.1168 21.5305 36.3752 21.3291 36.607 21.1087C36.8388 20.8883 37.0706 20.6603 37.3366 20.4741L38.0966 19.9003C38.3487 19.7059 38.6141 19.5294 38.8908 19.3721L39.704 18.8781L40.5552 18.4677C40.8332 18.3232 41.1201 18.1963 41.414 18.0877C43.6949 17.1859 46.1496 16.8093 48.596 16.9857C50.9097 17.1432 53.1604 17.8074 55.189 18.9313C58.8273 20.9628 61.5476 24.3128 62.789 28.2906C63.2824 29.9835 63.5169 31.7413 63.4844 33.5042C63.401 36.3176 62.5751 39.0589 61.0904 41.45V41.4006L64.4458 47.4122L61.0448 41.4196V41.393V41.3702C61.7008 40.295 62.2299 39.1473 62.6218 37.9503C63.0861 36.5056 63.342 35.0021 63.3818 33.4853C63.4085 31.738 63.1702 29.9968 62.675 28.321C61.4363 24.3865 58.735 21.0772 55.1282 19.0757C53.1208 17.9738 50.8962 17.3252 48.6112 17.1757C46.1965 16.9954 43.7721 17.359 41.5166 18.2397C41.2242 18.3489 40.9386 18.4758 40.6616 18.6197L39.8218 19.0301L39.02 19.5165C38.7467 19.6727 38.484 19.8466 38.2334 20.0371L37.4734 20.6071C37.215 20.7895 36.9984 21.0251 36.7552 21.2303C36.512 21.4355 36.2764 21.6597 36.0636 21.8839L35.4176 22.5944C33.7855 24.4639 32.6222 26.6953 32.0242 29.1038C31.4431 31.4083 31.377 33.8124 31.8304 36.1453C32.2713 38.3519 33.1782 40.439 34.4904 42.267C36.8574 45.5677 40.3882 47.8478 44.3704 48.6472L45.7118 48.8524C46.1564 48.8904 46.5972 48.9056 47.0304 48.9284C47.8695 48.9645 48.7101 48.9251 49.5422 48.8106C51.0469 48.6111 52.5156 48.1992 53.9046 47.587C55.0721 47.0637 56.1751 46.407 57.1916 45.63L57.488 45.4021L57.26 45.6984L57.2334 45.6224L64.4838 47.3818Z" fill="#263238"/>
<path d="M36.8359 34.6594L37.2425 33.755C37.746 34.1048 38.3434 34.2942 38.9563 34.2984C39.6669 34.2984 39.9595 34.059 39.9595 33.7398C39.9595 32.767 36.9195 33.4358 36.9195 31.5054C36.9195 30.6238 37.6301 29.8904 39.1083 29.8904C39.7393 29.8773 40.362 30.0363 40.9095 30.3502L40.5295 31.2622C40.1084 31.0125 39.6317 30.8715 39.1425 30.8518C38.4281 30.8518 38.1545 31.1216 38.1545 31.4484C38.1545 32.406 41.1945 31.7448 41.1945 33.6524C41.1945 34.5188 40.4763 35.2636 38.9905 35.2636C38.2272 35.2896 37.4745 35.0785 36.8359 34.6594Z" fill="#263238"/>
<path d="M41.6016 33.1769C41.6016 31.9723 42.5288 31.1211 43.798 31.1211C45.0672 31.1211 45.983 31.9723 45.983 33.1769C45.983 34.3815 45.0634 35.2327 43.7942 35.2327C42.525 35.2327 41.6016 34.3777 41.6016 33.1769ZM44.8126 33.1769C44.7963 32.9788 44.7226 32.7897 44.6006 32.6328C44.4785 32.4759 44.3133 32.358 44.1253 32.2935C43.9372 32.2291 43.7345 32.2208 43.5418 32.2698C43.3492 32.3188 43.175 32.4229 43.0406 32.5694C42.9062 32.7159 42.8174 32.8984 42.7852 33.0945C42.7529 33.2907 42.7785 33.492 42.8589 33.6738C42.9392 33.8556 43.0709 34.01 43.2377 34.1182C43.4045 34.2263 43.5992 34.2835 43.798 34.2827C43.9396 34.2844 44.08 34.2563 44.21 34.2001C44.34 34.1439 44.4567 34.0609 44.5524 33.9566C44.6482 33.8522 44.7208 33.7288 44.7657 33.5945C44.8105 33.4601 44.8265 33.3178 44.8126 33.1769Z" fill="#263238"/>
<path d="M49.2358 31.122V32.1898C49.1408 32.1898 49.0648 32.1898 48.9774 32.1898C48.83 32.1764 48.6815 32.1965 48.5429 32.2485C48.4044 32.3005 48.2793 32.383 48.177 32.49C48.0748 32.597 47.998 32.7257 47.9523 32.8665C47.9067 33.0073 47.8934 33.1566 47.9134 33.3032V35.2032H46.7734V31.179H47.883V31.7072C48.0453 31.5086 48.2528 31.3518 48.4882 31.25C48.7236 31.1481 48.98 31.1043 49.2358 31.122Z" fill="#263238"/>
<path d="M52.4038 31.1219V32.1897C52.305 32.1897 52.2328 32.1897 52.1416 32.1897C51.5032 32.1897 51.0814 32.5393 51.0814 33.3031V35.2031H49.9414V31.1789H51.0472V31.7071C51.2105 31.5086 51.4187 31.352 51.6547 31.2503C51.8906 31.1485 52.1474 31.1045 52.4038 31.1219Z" fill="#263238"/>
<path d="M57.1964 31.1783L55.3952 35.4191C55.0152 36.3805 54.4566 36.6731 53.7384 36.6731C53.3347 36.6776 52.9417 36.5435 52.625 36.2931L53.0468 35.4685C53.2285 35.6267 53.4596 35.7167 53.7004 35.7231C54.0196 35.7231 54.1982 35.5787 54.354 35.2253V35.1873L52.625 31.1631H53.8182L54.9582 33.8725L56.0982 31.1631L57.1964 31.1783Z" fill="#263238"/>
<path d="M57.5 34.5571C57.5132 34.3771 57.5939 34.2088 57.7261 34.0859C57.8583 33.963 58.032 33.8947 58.2125 33.8947C58.393 33.8947 58.5667 33.963 58.6989 34.0859C58.8311 34.2088 58.9118 34.3771 58.925 34.5571C58.9118 34.737 58.8311 34.9054 58.6989 35.0282C58.5667 35.1511 58.393 35.2194 58.2125 35.2194C58.032 35.2194 57.8583 35.1511 57.7261 35.0282C57.5939 34.9054 57.5132 34.737 57.5 34.5571ZM57.5228 29.9971H58.9022L58.6704 33.3905H57.7622L57.5228 29.9971Z" fill="#263238"/>
<path d="M80.4062 57.1902L86.3076 55.0052L100.922 53.9336L104.768 55.1078L99.581 77.4518L86.832 80.2068L80.9192 72.3598L80.4062 57.1902Z" fill="#FFBE9D"/>
<path d="M113.52 58.1017L103.993 54.7197C103.993 54.7197 95.0597 67.4991 80.4069 57.1707C80.4069 57.1707 73.9811 59.4811 73.0235 60.0131C72.0659 60.5451 77.4923 76.7825 77.4923 76.7825L76.8539 96.9719C85.2139 101.285 98.5899 99.6813 110.233 97.7319L109.899 75.3119L113.52 58.1017Z" fill="#96DDAB"/>
<path d="M109.819 39.786C110.313 39.0761 110.529 38.2097 110.428 37.3508C110.327 36.4919 109.914 35.6998 109.269 35.1243C108.623 34.5488 107.789 34.2298 106.924 34.2276C106.059 34.2253 105.223 34.5399 104.575 35.112L102.675 38.4826C101.608 39.7577 100.908 41.2982 100.649 42.94C100.404 44.5978 100.799 46.2868 101.755 47.6634C102.234 48.329 102.852 48.8834 103.565 49.2885C104.278 49.6937 105.071 49.9401 105.888 50.0109C106.705 50.0817 107.528 49.9753 108.301 49.6989C109.073 49.4226 109.777 48.9827 110.363 48.4095C110.95 47.8362 111.406 47.1431 111.701 46.3774C111.995 45.6117 112.121 44.7915 112.069 43.9728C112.017 43.1541 111.789 42.3562 111.401 41.6336C111.013 40.9111 110.473 40.2808 109.819 39.786Z" fill="#263238"/>
<path d="M104.88 40.0478C104.823 38.9078 104.701 37.7678 105.024 36.662C105.185 36.2642 105.29 35.846 105.336 35.4194C105.333 35.1089 105.235 34.8066 105.056 34.5534C104.876 34.3001 104.623 34.108 104.331 34.0028C104.038 33.8977 103.721 33.8846 103.421 33.9653C103.121 34.046 102.853 34.2166 102.653 34.4542L102.6 34.5796C101.943 35.1116 101.627 35.9514 101.369 36.757C100.971 38.0126 100.646 39.2903 100.396 40.5836C100.22 41.3045 100.178 42.0515 100.271 42.7876C100.32 43.1545 100.456 43.5044 100.667 43.8089C100.877 44.1133 101.157 44.3637 101.483 44.5394C102.516 45.0182 103.793 44.357 104.359 43.3728C104.926 42.3886 104.948 41.1802 104.88 40.0478Z" fill="#96DDAB"/>
<path d="M103.475 36.1417C103.258 34.8497 102.696 33.6337 102.498 32.3417C102.24 30.6431 102.624 28.9217 102.719 27.2041C102.814 25.4865 102.544 23.5979 101.286 22.4275C99.9449 21.1773 97.9271 21.1203 96.1221 20.7935C94.0701 20.4135 92.1245 19.6117 90.1067 19.0759C88.0889 18.5401 85.9039 18.2855 83.9507 19.0189C82.1837 19.6801 80.8005 21.0671 79.5503 22.4769C77.5211 24.7607 75.6211 27.4663 75.6211 30.5215C75.6211 32.1061 76.1797 33.6413 76.3811 35.2145C76.5749 36.7345 76.4533 38.2545 76.8067 39.7745C77.1601 41.2945 78.1633 42.7385 79.6605 43.0121L96.0841 44.6537C97.1618 44.6836 98.2327 44.4741 99.2198 44.0404C100.207 43.6066 101.085 42.9594 101.792 42.1453C102.499 41.3313 103.017 40.3706 103.308 39.3325C103.599 38.2943 103.656 37.2046 103.475 36.1417Z" fill="#263238"/>
<path d="M99.0068 28.0858L98.965 26.0756L86.805 24.2706C83.0734 24.0274 79.205 27.9186 79.1214 31.6578C79.0302 35.8112 79.0796 40.888 79.6952 43.9622C80.934 50.141 85.7334 50.7376 85.7334 50.7376V54.2488C85.7354 56.1194 86.4797 57.9127 87.8027 59.235C89.1257 60.5573 90.9195 61.3006 92.79 61.3016C93.7359 61.3016 94.6721 61.1114 95.543 60.7424C96.4139 60.3734 97.2018 59.833 97.8597 59.1535C98.5176 58.4739 99.0322 57.669 99.3729 56.7866C99.7136 55.9042 99.8734 54.9624 99.8428 54.017L99.0068 28.0858Z" fill="#FFBE9D"/>
<path d="M81.6992 35.7998C81.7099 36.0052 81.7991 36.1985 81.9483 36.34C82.0976 36.4814 82.2954 36.5601 82.501 36.5598C82.6037 36.5645 82.7062 36.5482 82.8024 36.5121C82.8986 36.476 82.9864 36.4207 83.0607 36.3497C83.1349 36.2787 83.194 36.1933 83.2343 36.0988C83.2746 36.0043 83.2953 35.9026 83.2952 35.7998C83.2845 35.5945 83.1953 35.4011 83.0461 35.2597C82.8969 35.1183 82.699 35.0396 82.4934 35.0398C82.3908 35.0352 82.2883 35.0514 82.1921 35.0876C82.0959 35.1237 82.008 35.1789 81.9338 35.25C81.8595 35.321 81.8005 35.4064 81.7602 35.5009C81.7198 35.5954 81.6991 35.6971 81.6992 35.7998Z" fill="#263238"/>
<path d="M80.5604 34.2458C80.663 34.3446 81.252 33.8658 82.107 33.843C82.962 33.8202 83.627 34.223 83.703 34.1052C83.7448 34.0558 83.6384 33.8734 83.3534 33.6834C82.9712 33.4422 82.5242 33.3242 82.0728 33.3452C81.627 33.361 81.1981 33.5195 80.8492 33.7974C80.5832 34.0102 80.5034 34.2002 80.5604 34.2458Z" fill="#263238"/>
<path d="M89.8203 35.5264C89.831 35.7317 89.9202 35.9251 90.0694 36.0665C90.2187 36.208 90.4165 36.2867 90.6221 36.2864C90.7248 36.291 90.8273 36.2748 90.9235 36.2387C91.0197 36.2025 91.1075 36.1473 91.1818 36.0763C91.256 36.0052 91.3151 35.9199 91.3554 35.8254C91.3957 35.7308 91.4164 35.6291 91.4163 35.5264C91.4056 35.3211 91.3164 35.1277 91.1672 34.9863C91.018 34.8448 90.8201 34.7661 90.6145 34.7664C90.5119 34.7618 90.4094 34.778 90.3132 34.8141C90.217 34.8502 90.1291 34.9055 90.0549 34.9765C89.9806 35.0476 89.9216 35.1329 89.8813 35.2274C89.8409 35.3219 89.8202 35.4236 89.8203 35.5264Z" fill="#263238"/>
<path d="M88.9942 34.0631C89.0968 34.1619 89.682 33.6831 90.5408 33.6603C91.3996 33.6375 92.0608 34.0403 92.133 33.9225C92.1786 33.8731 92.0722 33.6907 91.7872 33.5007C91.405 33.2596 90.958 33.1416 90.5066 33.1625C90.0661 33.1818 89.6431 33.3401 89.2982 33.6147C89.0246 33.8199 88.9448 34.0175 88.9942 34.0631Z" fill="#263238"/>
<path d="M86.138 40.5536C85.6805 40.431 85.2094 40.3659 84.7358 40.3598C84.5154 40.3598 84.3064 40.3104 84.2608 40.1622C84.2355 39.9371 84.2778 39.7096 84.3824 39.5086C84.5686 38.969 84.7624 38.4028 84.9638 37.8138C85.7656 35.4008 86.3394 33.44 86.2596 33.3868C86.1798 33.3336 85.4312 35.2868 84.6294 37.6998C84.4356 38.2926 84.2494 38.8588 84.0746 39.4022C83.9396 39.6742 83.9059 39.9854 83.9796 40.28C84.0152 40.3566 84.068 40.4238 84.134 40.4766C84.1999 40.5293 84.2771 40.5661 84.3596 40.584C84.4842 40.6126 84.6119 40.6254 84.7396 40.622C85.2068 40.6589 85.6767 40.6359 86.138 40.5536Z" fill="#263238"/>
<path d="M85.7461 50.7531C88.7444 50.6786 91.6653 49.7864 94.1935 48.1729C94.1935 48.1729 92.2061 52.6302 85.7461 52.3186V50.7531Z" fill="#EB996E"/>
<path d="M86.585 42.6095C86.7378 42.3957 86.9435 42.2252 87.182 42.1147C87.4204 42.0041 87.6834 41.9573 87.9454 41.9787C88.1361 41.9867 88.3231 42.0336 88.495 42.1166C88.6669 42.1996 88.8199 42.3169 88.9448 42.4613C89.0643 42.5999 89.1386 42.7718 89.1576 42.9538C89.1766 43.1359 89.1395 43.3194 89.0512 43.4797C88.9194 43.6392 88.7431 43.7558 88.5448 43.8147C88.3465 43.8735 88.1352 43.872 87.9378 43.8103C87.5274 43.6841 87.1463 43.4775 86.8168 43.2023C86.7165 43.1362 86.6289 43.0525 86.5584 42.9553C86.5279 42.9076 86.5117 42.8523 86.5117 42.7957C86.5117 42.7391 86.5279 42.6838 86.5584 42.6361" fill="#EB996E"/>
<path d="M92.9546 31.5137C92.9052 31.2705 92.0388 31.2553 91.0546 30.9893C90.0704 30.7233 89.3066 30.3319 89.1546 30.5219C89.0824 30.6093 89.1888 30.8487 89.4814 31.1185C89.8753 31.457 90.3411 31.7014 90.8434 31.8331C91.3458 31.9647 91.8716 31.9803 92.3808 31.8785C92.7646 31.7835 92.9736 31.6277 92.9546 31.5137Z" fill="#263238"/>
<path d="M83.0274 30.8936C82.7576 30.8138 82.142 31.3572 81.2984 31.8056C80.4548 32.254 79.6644 32.4972 79.5922 32.7632C79.5656 32.8886 79.767 33.0026 80.166 33.0064C80.7147 32.9857 81.2504 32.8332 81.7278 32.5618C82.2115 32.313 82.6265 31.9488 82.9362 31.5016C83.1452 31.1596 83.1528 30.9392 83.0274 30.8936Z" fill="#263238"/>
<path d="M96.7353 22.1543L87.3569 22.8915L79.5859 25.5705C80.5853 27.7479 80.7753 29.5377 83.1617 29.7505C84.358 29.8548 85.5611 29.6507 86.6561 29.1577C87.7511 28.6648 88.7015 27.8994 89.4165 26.9347C89.8193 28.6979 91.8067 29.5947 93.5965 29.8455C94.8634 30.075 96.1687 29.9568 97.3737 29.5035C98.5479 29.0019 99.5435 27.9455 99.7031 26.6763C99.8627 25.4071 97.9969 22.3633 96.7353 22.1543Z" fill="#263238"/>
<path d="M104.167 28.3863C103.645 27.4167 102.789 26.6689 101.758 26.2811L101.519 24.4609L94.5686 26.6535C92.9232 29.2603 93.6756 33.0603 96.214 34.8881L96.2444 36.2067C96.2748 37.5894 96.6567 38.9416 97.354 40.1359L99.558 44.9353C101.177 44.9733 101.545 43.2215 102.188 41.7889C102.83 40.3563 102.837 38.7489 102.78 37.1757C102.753 36.4157 102.713 35.6557 102.663 34.8957C103.157 34.0597 103.86 33.2807 104.274 32.3915C104.562 31.7599 104.703 31.0707 104.684 30.3766C104.666 29.6825 104.489 29.0018 104.167 28.3863Z" fill="#263238"/>
<path d="M97.168 36.6092C97.263 36.5598 100.968 35.0892 101.192 38.988C101.416 42.8868 97.472 42.3092 97.4606 42.199C97.4492 42.0888 97.168 36.6092 97.168 36.6092Z" fill="#FFBE9D"/>
<path d="M98.5611 40.6602C98.5611 40.6602 98.6333 40.7058 98.7511 40.7514C98.9161 40.8099 99.0974 40.8017 99.2565 40.7286C99.6593 40.5538 99.9671 39.8812 99.9405 39.1782C99.9312 38.8445 99.8468 38.5172 99.6935 38.2206C99.6501 38.1013 99.5782 37.9943 99.4842 37.9089C99.3902 37.8235 99.2768 37.7622 99.1539 37.7304C99.0762 37.7167 98.9962 37.7299 98.927 37.7679C98.8579 37.806 98.8039 37.8665 98.7739 37.9394C98.7283 38.0534 98.7549 38.1294 98.7359 38.137C98.7169 38.1446 98.6485 38.0762 98.6713 37.9128C98.6866 37.8159 98.7349 37.7274 98.8081 37.662C98.8599 37.617 98.9202 37.583 98.9856 37.5621C99.0509 37.5412 99.1198 37.5338 99.1881 37.5404C99.3523 37.5597 99.5087 37.6213 99.642 37.7192C99.7752 37.8171 99.8807 37.948 99.9481 38.099C100.134 38.4266 100.237 38.7944 100.248 39.1706C100.271 39.9572 99.9139 40.7134 99.3591 40.9072C99.2572 40.9448 99.148 40.9585 99.04 40.9473C98.9319 40.9361 98.8279 40.9003 98.7359 40.8426C98.5725 40.7476 98.5497 40.6602 98.5611 40.6602Z" fill="#EB996E"/>
<path d="M103.758 27.9225C103.819 27.9225 103.857 28.1163 103.796 28.4317C103.692 28.8807 103.476 29.2963 103.169 29.6401C102.706 30.172 102.081 30.5377 101.391 30.6813C100.585 30.8523 99.7796 30.6813 99.1108 30.7535C98.7564 30.8049 98.4077 30.8901 98.0696 31.0081C97.8872 31.0613 97.6896 31.1145 97.4996 31.1563C97.3096 31.1981 97.1196 31.2285 96.9372 31.2513C96.2686 31.3549 95.585 31.2989 94.9422 31.0879C94.5015 30.9403 94.108 30.6779 93.8022 30.3279C93.597 30.0809 93.5438 29.9061 93.5894 29.8643C93.7034 29.7503 94.1822 30.2443 95.1094 30.4077C95.6647 30.49 96.2304 30.4681 96.7776 30.3431C96.9372 30.3127 97.1006 30.2747 97.264 30.2329C97.4274 30.1911 97.587 30.1341 97.7618 30.0733C98.1583 29.9247 98.5699 29.8202 98.9892 29.7617C99.9164 29.6819 100.646 29.8719 101.224 29.7617C101.755 29.6823 102.254 29.4589 102.668 29.1157C103.416 28.5267 103.61 27.8845 103.758 27.9225Z" fill="white"/>
<path d="M89.5376 42.1385C89.5604 42.2487 88.8004 42.4805 87.9568 42.9289C87.1132 43.3773 86.49 43.8713 86.4102 43.7877C86.3304 43.7041 86.8624 43.0581 87.7706 42.5793C88.6788 42.1005 89.5224 42.0359 89.5376 42.1385Z" fill="#263238"/>
<path d="M90.2193 42.7306C90.1661 42.704 90.2611 42.4342 90.1813 42.1112C90.1015 41.7882 89.9153 41.5792 89.9495 41.5374C89.9837 41.4956 90.2877 41.6666 90.3751 42.0656C90.4625 42.4646 90.2611 42.7648 90.2193 42.7306Z" fill="#EB996E"/>
<path d="M92.0236 36.4493C92.0692 36.4721 91.883 36.8293 91.4422 37.0421C91.0014 37.2549 90.6024 37.1637 90.6176 37.1105C90.6328 37.0573 90.9786 37.0497 91.3586 36.8635C91.7386 36.6773 91.978 36.4151 92.0236 36.4493Z" fill="#EB996E"/>
<path d="M92.3859 36.7497C92.4315 36.7801 92.2872 37.0347 91.9794 37.2019C91.6716 37.3691 91.3828 37.3539 91.379 37.3007C91.3752 37.2475 91.6184 37.1753 91.8844 37.0271C92.1504 36.8789 92.3403 36.7155 92.3859 36.7497Z" fill="#EB996E"/>
<path d="M81.7399 37.5747C81.7399 37.6279 81.5271 37.6621 81.3067 37.5481C81.0863 37.4341 80.9913 37.2441 81.0331 37.2099C81.0749 37.1757 81.2155 37.2783 81.4131 37.3695C81.6107 37.4607 81.7437 37.5177 81.7399 37.5747Z" fill="#EB996E"/>
<path d="M81.6988 38.0338C81.6988 38.087 81.4556 38.0908 81.1972 37.973C80.9388 37.8552 80.783 37.6728 80.8172 37.6348C80.8514 37.5968 81.0452 37.688 81.277 37.7944C81.5088 37.9008 81.7178 37.9996 81.6988 38.0338Z" fill="#EB996E"/>
<path d="M87.2285 30.4346C86.7915 30.786 86.2617 31.0026 85.7036 31.058C85.1455 31.1133 84.5835 31.005 84.0859 30.7462C84.6133 30.8433 85.1499 30.8815 85.6857 30.8602C86.2142 30.7759 86.7316 30.6332 87.2285 30.4346Z" fill="#EB996E"/>
<path d="M87.5972 30.833C87.5139 30.9881 87.3982 31.1233 87.2578 31.2296C87.1175 31.3358 86.9559 31.4105 86.784 31.4486C86.6222 31.5179 86.447 31.5508 86.271 31.5449C86.095 31.539 85.9225 31.4944 85.7656 31.4144C86.0874 31.38 86.4071 31.3279 86.7232 31.2586C87.2324 31.1028 87.5554 30.7798 87.5972 30.833Z" fill="#EB996E"/>
<path d="M80.7928 28.4348C80.7928 28.4348 80.7548 28.4006 80.6978 28.3246C80.6136 28.2133 80.541 28.0936 80.4812 27.9674C80.263 27.5006 80.1576 26.9891 80.1734 26.474C80.1734 25.1706 80.9334 23.3922 82.4534 22.0964C83.1583 21.4845 83.9807 21.0229 84.8702 20.7398C85.5938 20.5117 86.3499 20.4039 87.1084 20.4206C87.6213 20.4272 88.1316 20.4948 88.6284 20.622C88.7994 20.6676 88.9324 20.7094 89.0084 20.7436C89.0844 20.7778 89.1414 20.7968 89.1376 20.8044C88.469 20.6525 87.7864 20.5697 87.1008 20.5574C86.3584 20.5624 85.6212 20.6829 84.9158 20.9146C84.0557 21.1996 83.2602 21.6516 82.575 22.2446C81.1082 23.5062 80.3482 25.22 80.3216 26.4778C80.2941 26.9759 80.3758 27.4739 80.561 27.937C80.6902 28.2638 80.808 28.4234 80.7928 28.4348Z" fill="#455A64"/>
<path d="M94.8085 29.8341C94.6949 29.8267 94.5833 29.801 94.4779 29.7581C94.1853 29.6584 93.9029 29.5311 93.6343 29.3781C92.7378 28.8755 91.9713 28.1702 91.3961 27.3185C91.1061 26.8269 90.9199 26.2812 90.8489 25.7149C90.7821 25.2608 90.7554 24.8018 90.7691 24.3431C90.7773 24.0347 90.8077 23.7274 90.8603 23.4235C90.8704 23.3108 90.8986 23.2004 90.9439 23.0967C90.9781 23.0967 90.8983 23.5755 90.9097 24.3469C90.9141 24.7951 90.9535 25.2424 91.0275 25.6845C91.1075 26.2207 91.2894 26.7366 91.5633 27.2045C92.1255 28.0325 92.8558 28.733 93.7065 29.2603C94.3601 29.6631 94.8199 29.8037 94.8085 29.8341Z" fill="#455A64"/>
<path d="M83.7602 28.3819C83.7009 28.262 83.6599 28.1339 83.6386 28.0019C83.5636 27.6524 83.5292 27.2953 83.536 26.9379C83.5412 25.7362 83.9725 24.5752 84.7532 23.6616C85.5339 22.748 86.6134 22.141 87.7996 21.9485C88.1518 21.8857 88.5103 21.8653 88.8674 21.8877C88.9961 21.8888 89.124 21.908 89.2474 21.9447C88.7673 21.9593 88.2886 22.0063 87.8148 22.0853C86.6774 22.3095 85.649 22.9109 84.8959 23.7923C84.1428 24.6736 83.7092 25.7833 83.6652 26.9417C83.6606 27.4235 83.6924 27.9049 83.7602 28.3819Z" fill="#455A64"/>
<path d="M96.3497 21.041C95.5363 20.9259 94.7096 20.9451 93.9025 21.098C93.1079 21.3103 92.3541 21.6532 91.6719 22.1126C91.8188 21.9124 92.0049 21.7443 92.2191 21.6186C93.22 20.9368 94.4412 20.6573 95.6391 20.8358C95.8869 20.8578 96.1282 20.9274 96.3497 21.041Z" fill="#455A64"/>
<path d="M110.068 39.8655C109.87 40.0707 108.874 39.4019 107.514 39.0067C106.154 38.6115 104.96 38.5849 104.911 38.3037C104.892 38.1745 105.188 37.9959 105.72 37.9009C106.417 37.7991 107.128 37.8522 107.802 38.0565C108.476 38.2607 109.096 38.6111 109.619 39.0827C110.007 39.4551 110.155 39.7705 110.068 39.8655Z" fill="white"/>
<path d="M109.471 40.8802C109.471 40.8802 109.642 40.7928 109.938 40.6218C110.351 40.3794 110.718 40.0655 111.021 39.6946C111.472 39.1536 111.757 38.4938 111.842 37.7946C111.929 36.9324 111.699 36.0681 111.196 35.3626C110.679 34.6576 109.917 34.1711 109.06 33.9984C108.365 33.8497 107.646 33.8497 106.951 33.9984C106.311 34.1533 105.682 34.3539 105.07 34.5988C105.216 34.4939 105.375 34.4071 105.542 34.3404C105.984 34.1311 106.448 33.9706 106.925 33.8616C107.638 33.6889 108.38 33.6759 109.098 33.8236C109.998 33.9942 110.8 34.4976 111.344 35.2334C111.833 35.9054 112.076 36.7246 112.034 37.5544C111.992 38.3842 111.667 39.1745 111.112 39.7934C110.794 40.165 110.407 40.472 109.972 40.6978C109.85 40.7591 109.723 40.8112 109.592 40.8536C109.553 40.867 109.512 40.8759 109.471 40.8802Z" fill="#263238"/>
<path d="M78.05 97.8877C78.05 97.8877 69.9598 114.934 70.0396 122.781C70.0928 127.721 77.0088 180.298 77.0088 180.298H91.7452L92.9422 131.316L93.953 129.963L94.5838 131.506C94.5838 131.506 92.3608 179.086 92.8814 180.298H109.354C109.354 180.298 114.591 142.572 115.286 136.857C115.982 131.141 116.806 128.405 116.449 120.091C116.092 111.777 110.263 97.8877 110.263 97.8877C110.263 97.8877 87.9224 101.524 78.05 97.8877Z" fill="#263238"/>
<path d="M78.7977 98.002L77.4297 102.706L81.3741 103.554L82.4837 98.819L78.7977 98.002Z" fill="#455A64"/>
<path d="M83.9816 99.0166L83.1836 103.554C86.2712 103.87 89.3753 103.997 92.4784 103.934C97.103 103.808 101.621 103.421 103.647 102.714L103.058 98.667C103.058 98.667 87.7816 100.069 83.9816 99.0166Z" fill="#455A64"/>
<path d="M105.027 98.4385L106.004 102.428C106.004 102.428 109.158 102.083 110.458 101.323L109.371 97.7393L105.027 98.4385Z" fill="#455A64"/>
<path d="M83.9784 179.641C83.9404 178.555 83.4008 162.899 82.6978 142.455C82.371 132.195 82.1392 122.877 82.0708 116.143C82.0708 114.46 82.0708 112.936 82.0518 111.583C82.0328 110.231 82.0746 109.098 82.0822 108.163C82.0898 107.229 82.1316 106.499 82.1468 105.997C82.1468 105.754 82.1468 105.568 82.1658 105.431C82.1848 105.294 82.1658 105.241 82.1658 105.241C82.1658 105.241 82.1658 105.306 82.1658 105.435C82.1658 105.564 82.1658 105.754 82.1658 105.997C82.1658 106.503 82.1658 107.229 82.1392 108.163C82.1126 109.098 82.1392 110.261 82.1392 111.583C82.1392 112.906 82.1658 114.445 82.1848 116.143C82.2874 122.873 82.542 132.176 82.8688 142.447C83.1956 152.718 83.4958 162.006 83.7124 168.743C83.815 172.11 83.8834 174.823 83.9214 176.723C83.9214 177.658 83.9442 178.384 83.9518 178.889C83.9518 179.132 83.9518 179.318 83.9518 179.455C83.9518 179.592 83.9784 179.641 83.9784 179.641Z" fill="#455A64"/>
<path d="M93.5641 104.237C93.5786 104.311 93.585 104.386 93.5831 104.462C93.5831 104.629 93.5831 104.842 93.5831 105.1C93.5831 105.678 93.5831 106.472 93.6097 107.441C93.6287 109.421 93.6705 112.153 93.7541 115.17C93.8377 118.187 93.9593 120.919 94.0505 122.895C94.0961 123.864 94.1303 124.659 94.1569 125.236C94.1569 125.489 94.1645 125.702 94.1797 125.875C94.19 125.949 94.19 126.024 94.1797 126.099C94.1637 126.026 94.1523 125.952 94.1455 125.878L94.0885 125.24C94.0391 124.689 93.9821 123.891 93.9175 122.903C93.7921 120.927 93.6515 118.195 93.5641 115.178C93.4767 112.16 93.4805 109.44 93.4805 107.441C93.4805 106.453 93.4995 105.651 93.5147 105.096L93.5375 104.462C93.5365 104.386 93.5454 104.311 93.5641 104.237Z" fill="#455A64"/>
<path d="M94.1856 126.099C94.1026 126.09 94.0202 126.076 93.9386 126.057L93.2356 125.921C92.3677 125.753 91.5101 125.536 90.6668 125.271C90.3806 125.18 90.1073 125.052 89.8536 124.891C89.7776 124.84 89.7171 124.769 89.6788 124.686C89.6522 124.606 89.6294 124.53 89.6066 124.454C89.5676 124.294 89.5385 124.131 89.5192 123.967C89.4432 123.302 89.485 122.603 89.4774 121.866C89.4774 120.388 89.4964 118.769 89.5078 117.07C89.542 113.677 89.5762 110.61 89.599 108.357C89.6218 107.259 89.6408 106.362 89.6522 105.716C89.6522 105.42 89.6598 105.18 89.675 104.998C89.673 104.914 89.6806 104.83 89.6978 104.747C89.7058 104.83 89.7058 104.914 89.6978 104.998C89.6978 105.18 89.6978 105.42 89.6978 105.716C89.6978 106.362 89.6978 107.259 89.6978 108.357C89.6978 110.607 89.675 113.677 89.6636 117.07C89.6636 118.773 89.6332 120.392 89.618 121.866C89.618 122.603 89.5762 123.306 89.6408 123.948C89.6575 124.106 89.6842 124.262 89.7206 124.416C89.7396 124.488 89.7586 124.564 89.7814 124.632C89.8108 124.687 89.8524 124.734 89.903 124.769C90.14 124.921 90.3954 125.043 90.663 125.13C91.708 125.491 92.5934 125.681 93.1976 125.837L93.893 126.012C93.995 126.023 94.0942 126.053 94.1856 126.099Z" fill="#455A64"/>
<path d="M102.406 179.641C102.406 179.641 102.406 179.576 102.406 179.447C102.406 179.318 102.425 179.117 102.44 178.87C102.471 178.357 102.52 177.612 102.577 176.658C102.718 174.731 102.915 171.957 103.162 168.53C103.664 161.671 104.363 152.19 104.922 141.709C105.48 131.229 105.682 121.718 105.458 114.843C105.423 113.985 105.385 113.168 105.351 112.396C105.317 111.625 105.294 110.876 105.226 110.211C105.104 108.851 105.04 107.677 104.918 106.723C104.796 105.769 104.686 105.039 104.614 104.53C104.584 104.283 104.557 104.093 104.542 103.956C104.527 103.82 104.523 103.763 104.523 103.763C104.523 103.763 104.523 103.827 104.561 103.956C104.599 104.086 104.614 104.279 104.656 104.523C104.732 105.032 104.85 105.769 104.994 106.711C105.138 107.654 105.203 108.843 105.336 110.204C105.412 110.884 105.442 111.613 105.48 112.389C105.518 113.164 105.556 113.981 105.598 114.84C105.872 121.721 105.648 131.233 105.119 141.721C104.591 152.209 103.839 161.682 103.299 168.541C103.029 171.961 102.809 174.739 102.657 176.666C102.581 177.616 102.52 178.36 102.478 178.873C102.456 179.12 102.44 179.311 102.429 179.447C102.418 179.584 102.406 179.641 102.406 179.641Z" fill="#455A64"/>
<path d="M92.76 104.093V104.975L97.8672 104.777C98.0291 104.772 98.1824 104.703 98.2945 104.586C98.4066 104.469 98.4687 104.312 98.4676 104.15V99.4346C98.4676 99.2683 98.4015 99.1088 98.2839 98.9913C98.1663 98.8737 98.0069 98.8076 97.8406 98.8076H92.418V99.5144L97.5594 99.7804V101.494H97.2136C97.1775 101.493 97.1416 101.499 97.108 101.513C97.0744 101.526 97.0437 101.545 97.0179 101.571C96.992 101.596 96.9714 101.626 96.9574 101.659C96.9434 101.692 96.9362 101.728 96.9362 101.764C96.9371 101.834 96.9649 101.9 97.0138 101.95C97.0627 101.999 97.1288 102.028 97.1984 102.03H97.5784V103.74L92.76 104.093Z" fill="#E0E0E0"/>
<path d="M89.8073 99.127H88.3633V104.067H89.8073V99.127Z" fill="#263238"/>
<path d="M97.1094 102.326C97.0904 102.345 97.0106 102.326 96.927 102.193C96.8229 102.042 96.7721 101.86 96.7826 101.676C96.7919 101.493 96.8675 101.318 96.9954 101.186C97.0904 101.084 97.174 101.057 97.1892 101.076C97.2044 101.095 97.003 101.342 96.9802 101.692C96.9574 102.041 97.1512 102.292 97.1094 102.326Z" fill="#263238"/>
<path d="M93.0054 101.323C93.0054 101.323 93.032 101.293 93.089 101.297C93.128 101.304 93.1651 101.319 93.1973 101.342C93.2296 101.365 93.2562 101.395 93.2752 101.43C93.3067 101.482 93.3253 101.541 93.3293 101.602C93.3332 101.663 93.3225 101.724 93.298 101.779C93.2622 101.848 93.2073 101.905 93.1399 101.944C93.0725 101.982 92.9954 102 92.918 101.996C92.8396 101.986 92.7664 101.951 92.7085 101.898C92.6506 101.844 92.6109 101.773 92.595 101.696C92.5845 101.636 92.5902 101.573 92.6116 101.516C92.6329 101.459 92.6692 101.408 92.7166 101.369C92.88 101.244 93.013 101.304 93.0016 101.323C92.9902 101.342 92.8952 101.361 92.8154 101.468C92.7926 101.493 92.7768 101.524 92.7695 101.557C92.7621 101.591 92.7635 101.625 92.7736 101.658C92.7828 101.694 92.8026 101.727 92.8303 101.752C92.858 101.777 92.8925 101.793 92.9294 101.798C92.9696 101.799 93.0094 101.789 93.0452 101.771C93.0809 101.752 93.1116 101.725 93.1346 101.692C93.1477 101.661 93.1545 101.627 93.1545 101.593C93.1545 101.559 93.1477 101.526 93.1346 101.494C93.1004 101.365 93.0092 101.35 93.0054 101.323Z" fill="#263238"/>
<path d="M107.249 102.327C107.347 102.071 107.474 101.827 107.629 101.601C107.77 101.361 107.918 101.107 108.078 100.841L108.348 100.393C108.448 100.246 108.537 100.093 108.614 99.9327C108.636 99.8577 108.641 99.7786 108.628 99.7015C108.614 99.6244 108.584 99.5514 108.538 99.4881C108.425 99.3702 108.297 99.268 108.158 99.1841L107.439 98.6711C107.21 98.5241 106.998 98.3506 106.809 98.1543C107.061 98.2568 107.3 98.3908 107.519 98.5533L108.26 99.0359L108.473 99.1765C108.558 99.2283 108.633 99.2953 108.693 99.3741C108.757 99.4623 108.8 99.564 108.819 99.6714C108.837 99.7788 108.831 99.889 108.8 99.9935C108.764 100.091 108.716 100.183 108.655 100.267L108.507 100.499L108.226 100.94L107.743 101.673C107.606 101.911 107.44 102.13 107.249 102.327Z" fill="#263238"/>
<path d="M115.899 113.829C115.858 113.86 115.813 113.884 115.766 113.901C115.63 113.958 115.488 114 115.344 114.026C114.805 114.098 114.257 114.03 113.752 113.829C113.012 113.534 112.31 113.152 111.662 112.689C108.919 110.859 106.839 108.194 105.73 105.089C105.66 104.906 105.605 104.718 105.566 104.526C105.663 104.696 105.742 104.876 105.802 105.062C105.946 105.412 106.182 105.906 106.471 106.506C107.276 108.058 108.317 109.476 109.556 110.709C110.238 111.385 110.976 112 111.764 112.548C112.398 113.003 113.081 113.386 113.801 113.688C114.28 113.893 114.801 113.98 115.321 113.943C115.705 113.901 115.899 113.81 115.899 113.829Z" fill="#455A64"/>
<path d="M78.8204 106.13C78.6495 106.482 78.4392 106.813 78.1934 107.118C77.0828 108.64 75.7418 109.98 74.2186 111.089C73.9143 111.333 73.5843 111.543 73.2344 111.716C73.5184 111.451 73.8192 111.205 74.135 110.979C75.5963 109.816 76.9208 108.492 78.0832 107.03C78.3105 106.716 78.5567 106.415 78.8204 106.13Z" fill="#455A64"/>
<path d="M92.0794 67.9704L91.8134 55.2822C91.6842 53.652 90.2744 53.956 90.2744 53.956C90.2744 53.956 90.1832 58.4552 89.807 60.9822C89.4308 63.5092 88.0704 66.3022 88.0248 66.8684C87.9792 67.4346 87.8044 72.2454 87.6448 73.7882C87.4325 75.0905 87.1083 76.3721 86.6758 77.6186L90.2896 80.3964L91.3878 78.8536C91.3878 78.8536 92.6228 77.972 92.9078 76.87C93.1928 75.768 92.0794 67.9704 92.0794 67.9704Z" fill="#FFBE9D"/>
<path d="M92.0791 67.9705C92.0791 67.9705 92.0981 68.0389 92.1209 68.1757L92.2121 68.7723C92.2919 69.2967 92.4021 70.0681 92.5313 71.0523C92.6605 72.0365 92.8125 73.2525 92.9303 74.6547C92.9645 75.0081 92.9873 75.3691 93.0063 75.7453C93.0063 75.9353 93.0253 76.1253 93.0063 76.3191C93.0102 76.521 92.9898 76.7226 92.9455 76.9195C92.8194 77.3191 92.6153 77.6898 92.3451 78.0101C92.0699 78.3459 91.7562 78.6482 91.4103 78.9107V78.8917L90.3159 80.4383L90.2627 80.5067L90.1943 80.4535L86.5767 77.6833L86.5273 77.6453V77.5807C87.1123 75.9926 87.468 74.3292 87.5837 72.6407C87.7015 70.8737 87.7737 69.0459 87.8649 67.1725C87.865 67.0129 87.8816 66.8537 87.9143 66.6975C87.9561 66.5417 88.0055 66.3973 88.0549 66.2491L88.3703 65.3941C88.5831 64.8279 88.7883 64.2541 88.9745 63.7031C89.3479 62.6114 89.6027 61.4826 89.7345 60.3363C89.9853 58.0905 90.0651 55.9397 90.1145 53.9637V53.8915H90.1829C90.4764 53.8384 90.7791 53.8727 91.0531 53.9903C91.3211 54.1125 91.5347 54.3289 91.6535 54.5983C91.7656 54.8521 91.8239 55.1265 91.8245 55.4039C91.8245 55.6661 91.8245 55.9245 91.8245 56.1829C91.8245 57.2051 91.8625 58.1779 91.8777 59.0937C91.9081 60.9215 91.9347 62.5137 91.9575 63.8399C91.9803 65.1661 91.9879 66.1845 91.9955 66.9027C91.9955 67.2485 91.9955 67.5183 91.9955 67.7121C91.9955 67.7957 91.9955 67.8641 91.9955 67.9211C91.9955 67.9781 91.9955 67.9895 91.9955 67.9895C91.9955 67.9895 91.9955 67.9667 91.9955 67.9211C91.9955 67.8755 91.9955 67.7995 91.9955 67.7159C91.9955 67.5221 91.9955 67.2523 91.9651 66.9065C91.9423 66.1883 91.9157 65.1547 91.8777 63.8475C91.8397 62.5403 91.8017 60.9291 91.7561 59.1013C91.7561 58.1855 91.7143 57.2013 91.6877 56.1905C91.6573 55.6813 91.7333 55.1303 91.5091 54.6705C91.4087 54.4358 91.2225 54.2483 90.9885 54.1461C90.7487 54.0449 90.4846 54.0158 90.2285 54.0625L90.2969 53.9789C90.2475 55.9625 90.1753 58.1095 89.9169 60.3705C89.7802 61.5351 89.5191 62.6816 89.1379 63.7905C88.9517 64.3567 88.7579 64.9305 88.5337 65.4853L88.2183 66.3403C88.1689 66.4809 88.1195 66.6253 88.0853 66.7659C88.0539 66.9094 88.0386 67.056 88.0397 67.2029C87.9485 69.0763 87.8763 70.9079 87.7547 72.6749C87.6379 74.386 87.2757 76.0715 86.6793 77.6795L86.6489 77.5769L90.2551 80.3585L90.1373 80.3775L91.2393 78.8385C91.9172 78.3701 92.4378 77.7079 92.7327 76.9385C92.7729 76.7525 92.7921 76.5626 92.7897 76.3723C92.7897 76.1823 92.7897 75.9923 92.7897 75.8061C92.7897 75.4261 92.7517 75.0727 92.7251 74.7231C92.6149 73.3247 92.4743 72.1125 92.3641 71.1207C92.2539 70.1289 92.1513 69.3651 92.0867 68.8407C92.0563 68.5823 92.0335 68.3847 92.0145 68.2403C91.9955 68.0959 92.0791 67.9705 92.0791 67.9705Z" fill="#EB996E"/>
<path d="M91.8268 56.4105C91.728 56.2656 91.6214 56.126 91.5076 55.9925C91.3656 55.8522 91.2012 55.7366 91.0212 55.6505C90.9164 55.5914 90.7953 55.568 90.676 55.5838C90.5568 55.5995 90.4459 55.6536 90.36 55.7379L90.379 55.6771C90.4284 56.0571 90.5044 56.5131 90.5424 56.9995C90.5804 57.4859 90.5918 58.0065 90.5766 58.5499C90.5295 59.6995 90.3884 60.8433 90.1548 61.9699C90.0674 62.3993 89.9914 62.7299 89.9344 62.9845C89.9174 63.1161 89.8802 63.2442 89.8242 63.3645C89.8606 62.8926 89.924 62.4231 90.0142 61.9585C90.2115 60.8389 90.3384 59.7081 90.3942 58.5727C90.3942 58.0369 90.3942 57.5239 90.3676 57.0527C90.341 56.5815 90.2726 56.1331 90.2346 55.7379V55.7037L90.2536 55.6771C90.3079 55.6156 90.3746 55.5663 90.4492 55.5322C90.5238 55.4982 90.6048 55.4802 90.6868 55.4795C90.8272 55.4789 90.9655 55.5128 91.0896 55.5783C91.2787 55.6714 91.4478 55.8004 91.5874 55.9583C91.6748 56.062 91.7476 56.177 91.804 56.3003C91.823 56.3611 91.8344 56.4105 91.8268 56.4105Z" fill="#EB996E"/>
<path d="M91.9311 61.336C91.8883 61.1405 91.8578 60.9425 91.8399 60.7432C91.8119 60.5215 91.7354 60.3087 91.6157 60.12C91.4288 59.9043 91.1664 59.7683 90.8823 59.74L90.9849 59.664C90.9621 60.386 90.9165 61.2524 90.8253 62.1758C90.6999 63.4716 90.5137 64.642 90.3541 65.4818C90.2705 65.8998 90.1945 66.2418 90.1375 66.4698C90.1184 66.5936 90.0812 66.7139 90.0273 66.827C90.0654 66.3668 90.1275 65.9089 90.2135 65.4552C90.3427 64.6154 90.5061 63.4488 90.6277 62.1568C90.7189 61.2372 90.7759 60.3746 90.8177 59.6564V59.5576L90.9165 59.5766C91.2373 59.6225 91.5277 59.7915 91.7259 60.0478C91.8463 60.2571 91.9178 60.491 91.9349 60.7318C91.9659 60.9321 91.9646 61.1361 91.9311 61.336Z" fill="#EB996E"/>
<path d="M90.0615 68.1948C90.0273 68.2366 89.8145 68.077 89.7879 67.7768C89.7613 67.4766 89.9361 67.2752 89.9779 67.3132C90.0197 67.3512 89.9589 67.5298 89.9779 67.7578C89.9969 67.9858 90.0919 68.1568 90.0615 68.1948Z" fill="#EB996E"/>
<path d="M89.479 65.0638C89.4296 65.0828 89.2852 64.7978 89.3118 64.4102C89.3384 64.0226 89.5208 63.7604 89.5664 63.787C89.612 63.8136 89.5284 64.0834 89.5094 64.4254C89.4904 64.7674 89.5322 65.0448 89.479 65.0638Z" fill="#EB996E"/>
<path d="M97.2141 75.1712C96.9291 73.6512 96.4161 68.867 96.3325 68.297C96.2489 67.727 94.6985 65.0442 94.1437 62.5514C93.5889 60.0586 93.1823 55.5746 93.1823 55.5746C93.1823 55.5746 91.7573 55.3694 91.7383 57.0072L92.3653 69.6802C92.3653 69.6802 91.8029 77.5386 92.1715 78.6178C92.5401 79.697 93.8359 80.4874 93.8359 80.4874L95.0405 81.9466L98.4605 78.9066C97.9401 77.699 97.5231 76.4494 97.2141 75.1712Z" fill="#FFBE9D"/>
<path d="M97.2159 75.1719C97.2159 75.1719 97.2159 75.1909 97.2159 75.2327C97.2159 75.2745 97.2425 75.3467 97.2615 75.4227C97.3071 75.5937 97.3679 75.8407 97.4667 76.1827C97.7569 77.1138 98.0943 78.0295 98.4775 78.9263V78.9567L98.4509 78.9833L95.0575 82.0233L95.0005 82.0727L94.9549 82.0157L93.7427 80.5603H93.7617C93.4054 80.3299 93.0764 80.0596 92.7813 79.7547C92.4586 79.4326 92.2108 79.0434 92.0555 78.6147C91.9659 78.1593 91.9251 77.6956 91.9339 77.2315C91.9339 76.7641 91.9339 76.2891 91.9339 75.8065C91.9757 73.8761 92.0897 71.8203 92.2341 69.6657C92.1277 67.5605 92.0175 65.3299 91.9035 63.0423C91.8313 61.5679 91.7591 60.1239 91.6907 58.7217C91.6907 58.3683 91.6565 58.0225 91.6375 57.6767C91.6052 57.3291 91.6052 56.9793 91.6375 56.6317C91.6569 56.4513 91.7123 56.2766 91.8004 56.118C91.8886 55.9594 92.0076 55.8201 92.1505 55.7083C92.4457 55.5045 92.8051 55.4153 93.1613 55.4575H93.2335V55.5373C93.3703 56.9889 93.5261 58.3911 93.7123 59.7173C93.8594 60.9908 94.1046 62.2511 94.4457 63.4869C94.7969 64.571 95.2157 65.632 95.6997 66.6637C95.9163 67.1539 96.1405 67.6099 96.3077 68.0811C96.365 68.3194 96.4019 68.5623 96.4179 68.8069C96.4445 69.0387 96.4711 69.2667 96.4977 69.4871C96.6953 71.2655 96.8549 72.6753 96.9765 73.6443C97.0373 74.1155 97.0867 74.4879 97.1209 74.7501L97.1627 75.0351C97.167 75.0679 97.167 75.1011 97.1627 75.1339C97.1505 75.1032 97.1416 75.0714 97.1361 75.0389C97.1361 74.9667 97.1057 74.8717 97.0829 74.7539C97.0373 74.5031 96.9765 74.1345 96.9043 73.6519C96.7637 72.6867 96.5851 71.2769 96.3723 69.5023C96.3457 69.2819 96.3153 69.0539 96.2887 68.8221C96.268 68.5868 96.2312 68.3531 96.1785 68.1229C96.0151 67.6707 95.7795 67.2071 95.5629 66.7245C95.0689 65.6887 94.6411 64.6225 94.2823 63.5325C93.9326 62.287 93.6785 61.0166 93.5223 59.7325C93.3374 58.3898 93.1752 56.9965 93.0359 55.5525L93.1157 55.6361C92.8091 55.6027 92.5007 55.6795 92.2455 55.8527C92.123 55.9505 92.0212 56.0718 91.9462 56.2095C91.8711 56.3472 91.8243 56.4985 91.8085 56.6545C91.7764 56.9906 91.7764 57.3291 91.8085 57.6653C91.8085 58.0073 91.8427 58.3569 91.8579 58.7065C91.9301 60.1125 92.0023 61.5565 92.0745 63.0271C92.1885 65.3071 92.2949 67.5415 92.4013 69.6467C92.2531 71.7937 92.1353 73.8533 92.0859 75.7761C92.0859 76.2587 92.0669 76.7299 92.0859 77.1935C92.0769 77.6419 92.1139 78.0901 92.1961 78.5311C92.3429 78.9309 92.575 79.294 92.8763 79.5951C93.1615 79.8916 93.4788 80.1555 93.8225 80.3817L95.0271 81.8447H94.9245L98.3445 78.8389V78.8959C97.9686 77.9931 97.6451 77.0695 97.3755 76.1295C97.2843 75.8027 97.2273 75.5519 97.1969 75.3695L97.1627 75.1757C97.2159 75.1947 97.2121 75.1719 97.2159 75.1719Z" fill="#EB996E"/>
<path d="M91.7969 58.1625C91.8303 58.0398 91.8829 57.9231 91.9527 57.8167C92.0214 57.6826 92.1028 57.5553 92.1959 57.4367C92.3184 57.2641 92.497 57.1392 92.7013 57.0833C92.8366 57.0638 92.9745 57.0908 93.0926 57.1598C93.2106 57.2288 93.3017 57.3358 93.3511 57.4633C93.4197 57.7364 93.4415 58.019 93.4157 58.2993C93.4157 58.8693 93.4461 59.4963 93.5069 60.1499C93.6212 61.267 93.7962 62.377 94.0313 63.4749C94.1482 63.9278 94.2383 64.3871 94.3011 64.8505C94.2431 64.7383 94.1985 64.6197 94.1681 64.4971C94.0997 64.2653 94.0009 63.9271 93.8945 63.5091C93.6172 62.4117 93.4216 61.2953 93.3093 60.1689C93.2515 59.5475 93.2262 58.9234 93.2333 58.2993C93.2621 58.0458 93.2506 57.7893 93.1991 57.5393C93.1651 57.4438 93.1004 57.3622 93.0152 57.3072C92.93 57.2522 92.8289 57.227 92.7279 57.2353C92.5519 57.28 92.3956 57.3816 92.2833 57.5241C92.186 57.6312 92.0971 57.7455 92.0173 57.8661C91.9551 57.9728 91.8811 58.0722 91.7969 58.1625Z" fill="#EB996E"/>
<path d="M92.0473 63.2395C92.0274 63.1847 92.0172 63.1268 92.0169 63.0685C92.0048 62.9066 92.0048 62.744 92.0169 62.5821C92.0294 62.3261 92.09 62.0747 92.1955 61.8411C92.2678 61.6836 92.3731 61.5434 92.5042 61.43C92.6353 61.3166 92.7892 61.2326 92.9555 61.1837L93.0505 61.1533V61.2559C93.1379 61.9513 93.2481 62.7759 93.3963 63.6537C93.6129 64.9571 93.8599 66.1313 94.0499 66.9749C94.1706 67.428 94.267 67.8872 94.3387 68.3505C94.2762 68.24 94.2301 68.1209 94.2019 67.9971C94.1259 67.7653 94.0271 67.4309 93.9131 67.0091C93.6889 66.1693 93.4191 64.9989 93.2025 63.6879C93.0543 62.8063 92.9517 61.9779 92.8795 61.2749L92.9897 61.3471C92.8436 61.3863 92.7074 61.4561 92.5902 61.5517C92.4729 61.6473 92.3773 61.7667 92.3095 61.9019C92.2022 62.1191 92.1328 62.353 92.1043 62.5935C92.0587 63.0001 92.0739 63.2395 92.0473 63.2395Z" fill="#EB996E"/>
<path d="M94.4233 69.7226C94.3777 69.6884 94.4651 69.5098 94.4651 69.2818C94.4651 69.0538 94.3967 68.8714 94.4423 68.8372C94.4879 68.803 94.6703 68.9816 94.6627 69.2856C94.6551 69.5896 94.4575 69.7644 94.4233 69.7226Z" fill="#EB996E"/>
<path d="M94.7664 66.5612C94.7094 66.5612 94.7398 66.261 94.6904 65.9228C94.641 65.5846 94.5422 65.3186 94.5916 65.292C94.641 65.2654 94.8348 65.5124 94.888 65.8962C94.9412 66.28 94.8158 66.5764 94.7664 66.5612Z" fill="#EB996E"/>
<g opacity="0.3">
<path d="M96.327 81.8287C95.624 81.0155 94.7348 80.1985 93.667 80.2061C92.7132 80.2061 91.9 80.8711 91.2236 81.5399C89.0467 83.7718 87.2645 86.357 85.953 89.1855C84.5888 91.9785 82.9358 95.3377 81.8984 98.2675C84.1784 97.7887 86.2 96.3675 87.739 94.6081C89.278 92.8487 90.399 90.7549 91.3756 88.6383C91.7176 87.9087 92.2078 87.0613 93.0134 87.0423C93.6062 87.0423 94.0926 87.5021 94.465 87.9657C95.5328 89.3147 96.251 90.9031 97.0034 92.4497C97.7558 93.9963 98.5766 95.5467 99.8002 96.7589C101.024 97.9711 102.722 98.8109 104.432 98.6209C102.479 92.6739 100.431 86.5559 96.327 81.8287Z" fill="black"/>
</g>
<path d="M73.0245 60.04C73.0245 60.04 68.0427 63.1788 67.8945 69.3614C67.7463 75.544 68.1149 92.0246 69.2207 94.2324C70.3265 96.4402 71.1207 104.386 78.2723 101.072C82.2813 99.2142 86.6323 93.1836 89.4823 88.122C90.8184 85.7591 91.9768 83.3001 92.9479 80.7652L86.2181 76.4256L77.7555 86.431L77.4933 76.8094L73.0245 60.04Z" fill="#96DDAB"/>
<path d="M77.7551 86.4193C77.7551 86.4535 77.4511 86.4725 76.9951 86.6017C76.3909 86.778 75.826 87.0682 75.3308 87.4567C74.8363 87.8522 74.3853 88.2994 73.9856 88.7905C73.8304 89.0059 73.6575 89.208 73.4688 89.3947C73.5665 89.1451 73.7038 88.9128 73.8754 88.7069C74.2501 88.1766 74.6993 87.703 75.2092 87.3009C75.7215 86.8928 76.3209 86.6081 76.961 86.4687C77.2195 86.398 77.4898 86.3812 77.7551 86.4193Z" fill="#263238"/>
<path d="M77.7156 86.3438C77.0534 86.3257 76.3907 86.3524 75.732 86.4236C75.088 86.562 74.4535 86.741 73.832 86.9594C74.3832 86.5563 75.0305 86.3047 75.7092 86.2298C76.3763 86.0896 77.0687 86.129 77.7156 86.3438Z" fill="#263238"/>
<path d="M92.9467 80.7539C92.936 80.8243 92.9169 80.8932 92.8897 80.9591L92.6845 81.5329C92.5059 82.0307 92.2209 82.7375 91.8485 83.6077C90.8596 85.8632 89.7011 88.0406 88.3829 90.1209C87.0597 92.1976 85.5984 94.1832 84.0091 96.0641C83.4011 96.7861 82.8957 97.3599 82.5347 97.7437L82.1167 98.1883C82.0697 98.2415 82.0175 98.2899 81.9609 98.3327C81.9958 98.2709 82.0379 98.2136 82.0863 98.1617L82.4663 97.6943C82.8083 97.2915 83.2947 96.7063 83.8913 95.9767C85.4434 94.0746 86.8835 92.0838 88.2043 90.0145C89.5163 87.9425 90.6868 85.7842 91.7079 83.5545C92.0879 82.6957 92.4033 81.9965 92.6009 81.5063C92.6997 81.2821 92.7757 81.0959 92.8403 80.9477C92.8672 80.8787 92.903 80.8136 92.9467 80.7539Z" fill="#263238"/>
<path d="M77.4951 76.7975C77.5006 76.8582 77.5006 76.9192 77.4951 76.9799C77.4951 77.1167 77.5141 77.2915 77.5255 77.5081C77.5445 77.9869 77.5711 78.6481 77.6053 79.4917C77.6623 81.2093 77.7383 83.6071 77.8295 86.4153L77.6699 86.3583L81.3711 81.9693L86.1325 76.3567L86.1819 76.2959L86.2465 76.3377L91.1029 79.5145L92.4595 80.4189L92.8129 80.6621C92.8558 80.6876 92.8953 80.7182 92.9307 80.7533C92.8849 80.7362 92.8414 80.7132 92.8015 80.6849L92.4215 80.4645L91.0383 79.5981L86.1477 76.4859L86.2579 76.4669L81.5155 82.0985L77.8029 86.4799L77.6433 86.6623V86.4229C77.5825 83.6109 77.5293 81.2131 77.4913 79.4955C77.4913 78.6595 77.4685 77.9755 77.4609 77.5081V76.9799C77.4675 76.9183 77.4789 76.8573 77.4951 76.7975Z" fill="#263238"/>
<path d="M113.522 58.1016C113.522 58.1016 117.732 60.2334 117.918 70.1324C118.105 80.0314 118.842 91.7734 117.918 93.8102C117.219 95.3302 115.578 99.9852 112.598 101.574C111.702 102.049 111.021 102.071 109.798 101.893C105.732 101.3 100.397 96.5462 96.342 88.741C93.2564 82.8016 93.0664 80.0504 93.0664 80.0504L98.7284 74.3504L109.783 88.057L109.988 74.9166L113.522 58.1016Z" fill="#96DDAB"/>
<path d="M109.901 75.3124C109.901 75.3124 109.901 75.3884 109.901 75.5404C109.901 75.6924 109.901 75.9204 109.901 76.2054C109.901 76.7982 109.901 77.6532 109.901 78.7514C109.901 80.9706 109.871 84.155 109.848 88.0576V88.2666L109.719 88.1032L98.6456 74.4232H98.79L94.4124 78.835L93.128 80.127L93.1546 80.0358C94.1984 84.4449 96.061 88.6188 98.6456 92.3402C100.697 95.3959 103.261 98.0748 106.223 100.259C106.815 100.704 107.452 101.086 108.123 101.399C108.431 101.538 108.752 101.649 109.08 101.73C109.393 101.796 109.709 101.844 110.027 101.874C111.078 102.002 112.142 101.793 113.067 101.278C113.634 100.927 114.124 100.464 114.507 99.9174C114.64 99.735 114.739 99.5868 114.799 99.488C114.86 99.3892 114.902 99.3436 114.902 99.3436C114.788 99.5503 114.661 99.7496 114.522 99.9402C114.15 100.503 113.663 100.981 113.093 101.342C112.156 101.879 111.073 102.103 110 101.981C109.692 101.943 109.369 101.916 109.039 101.844C108.702 101.763 108.374 101.651 108.058 101.51C107.379 101.199 106.734 100.817 106.135 100.37C103.146 98.1908 100.559 95.5085 98.4898 92.4428C95.8824 88.7027 94.0051 84.5034 92.957 80.0662V80.013L92.995 79.975L94.2794 78.6792L98.6608 74.2712L98.7368 74.1914L98.8052 74.2788C102.985 79.4772 106.785 84.193 109.825 88.0006L109.692 88.0462C109.745 84.1436 109.783 80.963 109.814 78.7438C109.833 77.6456 109.848 76.7906 109.859 76.1978C109.859 75.909 109.859 75.6886 109.859 75.5328C109.869 75.4586 109.883 75.3851 109.901 75.3124Z" fill="#263238"/>
<path d="M114.296 93.1606C114.088 92.9016 113.897 92.6286 113.726 92.3436C113.275 91.6855 112.779 91.0584 112.244 90.4664C111.706 89.8781 111.136 89.3187 110.538 88.7906C110.275 88.5847 110.03 88.3572 109.805 88.1104C110.1 88.2686 110.375 88.4612 110.625 88.6842C111.259 89.1841 111.85 89.7357 112.392 90.3334C112.936 90.9313 113.422 91.5789 113.844 92.2676C114.035 92.5433 114.187 92.8437 114.296 93.1606Z" fill="#263238"/>
<path d="M113.069 60.0859C113.096 60.1087 112.765 60.5153 112.309 61.2259C111.105 63.0722 110.318 65.1587 110.003 67.3401C109.881 68.1761 109.858 68.7005 109.824 68.7005C109.802 68.5752 109.796 68.4475 109.805 68.3205C109.806 67.984 109.826 67.6478 109.866 67.3135C110.106 65.091 110.908 62.9661 112.195 61.1385C112.387 60.8626 112.594 60.5975 112.815 60.3443C112.888 60.2473 112.973 60.1604 113.069 60.0859Z" fill="#263238"/>
<path d="M76.5664 70.2241C76.536 70.2241 76.4676 69.7187 76.3156 68.9017C76.1221 67.838 75.8684 66.7863 75.5556 65.7515C75.238 64.7188 74.865 63.704 74.4384 62.7115C74.2412 62.3079 74.0649 61.8944 73.9102 61.4727C73.9892 61.5648 74.0557 61.667 74.1078 61.7767C74.2256 61.9781 74.3814 62.2783 74.5638 62.6545C75.0339 63.6365 75.429 64.6527 75.7456 65.6945C76.0608 66.7369 76.2983 67.8013 76.4562 68.8789C76.5132 69.2931 76.5474 69.6389 76.5626 69.8593C76.582 69.98 76.5833 70.1029 76.5664 70.2241Z" fill="#263238"/>
<g opacity="0.3">
<path d="M114.847 93.1338C114.666 92.3329 114.249 91.6047 113.65 91.0438C112.536 89.8506 111.226 88.8571 109.777 88.1064C111.575 89.545 113.122 91.2707 114.356 93.2136C114.451 93.3656 114.638 93.5366 114.778 93.4264C114.814 93.3878 114.839 93.3405 114.851 93.2892C114.863 93.2379 114.861 93.1844 114.847 93.1338Z" fill="black"/>
</g>
<g opacity="0.3">
<path d="M77.6822 86.4079C76.5191 86.2316 75.3305 86.4512 74.3071 87.0314C73.2838 87.6116 72.4851 88.5189 72.0392 89.6075C71.9472 89.805 71.9005 90.0205 71.9024 90.2383C71.9061 90.3467 71.9396 90.4519 71.9993 90.5424C72.059 90.633 72.1425 90.7052 72.2406 90.7513C72.3601 90.7863 72.4875 90.7839 72.6057 90.7445C72.7238 90.7051 72.8271 90.6306 72.9018 90.5309C73.0505 90.3317 73.166 90.1097 73.2438 89.8735C73.6465 88.9332 74.2926 88.1171 75.1154 87.5093C75.9383 86.9016 76.9082 86.524 77.9254 86.4155L77.6822 86.4079Z" fill="black"/>
</g>
<path d="M174.799 180.158C174.799 180.212 139.079 180.257 94.9992 180.257C50.9192 180.257 15.1992 180.212 15.1992 180.158C15.1992 180.105 50.9192 180.06 95.0182 180.06C139.117 180.06 174.799 180.12 174.799 180.158Z" fill="#263238"/>
</svg>
