<svg width="25" height="25" viewBox="0 0 25 25" fill="none" xmlns="http://www.w3.org/2000/svg">
<circle cx="12.5" cy="12.5" r="12" fill="white" stroke="#38D8A2"/>
<path d="M19 8.43768C18.549 8.67803 18.0721 8.83691 17.584 8.90939C18.0989 8.53152 18.4848 7.93707 18.67 7.2363C18.1861 7.59013 17.6565 7.83942 17.104 7.97334C16.7347 7.48142 16.243 7.15397 15.7059 7.04234C15.1688 6.93072 14.6167 7.04124 14.1363 7.35657C13.6558 7.67191 13.2742 8.17421 13.0511 8.78471C12.8281 9.39521 12.7764 10.0794 12.904 10.7299C11.9257 10.6691 10.9687 10.3562 10.0952 9.81143C9.22172 9.26669 8.45131 8.50231 7.834 7.56797C7.61748 8.03243 7.50371 8.55843 7.504 9.09365C7.50323 9.5907 7.60253 10.0803 7.79305 10.5188C7.98358 10.9573 8.25941 11.3311 8.596 11.607C8.20479 11.5939 7.82193 11.4649 7.48 11.2311V11.2679C7.48293 11.9644 7.6816 12.6382 8.04239 13.1754C8.40318 13.7126 8.90395 14.0802 9.46 14.2161C9.24595 14.2961 9.02373 14.3383 8.8 14.3414C8.64513 14.3392 8.49065 14.3219 8.338 14.2898C8.49635 14.8889 8.80277 15.4124 9.21464 15.7876C9.62652 16.1628 10.1233 16.3709 10.636 16.383C9.77032 17.2198 8.70153 17.6764 7.6 17.6802C7.39944 17.681 7.19904 17.6663 7 17.636C8.12466 18.528 9.43529 19.0015 10.774 18.9995C11.6978 19.0113 12.6143 18.7969 13.4699 18.3687C14.3255 17.9405 15.103 17.3072 15.7571 16.5057C16.4112 15.7043 16.9288 14.7508 17.2795 13.7009C17.6303 12.6509 17.8072 11.5257 17.8 10.3909C17.8 10.2656 17.8 10.1329 17.8 10.0002C18.2708 9.56891 18.6769 9.04016 19 8.43768Z" fill="#38D8A2"/>
</svg>
