<svg width="58" height="51" viewBox="0 0 58 51" fill="none" xmlns="http://www.w3.org/2000/svg">
<ellipse cx="29.3777" cy="25.0714" rx="28.6218" ry="25.0714" fill="#CFDBD7"/>
<path d="M29.6069 28.6025C28.4564 28.6025 27.4931 28.2393 26.7172 27.5127C25.9412 26.7861 25.5533 25.9072 25.5533 24.876V16.0518C25.5533 15.0674 25.9479 14.2354 26.7372 13.5557C27.5266 12.876 28.4831 12.5361 29.6069 12.5361C30.7307 12.5361 31.6872 12.876 32.4765 13.5557C33.2658 14.2354 33.6605 15.0674 33.6605 16.0518V24.876C33.6605 25.9072 33.2725 26.7861 32.4966 27.5127C31.7206 28.2393 30.7574 28.6025 29.6069 28.6025ZM28.4028 39.2549V34.4736C25.5666 34.2158 23.1853 33.1728 21.2588 31.3447C19.3324 29.5166 18.3691 27.3603 18.3691 24.876H20.7772C20.7772 27.0088 21.6401 28.8018 23.3659 30.2549C25.0917 31.708 27.172 32.4346 29.6069 32.4346C32.0417 32.4346 34.122 31.708 35.8478 30.2549C37.5736 28.8018 38.4365 27.0088 38.4365 24.876H40.8446C40.8446 27.3603 39.8814 29.5166 37.9549 31.3447C36.0284 33.1728 33.6471 34.2158 30.8109 34.4736V39.2549H28.4028ZM29.6069 26.4932C30.0885 26.4932 30.4832 26.335 30.7909 26.0186C31.0986 25.7021 31.2524 25.3213 31.2524 24.876V16.0518C31.2524 15.6533 31.0919 15.3193 30.7708 15.0498C30.4497 14.7803 30.0617 14.6455 29.6069 14.6455C29.152 14.6455 28.764 14.7803 28.443 15.0498C28.1219 15.3193 27.9614 15.6533 27.9614 16.0518V24.876C27.9614 25.3213 28.1152 25.7021 28.4229 26.0186C28.7306 26.335 29.1253 26.4932 29.6069 26.4932Z" fill="black"/>
</svg>
