<svg width="52" height="52" viewBox="0 0 52 52" fill="none" xmlns="http://www.w3.org/2000/svg">
<circle cx="26" cy="26" r="26" fill="#CFDBD7"/>
<path d="M15.25 39C14.65 39 14.125 38.7656 13.675 38.2969C13.225 37.8281 13 37.2812 13 36.6562V16.3438C13 15.7188 13.225 15.1719 13.675 14.7031C14.125 14.2344 14.65 14 15.25 14H34.75C35.35 14 35.875 14.2344 36.325 14.7031C36.775 15.1719 37 15.7188 37 16.3438V24.7422L43 18.4922V34.5078L37 28.2578V36.6562C37 37.2812 36.775 37.8281 36.325 38.2969C35.875 38.7656 35.35 39 34.75 39H15.25ZM15.25 36.6562H34.75V16.3438H15.25V36.6562ZM15.25 36.6562V16.3438V36.6562Z" fill="black"/>
</svg>
