<svg width="21" height="21" viewBox="0 0 21 21" fill="none" xmlns="http://www.w3.org/2000/svg">
<path d="M10.7078 0.599609C5.18777 0.599609 0.717773 5.07961 0.717773 10.5996C0.717773 16.1196 5.18777 20.5996 10.7078 20.5996C16.2378 20.5996 20.7178 16.1196 20.7178 10.5996C20.7178 5.07961 16.2378 0.599609 10.7078 0.599609ZM17.6378 6.59961H14.6878C14.3678 5.34961 13.9078 4.14961 13.3078 3.03961C15.1478 3.66961 16.6778 4.94961 17.6378 6.59961ZM10.7178 2.63961C11.5478 3.83961 12.1978 5.16961 12.6278 6.59961H8.80777C9.23777 5.16961 9.88777 3.83961 10.7178 2.63961ZM2.97777 12.5996C2.81777 11.9596 2.71777 11.2896 2.71777 10.5996C2.71777 9.90961 2.81777 9.23961 2.97777 8.59961H6.35777C6.27777 9.25961 6.21777 9.91961 6.21777 10.5996C6.21777 11.2796 6.27777 11.9396 6.35777 12.5996H2.97777ZM3.79777 14.5996H6.74777C7.06777 15.8496 7.52777 17.0496 8.12777 18.1596C6.28777 17.5296 4.75777 16.2596 3.79777 14.5996ZM6.74777 6.59961H3.79777C4.75777 4.93961 6.28777 3.66961 8.12777 3.03961C7.52777 4.14961 7.06777 5.34961 6.74777 6.59961ZM10.7178 18.5596C9.88777 17.3596 9.23777 16.0296 8.80777 14.5996H12.6278C12.1978 16.0296 11.5478 17.3596 10.7178 18.5596ZM13.0578 12.5996H8.37777C8.28777 11.9396 8.21777 11.2796 8.21777 10.5996C8.21777 9.91961 8.28777 9.24961 8.37777 8.59961H13.0578C13.1478 9.24961 13.2178 9.91961 13.2178 10.5996C13.2178 11.2796 13.1478 11.9396 13.0578 12.5996ZM13.3078 18.1596C13.9078 17.0496 14.3678 15.8496 14.6878 14.5996H17.6378C16.6778 16.2496 15.1478 17.5296 13.3078 18.1596ZM15.0778 12.5996C15.1578 11.9396 15.2178 11.2796 15.2178 10.5996C15.2178 9.91961 15.1578 9.25961 15.0778 8.59961H18.4578C18.6178 9.23961 18.7178 9.90961 18.7178 10.5996C18.7178 11.2896 18.6178 11.9596 18.4578 12.5996H15.0778Z" fill="#AAAAAA"/>
</svg>
