<svg width="22" height="17" viewBox="0 0 22 17" fill="none" xmlns="http://www.w3.org/2000/svg">
<path d="M14 8.77539C16.21 8.77539 18 6.98539 18 4.77539C18 2.56539 16.21 0.775391 14 0.775391C11.79 0.775391 10 2.56539 10 4.77539C10 6.98539 11.79 8.77539 14 8.77539ZM14 2.77539C15.1 2.77539 16 3.67539 16 4.77539C16 5.87539 15.1 6.77539 14 6.77539C12.9 6.77539 12 5.87539 12 4.77539C12 3.67539 12.9 2.77539 14 2.77539ZM14 10.7754C11.33 10.7754 6 12.1154 6 14.7754V16.7754H22V14.7754C22 12.1154 16.67 10.7754 14 10.7754ZM8 14.7754C8.22 14.0554 11.31 12.7754 14 12.7754C16.7 12.7754 19.8 14.0654 20 14.7754H8ZM5 11.7754V8.77539H8V6.77539H5V3.77539H3V6.77539H0V8.77539H3V11.7754H5Z" fill="#AAAAAA"/>
</svg>
