<svg width="21" height="15" viewBox="0 0 21 15" fill="none" xmlns="http://www.w3.org/2000/svg">
<path d="M17.6978 12.7998H0.717773V14.7998H20.7178V12.7998H17.6978ZM19.7178 11.7998C19.4478 7.7298 16.4678 4.3998 12.5578 3.5898C12.6578 3.3498 12.7178 3.0798 12.7178 2.7998C12.7178 1.6998 11.8178 0.799805 10.7178 0.799805C9.61777 0.799805 8.71777 1.6998 8.71777 2.7998C8.71777 3.0798 8.77777 3.3498 8.87777 3.5898C4.96777 4.3998 1.98777 7.7298 1.71777 11.7998H19.7178ZM10.7178 5.3798C13.6678 5.3798 16.1878 7.2098 17.2178 9.7898H4.21777C5.24777 7.2098 7.76777 5.3798 10.7178 5.3798Z" fill="#AAAAAA"/>
</svg>
