<svg width="20" height="20" viewBox="0 0 20 20" fill="none" xmlns="http://www.w3.org/2000/svg">
<path d="M17.213 10.98C17.253 10.66 17.283 10.34 17.283 10C17.283 9.66 17.253 9.34 17.213 9.02L19.323 7.37C19.513 7.22 19.563 6.95 19.443 6.73L17.443 3.27C17.353 3.11 17.183 3.02 17.003 3.02C16.943 3.02 16.883 3.03 16.833 3.05L14.343 4.05C13.823 3.65 13.263 3.32 12.653 3.07L12.273 0.42C12.243 0.18 12.033 0 11.783 0H7.78304C7.53304 0 7.32304 0.18 7.29304 0.42L6.91304 3.07C6.30304 3.32 5.74304 3.66 5.22304 4.05L2.73304 3.05C2.67304 3.03 2.61304 3.02 2.55304 3.02C2.38304 3.02 2.21304 3.11 2.12304 3.27L0.123043 6.73C-0.00695749 6.95 0.0530426 7.22 0.243043 7.37L2.35304 9.02C2.31304 9.34 2.28304 9.67 2.28304 10C2.28304 10.33 2.31304 10.66 2.35304 10.98L0.243043 12.63C0.0530426 12.78 0.0030425 13.05 0.123043 13.27L2.12304 16.73C2.21304 16.89 2.38304 16.98 2.56304 16.98C2.62304 16.98 2.68304 16.97 2.73304 16.95L5.22304 15.95C5.74304 16.35 6.30304 16.68 6.91304 16.93L7.29304 19.58C7.32304 19.82 7.53304 20 7.78304 20H11.783C12.033 20 12.243 19.82 12.273 19.58L12.653 16.93C13.263 16.68 13.823 16.34 14.343 15.95L16.833 16.95C16.893 16.97 16.953 16.98 17.013 16.98C17.183 16.98 17.353 16.89 17.443 16.73L19.443 13.27C19.563 13.05 19.513 12.78 19.323 12.63L17.213 10.98ZM15.233 9.27C15.273 9.58 15.283 9.79 15.283 10C15.283 10.21 15.263 10.43 15.233 10.73L15.093 11.86L15.983 12.56L17.063 13.4L16.363 14.61L15.093 14.1L14.053 13.68L13.153 14.36C12.723 14.68 12.313 14.92 11.903 15.09L10.843 15.52L10.683 16.65L10.483 18H9.08304L8.89304 16.65L8.73304 15.52L7.67304 15.09C7.24304 14.91 6.84304 14.68 6.44304 14.38L5.53304 13.68L4.47304 14.11L3.20304 14.62L2.50304 13.41L3.58304 12.57L4.47304 11.87L4.33304 10.74C4.30304 10.43 4.28304 10.2 4.28304 10C4.28304 9.8 4.30304 9.57 4.33304 9.27L4.47304 8.14L3.58304 7.44L2.50304 6.6L3.20304 5.39L4.47304 5.9L5.51304 6.32L6.41304 5.64C6.84304 5.32 7.25304 5.08 7.66304 4.91L8.72304 4.48L8.88304 3.35L9.08304 2H10.473L10.663 3.35L10.823 4.48L11.883 4.91C12.313 5.09 12.713 5.32 13.113 5.62L14.023 6.32L15.083 5.89L16.353 5.38L17.053 6.59L15.983 7.44L15.093 8.14L15.233 9.27ZM9.78304 6C7.57304 6 5.78304 7.79 5.78304 10C5.78304 12.21 7.57304 14 9.78304 14C11.993 14 13.783 12.21 13.783 10C13.783 7.79 11.993 6 9.78304 6ZM9.78304 12C8.68304 12 7.78304 11.1 7.78304 10C7.78304 8.9 8.68304 8 9.78304 8C10.883 8 11.783 8.9 11.783 10C11.783 11.1 10.883 12 9.78304 12Z" fill="#AAAAAA"/>
</svg>
