<svg width="14" height="14" viewBox="0 0 14 14" fill="none" xmlns="http://www.w3.org/2000/svg">
<path d="M1.1582 13.75C0.858203 13.75 0.595703 13.6375 0.370703 13.4125C0.145703 13.1875 0.0332031 12.925 0.0332031 12.625V2.81875C0.0332031 2.63125 0.0519532 2.47187 0.0894532 2.34062C0.126953 2.20937 0.195703 2.0875 0.295703 1.975L1.3457 0.55C1.4457 0.4375 1.56133 0.359375 1.69258 0.315625C1.82383 0.271875 1.97695 0.25 2.15195 0.25H11.4145C11.5895 0.25 11.7395 0.271875 11.8645 0.315625C11.9895 0.359375 12.102 0.4375 12.202 0.55L13.2707 1.975C13.3707 2.0875 13.4395 2.20937 13.477 2.34062C13.5145 2.47187 13.5332 2.63125 13.5332 2.81875V12.625C13.5332 12.925 13.4207 13.1875 13.1957 13.4125C12.9707 13.6375 12.7082 13.75 12.4082 13.75H1.1582ZM1.47695 2.2375H12.0707L11.3957 1.375H2.15195L1.47695 2.2375ZM1.1582 3.3625V12.625H12.4082V3.3625H1.1582ZM6.7832 10.9375L9.7082 8.0125L8.9582 7.2625L7.3457 8.875V5.10625H6.2207V8.875L4.6082 7.2625L3.8582 8.0125L6.7832 10.9375ZM1.1582 12.625H12.4082H1.1582Z" fill="#BBBBBB"/>
</svg>
