<svg width="13" height="12" viewBox="0 0 13 12" fill="none" xmlns="http://www.w3.org/2000/svg">
<path d="M2.86957 12C2.76048 12 2.66502 11.95 2.5832 11.85C2.50139 11.75 2.46048 11.6333 2.46048 11.5V10.8H2.2832C1.86502 10.8 1.51048 10.6222 1.21957 10.2667C0.928658 9.91111 0.783203 9.47778 0.783203 8.96667V4.9C0.783203 4.33333 0.924112 3.90278 1.20593 3.60833C1.48775 3.31389 1.81957 3.16667 2.20138 3.16667V1.73333C2.20138 1.22222 2.3332 0.805556 2.59684 0.483333C2.86048 0.161111 3.20139 0 3.61957 0H9.96048C10.3787 0 10.7173 0.161111 10.9764 0.483333C11.2355 0.805556 11.365 1.22222 11.365 1.73333V3.16667C11.7468 3.16667 12.0787 3.31389 12.3605 3.60833C12.6423 3.90278 12.7832 4.33333 12.7832 4.9V8.96667C12.7832 9.47778 12.6377 9.91111 12.3468 10.2667C12.0559 10.6222 11.7014 10.8 11.2832 10.8H11.1059V11.5C11.1059 11.6333 11.065 11.75 10.9832 11.85C10.9014 11.95 10.8059 12 10.6968 12C10.5877 12 10.4923 11.95 10.4105 11.85C10.3287 11.75 10.2877 11.6333 10.2877 11.5V10.8H3.27866V11.5C3.27866 11.6333 3.23775 11.75 3.15593 11.85C3.07411 11.95 2.97866 12 2.86957 12ZM2.2832 9.8H11.2832C11.465 9.8 11.6241 9.71667 11.7605 9.55C11.8968 9.38333 11.965 9.18889 11.965 8.96667V4.9C11.965 4.67778 11.9105 4.5 11.8014 4.36667C11.6923 4.23333 11.5468 4.16667 11.365 4.16667C11.1832 4.16667 11.0377 4.23333 10.9287 4.36667C10.8196 4.5 10.765 4.67778 10.765 4.9V7.83333H2.80138V4.9C2.80138 4.67778 2.74684 4.5 2.63775 4.36667C2.52866 4.23333 2.3832 4.16667 2.20138 4.16667C2.01957 4.16667 1.87411 4.23333 1.76502 4.36667C1.65593 4.5 1.60138 4.67778 1.60138 4.9V8.96667C1.60138 9.18889 1.66957 9.38333 1.80593 9.55C1.94229 9.71667 2.10138 9.8 2.2832 9.8ZM3.61957 6.83333H9.94684V4.9C9.94684 4.55556 10.0105 4.26944 10.1377 4.04167C10.265 3.81389 10.4014 3.63333 10.5468 3.5V1.73333C10.5468 1.51111 10.4923 1.33333 10.3832 1.2C10.2741 1.06667 10.1287 1 9.94684 1H3.61957C3.43775 1 3.29229 1.06667 3.1832 1.2C3.07411 1.33333 3.01957 1.51111 3.01957 1.73333V3.5C3.16502 3.63333 3.30138 3.81389 3.42866 4.04167C3.55593 4.26944 3.61957 4.55556 3.61957 4.9V6.83333Z" fill="#B4ABAB"/>
</svg>
