<svg width="13" height="12" viewBox="0 0 13 12" fill="none" xmlns="http://www.w3.org/2000/svg">
<path d="M8.27935 6.75V11.25C8.27935 11.4625 8.20766 11.6406 8.06428 11.7844C7.9209 11.9281 7.74323 12 7.53128 12H6.03513C5.82317 12 5.64551 11.9281 5.50213 11.7844C5.35874 11.6406 5.28705 11.4625 5.28705 11.25V6.75L0.948219 1.2C0.761201 0.95 0.733148 0.6875 0.864061 0.4125C0.994974 0.1375 1.22251 0 1.54668 0H12.0197C12.3439 0 12.5714 0.1375 12.7023 0.4125C12.8333 0.6875 12.8052 0.95 12.6182 1.2L8.27935 6.75ZM6.7832 6.825L11.2717 1.125H2.29475L6.7832 6.825Z" fill="#BDBDBD"/>
</svg>
