<svg width="12" height="8" viewBox="0 0 12 8" fill="none" xmlns="http://www.w3.org/2000/svg">
<path d="M2.96314 1.2V0H11.5766V1.2H2.96314ZM2.96314 4.6V3.4H11.5766V4.6H2.96314ZM2.96314 8V6.8H11.5766V8H2.96314ZM0.770609 1.2C0.634881 1.2 0.522644 1.14333 0.433899 1.03C0.345154 0.916667 0.300781 0.773333 0.300781 0.6C0.300781 0.426667 0.345154 0.283333 0.433899 0.17C0.522644 0.0566667 0.634881 0 0.770609 0C0.906337 0 1.01857 0.0566667 1.10732 0.17C1.19606 0.283333 1.24044 0.426667 1.24044 0.6C1.24044 0.773333 1.19606 0.916667 1.10732 1.03C1.01857 1.14333 0.906337 1.2 0.770609 1.2ZM0.770609 4.6C0.634881 4.6 0.522644 4.54333 0.433899 4.43C0.345154 4.31667 0.300781 4.17333 0.300781 4C0.300781 3.82667 0.345154 3.68333 0.433899 3.57C0.522644 3.45667 0.634881 3.4 0.770609 3.4C0.906337 3.4 1.01857 3.45667 1.10732 3.57C1.19606 3.68333 1.24044 3.82667 1.24044 4C1.24044 4.17333 1.19606 4.31667 1.10732 4.43C1.01857 4.54333 0.906337 4.6 0.770609 4.6ZM0.770609 8C0.634881 8 0.522644 7.94333 0.433899 7.83C0.345154 7.71667 0.300781 7.57333 0.300781 7.4C0.300781 7.22667 0.345154 7.08333 0.433899 6.97C0.522644 6.85667 0.634881 6.8 0.770609 6.8C0.906337 6.8 1.01857 6.85667 1.10732 6.97C1.19606 7.08333 1.24044 7.22667 1.24044 7.4C1.24044 7.57333 1.19606 7.71667 1.10732 7.83C1.01857 7.94333 0.906337 8 0.770609 8Z" fill="#ACAAAA"/>
</svg>
