<svg width="10" height="10" viewBox="0 0 10 10" fill="none" xmlns="http://www.w3.org/2000/svg">
<path d="M7.8707 10C7.47904 10 7.14362 9.86042 6.86445 9.58125C6.58529 9.30208 6.4457 8.96667 6.4457 8.575C6.4457 8.51667 6.45195 8.44792 6.46445 8.36875C6.47695 8.28958 6.4957 8.21667 6.5207 8.15L2.7332 5.95C2.6082 6.09167 2.45404 6.20625 2.2707 6.29375C2.08737 6.38125 1.89987 6.425 1.7082 6.425C1.31654 6.425 0.98112 6.28542 0.701953 6.00625C0.422787 5.72708 0.283203 5.39167 0.283203 5C0.283203 4.6 0.422787 4.2625 0.701953 3.9875C0.98112 3.7125 1.31654 3.575 1.7082 3.575C1.89987 3.575 2.0832 3.6125 2.2582 3.6875C2.4332 3.7625 2.59154 3.87083 2.7332 4.0125L6.5207 1.8375C6.4957 1.77917 6.47695 1.7125 6.46445 1.6375C6.45195 1.5625 6.4457 1.49167 6.4457 1.425C6.4457 1.025 6.58529 0.6875 6.86445 0.4125C7.14362 0.1375 7.47904 0 7.8707 0C8.2707 0 8.6082 0.1375 8.8832 0.4125C9.1582 0.6875 9.2957 1.025 9.2957 1.425C9.2957 1.81667 9.1582 2.15208 8.8832 2.43125C8.6082 2.71042 8.2707 2.85 7.8707 2.85C7.67904 2.85 7.49362 2.81875 7.31445 2.75625C7.13529 2.69375 6.9832 2.59167 6.8582 2.45L3.0707 4.55C3.08737 4.61667 3.10195 4.69375 3.11445 4.78125C3.12695 4.86875 3.1332 4.94167 3.1332 5C3.1332 5.05833 3.12695 5.12083 3.11445 5.1875C3.10195 5.25417 3.08737 5.32083 3.0707 5.3875L6.8582 7.5375C6.9832 7.42083 7.12904 7.32708 7.2957 7.25625C7.46237 7.18542 7.65404 7.15 7.8707 7.15C8.2707 7.15 8.6082 7.2875 8.8832 7.5625C9.1582 7.8375 9.2957 8.175 9.2957 8.575C9.2957 8.96667 9.1582 9.30208 8.8832 9.58125C8.6082 9.86042 8.2707 10 7.8707 10ZM7.8707 2.1C8.06237 2.1 8.22279 2.03542 8.35195 1.90625C8.48112 1.77708 8.5457 1.61667 8.5457 1.425C8.5457 1.23333 8.48112 1.07292 8.35195 0.94375C8.22279 0.814583 8.06237 0.75 7.8707 0.75C7.67904 0.75 7.51862 0.814583 7.38945 0.94375C7.26029 1.07292 7.1957 1.23333 7.1957 1.425C7.1957 1.61667 7.26029 1.77708 7.38945 1.90625C7.51862 2.03542 7.67904 2.1 7.8707 2.1ZM1.7082 5.675C1.89987 5.675 2.06029 5.61042 2.18945 5.48125C2.31862 5.35208 2.3832 5.19167 2.3832 5C2.3832 4.80833 2.31862 4.64792 2.18945 4.51875C2.06029 4.38958 1.89987 4.325 1.7082 4.325C1.51654 4.325 1.35612 4.38958 1.22695 4.51875C1.09779 4.64792 1.0332 4.80833 1.0332 5C1.0332 5.19167 1.09779 5.35208 1.22695 5.48125C1.35612 5.61042 1.51654 5.675 1.7082 5.675ZM7.8707 9.25C8.06237 9.25 8.22279 9.18542 8.35195 9.05625C8.48112 8.92708 8.5457 8.76667 8.5457 8.575C8.5457 8.38333 8.48112 8.22292 8.35195 8.09375C8.22279 7.96458 8.06237 7.9 7.8707 7.9C7.67904 7.9 7.51862 7.96458 7.38945 8.09375C7.26029 8.22292 7.1957 8.38333 7.1957 8.575C7.1957 8.76667 7.26029 8.92708 7.38945 9.05625C7.51862 9.18542 7.67904 9.25 7.8707 9.25Z" fill="#A3A1A1"/>
</svg>
