<svg width="19" height="18" viewBox="0 0 19 18" fill="none" xmlns="http://www.w3.org/2000/svg">
<path d="M15.9976 17.975C14.0112 17.975 12.1039 17.5875 10.2756 16.8125C8.44724 16.0375 6.82959 14.9625 5.4226 13.5875C4.01562 12.2125 2.89455 10.5875 2.05938 8.7125C1.22422 6.8375 0.806641 4.8 0.806641 2.6C0.806641 1.86667 0.990978 1.25 1.35965 0.75C1.72833 0.25 2.25124 0 2.9284 0H5.02759C5.43389 0 5.7499 0.129167 5.97562 0.3875C6.20133 0.645833 6.35934 1.01667 6.44963 1.5C6.53991 2 6.64149 2.51667 6.75435 3.05C6.86721 3.58333 6.99888 4.05833 7.14936 4.475C7.28479 4.825 7.32617 5.15417 7.2735 5.4625C7.22083 5.77083 7.06659 6.06667 6.81078 6.35L5.05017 8.25C5.77247 9.41667 6.77692 10.5458 8.06352 11.6375C9.35012 12.7292 10.6029 13.475 11.8217 13.875L12.8601 11.55C12.9955 11.25 13.1685 11.0458 13.3792 10.9375C13.5899 10.8292 13.8833 10.7917 14.2595 10.825C14.6508 10.8583 15.0382 10.875 15.422 10.875C15.8057 10.875 16.2383 10.8583 16.7199 10.825C17.1713 10.7917 17.5513 10.925 17.8597 11.225C18.1682 11.525 18.3751 12.0083 18.4805 12.675L18.8416 14.925C18.8416 14.925 18.8567 15.0667 18.8868 15.35C18.8868 16.05 18.6272 16.6625 18.108 17.1875C17.5889 17.7125 16.8854 17.975 15.9976 17.975Z" fill="#7A7373"/>
</svg>
