<svg width="110" height="40" viewBox="0 0 110 40" fill="none" xmlns="http://www.w3.org/2000/svg">
<path d="M0.5 8C0.5 3.85786 3.85786 0.5 8 0.5H102C106.142 0.5 109.5 3.85786 109.5 8V32C109.5 36.1421 106.142 39.5 102 39.5H8C3.85786 39.5 0.5 36.1421 0.5 32V8Z" fill="white" stroke="#38D8A2"/>
<path d="M56.7602 16.278V19.54H60.3162V20.59H56.7602V23.95H60.7362V25H55.4862V15.228H60.7362V16.278H56.7602ZM62.1879 21.136C62.1879 20.352 62.3466 19.666 62.6639 19.078C62.9813 18.4807 63.4153 18.0187 63.9659 17.692C64.5259 17.3653 65.1513 17.202 65.8419 17.202C66.4393 17.202 66.9946 17.342 67.5079 17.622C68.0213 17.8927 68.4133 18.252 68.6839 18.7V14.64H69.9719V25H68.6839V23.558C68.4319 24.0153 68.0586 24.3933 67.5639 24.692C67.0693 24.9813 66.4906 25.126 65.8279 25.126C65.1466 25.126 64.5259 24.958 63.9659 24.622C63.4153 24.286 62.9813 23.8147 62.6639 23.208C62.3466 22.6013 62.1879 21.9107 62.1879 21.136ZM68.6839 21.15C68.6839 20.5713 68.5673 20.0673 68.3339 19.638C68.1006 19.2087 67.7833 18.882 67.3819 18.658C66.9899 18.4247 66.5559 18.308 66.0799 18.308C65.6039 18.308 65.1699 18.42 64.7779 18.644C64.3859 18.868 64.0733 19.1947 63.8399 19.624C63.6066 20.0533 63.4899 20.5573 63.4899 21.136C63.4899 21.724 63.6066 22.2373 63.8399 22.676C64.0733 23.1053 64.3859 23.4367 64.7779 23.67C65.1699 23.894 65.6039 24.006 66.0799 24.006C66.5559 24.006 66.9899 23.894 67.3819 23.67C67.7833 23.4367 68.1006 23.1053 68.3339 22.676C68.5673 22.2373 68.6839 21.7287 68.6839 21.15ZM72.7829 16.082C72.5402 16.082 72.3349 15.998 72.1669 15.83C71.9989 15.662 71.9149 15.4567 71.9149 15.214C71.9149 14.9713 71.9989 14.766 72.1669 14.598C72.3349 14.43 72.5402 14.346 72.7829 14.346C73.0162 14.346 73.2122 14.43 73.3709 14.598C73.5389 14.766 73.6229 14.9713 73.6229 15.214C73.6229 15.4567 73.5389 15.662 73.3709 15.83C73.2122 15.998 73.0162 16.082 72.7829 16.082ZM73.3989 17.328V25H72.1249V17.328H73.3989ZM77.1242 18.378V22.9C77.1242 23.2733 77.2035 23.5393 77.3622 23.698C77.5209 23.8473 77.7962 23.922 78.1882 23.922H79.1262V25H77.9782C77.2689 25 76.7369 24.8367 76.3822 24.51C76.0275 24.1833 75.8502 23.6467 75.8502 22.9V18.378H74.8562V17.328H75.8502V15.396H77.1242V17.328H79.1262V18.378H77.1242Z" fill="#38D8A2"/>
<path d="M43.25 20.525L41.475 18.75L42.2 18.025C42.3333 17.8917 42.5083 17.825 42.725 17.825C42.9417 17.825 43.1167 17.8917 43.25 18.025L43.975 18.75C44.1083 18.8833 44.175 19.0583 44.175 19.275C44.175 19.4917 44.1083 19.6667 43.975 19.8L43.25 20.525ZM35 27V25.225L40.4 19.825L42.175 21.6L36.775 27H35ZM26 21.75V20.25H33.5V21.75H26ZM26 17.625V16.125H37.75V17.625H26ZM26 13.5V12H37.75V13.5H26Z" fill="#38D8A2"/>
</svg>
