<svg width="27" height="28" viewBox="0 0 27 28" fill="none" xmlns="http://www.w3.org/2000/svg">
<path d="M22.0022 0.933105H4.91326C2.29143 0.933105 0.166016 3.04701 0.166016 5.65464V22.6511C0.166016 25.2587 2.29143 27.3726 4.91326 27.3726H22.0022C24.624 27.3726 26.7495 25.2587 26.7495 22.6511V5.65464C26.7495 3.04701 24.624 0.933105 22.0022 0.933105Z" fill="#117BB8"/>
<path d="M10.1816 10.0361H7.42969V18.8717H10.1816V10.0361Z" fill="white"/>
<path d="M8.7914 8.87669C9.11689 8.88001 9.43603 8.78705 9.70829 8.60962C9.98055 8.43218 10.1936 8.17828 10.3205 7.88016C10.4474 7.58203 10.4823 7.25314 10.4209 6.93523C10.3594 6.61733 10.2044 6.32475 9.97538 6.09467C9.7464 5.86458 9.45382 5.70736 9.13482 5.64298C8.81582 5.57859 8.48477 5.60995 8.18372 5.73306C7.88266 5.85617 7.62519 6.06547 7.44399 6.3344C7.26279 6.60333 7.16604 6.91976 7.16603 7.24348C7.16453 7.6742 7.33476 8.08794 7.63942 8.39407C7.94408 8.7002 8.35832 8.87375 8.7914 8.87669Z" fill="white"/>
<path d="M14.583 14.2172C14.583 12.9742 15.1434 12.2328 16.2644 12.2328C17.2732 12.2328 17.7609 12.9463 17.7609 14.2172V18.8551H20.4848V13.2808C20.4848 10.9172 19.1396 9.7689 17.2564 9.7689C16.721 9.76091 16.1926 9.8913 15.723 10.1473C15.2534 10.4033 14.8586 10.7762 14.5773 11.2294V10.0365H11.9375V18.8718H14.5773L14.583 14.2172Z" fill="white"/>
</svg>
