<svg width="28" height="28" viewBox="0 0 28 28" fill="none" xmlns="http://www.w3.org/2000/svg">
<path d="M22.4182 0.933105H5.32928C2.70745 0.933105 0.582031 3.04701 0.582031 5.65464V22.6511C0.582031 25.2587 2.70745 27.3726 5.32928 27.3726H22.4182C25.0401 27.3726 27.1655 25.2587 27.1655 22.6511V5.65464C27.1655 3.04701 25.0401 0.933105 22.4182 0.933105Z" fill="#CD2129"/>
<path d="M9.62189 15.3876C9.66603 15.4103 9.71495 15.4222 9.76462 15.4224C9.81429 15.4226 9.8633 15.4111 9.90762 15.3888C9.95194 15.3665 9.9903 15.334 10.0196 15.2941C10.0488 15.2541 10.0681 15.2079 10.0759 15.1591C10.1151 15.003 10.216 14.6016 10.2608 14.4344C10.2957 14.3475 10.3014 14.2518 10.2771 14.1614C10.2529 14.071 10.2 13.9908 10.1263 13.9327C9.71539 13.437 9.50373 12.8074 9.53222 12.1656C9.52477 11.5843 9.63673 11.0077 9.86125 10.471C10.0858 9.93424 10.4181 9.44877 10.8379 9.04429C11.2577 8.63981 11.7561 8.32485 12.3026 8.1187C12.8491 7.91255 13.4321 7.81955 14.016 7.8454C16.4541 7.8454 17.788 9.32262 17.788 11.3016C17.788 13.8993 16.6335 16.0956 14.9128 16.0956C14.6938 16.1066 14.4753 16.0664 14.2748 15.9781C14.0743 15.8898 13.8975 15.756 13.7584 15.5874C13.6194 15.4187 13.5221 15.22 13.4744 15.0072C13.4267 14.7943 13.4298 14.5733 13.4836 14.3619C13.7582 13.2192 14.2851 11.9816 14.2851 11.1566C14.3059 10.9858 14.2897 10.8126 14.2376 10.6485C14.1854 10.4845 14.0985 10.3335 13.9827 10.2056C13.867 10.0778 13.725 9.97612 13.5664 9.90747C13.4077 9.83881 13.2362 9.80476 13.0632 9.80761C12.0936 9.80761 11.3145 10.8054 11.3145 12.1377C11.3081 12.6281 11.4055 13.1143 11.6004 13.5648L10.4346 18.4815C10.2305 19.6144 10.2211 20.7736 10.4066 21.9097C10.4113 21.9328 10.4226 21.954 10.4391 21.9708C10.4556 21.9876 10.4766 21.9994 10.4996 22.0047C10.5227 22.01 10.5468 22.0086 10.569 22.0006C10.5913 21.9927 10.6107 21.9786 10.6251 21.9599C11.3417 21.0789 11.8958 20.0786 12.2617 19.0055C12.3738 18.6097 12.9007 16.5304 12.9007 16.5304C13.1493 16.8894 13.4853 17.18 13.8773 17.3749C14.2694 17.5699 14.7046 17.6629 15.1426 17.6453C18.0571 17.6453 20.0356 15.003 20.0356 11.4688C20.0356 8.79305 17.7544 6.30127 14.2963 6.30127C9.9862 6.30127 7.81155 9.37279 7.81155 11.937C7.76111 13.4867 8.35521 14.8636 9.62189 15.3876Z" fill="white"/>
</svg>
