<svg width="58" height="58" viewBox="0 0 58 58" fill="none" xmlns="http://www.w3.org/2000/svg">
<circle cx="29" cy="29" r="29" fill="#38D8A2"/>
<path d="M36.475 24.825V22.675H34.325V21.175H36.475V19H37.975V21.175H40.15V22.675H37.975V24.825H36.475ZM19.5 39.175C19.1 39.175 18.75 39.025 18.45 38.725C18.15 38.425 18 38.075 18 37.675V24.85C18 24.4667 18.15 24.1208 18.45 23.8125C18.75 23.5042 19.1 23.35 19.5 23.35H23.175L25 21.175H32V22.675H25.7L23.875 24.85H19.5V37.675H36.5V27.175H38V37.675C38 38.075 37.8458 38.425 37.5375 38.725C37.2292 39.025 36.8833 39.175 36.5 39.175H19.5ZM28 35.525C29.2 35.525 30.2083 35.1167 31.025 34.3C31.8417 33.4833 32.25 32.4667 32.25 31.25C32.25 30.05 31.8417 29.0458 31.025 28.2375C30.2083 27.4292 29.2 27.025 28 27.025C26.7833 27.025 25.7708 27.4292 24.9625 28.2375C24.1542 29.0458 23.75 30.05 23.75 31.25C23.75 32.4667 24.1542 33.4833 24.9625 34.3C25.7708 35.1167 26.7833 35.525 28 35.525ZM28 34.025C27.2 34.025 26.5417 33.7625 26.025 33.2375C25.5083 32.7125 25.25 32.05 25.25 31.25C25.25 30.4667 25.5083 29.8167 26.025 29.3C26.5417 28.7833 27.2 28.525 28 28.525C28.7833 28.525 29.4375 28.7833 29.9625 29.3C30.4875 29.8167 30.75 30.4667 30.75 31.25C30.75 32.05 30.4875 32.7125 29.9625 33.2375C29.4375 33.7625 28.7833 34.025 28 34.025Z" fill="white"/>
</svg>
