<svg width="27" height="28" viewBox="0 0 27 28" fill="none" xmlns="http://www.w3.org/2000/svg">
<path d="M21.8362 0.933105H4.74724C2.12541 0.933105 0 3.04701 0 5.65464V22.6511C0 25.2587 2.12541 27.3726 4.74724 27.3726H21.8362C24.458 27.3726 26.5834 25.2587 26.5834 22.6511V5.65464C26.5834 3.04701 24.458 0.933105 21.8362 0.933105Z" fill="#29A9E1"/>
<path d="M6.21094 18.5708C7.48649 19.3842 8.96239 19.833 10.4772 19.8682C11.992 19.9033 13.4873 19.5235 14.7997 18.7702C16.112 18.0169 17.1907 16.9191 17.9179 15.597C18.645 14.2749 18.9926 12.7793 18.9226 11.2739C19.4937 10.8678 19.9856 10.3615 20.3742 9.77999C19.84 10.0144 19.273 10.1667 18.6928 10.2315C19.3005 9.8735 19.7552 9.30627 19.9707 8.63724C19.4004 8.9722 18.7767 9.20786 18.1267 9.33404C17.6881 8.87232 17.1089 8.56699 16.4786 8.46516C15.8482 8.36333 15.2016 8.47066 14.6387 8.77059C14.0757 9.07052 13.6276 9.54637 13.3636 10.1247C13.0995 10.7031 13.0342 11.3518 13.1777 11.9707C12.0223 11.9136 10.8919 11.6156 9.85971 11.0961C8.82755 10.5766 7.91669 9.84709 7.18617 8.95498C6.81521 9.59153 6.70203 10.3448 6.86966 11.0614C7.0373 11.778 7.47315 12.4041 8.08854 12.8125C7.6268 12.7974 7.1753 12.6732 6.77141 12.4501C6.76183 13.1233 6.98904 13.7786 7.41376 14.3028C7.83848 14.827 8.43401 15.1871 9.09739 15.3209C8.66965 15.436 8.22124 15.4532 7.78588 15.3711C7.97323 15.945 8.33566 16.4466 8.82281 16.8063C9.30996 17.1659 9.89764 17.3657 10.5042 17.3779C9.28855 18.3256 7.74441 18.7546 6.21094 18.5708Z" fill="white"/>
</svg>
