<svg width="110" height="40" viewBox="0 0 110 40" fill="none" xmlns="http://www.w3.org/2000/svg">
<path d="M8 0.5H102C106.142 0.5 109.5 3.85786 109.5 8V32C109.5 36.1421 106.142 39.5 102 39.5H8C3.85786 39.5 0.5 36.1421 0.5 32V8C0.5 3.85786 3.85786 0.5 8 0.5Z" fill="#38D8A2" stroke="white"/>
<path d="M46.5183 16.242V22.416C46.5183 23.284 46.7283 23.928 47.1483 24.348C47.5777 24.768 48.1703 24.978 48.9263 24.978C49.673 24.978 50.2563 24.768 50.6763 24.348C51.1057 23.928 51.3203 23.284 51.3203 22.416V16.242H52.5943V22.402C52.5943 23.214 52.431 23.9 52.1043 24.46C51.7777 25.0107 51.3343 25.4213 50.7743 25.692C50.2237 25.9627 49.603 26.098 48.9123 26.098C48.2217 26.098 47.5963 25.9627 47.0363 25.692C46.4857 25.4213 46.047 25.0107 45.7203 24.46C45.403 23.9 45.2443 23.214 45.2443 22.402V16.242H46.5183ZM55.9936 19.742C56.2456 19.3033 56.6189 18.9393 57.1136 18.65C57.6176 18.3513 58.2009 18.202 58.8636 18.202C59.5449 18.202 60.1609 18.3653 60.7116 18.692C61.2716 19.0187 61.7103 19.4807 62.0276 20.078C62.3449 20.666 62.5036 21.352 62.5036 22.136C62.5036 22.9107 62.3449 23.6013 62.0276 24.208C61.7103 24.8147 61.2716 25.286 60.7116 25.622C60.1609 25.958 59.5449 26.126 58.8636 26.126C58.2103 26.126 57.6316 25.9813 57.1276 25.692C56.6329 25.3933 56.2549 25.0247 55.9936 24.586V29.64H54.7196V18.328H55.9936V19.742ZM61.2016 22.136C61.2016 21.5573 61.0849 21.0533 60.8516 20.624C60.6183 20.1947 60.3009 19.868 59.8996 19.644C59.5076 19.42 59.0736 19.308 58.5976 19.308C58.1309 19.308 57.6969 19.4247 57.2956 19.658C56.9036 19.882 56.5863 20.2133 56.3436 20.652C56.1103 21.0813 55.9936 21.5807 55.9936 22.15C55.9936 22.7287 56.1103 23.2373 56.3436 23.676C56.5863 24.1053 56.9036 24.4367 57.2956 24.67C57.6969 24.894 58.1309 25.006 58.5976 25.006C59.0736 25.006 59.5076 24.894 59.8996 24.67C60.3009 24.4367 60.6183 24.1053 60.8516 23.676C61.0849 23.2373 61.2016 22.724 61.2016 22.136ZM63.7045 22.136C63.7045 21.352 63.8632 20.666 64.1805 20.078C64.4979 19.4807 64.9319 19.0187 65.4825 18.692C66.0425 18.3653 66.6679 18.202 67.3585 18.202C67.9559 18.202 68.5112 18.342 69.0245 18.622C69.5379 18.8927 69.9299 19.252 70.2005 19.7V15.64H71.4885V26H70.2005V24.558C69.9485 25.0153 69.5752 25.3933 69.0805 25.692C68.5859 25.9813 68.0072 26.126 67.3445 26.126C66.6632 26.126 66.0425 25.958 65.4825 25.622C64.9319 25.286 64.4979 24.8147 64.1805 24.208C63.8632 23.6013 63.7045 22.9107 63.7045 22.136ZM70.2005 22.15C70.2005 21.5713 70.0839 21.0673 69.8505 20.638C69.6172 20.2087 69.2999 19.882 68.8985 19.658C68.5065 19.4247 68.0725 19.308 67.5965 19.308C67.1205 19.308 66.6865 19.42 66.2945 19.644C65.9025 19.868 65.5899 20.1947 65.3565 20.624C65.1232 21.0533 65.0065 21.5573 65.0065 22.136C65.0065 22.724 65.1232 23.2373 65.3565 23.676C65.5899 24.1053 65.9025 24.4367 66.2945 24.67C66.6865 24.894 67.1205 25.006 67.5965 25.006C68.0725 25.006 68.5065 24.894 68.8985 24.67C69.2999 24.4367 69.6172 24.1053 69.8505 23.676C70.0839 23.2373 70.2005 22.7287 70.2005 22.15ZM73.1655 22.136C73.1655 21.352 73.3241 20.666 73.6415 20.078C73.9588 19.4807 74.3928 19.0187 74.9435 18.692C75.5035 18.3653 76.1241 18.202 76.8055 18.202C77.4775 18.202 78.0608 18.3467 78.5555 18.636C79.0501 18.9253 79.4188 19.2893 79.6615 19.728V18.328H80.9495V26H79.6615V24.572C79.4095 25.02 79.0315 25.3933 78.5275 25.692C78.0328 25.9813 77.4541 26.126 76.7915 26.126C76.1101 26.126 75.4941 25.958 74.9435 25.622C74.3928 25.286 73.9588 24.8147 73.6415 24.208C73.3241 23.6013 73.1655 22.9107 73.1655 22.136ZM79.6615 22.15C79.6615 21.5713 79.5448 21.0673 79.3115 20.638C79.0781 20.2087 78.7608 19.882 78.3595 19.658C77.9675 19.4247 77.5335 19.308 77.0575 19.308C76.5815 19.308 76.1475 19.42 75.7555 19.644C75.3635 19.868 75.0508 20.1947 74.8175 20.624C74.5841 21.0533 74.4675 21.5573 74.4675 22.136C74.4675 22.724 74.5841 23.2373 74.8175 23.676C75.0508 24.1053 75.3635 24.4367 75.7555 24.67C76.1475 24.894 76.5815 25.006 77.0575 25.006C77.5335 25.006 77.9675 24.894 78.3595 24.67C78.7608 24.4367 79.0781 24.1053 79.3115 23.676C79.5448 23.2373 79.6615 22.7287 79.6615 22.15ZM84.6564 19.378V23.9C84.6564 24.2733 84.7357 24.5393 84.8944 24.698C85.0531 24.8473 85.3284 24.922 85.7204 24.922H86.6584V26H85.5104C84.8011 26 84.2691 25.8367 83.9144 25.51C83.5597 25.1833 83.3824 24.6467 83.3824 23.9V19.378H82.3884V18.328H83.3824V16.396H84.6564V18.328H86.6584V19.378H84.6564ZM95.202 21.87C95.202 22.1127 95.188 22.3693 95.16 22.64H89.028C89.0747 23.396 89.3314 23.9887 89.798 24.418C90.274 24.838 90.848 25.048 91.52 25.048C92.0707 25.048 92.528 24.922 92.892 24.67C93.2654 24.4087 93.5267 24.0633 93.676 23.634H95.048C94.8427 24.3713 94.432 24.9733 93.816 25.44C93.2 25.8973 92.4347 26.126 91.52 26.126C90.792 26.126 90.1387 25.9627 89.56 25.636C88.9907 25.3093 88.5427 24.8473 88.216 24.25C87.8894 23.6433 87.726 22.9433 87.726 22.15C87.726 21.3567 87.8847 20.6613 88.202 20.064C88.5194 19.4667 88.9627 19.0093 89.532 18.692C90.1107 18.3653 90.7734 18.202 91.52 18.202C92.248 18.202 92.892 18.3607 93.452 18.678C94.012 18.9953 94.4414 19.434 94.74 19.994C95.048 20.5447 95.202 21.17 95.202 21.87ZM93.886 21.604C93.886 21.1187 93.7787 20.7033 93.564 20.358C93.3494 20.0033 93.0554 19.7373 92.682 19.56C92.318 19.3733 91.912 19.28 91.464 19.28C90.82 19.28 90.2694 19.4853 89.812 19.896C89.364 20.3067 89.1074 20.876 89.042 21.604H93.886Z" fill="white"/>
<path d="M32.25 22.525L30.475 20.75L31.2 20.025C31.3333 19.8917 31.5083 19.825 31.725 19.825C31.9417 19.825 32.1167 19.8917 32.25 20.025L32.975 20.75C33.1083 20.8833 33.175 21.0583 33.175 21.275C33.175 21.4917 33.1083 21.6667 32.975 21.8L32.25 22.525ZM24 29V27.225L29.4 21.825L31.175 23.6L25.775 29H24ZM15 23.75V22.25H22.5V23.75H15ZM15 19.625V18.125H26.75V19.625H15ZM15 15.5V14H26.75V15.5H15Z" fill="white"/>
</svg>
